%TF.GenerationSoftware,KiCad,Pcbnew,9.0.3*%
%TF.CreationDate,2025-08-18T21:06:09-04:00*%
%TF.ProjectId,robotbrain,726f626f-7462-4726-9169-6e2e6b696361,rev?*%
%TF.SameCoordinates,Original*%
%TF.FileFunction,Paste,Top*%
%TF.FilePolarity,Positive*%
%FSLAX46Y46*%
G04 Gerber Fmt 4.6, Leading zero omitted, Abs format (unit mm)*
G04 Created by KiCad (PCBNEW 9.0.3) date 2025-08-18 21:06:09*
%MOMM*%
%LPD*%
G01*
G04 APERTURE LIST*
G04 Aperture macros list*
%AMRoundRect*
0 Rectangle with rounded corners*
0 $1 Rounding radius*
0 $2 $3 $4 $5 $6 $7 $8 $9 X,Y pos of 4 corners*
0 Add a 4 corners polygon primitive as box body*
4,1,4,$2,$3,$4,$5,$6,$7,$8,$9,$2,$3,0*
0 Add four circle primitives for the rounded corners*
1,1,$1+$1,$2,$3*
1,1,$1+$1,$4,$5*
1,1,$1+$1,$6,$7*
1,1,$1+$1,$8,$9*
0 Add four rect primitives between the rounded corners*
20,1,$1+$1,$2,$3,$4,$5,0*
20,1,$1+$1,$4,$5,$6,$7,0*
20,1,$1+$1,$6,$7,$8,$9,0*
20,1,$1+$1,$8,$9,$2,$3,0*%
G04 Aperture macros list end*
%ADD10C,0.010000*%
%ADD11R,2.800000X1.000000*%
%ADD12RoundRect,0.250000X0.475000X-0.250000X0.475000X0.250000X-0.475000X0.250000X-0.475000X-0.250000X0*%
%ADD13RoundRect,0.250000X-0.250000X-0.475000X0.250000X-0.475000X0.250000X0.475000X-0.250000X0.475000X0*%
%ADD14R,0.900000X0.900000*%
%ADD15R,1.500000X0.900000*%
%ADD16R,0.900000X1.500000*%
%ADD17RoundRect,0.123750X-1.771250X-0.371250X1.771250X-0.371250X1.771250X0.371250X-1.771250X0.371250X0*%
%ADD18RoundRect,0.250000X0.450000X-0.262500X0.450000X0.262500X-0.450000X0.262500X-0.450000X-0.262500X0*%
%ADD19RoundRect,0.250000X-0.450000X0.262500X-0.450000X-0.262500X0.450000X-0.262500X0.450000X0.262500X0*%
%ADD20R,0.375000X0.350000*%
%ADD21R,0.350000X0.375000*%
%ADD22RoundRect,0.073750X-0.961250X-0.221250X0.961250X-0.221250X0.961250X0.221250X-0.961250X0.221250X0*%
G04 APERTURE END LIST*
D10*
%TO.C,U6*%
X126065000Y-106030000D02*
X124615000Y-106030000D01*
X124615000Y-104770000D01*
X126065000Y-104770000D01*
X126065000Y-106030000D01*
G36*
X126065000Y-106030000D02*
G01*
X124615000Y-106030000D01*
X124615000Y-104770000D01*
X126065000Y-104770000D01*
X126065000Y-106030000D01*
G37*
X126065000Y-107830000D02*
X124615000Y-107830000D01*
X124615000Y-106570000D01*
X126065000Y-106570000D01*
X126065000Y-107830000D01*
G36*
X126065000Y-107830000D02*
G01*
X124615000Y-107830000D01*
X124615000Y-106570000D01*
X126065000Y-106570000D01*
X126065000Y-107830000D01*
G37*
X126065000Y-109630000D02*
X124615000Y-109630000D01*
X124615000Y-108370000D01*
X126065000Y-108370000D01*
X126065000Y-109630000D01*
G36*
X126065000Y-109630000D02*
G01*
X124615000Y-109630000D01*
X124615000Y-108370000D01*
X126065000Y-108370000D01*
X126065000Y-109630000D01*
G37*
X126065000Y-111430000D02*
X124615000Y-111430000D01*
X124615000Y-110170000D01*
X126065000Y-110170000D01*
X126065000Y-111430000D01*
G36*
X126065000Y-111430000D02*
G01*
X124615000Y-111430000D01*
X124615000Y-110170000D01*
X126065000Y-110170000D01*
X126065000Y-111430000D01*
G37*
X126065000Y-113230000D02*
X124615000Y-113230000D01*
X124615000Y-111970000D01*
X126065000Y-111970000D01*
X126065000Y-113230000D01*
G36*
X126065000Y-113230000D02*
G01*
X124615000Y-113230000D01*
X124615000Y-111970000D01*
X126065000Y-111970000D01*
X126065000Y-113230000D01*
G37*
X126065000Y-115030000D02*
X124615000Y-115030000D01*
X124615000Y-113770000D01*
X126065000Y-113770000D01*
X126065000Y-115030000D01*
G36*
X126065000Y-115030000D02*
G01*
X124615000Y-115030000D01*
X124615000Y-113770000D01*
X126065000Y-113770000D01*
X126065000Y-115030000D01*
G37*
X128605000Y-106030000D02*
X127155000Y-106030000D01*
X127155000Y-104770000D01*
X128605000Y-104770000D01*
X128605000Y-106030000D01*
G36*
X128605000Y-106030000D02*
G01*
X127155000Y-106030000D01*
X127155000Y-104770000D01*
X128605000Y-104770000D01*
X128605000Y-106030000D01*
G37*
X128605000Y-107830000D02*
X127155000Y-107830000D01*
X127155000Y-106570000D01*
X128605000Y-106570000D01*
X128605000Y-107830000D01*
G36*
X128605000Y-107830000D02*
G01*
X127155000Y-107830000D01*
X127155000Y-106570000D01*
X128605000Y-106570000D01*
X128605000Y-107830000D01*
G37*
X128605000Y-109630000D02*
X127155000Y-109630000D01*
X127155000Y-108370000D01*
X128605000Y-108370000D01*
X128605000Y-109630000D01*
G36*
X128605000Y-109630000D02*
G01*
X127155000Y-109630000D01*
X127155000Y-108370000D01*
X128605000Y-108370000D01*
X128605000Y-109630000D01*
G37*
X128605000Y-111430000D02*
X127155000Y-111430000D01*
X127155000Y-110170000D01*
X128605000Y-110170000D01*
X128605000Y-111430000D01*
G36*
X128605000Y-111430000D02*
G01*
X127155000Y-111430000D01*
X127155000Y-110170000D01*
X128605000Y-110170000D01*
X128605000Y-111430000D01*
G37*
X128605000Y-113230000D02*
X127155000Y-113230000D01*
X127155000Y-111970000D01*
X128605000Y-111970000D01*
X128605000Y-113230000D01*
G36*
X128605000Y-113230000D02*
G01*
X127155000Y-113230000D01*
X127155000Y-111970000D01*
X128605000Y-111970000D01*
X128605000Y-113230000D01*
G37*
X128605000Y-115030000D02*
X127155000Y-115030000D01*
X127155000Y-113770000D01*
X128605000Y-113770000D01*
X128605000Y-115030000D01*
G36*
X128605000Y-115030000D02*
G01*
X127155000Y-115030000D01*
X127155000Y-113770000D01*
X128605000Y-113770000D01*
X128605000Y-115030000D01*
G37*
X131145000Y-106030000D02*
X129695000Y-106030000D01*
X129695000Y-104770000D01*
X131145000Y-104770000D01*
X131145000Y-106030000D01*
G36*
X131145000Y-106030000D02*
G01*
X129695000Y-106030000D01*
X129695000Y-104770000D01*
X131145000Y-104770000D01*
X131145000Y-106030000D01*
G37*
X131145000Y-107830000D02*
X129695000Y-107830000D01*
X129695000Y-106570000D01*
X131145000Y-106570000D01*
X131145000Y-107830000D01*
G36*
X131145000Y-107830000D02*
G01*
X129695000Y-107830000D01*
X129695000Y-106570000D01*
X131145000Y-106570000D01*
X131145000Y-107830000D01*
G37*
X131145000Y-109630000D02*
X129695000Y-109630000D01*
X129695000Y-108370000D01*
X131145000Y-108370000D01*
X131145000Y-109630000D01*
G36*
X131145000Y-109630000D02*
G01*
X129695000Y-109630000D01*
X129695000Y-108370000D01*
X131145000Y-108370000D01*
X131145000Y-109630000D01*
G37*
X131145000Y-111430000D02*
X129695000Y-111430000D01*
X129695000Y-110170000D01*
X131145000Y-110170000D01*
X131145000Y-111430000D01*
G36*
X131145000Y-111430000D02*
G01*
X129695000Y-111430000D01*
X129695000Y-110170000D01*
X131145000Y-110170000D01*
X131145000Y-111430000D01*
G37*
X131145000Y-113230000D02*
X129695000Y-113230000D01*
X129695000Y-111970000D01*
X131145000Y-111970000D01*
X131145000Y-113230000D01*
G36*
X131145000Y-113230000D02*
G01*
X129695000Y-113230000D01*
X129695000Y-111970000D01*
X131145000Y-111970000D01*
X131145000Y-113230000D01*
G37*
X131145000Y-115030000D02*
X129695000Y-115030000D01*
X129695000Y-113770000D01*
X131145000Y-113770000D01*
X131145000Y-115030000D01*
G36*
X131145000Y-115030000D02*
G01*
X129695000Y-115030000D01*
X129695000Y-113770000D01*
X131145000Y-113770000D01*
X131145000Y-115030000D01*
G37*
%TD*%
D11*
%TO.C,SW2*%
X107695000Y-77500000D03*
X113495000Y-77500000D03*
X107695000Y-81500000D03*
X113495000Y-81500000D03*
%TD*%
D12*
%TO.C,C6*%
X95990000Y-55000000D03*
X95990000Y-53100000D03*
%TD*%
D13*
%TO.C,C9*%
X131445000Y-92672500D03*
X133345000Y-92672500D03*
%TD*%
D14*
%TO.C,U1*%
X107695000Y-58560000D03*
X107695000Y-59960000D03*
X107695000Y-61360000D03*
X109095000Y-58560000D03*
X109095000Y-59960000D03*
X109095000Y-61360000D03*
X110495000Y-58560000D03*
X110495000Y-59960000D03*
X110495000Y-61360000D03*
D15*
X101845000Y-52240000D03*
X101845000Y-53510000D03*
X101845000Y-54780000D03*
X101845000Y-56050000D03*
X101845000Y-57320000D03*
X101845000Y-58590000D03*
X101845000Y-59860000D03*
X101845000Y-61130000D03*
X101845000Y-62400000D03*
X101845000Y-63670000D03*
X101845000Y-64940000D03*
X101845000Y-66210000D03*
X101845000Y-67480000D03*
X101845000Y-68750000D03*
D16*
X103610000Y-70000000D03*
X104880000Y-70000000D03*
X106150000Y-70000000D03*
X107420000Y-70000000D03*
X108690000Y-70000000D03*
X109960000Y-70000000D03*
X111230000Y-70000000D03*
X112500000Y-70000000D03*
X113770000Y-70000000D03*
X115040000Y-70000000D03*
X116310000Y-70000000D03*
X117580000Y-70000000D03*
D15*
X119345000Y-68750000D03*
X119345000Y-67480000D03*
X119345000Y-66210000D03*
X119345000Y-64940000D03*
X119345000Y-63670000D03*
X119345000Y-62400000D03*
X119345000Y-61130000D03*
X119345000Y-59860000D03*
X119345000Y-58590000D03*
X119345000Y-57320000D03*
X119345000Y-56050000D03*
X119345000Y-54780000D03*
X119345000Y-53510000D03*
X119345000Y-52240000D03*
%TD*%
D12*
%TO.C,C7*%
X99000000Y-55000000D03*
X99000000Y-53100000D03*
%TD*%
D13*
%TO.C,C8*%
X87000000Y-54500000D03*
X88900000Y-54500000D03*
%TD*%
%TO.C,C2*%
X108050000Y-89500000D03*
X109950000Y-89500000D03*
%TD*%
%TO.C,C3*%
X108050000Y-93000000D03*
X109950000Y-93000000D03*
%TD*%
D17*
%TO.C,U6*%
X117000000Y-107360000D03*
X117000000Y-109900000D03*
X117000000Y-112440000D03*
%TD*%
D12*
%TO.C,C5*%
X92980000Y-55000000D03*
X92980000Y-53100000D03*
%TD*%
D13*
%TO.C,C1*%
X112050000Y-96500000D03*
X113950000Y-96500000D03*
%TD*%
D18*
%TO.C,R1*%
X95500000Y-62412500D03*
X95500000Y-60587500D03*
%TD*%
D19*
%TO.C,R15*%
X103845000Y-118587500D03*
X103845000Y-120412500D03*
%TD*%
%TO.C,R16*%
X117345000Y-118587500D03*
X117345000Y-120412500D03*
%TD*%
D13*
%TO.C,C10*%
X88045000Y-92682500D03*
X89945000Y-92682500D03*
%TD*%
D20*
%TO.C,U2*%
X112237500Y-92250000D03*
X112237500Y-92750000D03*
X112237500Y-93250000D03*
X112237500Y-93750000D03*
D21*
X112750000Y-93762500D03*
X113250000Y-93762500D03*
D20*
X113762500Y-93750000D03*
X113762500Y-93250000D03*
X113762500Y-92750000D03*
X113762500Y-92250000D03*
D21*
X113250000Y-92237500D03*
X112750000Y-92237500D03*
%TD*%
D22*
%TO.C,U3*%
X92647700Y-88217500D03*
X92647700Y-89487500D03*
X92647700Y-90757500D03*
X92647700Y-92027500D03*
X92647700Y-93297500D03*
X92647700Y-94567500D03*
X92647700Y-95837500D03*
X92647700Y-97107500D03*
X92647700Y-98377500D03*
X92647700Y-99647500D03*
X101937700Y-99647500D03*
X101937700Y-98377500D03*
X101937700Y-97107500D03*
X101937700Y-95837500D03*
X101937700Y-94567500D03*
X101937700Y-93297500D03*
X101937700Y-92027500D03*
X101937700Y-90757500D03*
X101937700Y-89487500D03*
X101937700Y-88217500D03*
%TD*%
%TO.C,U4*%
X118780000Y-88217500D03*
X118780000Y-89487500D03*
X118780000Y-90757500D03*
X118780000Y-92027500D03*
X118780000Y-93297500D03*
X118780000Y-94567500D03*
X118780000Y-95837500D03*
X118780000Y-97107500D03*
X118780000Y-98377500D03*
X118780000Y-99647500D03*
X128070000Y-99647500D03*
X128070000Y-98377500D03*
X128070000Y-97107500D03*
X128070000Y-95837500D03*
X128070000Y-94567500D03*
X128070000Y-93297500D03*
X128070000Y-92027500D03*
X128070000Y-90757500D03*
X128070000Y-89487500D03*
X128070000Y-88217500D03*
%TD*%
D11*
%TO.C,SW5*%
X86500000Y-59500000D03*
X92300000Y-59500000D03*
X86500000Y-63500000D03*
X92300000Y-63500000D03*
%TD*%
D13*
%TO.C,C12*%
X131445000Y-95192500D03*
X133345000Y-95192500D03*
%TD*%
D11*
%TO.C,SW6*%
X130100000Y-60500000D03*
X135900000Y-60500000D03*
X130100000Y-64500000D03*
X135900000Y-64500000D03*
%TD*%
D13*
%TO.C,C4*%
X108050000Y-96500000D03*
X109950000Y-96500000D03*
%TD*%
%TO.C,C14*%
X88045000Y-95182500D03*
X89945000Y-95182500D03*
%TD*%
M02*
