%TF.GenerationSoftware,KiCad,Pcbnew,9.0.3*%
%TF.CreationDate,2025-08-18T21:06:09-04:00*%
%TF.ProjectId,robotbrain,726f626f-7462-4726-9169-6e2e6b696361,rev?*%
%TF.SameCoordinates,Original*%
%TF.FileFunction,Copper,L1,Top*%
%TF.FilePolarity,Positive*%
%FSLAX46Y46*%
G04 Gerber Fmt 4.6, Leading zero omitted, Abs format (unit mm)*
G04 Created by KiCad (PCBNEW 9.0.3) date 2025-08-18 21:06:09*
%MOMM*%
%LPD*%
G01*
G04 APERTURE LIST*
G04 Aperture macros list*
%AMRoundRect*
0 Rectangle with rounded corners*
0 $1 Rounding radius*
0 $2 $3 $4 $5 $6 $7 $8 $9 X,Y pos of 4 corners*
0 Add a 4 corners polygon primitive as box body*
4,1,4,$2,$3,$4,$5,$6,$7,$8,$9,$2,$3,0*
0 Add four circle primitives for the rounded corners*
1,1,$1+$1,$2,$3*
1,1,$1+$1,$4,$5*
1,1,$1+$1,$6,$7*
1,1,$1+$1,$8,$9*
0 Add four rect primitives between the rounded corners*
20,1,$1+$1,$2,$3,$4,$5,0*
20,1,$1+$1,$4,$5,$6,$7,0*
20,1,$1+$1,$6,$7,$8,$9,0*
20,1,$1+$1,$8,$9,$2,$3,0*%
G04 Aperture macros list end*
%TA.AperFunction,SMDPad,CuDef*%
%ADD10R,2.800000X1.000000*%
%TD*%
%TA.AperFunction,ComponentPad*%
%ADD11R,1.700000X1.700000*%
%TD*%
%TA.AperFunction,ComponentPad*%
%ADD12C,1.700000*%
%TD*%
%TA.AperFunction,SMDPad,CuDef*%
%ADD13RoundRect,0.250000X0.475000X-0.250000X0.475000X0.250000X-0.475000X0.250000X-0.475000X-0.250000X0*%
%TD*%
%TA.AperFunction,ComponentPad*%
%ADD14C,2.057400*%
%TD*%
%TA.AperFunction,ComponentPad*%
%ADD15RoundRect,0.250000X-0.750000X-0.750000X0.750000X-0.750000X0.750000X0.750000X-0.750000X0.750000X0*%
%TD*%
%TA.AperFunction,ComponentPad*%
%ADD16C,2.000000*%
%TD*%
%TA.AperFunction,SMDPad,CuDef*%
%ADD17RoundRect,0.250000X-0.250000X-0.475000X0.250000X-0.475000X0.250000X0.475000X-0.250000X0.475000X0*%
%TD*%
%TA.AperFunction,SMDPad,CuDef*%
%ADD18R,1.500000X0.900000*%
%TD*%
%TA.AperFunction,SMDPad,CuDef*%
%ADD19R,0.900000X1.500000*%
%TD*%
%TA.AperFunction,HeatsinkPad*%
%ADD20C,0.600000*%
%TD*%
%TA.AperFunction,HeatsinkPad*%
%ADD21R,3.900000X3.900000*%
%TD*%
%TA.AperFunction,ComponentPad*%
%ADD22C,0.700000*%
%TD*%
%TA.AperFunction,ComponentPad*%
%ADD23O,0.900000X2.400000*%
%TD*%
%TA.AperFunction,ComponentPad*%
%ADD24O,0.900000X1.700000*%
%TD*%
%TA.AperFunction,SMDPad,CuDef*%
%ADD25RoundRect,0.123750X-1.771250X-0.371250X1.771250X-0.371250X1.771250X0.371250X-1.771250X0.371250X0*%
%TD*%
%TA.AperFunction,SMDPad,CuDef*%
%ADD26R,7.620000X10.840000*%
%TD*%
%TA.AperFunction,SMDPad,CuDef*%
%ADD27RoundRect,0.250000X0.450000X-0.262500X0.450000X0.262500X-0.450000X0.262500X-0.450000X-0.262500X0*%
%TD*%
%TA.AperFunction,SMDPad,CuDef*%
%ADD28RoundRect,0.250000X-0.450000X0.262500X-0.450000X-0.262500X0.450000X-0.262500X0.450000X0.262500X0*%
%TD*%
%TA.AperFunction,SMDPad,CuDef*%
%ADD29R,0.375000X0.350000*%
%TD*%
%TA.AperFunction,SMDPad,CuDef*%
%ADD30R,0.350000X0.375000*%
%TD*%
%TA.AperFunction,SMDPad,CuDef*%
%ADD31RoundRect,0.073750X-0.961250X-0.221250X0.961250X-0.221250X0.961250X0.221250X-0.961250X0.221250X0*%
%TD*%
%TA.AperFunction,ViaPad*%
%ADD32C,0.600000*%
%TD*%
%TA.AperFunction,Conductor*%
%ADD33C,0.200000*%
%TD*%
G04 APERTURE END LIST*
D10*
%TO.P,SW2,1,1*%
%TO.N,BUT*%
X107695000Y-77500000D03*
X113495000Y-77500000D03*
%TO.P,SW2,2,2*%
%TO.N,GND*%
X107695000Y-81500000D03*
X113495000Y-81500000D03*
%TD*%
D11*
%TO.P,J1,1,Pin_1*%
%TO.N,VBAT*%
X95225000Y-121500000D03*
D12*
%TO.P,J1,2,Pin_2*%
%TO.N,GND*%
X97765000Y-121500000D03*
%TD*%
D13*
%TO.P,C6,1*%
%TO.N,+3V3*%
X95990000Y-55000000D03*
%TO.P,C6,2*%
%TO.N,GND*%
X95990000Y-53100000D03*
%TD*%
D14*
%TO.P,SW1,1,A*%
%TO.N,VBUS*%
X106594100Y-110000000D03*
%TO.P,SW1,2,B*%
%TO.N,Net-(SW1-B)*%
X101895100Y-110000000D03*
%TO.P,SW1,3,C*%
%TO.N,VBAT*%
X97196100Y-110000000D03*
%TD*%
D15*
%TO.P,C11,1*%
%TO.N,VBAT*%
X94445000Y-79000000D03*
D16*
%TO.P,C11,2*%
%TO.N,GND*%
X99445000Y-79000000D03*
%TD*%
D11*
%TO.P,J6,1,Pin_1*%
%TO.N,MOTOR3B*%
X141095000Y-61460000D03*
D12*
%TO.P,J6,2,Pin_2*%
%TO.N,MOTOR3A*%
X141095000Y-64000000D03*
%TD*%
D17*
%TO.P,C9,1*%
%TO.N,+3V3*%
X131445000Y-92672500D03*
%TO.P,C9,2*%
%TO.N,GND*%
X133345000Y-92672500D03*
%TD*%
D18*
%TO.P,U1,1,GND*%
%TO.N,GND*%
X101845000Y-52240000D03*
%TO.P,U1,2,3V3*%
%TO.N,+3V3*%
X101845000Y-53510000D03*
%TO.P,U1,3,EN*%
%TO.N,RESET*%
X101845000Y-54780000D03*
%TO.P,U1,4,IO4*%
%TO.N,SDA*%
X101845000Y-56050000D03*
%TO.P,U1,5,IO5*%
%TO.N,SCL*%
X101845000Y-57320000D03*
%TO.P,U1,6,IO6*%
%TO.N,INT_MAG*%
X101845000Y-58590000D03*
%TO.P,U1,7,IO7*%
%TO.N,unconnected-(U1-IO7-Pad7)*%
X101845000Y-59860000D03*
%TO.P,U1,8,IO15*%
%TO.N,unconnected-(U1-IO15-Pad8)*%
X101845000Y-61130000D03*
%TO.P,U1,9,IO16*%
%TO.N,unconnected-(U1-IO16-Pad9)*%
X101845000Y-62400000D03*
%TO.P,U1,10,IO17*%
%TO.N,unconnected-(U1-IO17-Pad10)*%
X101845000Y-63670000D03*
%TO.P,U1,11,IO18*%
%TO.N,unconnected-(U1-IO18-Pad11)*%
X101845000Y-64940000D03*
%TO.P,U1,12,IO8*%
%TO.N,unconnected-(U1-IO8-Pad12)*%
X101845000Y-66210000D03*
%TO.P,U1,13,USB_D-*%
%TO.N,D-*%
X101845000Y-67480000D03*
%TO.P,U1,14,USB_D+*%
%TO.N,D+*%
X101845000Y-68750000D03*
D19*
%TO.P,U1,15,IO3*%
%TO.N,unconnected-(U1-IO3-Pad15)*%
X103610000Y-70000000D03*
%TO.P,U1,16,IO46*%
%TO.N,IN2A*%
X104880000Y-70000000D03*
%TO.P,U1,17,IO9*%
%TO.N,unconnected-(U1-IO9-Pad17)*%
X106150000Y-70000000D03*
%TO.P,U1,18,IO10*%
%TO.N,unconnected-(U1-IO10-Pad18)*%
X107420000Y-70000000D03*
%TO.P,U1,19,IO11*%
%TO.N,unconnected-(U1-IO11-Pad19)*%
X108690000Y-70000000D03*
%TO.P,U1,20,IO12*%
%TO.N,unconnected-(U1-IO12-Pad20)*%
X109960000Y-70000000D03*
%TO.P,U1,21,IO13*%
%TO.N,unconnected-(U1-IO13-Pad21)*%
X111230000Y-70000000D03*
%TO.P,U1,22,IO14*%
%TO.N,unconnected-(U1-IO14-Pad22)*%
X112500000Y-70000000D03*
%TO.P,U1,23,IO21*%
%TO.N,unconnected-(U1-IO21-Pad23)*%
X113770000Y-70000000D03*
%TO.P,U1,24,IO47*%
%TO.N,IN1B*%
X115040000Y-70000000D03*
%TO.P,U1,25,IO48*%
%TO.N,IN1A*%
X116310000Y-70000000D03*
%TO.P,U1,26,IO45*%
%TO.N,IN2B*%
X117580000Y-70000000D03*
D18*
%TO.P,U1,27,IO0*%
%TO.N,BOOT*%
X119345000Y-68750000D03*
%TO.P,U1,28,IO35*%
%TO.N,unconnected-(U1-IO35-Pad28)*%
X119345000Y-67480000D03*
%TO.P,U1,29,IO36*%
%TO.N,unconnected-(U1-IO36-Pad29)*%
X119345000Y-66210000D03*
%TO.P,U1,30,IO37*%
%TO.N,unconnected-(U1-IO37-Pad30)*%
X119345000Y-64940000D03*
%TO.P,U1,31,IO38*%
%TO.N,unconnected-(U1-IO38-Pad31)*%
X119345000Y-63670000D03*
%TO.P,U1,32,IO39*%
%TO.N,IN4B*%
X119345000Y-62400000D03*
%TO.P,U1,33,IO40*%
%TO.N,IN4A*%
X119345000Y-61130000D03*
%TO.P,U1,34,IO41*%
%TO.N,IN3B*%
X119345000Y-59860000D03*
%TO.P,U1,35,IO42*%
%TO.N,IN3A*%
X119345000Y-58590000D03*
%TO.P,U1,36,RXD0*%
%TO.N,unconnected-(U1-RXD0-Pad36)*%
X119345000Y-57320000D03*
%TO.P,U1,37,TXD0*%
%TO.N,unconnected-(U1-TXD0-Pad37)*%
X119345000Y-56050000D03*
%TO.P,U1,38,IO2*%
%TO.N,unconnected-(U1-IO2-Pad38)*%
X119345000Y-54780000D03*
%TO.P,U1,39,IO1*%
%TO.N,unconnected-(U1-IO1-Pad39)*%
X119345000Y-53510000D03*
%TO.P,U1,40,GND*%
%TO.N,GND*%
X119345000Y-52240000D03*
D20*
%TO.P,U1,41,GND*%
X107695000Y-59260000D03*
X107695000Y-60660000D03*
X108395000Y-58560000D03*
X108395000Y-59960000D03*
X108395000Y-61360000D03*
X109095000Y-59260000D03*
D21*
X109095000Y-59960000D03*
D20*
X109095000Y-60660000D03*
X109795000Y-58560000D03*
X109795000Y-59960000D03*
X109795000Y-61360000D03*
X110495000Y-59260000D03*
X110495000Y-60660000D03*
%TD*%
D13*
%TO.P,C7,1*%
%TO.N,+3V3*%
X99000000Y-55000000D03*
%TO.P,C7,2*%
%TO.N,GND*%
X99000000Y-53100000D03*
%TD*%
D17*
%TO.P,C8,1*%
%TO.N,RESET*%
X87000000Y-54500000D03*
%TO.P,C8,2*%
%TO.N,GND*%
X88900000Y-54500000D03*
%TD*%
D11*
%TO.P,J7,1,Pin_1*%
%TO.N,MOTOR4B*%
X141095000Y-109460000D03*
D12*
%TO.P,J7,2,Pin_2*%
%TO.N,MOTOR4A*%
X141095000Y-112000000D03*
%TD*%
D17*
%TO.P,C2,1*%
%TO.N,+3V3*%
X108050000Y-89500000D03*
%TO.P,C2,2*%
%TO.N,GND*%
X109950000Y-89500000D03*
%TD*%
D22*
%TO.P,J3,A1,GND*%
%TO.N,GND*%
X107620000Y-117975000D03*
%TO.P,J3,A4,VBUS*%
%TO.N,VBUS*%
X108470000Y-117975000D03*
%TO.P,J3,A5,CC1*%
%TO.N,Net-(J3-CC1)*%
X109320000Y-117975000D03*
%TO.P,J3,A6,D+*%
%TO.N,D+*%
X110170000Y-117975000D03*
%TO.P,J3,A7,D-*%
%TO.N,D-*%
X111020000Y-117975000D03*
%TO.P,J3,A8,SBU1*%
%TO.N,unconnected-(J3-SBU1-PadA8)*%
X111870000Y-117975000D03*
%TO.P,J3,A9,VBUS*%
%TO.N,VBUS*%
X112720000Y-117975000D03*
%TO.P,J3,A12,GND*%
%TO.N,GND*%
X113570000Y-117975000D03*
%TO.P,J3,B1,GND*%
X113570000Y-119325000D03*
%TO.P,J3,B4,VBUS*%
%TO.N,VBUS*%
X112720000Y-119325000D03*
%TO.P,J3,B5,CC2*%
%TO.N,Net-(J3-CC2)*%
X111870000Y-119325000D03*
%TO.P,J3,B6,D+*%
%TO.N,D+*%
X111020000Y-119325000D03*
%TO.P,J3,B7,D-*%
%TO.N,D-*%
X110170000Y-119325000D03*
%TO.P,J3,B8,SBU2*%
%TO.N,unconnected-(J3-SBU2-PadB8)*%
X109320000Y-119325000D03*
%TO.P,J3,B9,VBUS*%
%TO.N,VBUS*%
X108470000Y-119325000D03*
%TO.P,J3,B12,GND*%
%TO.N,GND*%
X107620000Y-119325000D03*
D23*
%TO.P,J3,S1,SHIELD*%
%TO.N,unconnected-(J3-SHIELD-PadS1)_3*%
X106270000Y-118955000D03*
D24*
%TO.N,unconnected-(J3-SHIELD-PadS1)_1*%
X106270000Y-122335000D03*
D23*
%TO.N,unconnected-(J3-SHIELD-PadS1)_2*%
X114920000Y-118955000D03*
D24*
%TO.N,unconnected-(J3-SHIELD-PadS1)*%
X114920000Y-122335000D03*
%TD*%
D17*
%TO.P,C3,1*%
%TO.N,+3V3*%
X108050000Y-93000000D03*
%TO.P,C3,2*%
%TO.N,GND*%
X109950000Y-93000000D03*
%TD*%
D11*
%TO.P,J5,1,Pin_1*%
%TO.N,MOTOR2B*%
X80095000Y-109460000D03*
D12*
%TO.P,J5,2,Pin_2*%
%TO.N,MOTOR2A*%
X80095000Y-112000000D03*
%TD*%
D25*
%TO.P,U6,1,GND*%
%TO.N,GND*%
X117000000Y-107360000D03*
%TO.P,U6,2,VO*%
%TO.N,+3V3*%
X117000000Y-109900000D03*
%TO.P,U6,3,VI*%
%TO.N,Net-(SW1-B)*%
X117000000Y-112440000D03*
D26*
%TO.P,U6,4*%
%TO.N,N/C*%
X127880000Y-109900000D03*
%TD*%
D13*
%TO.P,C5,1*%
%TO.N,+3V3*%
X92980000Y-55000000D03*
%TO.P,C5,2*%
%TO.N,GND*%
X92980000Y-53100000D03*
%TD*%
D15*
%TO.P,C13,1*%
%TO.N,VBAT*%
X120577300Y-79000000D03*
D16*
%TO.P,C13,2*%
%TO.N,GND*%
X125577300Y-79000000D03*
%TD*%
D17*
%TO.P,C1,1*%
%TO.N,Net-(U2-C1)*%
X112050000Y-96500000D03*
%TO.P,C1,2*%
%TO.N,GND*%
X113950000Y-96500000D03*
%TD*%
D27*
%TO.P,R1,1*%
%TO.N,+3V3*%
X95500000Y-62412500D03*
%TO.P,R1,2*%
%TO.N,RESET*%
X95500000Y-60587500D03*
%TD*%
D28*
%TO.P,R15,1*%
%TO.N,Net-(J3-CC2)*%
X103845000Y-118587500D03*
%TO.P,R15,2*%
%TO.N,GND*%
X103845000Y-120412500D03*
%TD*%
D11*
%TO.P,J2,1,Pin_1*%
%TO.N,MOTOR1B*%
X80095000Y-61460000D03*
D12*
%TO.P,J2,2,Pin_2*%
%TO.N,MOTOR1A*%
X80095000Y-64000000D03*
%TD*%
D28*
%TO.P,R16,1*%
%TO.N,Net-(J3-CC1)*%
X117345000Y-118587500D03*
%TO.P,R16,2*%
%TO.N,GND*%
X117345000Y-120412500D03*
%TD*%
D17*
%TO.P,C10,1*%
%TO.N,+3V3*%
X88045000Y-92682500D03*
%TO.P,C10,2*%
%TO.N,GND*%
X89945000Y-92682500D03*
%TD*%
D29*
%TO.P,U2,1,SCL/SPC*%
%TO.N,SCL*%
X112237500Y-92250000D03*
%TO.P,U2,2,NC*%
%TO.N,unconnected-(U2-NC-Pad2)*%
X112237500Y-92750000D03*
%TO.P,U2,3,~{CS}*%
%TO.N,unconnected-(U2-~{CS}-Pad3)*%
X112237500Y-93250000D03*
%TO.P,U2,4,SDA/SDI/SDO*%
%TO.N,SDA*%
X112237500Y-93750000D03*
D30*
%TO.P,U2,5,C1*%
%TO.N,Net-(U2-C1)*%
X112750000Y-93762500D03*
%TO.P,U2,6,GND*%
%TO.N,GND*%
X113250000Y-93762500D03*
D29*
%TO.P,U2,7,DRDY*%
%TO.N,INT_MAG*%
X113762500Y-93750000D03*
%TO.P,U2,8,GND*%
%TO.N,GND*%
X113762500Y-93250000D03*
%TO.P,U2,9,Vdd*%
%TO.N,+3V3*%
X113762500Y-92750000D03*
%TO.P,U2,10,Vdd_IO*%
X113762500Y-92250000D03*
D30*
%TO.P,U2,11,NC*%
%TO.N,unconnected-(U2-NC-Pad11)*%
X113250000Y-92237500D03*
%TO.P,U2,12,NC*%
%TO.N,unconnected-(U2-NC-Pad12)*%
X112750000Y-92237500D03*
%TD*%
D31*
%TO.P,U3,1,ENABLE1*%
%TO.N,+3V3*%
X92647700Y-88217500D03*
%TO.P,U3,2,INPUT1*%
%TO.N,IN1A*%
X92647700Y-89487500D03*
%TO.P,U3,3,OUTPUT1*%
%TO.N,MOTOR1A*%
X92647700Y-90757500D03*
%TO.P,U3,4,GND*%
%TO.N,GND*%
X92647700Y-92027500D03*
%TO.P,U3,5,GND*%
X92647700Y-93297500D03*
%TO.P,U3,6,GND*%
X92647700Y-94567500D03*
%TO.P,U3,7,GND*%
X92647700Y-95837500D03*
%TO.P,U3,8,OUTPUT2*%
%TO.N,MOTOR1B*%
X92647700Y-97107500D03*
%TO.P,U3,9,INPUT2*%
%TO.N,IN1B*%
X92647700Y-98377500D03*
%TO.P,U3,10,VS*%
%TO.N,VBAT*%
X92647700Y-99647500D03*
%TO.P,U3,11,ENABLE2*%
%TO.N,+3V3*%
X101937700Y-99647500D03*
%TO.P,U3,12,INPUT3*%
%TO.N,IN2A*%
X101937700Y-98377500D03*
%TO.P,U3,13,OUTPUT3*%
%TO.N,MOTOR2A*%
X101937700Y-97107500D03*
%TO.P,U3,14,GND*%
%TO.N,GND*%
X101937700Y-95837500D03*
%TO.P,U3,15,GND*%
X101937700Y-94567500D03*
%TO.P,U3,16,GND*%
X101937700Y-93297500D03*
%TO.P,U3,17,GND*%
X101937700Y-92027500D03*
%TO.P,U3,18,OUTPUT4*%
%TO.N,MOTOR2B*%
X101937700Y-90757500D03*
%TO.P,U3,19,INPUT4*%
%TO.N,IN2B*%
X101937700Y-89487500D03*
%TO.P,U3,20,VSS*%
%TO.N,+3V3*%
X101937700Y-88217500D03*
%TD*%
%TO.P,U4,1,ENABLE1*%
%TO.N,+3V3*%
X118780000Y-88217500D03*
%TO.P,U4,2,INPUT1*%
%TO.N,IN3A*%
X118780000Y-89487500D03*
%TO.P,U4,3,OUTPUT1*%
%TO.N,MOTOR3A*%
X118780000Y-90757500D03*
%TO.P,U4,4,GND*%
%TO.N,GND*%
X118780000Y-92027500D03*
%TO.P,U4,5,GND*%
X118780000Y-93297500D03*
%TO.P,U4,6,GND*%
X118780000Y-94567500D03*
%TO.P,U4,7,GND*%
X118780000Y-95837500D03*
%TO.P,U4,8,OUTPUT2*%
%TO.N,MOTOR3B*%
X118780000Y-97107500D03*
%TO.P,U4,9,INPUT2*%
%TO.N,IN3B*%
X118780000Y-98377500D03*
%TO.P,U4,10,VS*%
%TO.N,VBAT*%
X118780000Y-99647500D03*
%TO.P,U4,11,ENABLE2*%
%TO.N,+3V3*%
X128070000Y-99647500D03*
%TO.P,U4,12,INPUT3*%
%TO.N,IN4A*%
X128070000Y-98377500D03*
%TO.P,U4,13,OUTPUT3*%
%TO.N,MOTOR4A*%
X128070000Y-97107500D03*
%TO.P,U4,14,GND*%
%TO.N,GND*%
X128070000Y-95837500D03*
%TO.P,U4,15,GND*%
X128070000Y-94567500D03*
%TO.P,U4,16,GND*%
X128070000Y-93297500D03*
%TO.P,U4,17,GND*%
X128070000Y-92027500D03*
%TO.P,U4,18,OUTPUT4*%
%TO.N,MOTOR4B*%
X128070000Y-90757500D03*
%TO.P,U4,19,INPUT4*%
%TO.N,IN4B*%
X128070000Y-89487500D03*
%TO.P,U4,20,VSS*%
%TO.N,+3V3*%
X128070000Y-88217500D03*
%TD*%
D10*
%TO.P,SW5,1,1*%
%TO.N,GND*%
X86500000Y-59500000D03*
X92300000Y-59500000D03*
%TO.P,SW5,2,2*%
%TO.N,RESET*%
X86500000Y-63500000D03*
X92300000Y-63500000D03*
%TD*%
D17*
%TO.P,C12,1*%
%TO.N,VBAT*%
X131445000Y-95192500D03*
%TO.P,C12,2*%
%TO.N,GND*%
X133345000Y-95192500D03*
%TD*%
D10*
%TO.P,SW6,1,1*%
%TO.N,GND*%
X130100000Y-60500000D03*
X135900000Y-60500000D03*
%TO.P,SW6,2,2*%
%TO.N,BOOT*%
X130100000Y-64500000D03*
X135900000Y-64500000D03*
%TD*%
D17*
%TO.P,C4,1*%
%TO.N,+3V3*%
X108050000Y-96500000D03*
%TO.P,C4,2*%
%TO.N,GND*%
X109950000Y-96500000D03*
%TD*%
%TO.P,C14,1*%
%TO.N,VBAT*%
X88045000Y-95182500D03*
%TO.P,C14,2*%
%TO.N,GND*%
X89945000Y-95182500D03*
%TD*%
D32*
%TO.N,GND*%
X100000000Y-93500000D03*
X121000000Y-53500000D03*
X108000000Y-84000000D03*
X109250000Y-92250000D03*
X134500000Y-97000000D03*
X94500000Y-94000000D03*
X137000000Y-95500000D03*
X111000000Y-90500000D03*
X108000000Y-121500000D03*
X96500000Y-76500000D03*
X111000000Y-83000000D03*
%TO.N,+3V3*%
X102396500Y-100451800D03*
X102374800Y-87210500D03*
X109132500Y-91251600D03*
X127589900Y-87210500D03*
X118452100Y-87210500D03*
X99979700Y-56359300D03*
X127611600Y-100451800D03*
X108559500Y-94449400D03*
X96444700Y-56562900D03*
X88010400Y-93932500D03*
X103670000Y-53236200D03*
X131015400Y-91417700D03*
X92723100Y-56537900D03*
X92328700Y-87210500D03*
X94835000Y-64805800D03*
X106147000Y-96622200D03*
X117907500Y-111170000D03*
X114540700Y-90733100D03*
%TO.N,VBAT*%
X121055200Y-99514600D03*
X130548800Y-98589600D03*
X115987500Y-78968700D03*
X91081800Y-104815000D03*
%TO.N,D-*%
X105156200Y-71394600D03*
X103670000Y-67902200D03*
%TO.N,D+*%
X96910100Y-99008500D03*
X99933500Y-99460900D03*
X97006700Y-81387100D03*
X103227600Y-81271100D03*
%TO.N,Net-(J3-CC1)*%
X116500000Y-117000000D03*
%TO.N,BOOT*%
X129570400Y-65588900D03*
X117520000Y-67698200D03*
%TO.N,IN2B*%
X103857400Y-88845000D03*
X116266300Y-87945000D03*
%TO.N,SCL*%
X99794200Y-76375400D03*
X107632500Y-75964600D03*
%TO.N,INT_MAG*%
X112928800Y-85061800D03*
X103866400Y-83319800D03*
%TO.N,IN4B*%
X126217900Y-70142300D03*
X116898400Y-68258200D03*
%TO.N,IN1B*%
X95000000Y-88202100D03*
X109132500Y-87636400D03*
%TO.N,SDA*%
X103859000Y-93277900D03*
X111322500Y-94300500D03*
%TO.N,IN1A*%
X114982500Y-79357000D03*
X94507500Y-82160200D03*
%TO.N,MOTOR3A*%
X123719100Y-73447800D03*
%TO.N,MOTOR3B*%
X141307500Y-93729800D03*
X121055200Y-96622200D03*
%TD*%
D33*
%TO.N,GND*%
X113570000Y-119930000D02*
X113000000Y-120500000D01*
X113570000Y-119325000D02*
X113570000Y-119930000D01*
%TO.N,Net-(U2-C1)*%
X112750000Y-95800000D02*
X112750000Y-93762500D01*
X112050000Y-96500000D02*
X112750000Y-95800000D01*
%TO.N,GND*%
X113570000Y-119325000D02*
X113570000Y-117975000D01*
X92647700Y-95837500D02*
X90600000Y-95837500D01*
X90560000Y-94567500D02*
X92647700Y-94567500D01*
X119740000Y-52240000D02*
X121000000Y-53500000D01*
X92647700Y-94567500D02*
X92647700Y-95837500D01*
X92647700Y-93297500D02*
X92647700Y-94567500D01*
X92647700Y-92027500D02*
X90600000Y-92027500D01*
X119345000Y-52240000D02*
X119740000Y-52240000D01*
X101937700Y-92027500D02*
X100465200Y-93500000D01*
X113250000Y-93762500D02*
X113250000Y-93298000D01*
X92647700Y-92027500D02*
X92647700Y-93297500D01*
X92647700Y-93297500D02*
X93797500Y-93297500D01*
X109250000Y-92250000D02*
X109250000Y-92300000D01*
X107620000Y-119325000D02*
X107620000Y-117975000D01*
X90600000Y-92027500D02*
X89945000Y-92682500D01*
X134500000Y-96347500D02*
X134500000Y-97000000D01*
X89945000Y-95182500D02*
X90560000Y-94567500D01*
X113950000Y-94950000D02*
X113950000Y-96500000D01*
X113250000Y-93298000D02*
X113298000Y-93250000D01*
X90560000Y-93297500D02*
X89945000Y-92682500D01*
X113298000Y-93250000D02*
X113762500Y-93250000D01*
X100465200Y-93500000D02*
X100000000Y-93500000D01*
X133345000Y-95192500D02*
X134500000Y-96347500D01*
X90600000Y-95837500D02*
X89945000Y-95182500D01*
X109250000Y-92300000D02*
X109950000Y-93000000D01*
X93797500Y-93297500D02*
X94500000Y-94000000D01*
X113250000Y-93762500D02*
X113250000Y-94250000D01*
X92647700Y-93297500D02*
X90560000Y-93297500D01*
X113250000Y-94250000D02*
X113950000Y-94950000D01*
%TO.N,+3V3*%
X108050000Y-89500000D02*
X108050000Y-90169100D01*
X107927800Y-96622200D02*
X108050000Y-96500000D01*
X92328700Y-87210500D02*
X92647700Y-87529500D01*
X99979700Y-56359300D02*
X99979700Y-55979700D01*
X118780000Y-87538400D02*
X118780000Y-88217500D01*
X131015400Y-91417700D02*
X131445000Y-91847300D01*
X92723100Y-56537900D02*
X92980000Y-56281000D01*
X114540700Y-90733100D02*
X114540700Y-90995100D01*
X88045000Y-93897900D02*
X88045000Y-92682500D01*
X113762500Y-92750000D02*
X113762500Y-92250000D01*
X92980000Y-56281000D02*
X92980000Y-55000000D01*
X95990000Y-56108200D02*
X95990000Y-55000000D01*
X128070000Y-99993400D02*
X128070000Y-99647500D01*
X128070000Y-87690600D02*
X128070000Y-88217500D01*
X95500000Y-64140800D02*
X95500000Y-62412500D01*
X113762500Y-92250000D02*
X113762500Y-91773300D01*
X96444700Y-56562900D02*
X95990000Y-56108200D01*
X114540700Y-90995100D02*
X113762500Y-91773300D01*
X127589900Y-87210500D02*
X128070000Y-87690600D01*
X101937700Y-87647600D02*
X101937700Y-88217500D01*
X108050000Y-93939900D02*
X108050000Y-93000000D01*
X102374800Y-87210500D02*
X101937700Y-87647600D01*
X108050000Y-90169100D02*
X109132500Y-91251600D01*
X117907500Y-111170000D02*
X117000000Y-110262500D01*
X92647700Y-87529500D02*
X92647700Y-88217500D01*
X127611600Y-100451800D02*
X128070000Y-99993400D01*
X88010400Y-93932500D02*
X88045000Y-93897900D01*
X102396500Y-100451800D02*
X101937700Y-99993000D01*
X117000000Y-110262500D02*
X117000000Y-109900000D01*
X131445000Y-91847300D02*
X131445000Y-92672500D01*
X99979700Y-55979700D02*
X99000000Y-55000000D01*
X94835000Y-64805800D02*
X95500000Y-64140800D01*
X108559500Y-94449400D02*
X108050000Y-93939900D01*
X101845000Y-53510000D02*
X102896700Y-53510000D01*
X103170500Y-53236200D02*
X102896700Y-53510000D01*
X106147000Y-96622200D02*
X107927800Y-96622200D01*
X101937700Y-99993000D02*
X101937700Y-99647500D01*
X118452100Y-87210500D02*
X118780000Y-87538400D01*
X103670000Y-53236200D02*
X103170500Y-53236200D01*
%TO.N,RESET*%
X100170600Y-54175800D02*
X100774800Y-54780000D01*
X97046400Y-59041100D02*
X97046400Y-55424000D01*
X88201700Y-55701700D02*
X87000000Y-54500000D01*
X95500000Y-60587500D02*
X97046400Y-59041100D01*
X92300000Y-63500000D02*
X94001700Y-63500000D01*
X86500000Y-63500000D02*
X88201700Y-63500000D01*
X88201700Y-63500000D02*
X88201700Y-55701700D01*
X98294600Y-54175800D02*
X100170600Y-54175800D01*
X95500000Y-60587500D02*
X94001700Y-62085800D01*
X97046400Y-55424000D02*
X98294600Y-54175800D01*
X100774800Y-54780000D02*
X101845000Y-54780000D01*
X94001700Y-62085800D02*
X94001700Y-63500000D01*
X92300000Y-63500000D02*
X88201700Y-63500000D01*
%TO.N,VBAT*%
X118319300Y-99647500D02*
X118780000Y-99647500D01*
X115664600Y-79291600D02*
X115664600Y-96992800D01*
X115664600Y-96992800D02*
X118319300Y-99647500D01*
X92647700Y-99647500D02*
X93111500Y-99647500D01*
X115987500Y-78968700D02*
X115664600Y-79291600D01*
X118912900Y-99514600D02*
X118780000Y-99647500D01*
X96000000Y-96759000D02*
X96000000Y-80555000D01*
X131445000Y-95192500D02*
X130548800Y-96088700D01*
X92140400Y-103756400D02*
X92140400Y-99647500D01*
X88045000Y-95182500D02*
X88045000Y-95552100D01*
X91081800Y-104815000D02*
X92140400Y-103756400D01*
X92140400Y-99647500D02*
X92647700Y-99647500D01*
X121055200Y-99514600D02*
X118912900Y-99514600D01*
X130548800Y-96088700D02*
X130548800Y-98589600D01*
X95225000Y-111971000D02*
X97196100Y-110000000D01*
X88045000Y-95552100D02*
X92140400Y-99647500D01*
X95225000Y-121500000D02*
X95225000Y-111971000D01*
X96000000Y-80555000D02*
X94445000Y-79000000D01*
X93111500Y-99647500D02*
X96000000Y-96759000D01*
%TO.N,D-*%
X105156200Y-103919300D02*
X105156200Y-71394600D01*
X111020000Y-118404000D02*
X111020000Y-117975000D01*
X104609000Y-114610400D02*
X100560100Y-110561500D01*
X103247800Y-67480000D02*
X103670000Y-67902200D01*
X100560100Y-110561500D02*
X100560100Y-108515400D01*
X111020000Y-117975000D02*
X111020000Y-117842900D01*
X111020000Y-117842900D02*
X107787500Y-114610400D01*
X100560100Y-108515400D02*
X105156200Y-103919300D01*
X110170000Y-119254000D02*
X111020000Y-118404000D01*
X110170000Y-119325000D02*
X110170000Y-119254000D01*
X101845000Y-67480000D02*
X103247800Y-67480000D01*
X107787500Y-114610400D02*
X104609000Y-114610400D01*
%TO.N,VBUS*%
X112720000Y-119325000D02*
X112720000Y-117975000D01*
X108470000Y-119325000D02*
X108470000Y-117975000D01*
%TO.N,D+*%
X97006700Y-98911900D02*
X96910100Y-99008500D01*
X99933500Y-110568300D02*
X105391300Y-116026100D01*
X99933500Y-99460900D02*
X99933500Y-110568300D01*
X101845000Y-79888500D02*
X103227600Y-81271100D01*
X97006700Y-81387100D02*
X97006700Y-98911900D01*
X101845000Y-68750000D02*
X101845000Y-79888500D01*
X110170000Y-117897200D02*
X110170000Y-117975000D01*
X108298900Y-116026100D02*
X110170000Y-117897200D01*
X105391300Y-116026100D02*
X108298900Y-116026100D01*
%TO.N,Net-(J3-CC1)*%
X117345000Y-118587500D02*
X117345000Y-117845000D01*
X117345000Y-117845000D02*
X116500000Y-117000000D01*
X117345000Y-118588000D02*
X117345000Y-118587500D01*
%TO.N,Net-(J3-CC2)*%
X104405700Y-119148400D02*
X103845000Y-118587700D01*
X111234000Y-120456000D02*
X111870000Y-119820000D01*
X105714000Y-120456000D02*
X111234000Y-120456000D01*
X111870000Y-119820000D02*
X111870000Y-119325000D01*
X103845000Y-118588000D02*
X104405700Y-119148400D01*
X103845000Y-118587700D02*
X103845000Y-118587500D01*
X104405700Y-119148400D02*
X105714000Y-120456000D01*
%TO.N,BOOT*%
X118293300Y-68750000D02*
X118293300Y-68471500D01*
X130100000Y-64500000D02*
X135900000Y-64500000D01*
X129570400Y-65588900D02*
X128785700Y-65588900D01*
X118293300Y-68471500D02*
X117520000Y-67698200D01*
X130100000Y-64500000D02*
X128398300Y-64500000D01*
X128785700Y-65588900D02*
X128398300Y-65201500D01*
X119345000Y-68750000D02*
X118293300Y-68750000D01*
X128398300Y-65201500D02*
X128398300Y-64500000D01*
%TO.N,Net-(SW1-B)*%
X101895100Y-110000000D02*
X101895000Y-110000000D01*
X104335000Y-112440000D02*
X101895100Y-110000000D01*
X117000000Y-112440000D02*
X104335000Y-112440000D01*
%TO.N,BUT*%
X113495000Y-77500000D02*
X107695000Y-77500000D01*
%TO.N,IN2B*%
X101937700Y-89487500D02*
X102580200Y-88845000D01*
X117580000Y-70000000D02*
X117580000Y-71236900D01*
X116952500Y-71864400D02*
X116952500Y-87258800D01*
X102580200Y-88845000D02*
X103857400Y-88845000D01*
X117580000Y-71236900D02*
X116952500Y-71864400D01*
X116952500Y-87258800D02*
X116266300Y-87945000D01*
%TO.N,SCL*%
X105993300Y-76870300D02*
X106899000Y-75964600D01*
X106899000Y-75964600D02*
X107632500Y-75964600D01*
X112237500Y-92250000D02*
X111159600Y-92250000D01*
X108889400Y-89979800D02*
X108889400Y-88825700D01*
X99794200Y-76375400D02*
X99794200Y-58319100D01*
X105993300Y-85929600D02*
X105993300Y-76870300D01*
X101845000Y-57320000D02*
X100793300Y-57320000D01*
X99794200Y-58319100D02*
X100793300Y-57320000D01*
X108889400Y-88825700D02*
X105993300Y-85929600D01*
X111159600Y-92250000D02*
X108889400Y-89979800D01*
%TO.N,INT_MAG*%
X103866400Y-83319800D02*
X100793300Y-80246700D01*
X100793300Y-80246700D02*
X100793300Y-58590000D01*
X114251700Y-93750000D02*
X115142500Y-92859200D01*
X115142500Y-87275500D02*
X112928800Y-85061800D01*
X101845000Y-58590000D02*
X100793300Y-58590000D01*
X113762500Y-93750000D02*
X114251700Y-93750000D01*
X115142500Y-92859200D02*
X115142500Y-87275500D01*
%TO.N,IN4B*%
X119345000Y-62400000D02*
X118293300Y-62400000D01*
X129419600Y-73344000D02*
X126217900Y-70142300D01*
X116898400Y-68258200D02*
X116898400Y-63794900D01*
X128070000Y-89487500D02*
X128570800Y-89487500D01*
X129419600Y-88638700D02*
X129419600Y-73344000D01*
X116898400Y-63794900D02*
X118293300Y-62400000D01*
X128570800Y-89487500D02*
X129419600Y-88638700D01*
%TO.N,IN1B*%
X95500000Y-96022800D02*
X95500000Y-88702100D01*
X109132500Y-83448900D02*
X109132500Y-87636400D01*
X92647700Y-98377500D02*
X93145300Y-98377500D01*
X93145300Y-98377500D02*
X95500000Y-96022800D01*
X115244900Y-78108600D02*
X113852000Y-79501500D01*
X113852000Y-79501500D02*
X113079900Y-79501500D01*
X115244900Y-71256600D02*
X115244900Y-78108600D01*
X115040000Y-71051700D02*
X115244900Y-71256600D01*
X115040000Y-70000000D02*
X115040000Y-71051700D01*
X95500000Y-88702100D02*
X95000000Y-88202100D01*
X113079900Y-79501500D02*
X109132500Y-83448900D01*
%TO.N,IN3B*%
X118273800Y-98315200D02*
X117443000Y-97484400D01*
X117434200Y-91153000D02*
X117434200Y-75446900D01*
X120396700Y-72484400D02*
X120396700Y-59860000D01*
X117434200Y-75446900D02*
X120396700Y-72484400D01*
X120396700Y-59860000D02*
X119345000Y-59860000D01*
X118717800Y-98315200D02*
X118273800Y-98315200D01*
X117443000Y-97484400D02*
X117443000Y-91161800D01*
X118717800Y-98315300D02*
X118717800Y-98315200D01*
X117443000Y-91161800D02*
X117434200Y-91153000D01*
X118780000Y-98377500D02*
X118717800Y-98315300D01*
%TO.N,IN3A*%
X119290600Y-89487500D02*
X118780000Y-89487500D01*
X121888400Y-60081700D02*
X121888400Y-86889700D01*
X121888400Y-86889700D02*
X119290600Y-89487500D01*
X119345000Y-58590000D02*
X120396700Y-58590000D01*
X120396700Y-58590000D02*
X121888400Y-60081700D01*
%TO.N,IN2A*%
X104503200Y-70376800D02*
X104880000Y-70000000D01*
X102438500Y-98377500D02*
X104503200Y-96312800D01*
X104503200Y-96312800D02*
X104503200Y-70376800D01*
X101937700Y-98377500D02*
X102438500Y-98377500D01*
%TO.N,IN4A*%
X124329800Y-55559700D02*
X124329800Y-74524900D01*
X118293300Y-61130000D02*
X118293300Y-51632500D01*
X118437500Y-51488300D02*
X120258400Y-51488300D01*
X124329800Y-74524900D02*
X124275600Y-74579100D01*
X124275600Y-95110400D02*
X127542700Y-98377500D01*
X120258400Y-51488300D02*
X124329800Y-55559700D01*
X127542700Y-98377500D02*
X128070000Y-98377500D01*
X124275600Y-74579100D02*
X124275600Y-95110400D01*
X118293300Y-51632500D02*
X118437500Y-51488300D01*
X119345000Y-61130000D02*
X118293300Y-61130000D01*
%TO.N,SDA*%
X103044700Y-90122500D02*
X103859000Y-90936800D01*
X100793300Y-56050000D02*
X100793300Y-56703500D01*
X112237500Y-93750000D02*
X112237500Y-94226700D01*
X101845000Y-56050000D02*
X100793300Y-56050000D01*
X100793300Y-56703500D02*
X98143300Y-59353500D01*
X111322500Y-94300500D02*
X112163700Y-94300500D01*
X98143300Y-87429800D02*
X100836000Y-90122500D01*
X98143300Y-59353500D02*
X98143300Y-87429800D01*
X103859000Y-90936800D02*
X103859000Y-93277900D01*
X100836000Y-90122500D02*
X103044700Y-90122500D01*
X112163700Y-94300500D02*
X112237500Y-94226700D01*
%TO.N,IN1A*%
X93142000Y-89487500D02*
X92647700Y-89487500D01*
X94507500Y-82160200D02*
X94214500Y-82453200D01*
X94214500Y-88415000D02*
X93142000Y-89487500D01*
X116310000Y-77795400D02*
X114982500Y-79122900D01*
X114982500Y-79122900D02*
X114982500Y-79357000D01*
X116310000Y-70000000D02*
X116310000Y-77795400D01*
X94214500Y-82453200D02*
X94214500Y-88415000D01*
%TO.N,MOTOR1B*%
X80095000Y-61460000D02*
X80095000Y-62611700D01*
X78943300Y-63475400D02*
X79807000Y-62611700D01*
X90340400Y-97107500D02*
X88995000Y-95762100D01*
X88995000Y-95762100D02*
X88995000Y-90057900D01*
X92647700Y-97107500D02*
X90340400Y-97107500D01*
X78943300Y-80006200D02*
X78943300Y-63475400D01*
X88995000Y-90057900D02*
X78943300Y-80006200D01*
X79807000Y-62611700D02*
X80095000Y-62611700D01*
%TO.N,MOTOR1A*%
X92194200Y-90757500D02*
X80095000Y-78658300D01*
X92647700Y-90757500D02*
X92194200Y-90757500D01*
X80095000Y-78658300D02*
X80095000Y-64000000D01*
%TO.N,MOTOR2B*%
X99000000Y-92660200D02*
X100903000Y-90757500D01*
X100903000Y-90757500D02*
X101937700Y-90757500D01*
X99000000Y-98000000D02*
X99000000Y-92660200D01*
X87540000Y-109460000D02*
X99000000Y-98000000D01*
X101937700Y-90757500D02*
X101938000Y-90757500D01*
X80095000Y-109460000D02*
X87540000Y-109460000D01*
%TO.N,MOTOR2A*%
X101937700Y-97107500D02*
X101938000Y-97107500D01*
X86000000Y-112000000D02*
X100892000Y-97107500D01*
X100892000Y-97107500D02*
X101937700Y-97107500D01*
X80095000Y-112000000D02*
X86000000Y-112000000D01*
%TO.N,MOTOR3A*%
X123719100Y-86314700D02*
X119276300Y-90757500D01*
X123719100Y-73447800D02*
X123719100Y-86314700D01*
X119276300Y-90757500D02*
X118780000Y-90757500D01*
%TO.N,MOTOR4A*%
X129947100Y-98476900D02*
X129947100Y-100852100D01*
X128577700Y-97107500D02*
X129947100Y-98476900D01*
X128070000Y-97107500D02*
X128577700Y-97107500D01*
X129947100Y-100852100D02*
X141095000Y-112000000D01*
%TO.N,MOTOR3B*%
X142286000Y-92751300D02*
X141307500Y-93729800D01*
X121055200Y-96622200D02*
X119265300Y-96622200D01*
X119265300Y-96622200D02*
X118780000Y-97107500D01*
X142286000Y-63514800D02*
X142286000Y-92751300D01*
X141382900Y-62611700D02*
X142286000Y-63514800D01*
X141095000Y-61460000D02*
X141095000Y-62611700D01*
X141095000Y-62611700D02*
X141382900Y-62611700D01*
%TO.N,MOTOR4B*%
X141095000Y-109460000D02*
X141095000Y-101435400D01*
X132395000Y-93259600D02*
X132395000Y-91946400D01*
X131206100Y-90757500D02*
X128070000Y-90757500D01*
X133443300Y-93783700D02*
X132919100Y-93783700D01*
X141095000Y-101435400D02*
X133443300Y-93783700D01*
X132919100Y-93783700D02*
X132395000Y-93259600D01*
X132395000Y-91946400D02*
X131206100Y-90757500D01*
%TD*%
%TA.AperFunction,Conductor*%
%TO.N,GND*%
G36*
X86538039Y-49520185D02*
G01*
X86583794Y-49572989D01*
X86595000Y-49624500D01*
X86595000Y-50750000D01*
X118052498Y-50750000D01*
X118119537Y-50769685D01*
X118165292Y-50822489D01*
X118175236Y-50891647D01*
X118146211Y-50955203D01*
X118114497Y-50981387D01*
X118068790Y-51007775D01*
X118068782Y-51007781D01*
X117812781Y-51263782D01*
X117812779Y-51263785D01*
X117787720Y-51307189D01*
X117764939Y-51346649D01*
X117762661Y-51350594D01*
X117762659Y-51350596D01*
X117733725Y-51400709D01*
X117733724Y-51400710D01*
X117733723Y-51400715D01*
X117692799Y-51553443D01*
X117692799Y-51553445D01*
X117692799Y-51721546D01*
X117692800Y-51721559D01*
X117692800Y-61050943D01*
X117692800Y-61209057D01*
X117732492Y-61357187D01*
X117733723Y-61361783D01*
X117733726Y-61361790D01*
X117812775Y-61498709D01*
X117812779Y-61498714D01*
X117812780Y-61498716D01*
X117924584Y-61610520D01*
X117924585Y-61610521D01*
X117924587Y-61610522D01*
X118006151Y-61657613D01*
X118054367Y-61708180D01*
X118067590Y-61776787D01*
X118041622Y-61841652D01*
X118006151Y-61872387D01*
X117924587Y-61919477D01*
X117924582Y-61919481D01*
X116417881Y-63426182D01*
X116417877Y-63426187D01*
X116375551Y-63499500D01*
X116375551Y-63499501D01*
X116338823Y-63563114D01*
X116334551Y-63579057D01*
X116297899Y-63715843D01*
X116297899Y-63715845D01*
X116297899Y-63883946D01*
X116297900Y-63883959D01*
X116297900Y-67678434D01*
X116278215Y-67745473D01*
X116277002Y-67747325D01*
X116189009Y-67879014D01*
X116189002Y-67879027D01*
X116128664Y-68024698D01*
X116128661Y-68024710D01*
X116097900Y-68179353D01*
X116097900Y-68337046D01*
X116128661Y-68491689D01*
X116128664Y-68491701D01*
X116164430Y-68578048D01*
X116171899Y-68647517D01*
X116140624Y-68709996D01*
X116080534Y-68745648D01*
X116049870Y-68749500D01*
X115812130Y-68749500D01*
X115812123Y-68749501D01*
X115752518Y-68755908D01*
X115718331Y-68768659D01*
X115648639Y-68773642D01*
X115631669Y-68768659D01*
X115597480Y-68755908D01*
X115597482Y-68755908D01*
X115537883Y-68749501D01*
X115537881Y-68749500D01*
X115537873Y-68749500D01*
X115537864Y-68749500D01*
X114542129Y-68749500D01*
X114542123Y-68749501D01*
X114482518Y-68755908D01*
X114448331Y-68768659D01*
X114378639Y-68773642D01*
X114361669Y-68768659D01*
X114327480Y-68755908D01*
X114327482Y-68755908D01*
X114267883Y-68749501D01*
X114267881Y-68749500D01*
X114267873Y-68749500D01*
X114267864Y-68749500D01*
X113272129Y-68749500D01*
X113272123Y-68749501D01*
X113212518Y-68755908D01*
X113178331Y-68768659D01*
X113108639Y-68773642D01*
X113091669Y-68768659D01*
X113057480Y-68755908D01*
X113057482Y-68755908D01*
X112997883Y-68749501D01*
X112997881Y-68749500D01*
X112997873Y-68749500D01*
X112997864Y-68749500D01*
X112002129Y-68749500D01*
X112002123Y-68749501D01*
X111942518Y-68755908D01*
X111908331Y-68768659D01*
X111838639Y-68773642D01*
X111821669Y-68768659D01*
X111787480Y-68755908D01*
X111787482Y-68755908D01*
X111727883Y-68749501D01*
X111727881Y-68749500D01*
X111727873Y-68749500D01*
X111727864Y-68749500D01*
X110732129Y-68749500D01*
X110732123Y-68749501D01*
X110672518Y-68755908D01*
X110638331Y-68768659D01*
X110568639Y-68773642D01*
X110551669Y-68768659D01*
X110517480Y-68755908D01*
X110517482Y-68755908D01*
X110457883Y-68749501D01*
X110457881Y-68749500D01*
X110457873Y-68749500D01*
X110457864Y-68749500D01*
X109462129Y-68749500D01*
X109462123Y-68749501D01*
X109402518Y-68755908D01*
X109368331Y-68768659D01*
X109298639Y-68773642D01*
X109281669Y-68768659D01*
X109247480Y-68755908D01*
X109247482Y-68755908D01*
X109187883Y-68749501D01*
X109187881Y-68749500D01*
X109187873Y-68749500D01*
X109187864Y-68749500D01*
X108192129Y-68749500D01*
X108192123Y-68749501D01*
X108132518Y-68755908D01*
X108098331Y-68768659D01*
X108028639Y-68773642D01*
X108011669Y-68768659D01*
X107977480Y-68755908D01*
X107977482Y-68755908D01*
X107917883Y-68749501D01*
X107917881Y-68749500D01*
X107917873Y-68749500D01*
X107917864Y-68749500D01*
X106922129Y-68749500D01*
X106922123Y-68749501D01*
X106862518Y-68755908D01*
X106828331Y-68768659D01*
X106758639Y-68773642D01*
X106741669Y-68768659D01*
X106707480Y-68755908D01*
X106707482Y-68755908D01*
X106647883Y-68749501D01*
X106647881Y-68749500D01*
X106647873Y-68749500D01*
X106647864Y-68749500D01*
X105652129Y-68749500D01*
X105652123Y-68749501D01*
X105592518Y-68755908D01*
X105558331Y-68768659D01*
X105488639Y-68773642D01*
X105471669Y-68768659D01*
X105437480Y-68755908D01*
X105437482Y-68755908D01*
X105377883Y-68749501D01*
X105377881Y-68749500D01*
X105377873Y-68749500D01*
X105377864Y-68749500D01*
X104382129Y-68749500D01*
X104382123Y-68749501D01*
X104322518Y-68755908D01*
X104288331Y-68768659D01*
X104261973Y-68770543D01*
X104236157Y-68776160D01*
X104223110Y-68773322D01*
X104218639Y-68773642D01*
X104201670Y-68768659D01*
X104179970Y-68760566D01*
X104124035Y-68718696D01*
X104099616Y-68653232D01*
X104114466Y-68584959D01*
X104154411Y-68541280D01*
X104180289Y-68523989D01*
X104291789Y-68412489D01*
X104379394Y-68281379D01*
X104439737Y-68135697D01*
X104470500Y-67981042D01*
X104470500Y-67823358D01*
X104470500Y-67823355D01*
X104470499Y-67823353D01*
X104439737Y-67668703D01*
X104439735Y-67668698D01*
X104379397Y-67523027D01*
X104379390Y-67523014D01*
X104291789Y-67391911D01*
X104291786Y-67391907D01*
X104180292Y-67280413D01*
X104180288Y-67280410D01*
X104049185Y-67192809D01*
X104049172Y-67192802D01*
X103903501Y-67132464D01*
X103903491Y-67132461D01*
X103748151Y-67101562D01*
X103736778Y-67096424D01*
X103727888Y-67095702D01*
X103711233Y-67084884D01*
X103697076Y-67078489D01*
X103690509Y-67073473D01*
X103616516Y-66999480D01*
X103529704Y-66949360D01*
X103479585Y-66920423D01*
X103326857Y-66879499D01*
X103215094Y-66879499D01*
X103148055Y-66859814D01*
X103102300Y-66807010D01*
X103091804Y-66742245D01*
X103095500Y-66707873D01*
X103095499Y-65712128D01*
X103089091Y-65652517D01*
X103076340Y-65618332D01*
X103071357Y-65548642D01*
X103076340Y-65531669D01*
X103089091Y-65497483D01*
X103095500Y-65437873D01*
X103095499Y-64442128D01*
X103089091Y-64382517D01*
X103076340Y-64348332D01*
X103071357Y-64278642D01*
X103076340Y-64261669D01*
X103089091Y-64227483D01*
X103095500Y-64167873D01*
X103095499Y-63172128D01*
X103089091Y-63112517D01*
X103076340Y-63078332D01*
X103071357Y-63008642D01*
X103076338Y-62991672D01*
X103089091Y-62957483D01*
X103095500Y-62897873D01*
X103095499Y-61902128D01*
X103089091Y-61842517D01*
X103076340Y-61808332D01*
X103071357Y-61738642D01*
X103076338Y-61721672D01*
X103089091Y-61687483D01*
X103095500Y-61627873D01*
X103095499Y-60632128D01*
X103089091Y-60572517D01*
X103076340Y-60538332D01*
X103071357Y-60468642D01*
X103076338Y-60451672D01*
X103089091Y-60417483D01*
X103095500Y-60357873D01*
X103095499Y-59362128D01*
X103089091Y-59302517D01*
X103076340Y-59268332D01*
X103071357Y-59198642D01*
X103076338Y-59181672D01*
X103089091Y-59147483D01*
X103095500Y-59087873D01*
X103095499Y-58092128D01*
X103089091Y-58032517D01*
X103076340Y-57998332D01*
X103071357Y-57928642D01*
X103076338Y-57911672D01*
X103089091Y-57877483D01*
X103095500Y-57817873D01*
X103095499Y-56822128D01*
X103089091Y-56762517D01*
X103076340Y-56728332D01*
X103071357Y-56658642D01*
X103076338Y-56641672D01*
X103089091Y-56607483D01*
X103095500Y-56547873D01*
X103095499Y-55552128D01*
X103089091Y-55492517D01*
X103076340Y-55458332D01*
X103071357Y-55388642D01*
X103076338Y-55371672D01*
X103089091Y-55337483D01*
X103095500Y-55277873D01*
X103095499Y-54282128D01*
X103089091Y-54222517D01*
X103089091Y-54222515D01*
X103085791Y-54213669D01*
X103083398Y-54180233D01*
X103080212Y-54146866D01*
X103080913Y-54145505D01*
X103080804Y-54143978D01*
X103096869Y-54114553D01*
X103112227Y-54084763D01*
X103113818Y-54083511D01*
X103114287Y-54082653D01*
X103139947Y-54062963D01*
X103139967Y-54062947D01*
X103185429Y-54036700D01*
X103249862Y-53999500D01*
X103268382Y-53988808D01*
X103336282Y-53972337D01*
X103377832Y-53981634D01*
X103436503Y-54005937D01*
X103591148Y-54036698D01*
X103591153Y-54036699D01*
X103591156Y-54036700D01*
X103591158Y-54036700D01*
X103748844Y-54036700D01*
X103748845Y-54036699D01*
X103903497Y-54005937D01*
X104046272Y-53946798D01*
X104049172Y-53945597D01*
X104049172Y-53945596D01*
X104049179Y-53945594D01*
X104180289Y-53857989D01*
X104291789Y-53746489D01*
X104379394Y-53615379D01*
X104439737Y-53469697D01*
X104470500Y-53315042D01*
X104470500Y-53157358D01*
X104470500Y-53157355D01*
X104470499Y-53157353D01*
X104441612Y-53012129D01*
X104439737Y-53002703D01*
X104431766Y-52983458D01*
X104379397Y-52857027D01*
X104379390Y-52857014D01*
X104291789Y-52725911D01*
X104291786Y-52725907D01*
X104180292Y-52614413D01*
X104180288Y-52614410D01*
X104049185Y-52526809D01*
X104049172Y-52526802D01*
X103903501Y-52466464D01*
X103903489Y-52466461D01*
X103748845Y-52435700D01*
X103748842Y-52435700D01*
X103591158Y-52435700D01*
X103591155Y-52435700D01*
X103436510Y-52466461D01*
X103436498Y-52466464D01*
X103290827Y-52526802D01*
X103290813Y-52526810D01*
X103280104Y-52533965D01*
X103213425Y-52554838D01*
X103146046Y-52536349D01*
X103123539Y-52518539D01*
X103095000Y-52490000D01*
X100595000Y-52490000D01*
X100595000Y-52737844D01*
X100601401Y-52797372D01*
X100601403Y-52797379D01*
X100613925Y-52830952D01*
X100618909Y-52900643D01*
X100613925Y-52917617D01*
X100600909Y-52952514D01*
X100600908Y-52952516D01*
X100595513Y-53002703D01*
X100594501Y-53012125D01*
X100594500Y-53012135D01*
X100594500Y-53512366D01*
X100574815Y-53579405D01*
X100522011Y-53625160D01*
X100452853Y-53635104D01*
X100433048Y-53630575D01*
X100420183Y-53626498D01*
X100402385Y-53616223D01*
X100307516Y-53590802D01*
X100304860Y-53589961D01*
X100278109Y-53571955D01*
X100250558Y-53555162D01*
X100249294Y-53552560D01*
X100246897Y-53550947D01*
X100234124Y-53521331D01*
X100220029Y-53492315D01*
X100219900Y-53488351D01*
X100219227Y-53486790D01*
X100219747Y-53483642D01*
X100218954Y-53459147D01*
X100224999Y-53399981D01*
X100225000Y-53399973D01*
X100225000Y-53350000D01*
X97775001Y-53350000D01*
X97775001Y-53399986D01*
X97785494Y-53502697D01*
X97842914Y-53675977D01*
X97840930Y-53676634D01*
X97842757Y-53688672D01*
X97850661Y-53709754D01*
X97847899Y-53722552D01*
X97849864Y-53735496D01*
X97840672Y-53756046D01*
X97836680Y-53774543D01*
X97837307Y-53774857D01*
X97837306Y-53774859D01*
X97836316Y-53776231D01*
X97835924Y-53778052D01*
X97823219Y-53795068D01*
X97821337Y-53799276D01*
X97814820Y-53806342D01*
X97814225Y-53806939D01*
X97814222Y-53806940D01*
X97814153Y-53807010D01*
X97814141Y-53806998D01*
X97814078Y-53807086D01*
X97276226Y-54344937D01*
X97214903Y-54378422D01*
X97145211Y-54373438D01*
X97089278Y-54331566D01*
X97083006Y-54322353D01*
X97057712Y-54281344D01*
X96933656Y-54157288D01*
X96930342Y-54155243D01*
X96928546Y-54153248D01*
X96927989Y-54152807D01*
X96928064Y-54152711D01*
X96883618Y-54103297D01*
X96872397Y-54034334D01*
X96900240Y-53970252D01*
X96930348Y-53944165D01*
X96933342Y-53942318D01*
X97057315Y-53818345D01*
X97149356Y-53669124D01*
X97149358Y-53669119D01*
X97204505Y-53502697D01*
X97204506Y-53502690D01*
X97214999Y-53399986D01*
X97215000Y-53399973D01*
X97215000Y-53350000D01*
X94765001Y-53350000D01*
X94765001Y-53399986D01*
X94775494Y-53502697D01*
X94830641Y-53669119D01*
X94830643Y-53669124D01*
X94922684Y-53818345D01*
X95046655Y-53942316D01*
X95046659Y-53942319D01*
X95049656Y-53944168D01*
X95051279Y-53945972D01*
X95052323Y-53946798D01*
X95052181Y-53946976D01*
X95096381Y-53996116D01*
X95107602Y-54065079D01*
X95079759Y-54129161D01*
X95049661Y-54155241D01*
X95046349Y-54157283D01*
X95046343Y-54157288D01*
X94922289Y-54281342D01*
X94830187Y-54430663D01*
X94830186Y-54430666D01*
X94775001Y-54597203D01*
X94775001Y-54597204D01*
X94775000Y-54597204D01*
X94764500Y-54699983D01*
X94764500Y-55300001D01*
X94764501Y-55300019D01*
X94775000Y-55402796D01*
X94775001Y-55402799D01*
X94806939Y-55499180D01*
X94830186Y-55569334D01*
X94922288Y-55718656D01*
X95046344Y-55842712D01*
X95195666Y-55934814D01*
X95304503Y-55970879D01*
X95361948Y-56010652D01*
X95388771Y-56075168D01*
X95389499Y-56088585D01*
X95389499Y-56187254D01*
X95389498Y-56187254D01*
X95430423Y-56339985D01*
X95451164Y-56375909D01*
X95451163Y-56375909D01*
X95451164Y-56375910D01*
X95509475Y-56476909D01*
X95509481Y-56476917D01*
X95610126Y-56577562D01*
X95643611Y-56638885D01*
X95644062Y-56641051D01*
X95674961Y-56796391D01*
X95674964Y-56796401D01*
X95735302Y-56942072D01*
X95735309Y-56942085D01*
X95822910Y-57073188D01*
X95822913Y-57073192D01*
X95934407Y-57184686D01*
X95934411Y-57184689D01*
X96065514Y-57272290D01*
X96065527Y-57272297D01*
X96211198Y-57332635D01*
X96211203Y-57332637D01*
X96346091Y-57359468D01*
X96408002Y-57391852D01*
X96442576Y-57452568D01*
X96445900Y-57481085D01*
X96445900Y-58741002D01*
X96426215Y-58808041D01*
X96409581Y-58828683D01*
X95700082Y-59538181D01*
X95638759Y-59571666D01*
X95612401Y-59574500D01*
X94999998Y-59574500D01*
X94999980Y-59574501D01*
X94897203Y-59585000D01*
X94897200Y-59585001D01*
X94730668Y-59640185D01*
X94730663Y-59640187D01*
X94581342Y-59732289D01*
X94457289Y-59856342D01*
X94429539Y-59901333D01*
X94377591Y-59948057D01*
X94308628Y-59959280D01*
X94244546Y-59931436D01*
X94205690Y-59873367D01*
X94200000Y-59836236D01*
X94200000Y-59750000D01*
X92550000Y-59750000D01*
X92550000Y-60500000D01*
X93747828Y-60500000D01*
X93747844Y-60499999D01*
X93807372Y-60493598D01*
X93807379Y-60493596D01*
X93942086Y-60443354D01*
X93942093Y-60443350D01*
X94057187Y-60357190D01*
X94057188Y-60357189D01*
X94076233Y-60331749D01*
X94132166Y-60289877D01*
X94201858Y-60284893D01*
X94263181Y-60318378D01*
X94296666Y-60379701D01*
X94299500Y-60406059D01*
X94299500Y-60887401D01*
X94279815Y-60954440D01*
X94263181Y-60975082D01*
X93635787Y-61602476D01*
X93635779Y-61602484D01*
X93632986Y-61605278D01*
X93632984Y-61605280D01*
X93521180Y-61717084D01*
X93501117Y-61751835D01*
X93494957Y-61762502D01*
X93494956Y-61762505D01*
X93455602Y-61830668D01*
X93442123Y-61854015D01*
X93401199Y-62006743D01*
X93401199Y-62006745D01*
X93401199Y-62174846D01*
X93401200Y-62174859D01*
X93401200Y-62375500D01*
X93381515Y-62442539D01*
X93328711Y-62488294D01*
X93277200Y-62499500D01*
X90852129Y-62499500D01*
X90852123Y-62499501D01*
X90792516Y-62505908D01*
X90657671Y-62556202D01*
X90657664Y-62556206D01*
X90542455Y-62642452D01*
X90542452Y-62642455D01*
X90456206Y-62757664D01*
X90456202Y-62757671D01*
X90433391Y-62818833D01*
X90391520Y-62874767D01*
X90326056Y-62899184D01*
X90317209Y-62899500D01*
X88926200Y-62899500D01*
X88859161Y-62879815D01*
X88813406Y-62827011D01*
X88802200Y-62775500D01*
X88802200Y-60047844D01*
X90400000Y-60047844D01*
X90406401Y-60107372D01*
X90406403Y-60107379D01*
X90456645Y-60242086D01*
X90456649Y-60242093D01*
X90542809Y-60357187D01*
X90542812Y-60357190D01*
X90657906Y-60443350D01*
X90657913Y-60443354D01*
X90792620Y-60493596D01*
X90792627Y-60493598D01*
X90852155Y-60499999D01*
X90852172Y-60500000D01*
X92050000Y-60500000D01*
X92050000Y-59750000D01*
X90400000Y-59750000D01*
X90400000Y-60047844D01*
X88802200Y-60047844D01*
X88802200Y-58952155D01*
X90400000Y-58952155D01*
X90400000Y-59250000D01*
X92050000Y-59250000D01*
X92550000Y-59250000D01*
X94200000Y-59250000D01*
X94200000Y-58952172D01*
X94199999Y-58952155D01*
X94193598Y-58892627D01*
X94193596Y-58892620D01*
X94143354Y-58757913D01*
X94143350Y-58757906D01*
X94057190Y-58642812D01*
X94057187Y-58642809D01*
X93942093Y-58556649D01*
X93942086Y-58556645D01*
X93807379Y-58506403D01*
X93807372Y-58506401D01*
X93747844Y-58500000D01*
X92550000Y-58500000D01*
X92550000Y-59250000D01*
X92050000Y-59250000D01*
X92050000Y-58500000D01*
X90852155Y-58500000D01*
X90792627Y-58506401D01*
X90792620Y-58506403D01*
X90657913Y-58556645D01*
X90657906Y-58556649D01*
X90542812Y-58642809D01*
X90542809Y-58642812D01*
X90456649Y-58757906D01*
X90456645Y-58757913D01*
X90406403Y-58892620D01*
X90406401Y-58892627D01*
X90400000Y-58952155D01*
X88802200Y-58952155D01*
X88802200Y-55724999D01*
X89150000Y-55724999D01*
X89199972Y-55724999D01*
X89199986Y-55724998D01*
X89302697Y-55714505D01*
X89469119Y-55659358D01*
X89469124Y-55659356D01*
X89618345Y-55567315D01*
X89742315Y-55443345D01*
X89834356Y-55294124D01*
X89834358Y-55294119D01*
X89889505Y-55127697D01*
X89889506Y-55127690D01*
X89899999Y-55024986D01*
X89900000Y-55024973D01*
X89900000Y-54750000D01*
X89150000Y-54750000D01*
X89150000Y-55724999D01*
X88802200Y-55724999D01*
X88802200Y-55622645D01*
X88802200Y-55622643D01*
X88761277Y-55469916D01*
X88754590Y-55458334D01*
X88682224Y-55332990D01*
X88682221Y-55332987D01*
X88682220Y-55332984D01*
X88682217Y-55332981D01*
X88677274Y-55326539D01*
X88679590Y-55324761D01*
X88652834Y-55275760D01*
X88650000Y-55249402D01*
X88650000Y-54699983D01*
X91754500Y-54699983D01*
X91754500Y-55300001D01*
X91754501Y-55300019D01*
X91765000Y-55402796D01*
X91765001Y-55402799D01*
X91796939Y-55499180D01*
X91820186Y-55569334D01*
X91912149Y-55718431D01*
X91912289Y-55718657D01*
X92036344Y-55842712D01*
X92060389Y-55857543D01*
X92107114Y-55909491D01*
X92118337Y-55978453D01*
X92098395Y-56031972D01*
X92013712Y-56158709D01*
X92013702Y-56158727D01*
X91953364Y-56304398D01*
X91953361Y-56304410D01*
X91922600Y-56459053D01*
X91922600Y-56616746D01*
X91953361Y-56771389D01*
X91953364Y-56771401D01*
X92013702Y-56917072D01*
X92013709Y-56917085D01*
X92101310Y-57048188D01*
X92101313Y-57048192D01*
X92212807Y-57159686D01*
X92212811Y-57159689D01*
X92343914Y-57247290D01*
X92343927Y-57247297D01*
X92489598Y-57307635D01*
X92489603Y-57307637D01*
X92615276Y-57332635D01*
X92644253Y-57338399D01*
X92644256Y-57338400D01*
X92644258Y-57338400D01*
X92801944Y-57338400D01*
X92801945Y-57338399D01*
X92956597Y-57307637D01*
X93102279Y-57247294D01*
X93233389Y-57159689D01*
X93344889Y-57048189D01*
X93432494Y-56917079D01*
X93492837Y-56771397D01*
X93523600Y-56616742D01*
X93523600Y-56573682D01*
X93528720Y-56538419D01*
X93532886Y-56524372D01*
X93539577Y-56512784D01*
X93569534Y-56400981D01*
X93580500Y-56360058D01*
X93580500Y-56201943D01*
X93580500Y-56088585D01*
X93600185Y-56021546D01*
X93652989Y-55975791D01*
X93665489Y-55970881D01*
X93774334Y-55934814D01*
X93923656Y-55842712D01*
X94047712Y-55718656D01*
X94139814Y-55569334D01*
X94194999Y-55402797D01*
X94205500Y-55300009D01*
X94205499Y-54699992D01*
X94200521Y-54651264D01*
X94194999Y-54597203D01*
X94194998Y-54597200D01*
X94139814Y-54430666D01*
X94047712Y-54281344D01*
X93923656Y-54157288D01*
X93920342Y-54155243D01*
X93918546Y-54153248D01*
X93917989Y-54152807D01*
X93918064Y-54152711D01*
X93873618Y-54103297D01*
X93862397Y-54034334D01*
X93890240Y-53970252D01*
X93920348Y-53944165D01*
X93923342Y-53942318D01*
X94047315Y-53818345D01*
X94139356Y-53669124D01*
X94139358Y-53669119D01*
X94194505Y-53502697D01*
X94194506Y-53502690D01*
X94204999Y-53399986D01*
X94205000Y-53399973D01*
X94205000Y-53350000D01*
X91755001Y-53350000D01*
X91755001Y-53399986D01*
X91765494Y-53502697D01*
X91820641Y-53669119D01*
X91820643Y-53669124D01*
X91912684Y-53818345D01*
X92036655Y-53942316D01*
X92036659Y-53942319D01*
X92039656Y-53944168D01*
X92041279Y-53945972D01*
X92042323Y-53946798D01*
X92042181Y-53946976D01*
X92086381Y-53996116D01*
X92097602Y-54065079D01*
X92069759Y-54129161D01*
X92039661Y-54155241D01*
X92036349Y-54157283D01*
X92036343Y-54157288D01*
X91912289Y-54281342D01*
X91820187Y-54430663D01*
X91820186Y-54430666D01*
X91765001Y-54597203D01*
X91765001Y-54597204D01*
X91765000Y-54597204D01*
X91754500Y-54699983D01*
X88650000Y-54699983D01*
X88650000Y-54250000D01*
X89150000Y-54250000D01*
X89899999Y-54250000D01*
X89899999Y-53975028D01*
X89899998Y-53975013D01*
X89889505Y-53872302D01*
X89834358Y-53705880D01*
X89834356Y-53705875D01*
X89742315Y-53556654D01*
X89618345Y-53432684D01*
X89469124Y-53340643D01*
X89469119Y-53340641D01*
X89302697Y-53285494D01*
X89302690Y-53285493D01*
X89199986Y-53275000D01*
X89150000Y-53275000D01*
X89150000Y-54250000D01*
X88650000Y-54250000D01*
X88650000Y-53275000D01*
X88649999Y-53274999D01*
X88600029Y-53275000D01*
X88600011Y-53275001D01*
X88497302Y-53285494D01*
X88330880Y-53340641D01*
X88330875Y-53340643D01*
X88181654Y-53432684D01*
X88057683Y-53556655D01*
X88057679Y-53556660D01*
X88055826Y-53559665D01*
X88054018Y-53561290D01*
X88053202Y-53562323D01*
X88053025Y-53562183D01*
X88003874Y-53606385D01*
X87934911Y-53617601D01*
X87870831Y-53589752D01*
X87844753Y-53559653D01*
X87844737Y-53559628D01*
X87842712Y-53556344D01*
X87718656Y-53432288D01*
X87569334Y-53340186D01*
X87402797Y-53285001D01*
X87402795Y-53285000D01*
X87300010Y-53274500D01*
X86699998Y-53274500D01*
X86699980Y-53274501D01*
X86597203Y-53285000D01*
X86597200Y-53285001D01*
X86430668Y-53340185D01*
X86430663Y-53340187D01*
X86281342Y-53432289D01*
X86157289Y-53556342D01*
X86065187Y-53705663D01*
X86065185Y-53705668D01*
X86050341Y-53750464D01*
X86010001Y-53872203D01*
X86010001Y-53872204D01*
X86010000Y-53872204D01*
X85999500Y-53974983D01*
X85999500Y-55025001D01*
X85999501Y-55025019D01*
X86010000Y-55127796D01*
X86010001Y-55127799D01*
X86065185Y-55294331D01*
X86065187Y-55294336D01*
X86085899Y-55327915D01*
X86157288Y-55443656D01*
X86281344Y-55567712D01*
X86430666Y-55659814D01*
X86597203Y-55714999D01*
X86699991Y-55725500D01*
X87300008Y-55725499D01*
X87310576Y-55724419D01*
X87312500Y-55724777D01*
X87314334Y-55724093D01*
X87346694Y-55731132D01*
X87379268Y-55737187D01*
X87381300Y-55738660D01*
X87382607Y-55738945D01*
X87410861Y-55760096D01*
X87564881Y-55914116D01*
X87598366Y-55975439D01*
X87601200Y-56001797D01*
X87601200Y-58376000D01*
X87581515Y-58443039D01*
X87528711Y-58488794D01*
X87477200Y-58500000D01*
X86750000Y-58500000D01*
X86750000Y-60500000D01*
X87477200Y-60500000D01*
X87544239Y-60519685D01*
X87589994Y-60572489D01*
X87601200Y-60624000D01*
X87601200Y-62375500D01*
X87581515Y-62442539D01*
X87528711Y-62488294D01*
X87477200Y-62499500D01*
X85052129Y-62499500D01*
X85052123Y-62499501D01*
X84992516Y-62505908D01*
X84857671Y-62556202D01*
X84857664Y-62556206D01*
X84742455Y-62642452D01*
X84742452Y-62642455D01*
X84656206Y-62757664D01*
X84656202Y-62757671D01*
X84605908Y-62892517D01*
X84599501Y-62952116D01*
X84599500Y-62952135D01*
X84599500Y-64047870D01*
X84599501Y-64047876D01*
X84605908Y-64107483D01*
X84656202Y-64242328D01*
X84656206Y-64242335D01*
X84742452Y-64357544D01*
X84742455Y-64357547D01*
X84857664Y-64443793D01*
X84857671Y-64443797D01*
X84992517Y-64494091D01*
X84992516Y-64494091D01*
X84999444Y-64494835D01*
X85052127Y-64500500D01*
X87947872Y-64500499D01*
X88007483Y-64494091D01*
X88142331Y-64443796D01*
X88257546Y-64357546D01*
X88343796Y-64242331D01*
X88366609Y-64181167D01*
X88408480Y-64125233D01*
X88473944Y-64100816D01*
X88482791Y-64100500D01*
X90317209Y-64100500D01*
X90384248Y-64120185D01*
X90430003Y-64172989D01*
X90433391Y-64181167D01*
X90456202Y-64242328D01*
X90456206Y-64242335D01*
X90542452Y-64357544D01*
X90542455Y-64357547D01*
X90657664Y-64443793D01*
X90657671Y-64443797D01*
X90792517Y-64494091D01*
X90792516Y-64494091D01*
X90799444Y-64494835D01*
X90852127Y-64500500D01*
X93747872Y-64500499D01*
X93807483Y-64494091D01*
X93894395Y-64461675D01*
X93964086Y-64456691D01*
X94025410Y-64490176D01*
X94058894Y-64551499D01*
X94059345Y-64602048D01*
X94034500Y-64726953D01*
X94034500Y-64884646D01*
X94065261Y-65039289D01*
X94065264Y-65039301D01*
X94125602Y-65184972D01*
X94125609Y-65184985D01*
X94213210Y-65316088D01*
X94213213Y-65316092D01*
X94324707Y-65427586D01*
X94324711Y-65427589D01*
X94455814Y-65515190D01*
X94455827Y-65515197D01*
X94601498Y-65575535D01*
X94601503Y-65575537D01*
X94731328Y-65601361D01*
X94756153Y-65606299D01*
X94756156Y-65606300D01*
X94756158Y-65606300D01*
X94913844Y-65606300D01*
X94913845Y-65606299D01*
X95068497Y-65575537D01*
X95214179Y-65515194D01*
X95345289Y-65427589D01*
X95456789Y-65316089D01*
X95544394Y-65184979D01*
X95604737Y-65039297D01*
X95624113Y-64941885D01*
X95635638Y-64883950D01*
X95668023Y-64822039D01*
X95669526Y-64820508D01*
X95858506Y-64631527D01*
X95858511Y-64631524D01*
X95868714Y-64621320D01*
X95868716Y-64621320D01*
X95980520Y-64509516D01*
X95985726Y-64500499D01*
X96048868Y-64391134D01*
X96048869Y-64391131D01*
X96059577Y-64372585D01*
X96100501Y-64219857D01*
X96100501Y-64061743D01*
X96100501Y-64054148D01*
X96100500Y-64054130D01*
X96100500Y-63505300D01*
X96120185Y-63438261D01*
X96172989Y-63392506D01*
X96185482Y-63387599D01*
X96269334Y-63359814D01*
X96418656Y-63267712D01*
X96542712Y-63143656D01*
X96634814Y-62994334D01*
X96689999Y-62827797D01*
X96700500Y-62725009D01*
X96700499Y-62099992D01*
X96689999Y-61997203D01*
X96634814Y-61830666D01*
X96542712Y-61681344D01*
X96449049Y-61587681D01*
X96415564Y-61526358D01*
X96420548Y-61456666D01*
X96449049Y-61412319D01*
X96542712Y-61318656D01*
X96634814Y-61169334D01*
X96689999Y-61002797D01*
X96700500Y-60900009D01*
X96700499Y-60287595D01*
X96720183Y-60220557D01*
X96736813Y-60199920D01*
X97331119Y-59605615D01*
X97392442Y-59572130D01*
X97462134Y-59577114D01*
X97518067Y-59618986D01*
X97542484Y-59684450D01*
X97542800Y-59693296D01*
X97542800Y-80557125D01*
X97523115Y-80624164D01*
X97470311Y-80669919D01*
X97401153Y-80679863D01*
X97371348Y-80671686D01*
X97240201Y-80617364D01*
X97240189Y-80617361D01*
X97085545Y-80586600D01*
X97085542Y-80586600D01*
X96927858Y-80586600D01*
X96927855Y-80586600D01*
X96773210Y-80617361D01*
X96773197Y-80617365D01*
X96771939Y-80617886D01*
X96771228Y-80617962D01*
X96767376Y-80619131D01*
X96767154Y-80618399D01*
X96702469Y-80625346D01*
X96639993Y-80594064D01*
X96604348Y-80533971D01*
X96600500Y-80503319D01*
X96600500Y-80475945D01*
X96600500Y-80475943D01*
X96559577Y-80323216D01*
X96559577Y-80323215D01*
X96510369Y-80237985D01*
X96480520Y-80186284D01*
X96368716Y-80074480D01*
X96368715Y-80074479D01*
X96364385Y-80070149D01*
X96364374Y-80070139D01*
X95981818Y-79687583D01*
X95948333Y-79626260D01*
X95945499Y-79599902D01*
X95945499Y-78199998D01*
X95945498Y-78199981D01*
X95934999Y-78097203D01*
X95934998Y-78097200D01*
X95879814Y-77930666D01*
X95787712Y-77781344D01*
X95663656Y-77657288D01*
X95514334Y-77565186D01*
X95347797Y-77510001D01*
X95347795Y-77510000D01*
X95245010Y-77499500D01*
X93644998Y-77499500D01*
X93644981Y-77499501D01*
X93542203Y-77510000D01*
X93542200Y-77510001D01*
X93375668Y-77565185D01*
X93375663Y-77565187D01*
X93226342Y-77657289D01*
X93102289Y-77781342D01*
X93010187Y-77930663D01*
X93010186Y-77930666D01*
X92955001Y-78097203D01*
X92955001Y-78097204D01*
X92955000Y-78097204D01*
X92944500Y-78199983D01*
X92944500Y-79800001D01*
X92944501Y-79800018D01*
X92955000Y-79902796D01*
X92955001Y-79902799D01*
X93010185Y-80069331D01*
X93010187Y-80069336D01*
X93013359Y-80074478D01*
X93102288Y-80218656D01*
X93226344Y-80342712D01*
X93375666Y-80434814D01*
X93542203Y-80489999D01*
X93644991Y-80500500D01*
X95044902Y-80500499D01*
X95111941Y-80520184D01*
X95132583Y-80536818D01*
X95363181Y-80767416D01*
X95396666Y-80828739D01*
X95399500Y-80855097D01*
X95399500Y-81645536D01*
X95379815Y-81712575D01*
X95327011Y-81758330D01*
X95257853Y-81768274D01*
X95194297Y-81739249D01*
X95172398Y-81714427D01*
X95129289Y-81649911D01*
X95129286Y-81649907D01*
X95017792Y-81538413D01*
X95017788Y-81538410D01*
X94886685Y-81450809D01*
X94886672Y-81450802D01*
X94741001Y-81390464D01*
X94740989Y-81390461D01*
X94586345Y-81359700D01*
X94586342Y-81359700D01*
X94428658Y-81359700D01*
X94428655Y-81359700D01*
X94274010Y-81390461D01*
X94273998Y-81390464D01*
X94128327Y-81450802D01*
X94128314Y-81450809D01*
X93997211Y-81538410D01*
X93997207Y-81538413D01*
X93885713Y-81649907D01*
X93885710Y-81649911D01*
X93798109Y-81781014D01*
X93798102Y-81781027D01*
X93737764Y-81926698D01*
X93737761Y-81926710D01*
X93707000Y-82081353D01*
X93707000Y-82097989D01*
X93702850Y-82113474D01*
X93703506Y-82127219D01*
X93690389Y-82159985D01*
X93683862Y-82171291D01*
X93683859Y-82171296D01*
X93654925Y-82221409D01*
X93654924Y-82221410D01*
X93654923Y-82221415D01*
X93613999Y-82374143D01*
X93613999Y-82374145D01*
X93613999Y-82542246D01*
X93614000Y-82542259D01*
X93614000Y-87298000D01*
X93611449Y-87306685D01*
X93612738Y-87315647D01*
X93601759Y-87339687D01*
X93594315Y-87365039D01*
X93587474Y-87370966D01*
X93583713Y-87379203D01*
X93561478Y-87393492D01*
X93541511Y-87410794D01*
X93530996Y-87413081D01*
X93524935Y-87416977D01*
X93490000Y-87422000D01*
X93335727Y-87422000D01*
X93268688Y-87402315D01*
X93222933Y-87349511D01*
X93215952Y-87330093D01*
X93215689Y-87329111D01*
X93207277Y-87297715D01*
X93163407Y-87221731D01*
X93163406Y-87221728D01*
X93145812Y-87191253D01*
X93131424Y-87137557D01*
X93129797Y-87137718D01*
X93129200Y-87131663D01*
X93129200Y-87131658D01*
X93098437Y-86977003D01*
X93098435Y-86976998D01*
X93038097Y-86831327D01*
X93038090Y-86831314D01*
X92950489Y-86700211D01*
X92950486Y-86700207D01*
X92838992Y-86588713D01*
X92838988Y-86588710D01*
X92707885Y-86501109D01*
X92707872Y-86501102D01*
X92562201Y-86440764D01*
X92562189Y-86440761D01*
X92407545Y-86410000D01*
X92407542Y-86410000D01*
X92249858Y-86410000D01*
X92249855Y-86410000D01*
X92095210Y-86440761D01*
X92095198Y-86440764D01*
X91949527Y-86501102D01*
X91949514Y-86501109D01*
X91818411Y-86588710D01*
X91818407Y-86588713D01*
X91706913Y-86700207D01*
X91706910Y-86700211D01*
X91619309Y-86831314D01*
X91619302Y-86831327D01*
X91558964Y-86976998D01*
X91558961Y-86977010D01*
X91528200Y-87131653D01*
X91528200Y-87289346D01*
X91536076Y-87328941D01*
X91529849Y-87398532D01*
X91486986Y-87453710D01*
X91461912Y-87467693D01*
X91396848Y-87494643D01*
X91276890Y-87586690D01*
X91184842Y-87706649D01*
X91126982Y-87846337D01*
X91126981Y-87846341D01*
X91112200Y-87958605D01*
X91112200Y-88476389D01*
X91117566Y-88517146D01*
X91106799Y-88586181D01*
X91060419Y-88638436D01*
X90993149Y-88657320D01*
X90926349Y-88636838D01*
X90906946Y-88621010D01*
X80731819Y-78445883D01*
X80698334Y-78384560D01*
X80695500Y-78358202D01*
X80695500Y-65285718D01*
X80715185Y-65218679D01*
X80763207Y-65175233D01*
X80802815Y-65155052D01*
X80802815Y-65155051D01*
X80802816Y-65155051D01*
X80894193Y-65088661D01*
X80974786Y-65030109D01*
X80974788Y-65030106D01*
X80974792Y-65030104D01*
X81125104Y-64879792D01*
X81125106Y-64879788D01*
X81125109Y-64879786D01*
X81250048Y-64707820D01*
X81250047Y-64707820D01*
X81250051Y-64707816D01*
X81346557Y-64518412D01*
X81412246Y-64316243D01*
X81445500Y-64106287D01*
X81445500Y-63893713D01*
X81412246Y-63683757D01*
X81346557Y-63481588D01*
X81250051Y-63292184D01*
X81250049Y-63292181D01*
X81250048Y-63292179D01*
X81125109Y-63120213D01*
X81011569Y-63006673D01*
X80978084Y-62945350D01*
X80983068Y-62875658D01*
X81024940Y-62819725D01*
X81055915Y-62802810D01*
X81187331Y-62753796D01*
X81302546Y-62667546D01*
X81388796Y-62552331D01*
X81439091Y-62417483D01*
X81445500Y-62357873D01*
X81445499Y-60562128D01*
X81439091Y-60502517D01*
X81438152Y-60500000D01*
X81388797Y-60367671D01*
X81388793Y-60367664D01*
X81302547Y-60252455D01*
X81302544Y-60252452D01*
X81187335Y-60166206D01*
X81187328Y-60166202D01*
X81052482Y-60115908D01*
X81052483Y-60115908D01*
X80992883Y-60109501D01*
X80992881Y-60109500D01*
X80992873Y-60109500D01*
X80992864Y-60109500D01*
X79197129Y-60109500D01*
X79197123Y-60109501D01*
X79137516Y-60115908D01*
X79002671Y-60166202D01*
X79002664Y-60166206D01*
X78887455Y-60252452D01*
X78887452Y-60252455D01*
X78801206Y-60367664D01*
X78801202Y-60367671D01*
X78750908Y-60502517D01*
X78747058Y-60538334D01*
X78744501Y-60562123D01*
X78744500Y-60562135D01*
X78744500Y-62357870D01*
X78744501Y-62357876D01*
X78750908Y-62417483D01*
X78801202Y-62552328D01*
X78801203Y-62552330D01*
X78829255Y-62589802D01*
X78853672Y-62655266D01*
X78838821Y-62723539D01*
X78817669Y-62751794D01*
X78577585Y-62991878D01*
X78577578Y-62991885D01*
X78574586Y-62994878D01*
X78574584Y-62994880D01*
X78462780Y-63106684D01*
X78440033Y-63146084D01*
X78434014Y-63156508D01*
X78434013Y-63156510D01*
X78383724Y-63243613D01*
X78383723Y-63243615D01*
X78342799Y-63396343D01*
X78342799Y-63396345D01*
X78342799Y-63564446D01*
X78342800Y-63564459D01*
X78342800Y-79919530D01*
X78342799Y-79919548D01*
X78342799Y-80085254D01*
X78342798Y-80085254D01*
X78348045Y-80104834D01*
X78383723Y-80237985D01*
X78394826Y-80257216D01*
X78462703Y-80374783D01*
X78462781Y-80374917D01*
X78581649Y-80493785D01*
X78581655Y-80493790D01*
X88358181Y-90270316D01*
X88391666Y-90331639D01*
X88394500Y-90357997D01*
X88394500Y-91333000D01*
X88374815Y-91400039D01*
X88322011Y-91445794D01*
X88270500Y-91457000D01*
X87744998Y-91457000D01*
X87744980Y-91457001D01*
X87642203Y-91467500D01*
X87642200Y-91467501D01*
X87475668Y-91522685D01*
X87475663Y-91522687D01*
X87326342Y-91614789D01*
X87202289Y-91738842D01*
X87110187Y-91888163D01*
X87110185Y-91888168D01*
X87098588Y-91923166D01*
X87055001Y-92054703D01*
X87055001Y-92054704D01*
X87055000Y-92054704D01*
X87044500Y-92157483D01*
X87044500Y-93207501D01*
X87044501Y-93207519D01*
X87055000Y-93310296D01*
X87055001Y-93310299D01*
X87110185Y-93476831D01*
X87110187Y-93476836D01*
X87122199Y-93496310D01*
X87202288Y-93626156D01*
X87202290Y-93626158D01*
X87206766Y-93631819D01*
X87204918Y-93633279D01*
X87233000Y-93684706D01*
X87233451Y-93735255D01*
X87209900Y-93853653D01*
X87209900Y-94011346D01*
X87233451Y-94129743D01*
X87227224Y-94199334D01*
X87205639Y-94232276D01*
X87206772Y-94233172D01*
X87202293Y-94238836D01*
X87110187Y-94388163D01*
X87110185Y-94388168D01*
X87099938Y-94419091D01*
X87055001Y-94554703D01*
X87055001Y-94554704D01*
X87055000Y-94554704D01*
X87044500Y-94657483D01*
X87044500Y-95707501D01*
X87044501Y-95707519D01*
X87055000Y-95810296D01*
X87055001Y-95810299D01*
X87110185Y-95976831D01*
X87110187Y-95976836D01*
X87124969Y-96000802D01*
X87202288Y-96126156D01*
X87326344Y-96250212D01*
X87475666Y-96342314D01*
X87642203Y-96397499D01*
X87744991Y-96408000D01*
X88000302Y-96407999D01*
X88067341Y-96427683D01*
X88087983Y-96444318D01*
X91075881Y-99432216D01*
X91109366Y-99493539D01*
X91112200Y-99519897D01*
X91112200Y-99906388D01*
X91126979Y-100018651D01*
X91126982Y-100018662D01*
X91184842Y-100158350D01*
X91184843Y-100158352D01*
X91184844Y-100158353D01*
X91276890Y-100278310D01*
X91396847Y-100370356D01*
X91396848Y-100370356D01*
X91396849Y-100370357D01*
X91463352Y-100397903D01*
X91517756Y-100441743D01*
X91539821Y-100508037D01*
X91539900Y-100512464D01*
X91539900Y-103456303D01*
X91520215Y-103523342D01*
X91503581Y-103543984D01*
X91067139Y-103980425D01*
X91005816Y-104013910D01*
X91003650Y-104014361D01*
X90848308Y-104045261D01*
X90848298Y-104045264D01*
X90702627Y-104105602D01*
X90702614Y-104105609D01*
X90571511Y-104193210D01*
X90571507Y-104193213D01*
X90460013Y-104304707D01*
X90460010Y-104304711D01*
X90372409Y-104435814D01*
X90372402Y-104435827D01*
X90312064Y-104581498D01*
X90312061Y-104581510D01*
X90281300Y-104736153D01*
X90281300Y-104893846D01*
X90312061Y-105048489D01*
X90312064Y-105048501D01*
X90372402Y-105194172D01*
X90372409Y-105194185D01*
X90460010Y-105325288D01*
X90460013Y-105325292D01*
X90555061Y-105420340D01*
X90588546Y-105481663D01*
X90583562Y-105551355D01*
X90555061Y-105595702D01*
X87327584Y-108823181D01*
X87266261Y-108856666D01*
X87239903Y-108859500D01*
X81569499Y-108859500D01*
X81502460Y-108839815D01*
X81456705Y-108787011D01*
X81445499Y-108735500D01*
X81445499Y-108562129D01*
X81445498Y-108562123D01*
X81445497Y-108562116D01*
X81439091Y-108502517D01*
X81427261Y-108470800D01*
X81388797Y-108367671D01*
X81388793Y-108367664D01*
X81302547Y-108252455D01*
X81302544Y-108252452D01*
X81187335Y-108166206D01*
X81187328Y-108166202D01*
X81052482Y-108115908D01*
X81052483Y-108115908D01*
X80992883Y-108109501D01*
X80992881Y-108109500D01*
X80992873Y-108109500D01*
X80992864Y-108109500D01*
X79197129Y-108109500D01*
X79197123Y-108109501D01*
X79137516Y-108115908D01*
X79002671Y-108166202D01*
X79002664Y-108166206D01*
X78887455Y-108252452D01*
X78887452Y-108252455D01*
X78801206Y-108367664D01*
X78801202Y-108367671D01*
X78750908Y-108502517D01*
X78744501Y-108562116D01*
X78744501Y-108562123D01*
X78744500Y-108562135D01*
X78744500Y-110357870D01*
X78744501Y-110357876D01*
X78750908Y-110417483D01*
X78801202Y-110552328D01*
X78801206Y-110552335D01*
X78887452Y-110667544D01*
X78887455Y-110667547D01*
X79002664Y-110753793D01*
X79002671Y-110753797D01*
X79134082Y-110802810D01*
X79190016Y-110844681D01*
X79214433Y-110910145D01*
X79199582Y-110978418D01*
X79178431Y-111006673D01*
X79064889Y-111120215D01*
X78939951Y-111292179D01*
X78843444Y-111481585D01*
X78777753Y-111683760D01*
X78744783Y-111891925D01*
X78744500Y-111893713D01*
X78744500Y-112106287D01*
X78777754Y-112316243D01*
X78821437Y-112450686D01*
X78843444Y-112518414D01*
X78939951Y-112707820D01*
X79064890Y-112879786D01*
X79215213Y-113030109D01*
X79387179Y-113155048D01*
X79387181Y-113155049D01*
X79387184Y-113155051D01*
X79576588Y-113251557D01*
X79778757Y-113317246D01*
X79988713Y-113350500D01*
X79988714Y-113350500D01*
X80201286Y-113350500D01*
X80201287Y-113350500D01*
X80411243Y-113317246D01*
X80613412Y-113251557D01*
X80802816Y-113155051D01*
X80878834Y-113099821D01*
X80974786Y-113030109D01*
X80974788Y-113030106D01*
X80974792Y-113030104D01*
X81125104Y-112879792D01*
X81125106Y-112879788D01*
X81125109Y-112879786D01*
X81183661Y-112799193D01*
X81250051Y-112707816D01*
X81250349Y-112707230D01*
X81270235Y-112668205D01*
X81318209Y-112617409D01*
X81380719Y-112600500D01*
X85920946Y-112600500D01*
X85920953Y-112600502D01*
X86026362Y-112600500D01*
X86079057Y-112600500D01*
X86079247Y-112600500D01*
X86079633Y-112600443D01*
X86082589Y-112599555D01*
X86164568Y-112577587D01*
X86226031Y-112561118D01*
X86230685Y-112560109D01*
X86231773Y-112559579D01*
X86231784Y-112559577D01*
X86231788Y-112559574D01*
X86231794Y-112559573D01*
X86231828Y-112559553D01*
X86234867Y-112558076D01*
X86238214Y-112555866D01*
X86290240Y-112525826D01*
X86290242Y-112525826D01*
X86316291Y-112510786D01*
X86368716Y-112480520D01*
X86368721Y-112480514D01*
X86368724Y-112480513D01*
X86398552Y-112450683D01*
X86480520Y-112368716D01*
X86480520Y-112368714D01*
X86488872Y-112360363D01*
X86488885Y-112360346D01*
X99031000Y-99817811D01*
X99049489Y-99807715D01*
X99065163Y-99793636D01*
X99079538Y-99791306D01*
X99092320Y-99784327D01*
X99113336Y-99785829D01*
X99134133Y-99782460D01*
X99147486Y-99788272D01*
X99162012Y-99789311D01*
X99178877Y-99801935D01*
X99198197Y-99810345D01*
X99214791Y-99828819D01*
X99217946Y-99831181D01*
X99221782Y-99836602D01*
X99312102Y-99971774D01*
X99332980Y-100038451D01*
X99333000Y-100040665D01*
X99333000Y-110481630D01*
X99332999Y-110481648D01*
X99332999Y-110647354D01*
X99332998Y-110647354D01*
X99373924Y-110800089D01*
X99373925Y-110800090D01*
X99391619Y-110830736D01*
X99391620Y-110830737D01*
X99452977Y-110937012D01*
X99452981Y-110937017D01*
X99571849Y-111055885D01*
X99571854Y-111055889D01*
X105022584Y-116506620D01*
X105022586Y-116506621D01*
X105022590Y-116506624D01*
X105159509Y-116585673D01*
X105159516Y-116585677D01*
X105312243Y-116626601D01*
X105312245Y-116626601D01*
X105477954Y-116626601D01*
X105477970Y-116626600D01*
X107998803Y-116626600D01*
X108065842Y-116646285D01*
X108086484Y-116662919D01*
X108357175Y-116933610D01*
X108358238Y-116935557D01*
X108360150Y-116936689D01*
X108374905Y-116966080D01*
X108390660Y-116994933D01*
X108390501Y-116997147D01*
X108391498Y-116999132D01*
X108388021Y-117031821D01*
X108385676Y-117064625D01*
X108384344Y-117066403D01*
X108384110Y-117068610D01*
X108363513Y-117094230D01*
X108343804Y-117120558D01*
X108341288Y-117121876D01*
X108340333Y-117123064D01*
X108333348Y-117126034D01*
X108308791Y-117138900D01*
X108301365Y-117141380D01*
X108221918Y-117157184D01*
X108087775Y-117212748D01*
X108083643Y-117214129D01*
X108052905Y-117215262D01*
X108022329Y-117218550D01*
X108015794Y-117216631D01*
X108013821Y-117216704D01*
X108011632Y-117215409D01*
X107996893Y-117211081D01*
X107867936Y-117157665D01*
X107867928Y-117157663D01*
X107703721Y-117125000D01*
X107536279Y-117125000D01*
X107372071Y-117157662D01*
X107372062Y-117157665D01*
X107219437Y-117220884D01*
X107617476Y-117618922D01*
X107650961Y-117680245D01*
X107651412Y-117730794D01*
X107642619Y-117775000D01*
X107580218Y-117775000D01*
X107506709Y-117805448D01*
X107450448Y-117861709D01*
X107420000Y-117935218D01*
X107420000Y-118014782D01*
X107450448Y-118088291D01*
X107506709Y-118144552D01*
X107580218Y-118175000D01*
X107642619Y-118175000D01*
X107651412Y-118219204D01*
X107645185Y-118288796D01*
X107617476Y-118331076D01*
X107432181Y-118516372D01*
X107370858Y-118549857D01*
X107301167Y-118544873D01*
X107245233Y-118503002D01*
X107220816Y-118437537D01*
X107220500Y-118428691D01*
X107220500Y-118111384D01*
X107218426Y-118100959D01*
X107224652Y-118031368D01*
X107252363Y-117989083D01*
X107266446Y-117975000D01*
X107176507Y-117885061D01*
X107149627Y-117844832D01*
X107112325Y-117754774D01*
X107112318Y-117754762D01*
X107008302Y-117599092D01*
X107008299Y-117599088D01*
X106875911Y-117466700D01*
X106875907Y-117466697D01*
X106720237Y-117362681D01*
X106720228Y-117362676D01*
X106547251Y-117291027D01*
X106547243Y-117291025D01*
X106363620Y-117254500D01*
X106363616Y-117254500D01*
X106176384Y-117254500D01*
X106176379Y-117254500D01*
X105992756Y-117291025D01*
X105992748Y-117291027D01*
X105819771Y-117362676D01*
X105819762Y-117362681D01*
X105664092Y-117466697D01*
X105664088Y-117466700D01*
X105531700Y-117599088D01*
X105531697Y-117599092D01*
X105427681Y-117754762D01*
X105427676Y-117754771D01*
X105356027Y-117927748D01*
X105356025Y-117927756D01*
X105319500Y-118111379D01*
X105319500Y-118913453D01*
X105313266Y-118934682D01*
X105311694Y-118956753D01*
X105303614Y-118967552D01*
X105299815Y-118980492D01*
X105283095Y-118994979D01*
X105269839Y-119012699D01*
X105257201Y-119017416D01*
X105247011Y-119026247D01*
X105225113Y-119029395D01*
X105204382Y-119037135D01*
X105191201Y-119034271D01*
X105177853Y-119036191D01*
X105157725Y-119026998D01*
X105136105Y-119022302D01*
X105118341Y-119009012D01*
X105114297Y-119007166D01*
X105107844Y-119001160D01*
X105081843Y-118975174D01*
X105048340Y-118913860D01*
X105045499Y-118887476D01*
X105045499Y-118274992D01*
X105034999Y-118172203D01*
X104979814Y-118005666D01*
X104887712Y-117856344D01*
X104763656Y-117732288D01*
X104614334Y-117640186D01*
X104447797Y-117585001D01*
X104447795Y-117585000D01*
X104345010Y-117574500D01*
X103344998Y-117574500D01*
X103344980Y-117574501D01*
X103242203Y-117585000D01*
X103242200Y-117585001D01*
X103075668Y-117640185D01*
X103075663Y-117640187D01*
X102926342Y-117732289D01*
X102802289Y-117856342D01*
X102710187Y-118005663D01*
X102710185Y-118005668D01*
X102692590Y-118058767D01*
X102655001Y-118172203D01*
X102655001Y-118172204D01*
X102655000Y-118172204D01*
X102644500Y-118274983D01*
X102644500Y-118900001D01*
X102644501Y-118900019D01*
X102655000Y-119002796D01*
X102655001Y-119002799D01*
X102695495Y-119125000D01*
X102710186Y-119169334D01*
X102800262Y-119315372D01*
X102802289Y-119318657D01*
X102896304Y-119412672D01*
X102929789Y-119473995D01*
X102924805Y-119543687D01*
X102896305Y-119588034D01*
X102802682Y-119681657D01*
X102710643Y-119830875D01*
X102710641Y-119830880D01*
X102655494Y-119997302D01*
X102655493Y-119997309D01*
X102645000Y-120100013D01*
X102645000Y-120162500D01*
X103721000Y-120162500D01*
X103788039Y-120182185D01*
X103833794Y-120234989D01*
X103845000Y-120286500D01*
X103845000Y-120412500D01*
X103971000Y-120412500D01*
X104038039Y-120432185D01*
X104083794Y-120484989D01*
X104095000Y-120536500D01*
X104095000Y-121424999D01*
X104344972Y-121424999D01*
X104344986Y-121424998D01*
X104447697Y-121414505D01*
X104614119Y-121359358D01*
X104614124Y-121359356D01*
X104763345Y-121267315D01*
X104887315Y-121143345D01*
X104979356Y-120994124D01*
X104979359Y-120994117D01*
X105021527Y-120866862D01*
X105022871Y-120864920D01*
X105023039Y-120862564D01*
X105042659Y-120836339D01*
X105061299Y-120809417D01*
X105063480Y-120808510D01*
X105064895Y-120806619D01*
X105095580Y-120795163D01*
X105125815Y-120782593D01*
X105128139Y-120783009D01*
X105130352Y-120782183D01*
X105162362Y-120789137D01*
X105194591Y-120794908D01*
X105197039Y-120796670D01*
X105198629Y-120797016D01*
X105226854Y-120818133D01*
X105226890Y-120818159D01*
X105245080Y-120836339D01*
X105287485Y-120878721D01*
X105287487Y-120878725D01*
X105287509Y-120878745D01*
X105345284Y-120936520D01*
X105345293Y-120936525D01*
X105345408Y-120936613D01*
X105345413Y-120936618D01*
X105413166Y-120975711D01*
X105482216Y-121015577D01*
X105482221Y-121015578D01*
X105482224Y-121015580D01*
X105482357Y-121015634D01*
X105482365Y-121015639D01*
X105560388Y-121036523D01*
X105560993Y-121036685D01*
X105620669Y-121073024D01*
X105651226Y-121135857D01*
X105650848Y-121139022D01*
X105652294Y-121156297D01*
X105652294Y-121156298D01*
X105648791Y-121156298D01*
X105642962Y-121205236D01*
X105616634Y-121244155D01*
X105531697Y-121329092D01*
X105427681Y-121484762D01*
X105427676Y-121484771D01*
X105356027Y-121657748D01*
X105356025Y-121657756D01*
X105319500Y-121841379D01*
X105319500Y-122828620D01*
X105356025Y-123012243D01*
X105356027Y-123012251D01*
X105427676Y-123185228D01*
X105427681Y-123185237D01*
X105508780Y-123306609D01*
X105529658Y-123373286D01*
X105511174Y-123440667D01*
X105459195Y-123487357D01*
X105405678Y-123499500D01*
X76219500Y-123499500D01*
X76152461Y-123479815D01*
X76106706Y-123427011D01*
X76095500Y-123375500D01*
X76095500Y-120602135D01*
X93874500Y-120602135D01*
X93874500Y-122397870D01*
X93874501Y-122397876D01*
X93880908Y-122457483D01*
X93931202Y-122592328D01*
X93931206Y-122592335D01*
X94017452Y-122707544D01*
X94017455Y-122707547D01*
X94132664Y-122793793D01*
X94132671Y-122793797D01*
X94267517Y-122844091D01*
X94267516Y-122844091D01*
X94274444Y-122844835D01*
X94327127Y-122850500D01*
X96122872Y-122850499D01*
X96182483Y-122844091D01*
X96317331Y-122793796D01*
X96432546Y-122707546D01*
X96518796Y-122592331D01*
X96569091Y-122457483D01*
X96575500Y-122397873D01*
X96575499Y-122373979D01*
X96578330Y-122360963D01*
X96588940Y-122341525D01*
X96595179Y-122320275D01*
X96611803Y-122299643D01*
X96611808Y-122299636D01*
X96611811Y-122299634D01*
X96611818Y-122299626D01*
X97282037Y-121629408D01*
X97299075Y-121692993D01*
X97364901Y-121807007D01*
X97457993Y-121900099D01*
X97572007Y-121965925D01*
X97635590Y-121982962D01*
X97003282Y-122615269D01*
X97003282Y-122615270D01*
X97057449Y-122654624D01*
X97246782Y-122751095D01*
X97448870Y-122816757D01*
X97658754Y-122850000D01*
X97871246Y-122850000D01*
X98081127Y-122816757D01*
X98081130Y-122816757D01*
X98283217Y-122751095D01*
X98472554Y-122654622D01*
X98526716Y-122615270D01*
X98526717Y-122615270D01*
X97894408Y-121982962D01*
X97957993Y-121965925D01*
X98072007Y-121900099D01*
X98165099Y-121807007D01*
X98230925Y-121692993D01*
X98247962Y-121629409D01*
X98880270Y-122261717D01*
X98880270Y-122261716D01*
X98919622Y-122207554D01*
X99016095Y-122018217D01*
X99081757Y-121816130D01*
X99081757Y-121816127D01*
X99115000Y-121606246D01*
X99115000Y-121393753D01*
X99081757Y-121183872D01*
X99081757Y-121183869D01*
X99016095Y-120981782D01*
X98919624Y-120792449D01*
X98880270Y-120738282D01*
X98880269Y-120738282D01*
X98247962Y-121370590D01*
X98230925Y-121307007D01*
X98165099Y-121192993D01*
X98072007Y-121099901D01*
X97957993Y-121034075D01*
X97894409Y-121017037D01*
X98186459Y-120724986D01*
X102645001Y-120724986D01*
X102655494Y-120827697D01*
X102710641Y-120994119D01*
X102710643Y-120994124D01*
X102802684Y-121143345D01*
X102926654Y-121267315D01*
X103075875Y-121359356D01*
X103075880Y-121359358D01*
X103242302Y-121414505D01*
X103242309Y-121414506D01*
X103345019Y-121424999D01*
X103594999Y-121424999D01*
X103595000Y-121424998D01*
X103595000Y-120662500D01*
X102645001Y-120662500D01*
X102645001Y-120724986D01*
X98186459Y-120724986D01*
X98526716Y-120384728D01*
X98472550Y-120345375D01*
X98283217Y-120248904D01*
X98081129Y-120183242D01*
X97871246Y-120150000D01*
X97658754Y-120150000D01*
X97448872Y-120183242D01*
X97448869Y-120183242D01*
X97246782Y-120248904D01*
X97057439Y-120345380D01*
X97003282Y-120384727D01*
X97003282Y-120384728D01*
X97635591Y-121017037D01*
X97572007Y-121034075D01*
X97457993Y-121099901D01*
X97364901Y-121192993D01*
X97299075Y-121307007D01*
X97282037Y-121370591D01*
X96611818Y-120700372D01*
X96578333Y-120639049D01*
X96578330Y-120639036D01*
X96575499Y-120626015D01*
X96575499Y-120602128D01*
X96569091Y-120542517D01*
X96540926Y-120467002D01*
X96518798Y-120407673D01*
X96518793Y-120407664D01*
X96432547Y-120292455D01*
X96432544Y-120292452D01*
X96317335Y-120206206D01*
X96317328Y-120206202D01*
X96182482Y-120155908D01*
X96182483Y-120155908D01*
X96122883Y-120149501D01*
X96122881Y-120149500D01*
X96122873Y-120149500D01*
X96122865Y-120149500D01*
X95949500Y-120149500D01*
X95882461Y-120129815D01*
X95836706Y-120077011D01*
X95825500Y-120025500D01*
X95825500Y-112271107D01*
X95845185Y-112204068D01*
X95861817Y-112183428D01*
X96569722Y-111475558D01*
X96631044Y-111442076D01*
X96695716Y-111445311D01*
X96838011Y-111491546D01*
X97075749Y-111529200D01*
X97075750Y-111529200D01*
X97316450Y-111529200D01*
X97316451Y-111529200D01*
X97554189Y-111491546D01*
X97783109Y-111417166D01*
X97997576Y-111307889D01*
X98192307Y-111166409D01*
X98362509Y-110996207D01*
X98503989Y-110801476D01*
X98613266Y-110587009D01*
X98687646Y-110358089D01*
X98725300Y-110120351D01*
X98725300Y-109879649D01*
X98687646Y-109641911D01*
X98630394Y-109465705D01*
X98613267Y-109412993D01*
X98613266Y-109412990D01*
X98575424Y-109338722D01*
X98503989Y-109198524D01*
X98382694Y-109031575D01*
X98362514Y-109003799D01*
X98362510Y-109003794D01*
X98192305Y-108833589D01*
X98192300Y-108833585D01*
X97997579Y-108692113D01*
X97997578Y-108692112D01*
X97997576Y-108692111D01*
X97928866Y-108657101D01*
X97783109Y-108582833D01*
X97783106Y-108582832D01*
X97554190Y-108508454D01*
X97435320Y-108489627D01*
X97316451Y-108470800D01*
X97075749Y-108470800D01*
X96996503Y-108483351D01*
X96838009Y-108508454D01*
X96609093Y-108582832D01*
X96609090Y-108582833D01*
X96394620Y-108692113D01*
X96199899Y-108833585D01*
X96199894Y-108833589D01*
X96029689Y-109003794D01*
X96029685Y-109003799D01*
X95888213Y-109198520D01*
X95778933Y-109412990D01*
X95778932Y-109412993D01*
X95704554Y-109641909D01*
X95666900Y-109879649D01*
X95666900Y-110120350D01*
X95704554Y-110358090D01*
X95750760Y-110500300D01*
X95752755Y-110570142D01*
X95720508Y-110626301D01*
X94859410Y-111487355D01*
X94859062Y-111487703D01*
X94856292Y-111490474D01*
X94856284Y-111490480D01*
X94783790Y-111562973D01*
X94744490Y-111602272D01*
X94744487Y-111602276D01*
X94744480Y-111602284D01*
X94743960Y-111603183D01*
X94743955Y-111603189D01*
X94702771Y-111674523D01*
X94702715Y-111674622D01*
X94702338Y-111675276D01*
X94665429Y-111739201D01*
X94665426Y-111739209D01*
X94665423Y-111739216D01*
X94654865Y-111778621D01*
X94651337Y-111791787D01*
X94651336Y-111791789D01*
X94624501Y-111891925D01*
X94624501Y-111891927D01*
X94624500Y-111891939D01*
X94624500Y-111891943D01*
X94624500Y-111920942D01*
X94624497Y-112050042D01*
X94624500Y-112050053D01*
X94624500Y-120025500D01*
X94604815Y-120092539D01*
X94552011Y-120138294D01*
X94500501Y-120149500D01*
X94327130Y-120149500D01*
X94327123Y-120149501D01*
X94267516Y-120155908D01*
X94132671Y-120206202D01*
X94132664Y-120206206D01*
X94017455Y-120292452D01*
X94017452Y-120292455D01*
X93931206Y-120407664D01*
X93931202Y-120407671D01*
X93880908Y-120542517D01*
X93874501Y-120602116D01*
X93874500Y-120602135D01*
X76095500Y-120602135D01*
X76095500Y-60047844D01*
X84600000Y-60047844D01*
X84606401Y-60107372D01*
X84606403Y-60107379D01*
X84656645Y-60242086D01*
X84656649Y-60242093D01*
X84742809Y-60357187D01*
X84742812Y-60357190D01*
X84857906Y-60443350D01*
X84857913Y-60443354D01*
X84992620Y-60493596D01*
X84992627Y-60493598D01*
X85052155Y-60499999D01*
X85052172Y-60500000D01*
X86250000Y-60500000D01*
X86250000Y-59750000D01*
X84600000Y-59750000D01*
X84600000Y-60047844D01*
X76095500Y-60047844D01*
X76095500Y-58952155D01*
X84600000Y-58952155D01*
X84600000Y-59250000D01*
X86250000Y-59250000D01*
X86250000Y-58500000D01*
X85052155Y-58500000D01*
X84992627Y-58506401D01*
X84992620Y-58506403D01*
X84857913Y-58556645D01*
X84857906Y-58556649D01*
X84742812Y-58642809D01*
X84742809Y-58642812D01*
X84656649Y-58757906D01*
X84656645Y-58757913D01*
X84606403Y-58892620D01*
X84606401Y-58892627D01*
X84600000Y-58952155D01*
X76095500Y-58952155D01*
X76095500Y-52800013D01*
X91755000Y-52800013D01*
X91755000Y-52850000D01*
X92730000Y-52850000D01*
X93230000Y-52850000D01*
X94204999Y-52850000D01*
X94204999Y-52800029D01*
X94204998Y-52800013D01*
X94765000Y-52800013D01*
X94765000Y-52850000D01*
X95740000Y-52850000D01*
X96240000Y-52850000D01*
X97214999Y-52850000D01*
X97214999Y-52800029D01*
X97214998Y-52800013D01*
X97775000Y-52800013D01*
X97775000Y-52850000D01*
X98750000Y-52850000D01*
X99250000Y-52850000D01*
X100224999Y-52850000D01*
X100224999Y-52800028D01*
X100224998Y-52800013D01*
X100214505Y-52697302D01*
X100159358Y-52530880D01*
X100159356Y-52530875D01*
X100067315Y-52381654D01*
X99943345Y-52257684D01*
X99794124Y-52165643D01*
X99794119Y-52165641D01*
X99627697Y-52110494D01*
X99627690Y-52110493D01*
X99524986Y-52100000D01*
X99250000Y-52100000D01*
X99250000Y-52850000D01*
X98750000Y-52850000D01*
X98750000Y-52100000D01*
X98475029Y-52100000D01*
X98475012Y-52100001D01*
X98372302Y-52110494D01*
X98205880Y-52165641D01*
X98205875Y-52165643D01*
X98056654Y-52257684D01*
X97932684Y-52381654D01*
X97840643Y-52530875D01*
X97840641Y-52530880D01*
X97785494Y-52697302D01*
X97785493Y-52697309D01*
X97775000Y-52800013D01*
X97214998Y-52800013D01*
X97214998Y-52800012D01*
X97204505Y-52697302D01*
X97149358Y-52530880D01*
X97149356Y-52530875D01*
X97057315Y-52381654D01*
X96933345Y-52257684D01*
X96784124Y-52165643D01*
X96784119Y-52165641D01*
X96617697Y-52110494D01*
X96617690Y-52110493D01*
X96514986Y-52100000D01*
X96240000Y-52100000D01*
X96240000Y-52850000D01*
X95740000Y-52850000D01*
X95740000Y-52100000D01*
X95465029Y-52100000D01*
X95465012Y-52100001D01*
X95362302Y-52110494D01*
X95195880Y-52165641D01*
X95195875Y-52165643D01*
X95046654Y-52257684D01*
X94922684Y-52381654D01*
X94830643Y-52530875D01*
X94830641Y-52530880D01*
X94775494Y-52697302D01*
X94775493Y-52697309D01*
X94765000Y-52800013D01*
X94204998Y-52800013D01*
X94204998Y-52800012D01*
X94194505Y-52697302D01*
X94139358Y-52530880D01*
X94139356Y-52530875D01*
X94047315Y-52381654D01*
X93923345Y-52257684D01*
X93774124Y-52165643D01*
X93774119Y-52165641D01*
X93607697Y-52110494D01*
X93607690Y-52110493D01*
X93504986Y-52100000D01*
X93230000Y-52100000D01*
X93230000Y-52850000D01*
X92730000Y-52850000D01*
X92730000Y-52100000D01*
X92455029Y-52100000D01*
X92455012Y-52100001D01*
X92352302Y-52110494D01*
X92185880Y-52165641D01*
X92185875Y-52165643D01*
X92036654Y-52257684D01*
X91912684Y-52381654D01*
X91820643Y-52530875D01*
X91820641Y-52530880D01*
X91765494Y-52697302D01*
X91765493Y-52697309D01*
X91755000Y-52800013D01*
X76095500Y-52800013D01*
X76095500Y-51742155D01*
X100595000Y-51742155D01*
X100595000Y-51990000D01*
X101595000Y-51990000D01*
X102095000Y-51990000D01*
X103095000Y-51990000D01*
X103095000Y-51742172D01*
X103094999Y-51742155D01*
X103088598Y-51682627D01*
X103088596Y-51682620D01*
X103038354Y-51547913D01*
X103038350Y-51547906D01*
X102952190Y-51432812D01*
X102952187Y-51432809D01*
X102837093Y-51346649D01*
X102837086Y-51346645D01*
X102702379Y-51296403D01*
X102702372Y-51296401D01*
X102642844Y-51290000D01*
X102095000Y-51290000D01*
X102095000Y-51990000D01*
X101595000Y-51990000D01*
X101595000Y-51290000D01*
X101047155Y-51290000D01*
X100987627Y-51296401D01*
X100987620Y-51296403D01*
X100852913Y-51346645D01*
X100852906Y-51346649D01*
X100737812Y-51432809D01*
X100737809Y-51432812D01*
X100651649Y-51547906D01*
X100651645Y-51547913D01*
X100601403Y-51682620D01*
X100601401Y-51682627D01*
X100595000Y-51742155D01*
X76095500Y-51742155D01*
X76095500Y-49624500D01*
X76115185Y-49557461D01*
X76167989Y-49511706D01*
X76219500Y-49500500D01*
X86471000Y-49500500D01*
X86538039Y-49520185D01*
G37*
%TD.AperFunction*%
%TA.AperFunction,Conductor*%
G36*
X144943039Y-49520185D02*
G01*
X144988794Y-49572989D01*
X145000000Y-49624500D01*
X145000000Y-123375500D01*
X144980315Y-123442539D01*
X144927511Y-123488294D01*
X144876000Y-123499500D01*
X115784322Y-123499500D01*
X115717283Y-123479815D01*
X115671528Y-123427011D01*
X115661584Y-123357853D01*
X115681220Y-123306609D01*
X115762318Y-123185237D01*
X115762318Y-123185236D01*
X115762322Y-123185231D01*
X115833973Y-123012251D01*
X115870500Y-122828616D01*
X115870500Y-121841384D01*
X115833973Y-121657749D01*
X115762322Y-121484769D01*
X115762321Y-121484768D01*
X115762318Y-121484762D01*
X115658302Y-121329092D01*
X115658299Y-121329088D01*
X115525911Y-121196700D01*
X115525907Y-121196697D01*
X115370237Y-121092681D01*
X115370228Y-121092676D01*
X115197251Y-121021027D01*
X115197243Y-121021025D01*
X115013620Y-120984500D01*
X115013616Y-120984500D01*
X114826384Y-120984500D01*
X114826379Y-120984500D01*
X114642756Y-121021025D01*
X114642748Y-121021027D01*
X114469771Y-121092676D01*
X114469762Y-121092681D01*
X114314092Y-121196697D01*
X114314088Y-121196700D01*
X114181700Y-121329088D01*
X114181697Y-121329092D01*
X114077681Y-121484762D01*
X114077676Y-121484771D01*
X114006027Y-121657748D01*
X114006025Y-121657756D01*
X113969500Y-121841379D01*
X113969500Y-122828620D01*
X114006025Y-123012243D01*
X114006027Y-123012251D01*
X114077676Y-123185228D01*
X114077681Y-123185237D01*
X114158780Y-123306609D01*
X114179658Y-123373286D01*
X114161174Y-123440667D01*
X114109195Y-123487357D01*
X114055678Y-123499500D01*
X107134322Y-123499500D01*
X107067283Y-123479815D01*
X107021528Y-123427011D01*
X107011584Y-123357853D01*
X107031220Y-123306609D01*
X107112318Y-123185237D01*
X107112318Y-123185236D01*
X107112322Y-123185231D01*
X107183973Y-123012251D01*
X107220500Y-122828616D01*
X107220500Y-121841384D01*
X107183973Y-121657749D01*
X107112322Y-121484769D01*
X107112321Y-121484768D01*
X107112318Y-121484762D01*
X107008302Y-121329092D01*
X107008299Y-121329088D01*
X106947392Y-121268181D01*
X106913907Y-121206858D01*
X106918891Y-121137166D01*
X106960763Y-121081233D01*
X107026227Y-121056816D01*
X107035073Y-121056500D01*
X111147331Y-121056500D01*
X111147347Y-121056501D01*
X111154943Y-121056501D01*
X111313054Y-121056501D01*
X111313057Y-121056501D01*
X111465785Y-121015577D01*
X111492765Y-121000000D01*
X111519588Y-120984514D01*
X111519599Y-120984506D01*
X111519611Y-120984500D01*
X111602716Y-120936520D01*
X111714520Y-120824716D01*
X111714520Y-120824714D01*
X111724724Y-120814511D01*
X111724728Y-120814506D01*
X111814248Y-120724986D01*
X116145001Y-120724986D01*
X116155494Y-120827697D01*
X116210641Y-120994119D01*
X116210643Y-120994124D01*
X116302684Y-121143345D01*
X116426654Y-121267315D01*
X116575875Y-121359356D01*
X116575880Y-121359358D01*
X116742302Y-121414505D01*
X116742309Y-121414506D01*
X116845019Y-121424999D01*
X117094999Y-121424999D01*
X117595000Y-121424999D01*
X117844972Y-121424999D01*
X117844986Y-121424998D01*
X117947697Y-121414505D01*
X118114119Y-121359358D01*
X118114124Y-121359356D01*
X118263345Y-121267315D01*
X118387315Y-121143345D01*
X118479356Y-120994124D01*
X118479358Y-120994119D01*
X118534505Y-120827697D01*
X118534506Y-120827690D01*
X118544999Y-120724986D01*
X118545000Y-120724973D01*
X118545000Y-120662500D01*
X117595000Y-120662500D01*
X117595000Y-121424999D01*
X117094999Y-121424999D01*
X117095000Y-121424998D01*
X117095000Y-120662500D01*
X116145001Y-120662500D01*
X116145001Y-120724986D01*
X111814248Y-120724986D01*
X112238713Y-120300521D01*
X112238716Y-120300520D01*
X112350520Y-120188716D01*
X112352321Y-120185595D01*
X112360445Y-120177386D01*
X112384461Y-120164106D01*
X112406624Y-120147920D01*
X112414845Y-120147306D01*
X112421590Y-120143578D01*
X112444503Y-120145095D01*
X112472778Y-120142987D01*
X112636230Y-120175499D01*
X112636232Y-120175500D01*
X112636233Y-120175500D01*
X112803768Y-120175500D01*
X112803769Y-120175499D01*
X112968082Y-120142816D01*
X113098203Y-120088917D01*
X113167667Y-120081449D01*
X113193105Y-120088918D01*
X113322063Y-120142334D01*
X113322071Y-120142336D01*
X113486277Y-120174999D01*
X113486280Y-120175000D01*
X113653720Y-120175000D01*
X113653722Y-120174999D01*
X113817928Y-120142336D01*
X113817936Y-120142334D01*
X113921118Y-120099595D01*
X113990587Y-120092126D01*
X114053067Y-120123401D01*
X114073880Y-120150441D01*
X114074293Y-120150166D01*
X114181697Y-120310907D01*
X114181700Y-120310911D01*
X114314088Y-120443299D01*
X114314092Y-120443302D01*
X114469762Y-120547318D01*
X114469768Y-120547321D01*
X114469769Y-120547322D01*
X114642749Y-120618973D01*
X114826379Y-120655499D01*
X114826383Y-120655500D01*
X114826384Y-120655500D01*
X115013617Y-120655500D01*
X115013618Y-120655499D01*
X115197251Y-120618973D01*
X115370231Y-120547322D01*
X115490439Y-120467002D01*
X115525908Y-120443302D01*
X115658299Y-120310911D01*
X115658302Y-120310908D01*
X115762322Y-120155231D01*
X115833973Y-119982251D01*
X115870500Y-119798616D01*
X115870500Y-118111384D01*
X115833973Y-117927749D01*
X115762322Y-117754769D01*
X115658302Y-117599092D01*
X115603981Y-117544771D01*
X115603978Y-117544767D01*
X115525911Y-117466700D01*
X115525907Y-117466697D01*
X115370237Y-117362681D01*
X115370228Y-117362676D01*
X115197251Y-117291027D01*
X115197243Y-117291025D01*
X115013620Y-117254500D01*
X115013616Y-117254500D01*
X114826384Y-117254500D01*
X114826379Y-117254500D01*
X114642756Y-117291025D01*
X114642748Y-117291027D01*
X114469771Y-117362676D01*
X114469762Y-117362681D01*
X114314092Y-117466697D01*
X114314088Y-117466700D01*
X114181700Y-117599088D01*
X114181697Y-117599092D01*
X114077681Y-117754762D01*
X114077678Y-117754769D01*
X114040371Y-117844834D01*
X114013492Y-117885061D01*
X113923553Y-117975000D01*
X113937636Y-117989083D01*
X113971122Y-118050406D01*
X113971574Y-118100951D01*
X113969500Y-118111377D01*
X113969500Y-118428691D01*
X113949815Y-118495730D01*
X113897011Y-118541485D01*
X113827853Y-118551429D01*
X113764297Y-118522404D01*
X113757819Y-118516372D01*
X113572523Y-118331076D01*
X113539038Y-118269753D01*
X113538587Y-118219204D01*
X113547380Y-118175000D01*
X113609782Y-118175000D01*
X113683291Y-118144552D01*
X113739552Y-118088291D01*
X113770000Y-118014782D01*
X113770000Y-117935218D01*
X113739552Y-117861709D01*
X113683291Y-117805448D01*
X113609782Y-117775000D01*
X113547380Y-117775000D01*
X113538587Y-117730793D01*
X113544814Y-117661202D01*
X113572523Y-117618921D01*
X113970561Y-117220884D01*
X113817936Y-117157665D01*
X113817928Y-117157663D01*
X113653721Y-117125000D01*
X113486279Y-117125000D01*
X113322071Y-117157663D01*
X113322063Y-117157665D01*
X113193107Y-117211081D01*
X113123637Y-117218550D01*
X113098201Y-117211081D01*
X112968082Y-117157184D01*
X112968074Y-117157182D01*
X112803771Y-117124500D01*
X112803767Y-117124500D01*
X112636233Y-117124500D01*
X112636228Y-117124500D01*
X112471925Y-117157182D01*
X112471913Y-117157185D01*
X112342452Y-117210810D01*
X112272983Y-117218279D01*
X112247548Y-117210810D01*
X112118086Y-117157185D01*
X112118074Y-117157182D01*
X111953771Y-117124500D01*
X111953767Y-117124500D01*
X111786233Y-117124500D01*
X111786228Y-117124500D01*
X111621925Y-117157182D01*
X111621913Y-117157185D01*
X111492452Y-117210810D01*
X111466023Y-117213651D01*
X111440245Y-117220158D01*
X111428804Y-117217653D01*
X111422983Y-117218279D01*
X111405528Y-117213799D01*
X111401479Y-117212439D01*
X111268082Y-117157184D01*
X111191641Y-117141978D01*
X111184132Y-117139457D01*
X111161721Y-117123808D01*
X111137501Y-117111139D01*
X111135923Y-117109588D01*
X110947488Y-116921153D01*
X115699500Y-116921153D01*
X115699500Y-117078846D01*
X115730261Y-117233489D01*
X115730264Y-117233501D01*
X115790602Y-117379172D01*
X115790608Y-117379183D01*
X115798046Y-117390315D01*
X115798052Y-117390323D01*
X115878211Y-117510289D01*
X115932528Y-117564606D01*
X115932532Y-117564611D01*
X115989707Y-117621786D01*
X115989711Y-117621789D01*
X116120814Y-117709390D01*
X116120827Y-117709397D01*
X116203025Y-117743444D01*
X116257429Y-117787284D01*
X116279494Y-117853578D01*
X116262215Y-117921278D01*
X116261112Y-117923101D01*
X116210189Y-118005659D01*
X116210185Y-118005668D01*
X116192590Y-118058767D01*
X116155001Y-118172203D01*
X116155001Y-118172204D01*
X116155000Y-118172204D01*
X116144500Y-118274983D01*
X116144500Y-118900001D01*
X116144501Y-118900019D01*
X116155000Y-119002796D01*
X116155001Y-119002799D01*
X116195495Y-119125000D01*
X116210186Y-119169334D01*
X116300262Y-119315372D01*
X116302289Y-119318657D01*
X116396304Y-119412672D01*
X116429789Y-119473995D01*
X116424805Y-119543687D01*
X116396305Y-119588034D01*
X116302682Y-119681657D01*
X116210643Y-119830875D01*
X116210641Y-119830880D01*
X116155494Y-119997302D01*
X116155493Y-119997309D01*
X116145000Y-120100013D01*
X116145000Y-120162500D01*
X118544999Y-120162500D01*
X118544999Y-120100028D01*
X118544998Y-120100013D01*
X118534505Y-119997302D01*
X118479358Y-119830880D01*
X118479356Y-119830875D01*
X118387315Y-119681654D01*
X118293695Y-119588034D01*
X118260210Y-119526711D01*
X118265194Y-119457019D01*
X118293691Y-119412676D01*
X118387712Y-119318656D01*
X118479814Y-119169334D01*
X118534999Y-119002797D01*
X118545500Y-118900009D01*
X118545499Y-118274992D01*
X118534999Y-118172203D01*
X118479814Y-118005666D01*
X118387712Y-117856344D01*
X118263656Y-117732288D01*
X118114334Y-117640186D01*
X117990309Y-117599088D01*
X117947798Y-117585001D01*
X117947786Y-117584999D01*
X117947627Y-117584983D01*
X117947535Y-117584945D01*
X117941172Y-117583583D01*
X117941415Y-117582447D01*
X117882938Y-117558581D01*
X117866348Y-117542622D01*
X117858704Y-117533760D01*
X117825520Y-117476284D01*
X117713716Y-117364480D01*
X117713713Y-117364478D01*
X117334574Y-116985339D01*
X117301089Y-116924016D01*
X117300638Y-116921849D01*
X117269738Y-116766510D01*
X117269737Y-116766503D01*
X117269735Y-116766498D01*
X117209397Y-116620827D01*
X117209390Y-116620814D01*
X117121789Y-116489711D01*
X117121786Y-116489707D01*
X117010292Y-116378213D01*
X117010288Y-116378210D01*
X116879185Y-116290609D01*
X116879172Y-116290602D01*
X116733501Y-116230264D01*
X116733489Y-116230261D01*
X116578845Y-116199500D01*
X116578842Y-116199500D01*
X116421158Y-116199500D01*
X116421155Y-116199500D01*
X116266510Y-116230261D01*
X116266498Y-116230264D01*
X116120827Y-116290602D01*
X116120814Y-116290609D01*
X115989711Y-116378210D01*
X115989707Y-116378213D01*
X115878213Y-116489707D01*
X115878210Y-116489711D01*
X115790609Y-116620814D01*
X115790602Y-116620827D01*
X115730264Y-116766498D01*
X115730261Y-116766510D01*
X115699500Y-116921153D01*
X110947488Y-116921153D01*
X108275090Y-114248755D01*
X108275088Y-114248752D01*
X108156217Y-114129881D01*
X108156216Y-114129880D01*
X108069404Y-114079760D01*
X108069404Y-114079759D01*
X108069400Y-114079758D01*
X108019285Y-114050823D01*
X107866557Y-114009899D01*
X107708443Y-114009899D01*
X107700847Y-114009899D01*
X107700831Y-114009900D01*
X104909097Y-114009900D01*
X104842058Y-113990215D01*
X104821416Y-113973581D01*
X104081012Y-113233177D01*
X104079610Y-113230611D01*
X104077112Y-113229095D01*
X104062971Y-113200139D01*
X104047527Y-113171854D01*
X104047735Y-113168938D01*
X104046453Y-113166312D01*
X104050211Y-113134311D01*
X104052511Y-113102162D01*
X104054263Y-113099821D01*
X104054604Y-113096919D01*
X104075072Y-113072024D01*
X104094383Y-113046229D01*
X104097120Y-113045207D01*
X104098978Y-113042949D01*
X104129664Y-113033069D01*
X104159847Y-113021812D01*
X104163546Y-113022161D01*
X104165486Y-113021537D01*
X104198998Y-113025509D01*
X104200537Y-113025654D01*
X104255930Y-113040499D01*
X104255939Y-113040499D01*
X104255943Y-113040500D01*
X104256403Y-113040500D01*
X104308635Y-113040500D01*
X104414045Y-113040502D01*
X104414048Y-113040500D01*
X104422669Y-113040501D01*
X104422698Y-113040500D01*
X114568353Y-113040500D01*
X114635392Y-113060185D01*
X114675085Y-113101379D01*
X114731572Y-113196894D01*
X114731579Y-113196903D01*
X114843096Y-113308420D01*
X114843100Y-113308423D01*
X114843102Y-113308425D01*
X114978860Y-113388712D01*
X115029346Y-113403379D01*
X115130312Y-113432713D01*
X115130314Y-113432713D01*
X115130320Y-113432715D01*
X115165705Y-113435500D01*
X118834294Y-113435499D01*
X118869680Y-113432715D01*
X119021140Y-113388712D01*
X119156898Y-113308425D01*
X119268425Y-113196898D01*
X119348712Y-113061140D01*
X119392715Y-112909680D01*
X119395500Y-112874295D01*
X119395499Y-112005706D01*
X119392715Y-111970320D01*
X119348712Y-111818860D01*
X119268425Y-111683102D01*
X119268423Y-111683100D01*
X119268420Y-111683096D01*
X119156903Y-111571579D01*
X119156895Y-111571573D01*
X119021140Y-111491288D01*
X119021135Y-111491286D01*
X118869687Y-111447286D01*
X118869675Y-111447284D01*
X118834301Y-111444500D01*
X118834295Y-111444500D01*
X118820176Y-111444500D01*
X118753137Y-111424815D01*
X118707382Y-111372011D01*
X118697438Y-111302853D01*
X118698559Y-111296309D01*
X118707999Y-111248846D01*
X118708000Y-111248844D01*
X118708000Y-111091155D01*
X118707999Y-111091153D01*
X118698559Y-111043690D01*
X118704786Y-110974098D01*
X118747650Y-110918921D01*
X118813540Y-110895677D01*
X118820176Y-110895499D01*
X118834284Y-110895499D01*
X118834294Y-110895499D01*
X118869680Y-110892715D01*
X119021140Y-110848712D01*
X119156898Y-110768425D01*
X119268425Y-110656898D01*
X119348712Y-110521140D01*
X119392715Y-110369680D01*
X119395500Y-110334295D01*
X119395499Y-109465706D01*
X119392715Y-109430320D01*
X119348712Y-109278860D01*
X119268425Y-109143102D01*
X119268423Y-109143100D01*
X119268420Y-109143096D01*
X119156903Y-109031579D01*
X119156895Y-109031573D01*
X119021140Y-108951288D01*
X119021135Y-108951286D01*
X118869687Y-108907286D01*
X118869675Y-108907284D01*
X118838358Y-108904819D01*
X118834295Y-108904500D01*
X118834294Y-108904500D01*
X115165716Y-108904500D01*
X115165694Y-108904501D01*
X115130319Y-108907285D01*
X115130318Y-108907285D01*
X114978864Y-108951286D01*
X114978859Y-108951288D01*
X114843104Y-109031573D01*
X114843096Y-109031579D01*
X114731579Y-109143096D01*
X114731573Y-109143104D01*
X114651288Y-109278859D01*
X114651286Y-109278864D01*
X114607286Y-109430312D01*
X114607284Y-109430324D01*
X114604500Y-109465698D01*
X114604500Y-110334283D01*
X114604501Y-110334305D01*
X114607285Y-110369680D01*
X114607285Y-110369681D01*
X114651286Y-110521135D01*
X114651288Y-110521140D01*
X114731573Y-110656895D01*
X114731579Y-110656903D01*
X114843096Y-110768420D01*
X114843100Y-110768423D01*
X114843102Y-110768425D01*
X114978860Y-110848712D01*
X115029346Y-110863379D01*
X115130312Y-110892713D01*
X115130314Y-110892713D01*
X115130320Y-110892715D01*
X115165705Y-110895500D01*
X116732402Y-110895499D01*
X116799441Y-110915184D01*
X116820083Y-110931818D01*
X117072925Y-111184660D01*
X117081987Y-111201255D01*
X117095119Y-111214865D01*
X117105526Y-111244364D01*
X117106410Y-111245983D01*
X117106861Y-111248148D01*
X117116441Y-111296307D01*
X117110214Y-111365899D01*
X117067352Y-111421077D01*
X117001462Y-111444322D01*
X116994824Y-111444500D01*
X115165716Y-111444500D01*
X115165694Y-111444501D01*
X115130319Y-111447285D01*
X115130318Y-111447285D01*
X114978864Y-111491286D01*
X114978859Y-111491288D01*
X114843104Y-111571573D01*
X114843096Y-111571579D01*
X114731579Y-111683096D01*
X114731572Y-111683105D01*
X114675085Y-111778621D01*
X114624016Y-111826305D01*
X114568353Y-111839500D01*
X104635106Y-111839500D01*
X104568067Y-111819815D01*
X104547423Y-111803179D01*
X103370660Y-110626369D01*
X103337178Y-110565048D01*
X103340413Y-110500376D01*
X103386646Y-110358089D01*
X103424300Y-110120351D01*
X103424300Y-109879649D01*
X105064900Y-109879649D01*
X105064900Y-110120350D01*
X105102554Y-110358090D01*
X105176932Y-110587006D01*
X105176933Y-110587009D01*
X105217970Y-110667547D01*
X105285504Y-110800089D01*
X105286213Y-110801479D01*
X105427685Y-110996200D01*
X105427689Y-110996205D01*
X105597894Y-111166410D01*
X105597899Y-111166414D01*
X105711355Y-111248844D01*
X105792624Y-111307889D01*
X105918470Y-111372011D01*
X106007090Y-111417166D01*
X106007093Y-111417167D01*
X106121551Y-111454356D01*
X106236011Y-111491546D01*
X106473749Y-111529200D01*
X106473750Y-111529200D01*
X106714450Y-111529200D01*
X106714451Y-111529200D01*
X106952189Y-111491546D01*
X107181109Y-111417166D01*
X107395576Y-111307889D01*
X107590307Y-111166409D01*
X107760509Y-110996207D01*
X107901989Y-110801476D01*
X108011266Y-110587009D01*
X108085646Y-110358089D01*
X108123300Y-110120351D01*
X108123300Y-109879649D01*
X108085646Y-109641911D01*
X108028394Y-109465705D01*
X108011267Y-109412993D01*
X108011266Y-109412990D01*
X107973424Y-109338722D01*
X107901989Y-109198524D01*
X107780694Y-109031575D01*
X107760514Y-109003799D01*
X107760510Y-109003794D01*
X107590305Y-108833589D01*
X107590300Y-108833585D01*
X107395579Y-108692113D01*
X107395578Y-108692112D01*
X107395576Y-108692111D01*
X107326866Y-108657101D01*
X107181109Y-108582833D01*
X107181106Y-108582832D01*
X106952190Y-108508454D01*
X106833320Y-108489627D01*
X106714451Y-108470800D01*
X106473749Y-108470800D01*
X106394503Y-108483351D01*
X106236009Y-108508454D01*
X106007093Y-108582832D01*
X106007090Y-108582833D01*
X105792620Y-108692113D01*
X105597899Y-108833585D01*
X105597894Y-108833589D01*
X105427689Y-109003794D01*
X105427685Y-109003799D01*
X105286213Y-109198520D01*
X105176933Y-109412990D01*
X105176932Y-109412993D01*
X105102554Y-109641909D01*
X105064900Y-109879649D01*
X103424300Y-109879649D01*
X103386646Y-109641911D01*
X103329394Y-109465705D01*
X103312267Y-109412993D01*
X103312266Y-109412990D01*
X103274424Y-109338722D01*
X103202989Y-109198524D01*
X103081694Y-109031575D01*
X103061514Y-109003799D01*
X103061510Y-109003794D01*
X102891305Y-108833589D01*
X102891300Y-108833585D01*
X102696579Y-108692113D01*
X102696578Y-108692112D01*
X102696576Y-108692111D01*
X102627866Y-108657101D01*
X102482109Y-108582833D01*
X102482106Y-108582832D01*
X102253190Y-108508454D01*
X102134320Y-108489627D01*
X102015451Y-108470800D01*
X101774749Y-108470800D01*
X101770487Y-108471475D01*
X101701194Y-108462517D01*
X101647744Y-108417519D01*
X101627107Y-108350766D01*
X101645835Y-108283454D01*
X101663409Y-108261324D01*
X102130470Y-107794263D01*
X114605001Y-107794263D01*
X114607782Y-107829602D01*
X114651748Y-107980935D01*
X114651749Y-107980938D01*
X114731971Y-108116587D01*
X114731977Y-108116595D01*
X114843404Y-108228022D01*
X114843412Y-108228028D01*
X114979061Y-108308250D01*
X114979064Y-108308251D01*
X115130393Y-108352217D01*
X115130399Y-108352218D01*
X115165748Y-108354999D01*
X116749999Y-108354999D01*
X117250000Y-108354999D01*
X118834238Y-108354999D01*
X118834263Y-108354998D01*
X118869602Y-108352217D01*
X119020935Y-108308251D01*
X119020938Y-108308250D01*
X119156587Y-108228028D01*
X119156595Y-108228022D01*
X119268022Y-108116595D01*
X119268028Y-108116587D01*
X119348250Y-107980938D01*
X119348251Y-107980935D01*
X119392217Y-107829606D01*
X119392218Y-107829600D01*
X119394999Y-107794258D01*
X119395000Y-107794243D01*
X119395000Y-107610000D01*
X117250000Y-107610000D01*
X117250000Y-108354999D01*
X116749999Y-108354999D01*
X116750000Y-108354998D01*
X116750000Y-107610000D01*
X114605001Y-107610000D01*
X114605001Y-107794263D01*
X102130470Y-107794263D01*
X102998992Y-106925741D01*
X114605000Y-106925741D01*
X114605000Y-107110000D01*
X116750000Y-107110000D01*
X117250000Y-107110000D01*
X119394999Y-107110000D01*
X119394999Y-106925761D01*
X119394998Y-106925736D01*
X119392217Y-106890397D01*
X119348251Y-106739064D01*
X119348250Y-106739061D01*
X119268028Y-106603412D01*
X119268022Y-106603404D01*
X119156595Y-106491977D01*
X119156587Y-106491971D01*
X119020938Y-106411749D01*
X119020935Y-106411748D01*
X118869606Y-106367782D01*
X118869600Y-106367781D01*
X118834258Y-106365000D01*
X117250000Y-106365000D01*
X117250000Y-107110000D01*
X116750000Y-107110000D01*
X116750000Y-106365000D01*
X115165761Y-106365000D01*
X115165736Y-106365001D01*
X115130397Y-106367782D01*
X114979064Y-106411748D01*
X114979061Y-106411749D01*
X114843412Y-106491971D01*
X114843404Y-106491977D01*
X114731977Y-106603404D01*
X114731971Y-106603412D01*
X114651749Y-106739061D01*
X114651748Y-106739064D01*
X114607782Y-106890393D01*
X114607781Y-106890399D01*
X114605000Y-106925741D01*
X102998992Y-106925741D01*
X105514706Y-104410028D01*
X105514711Y-104410024D01*
X105524914Y-104399820D01*
X105524916Y-104399820D01*
X105636720Y-104288016D01*
X105639473Y-104283247D01*
X105693589Y-104189516D01*
X105693592Y-104189507D01*
X105693598Y-104189499D01*
X105715777Y-104151085D01*
X105756701Y-103998357D01*
X105756701Y-103840243D01*
X105756701Y-103832648D01*
X105756700Y-103832630D01*
X105756700Y-97511566D01*
X105776385Y-97444527D01*
X105829189Y-97398772D01*
X105898347Y-97388828D01*
X105907505Y-97390863D01*
X105907528Y-97390749D01*
X106068153Y-97422699D01*
X106068156Y-97422700D01*
X106068158Y-97422700D01*
X106225844Y-97422700D01*
X106225845Y-97422699D01*
X106380497Y-97391937D01*
X106526179Y-97331594D01*
X106565962Y-97305012D01*
X106657875Y-97243598D01*
X106724553Y-97222720D01*
X106726766Y-97222700D01*
X107002786Y-97222700D01*
X107069825Y-97242385D01*
X107110378Y-97288813D01*
X107111395Y-97288187D01*
X107115152Y-97294279D01*
X107115169Y-97294298D01*
X107115183Y-97294329D01*
X107115185Y-97294333D01*
X107115186Y-97294334D01*
X107207288Y-97443656D01*
X107331344Y-97567712D01*
X107480666Y-97659814D01*
X107647203Y-97714999D01*
X107749991Y-97725500D01*
X108350008Y-97725499D01*
X108350016Y-97725498D01*
X108350019Y-97725498D01*
X108406302Y-97719748D01*
X108452797Y-97714999D01*
X108619334Y-97659814D01*
X108768656Y-97567712D01*
X108892712Y-97443656D01*
X108894752Y-97440347D01*
X108896745Y-97438555D01*
X108897193Y-97437989D01*
X108897289Y-97438065D01*
X108946694Y-97393623D01*
X109015656Y-97382395D01*
X109079740Y-97410234D01*
X109105829Y-97440339D01*
X109107681Y-97443341D01*
X109107683Y-97443344D01*
X109231654Y-97567315D01*
X109380875Y-97659356D01*
X109380880Y-97659358D01*
X109547302Y-97714505D01*
X109547309Y-97714506D01*
X109650019Y-97724999D01*
X109699999Y-97724998D01*
X109700000Y-97724998D01*
X109700000Y-95275000D01*
X109699999Y-95274999D01*
X109650029Y-95275000D01*
X109650011Y-95275001D01*
X109547302Y-95285494D01*
X109380880Y-95340641D01*
X109380875Y-95340643D01*
X109231654Y-95432684D01*
X109107683Y-95556655D01*
X109107679Y-95556660D01*
X109105826Y-95559665D01*
X109104018Y-95561290D01*
X109103202Y-95562323D01*
X109103025Y-95562183D01*
X109053874Y-95606385D01*
X108984911Y-95617601D01*
X108920831Y-95589752D01*
X108911463Y-95581076D01*
X108901928Y-95571287D01*
X108892712Y-95556344D01*
X108768656Y-95432288D01*
X108763377Y-95429031D01*
X108753878Y-95419279D01*
X108741151Y-95395222D01*
X108725422Y-95373011D01*
X108725052Y-95364791D01*
X108721205Y-95357520D01*
X108723504Y-95330404D01*
X108722280Y-95303212D01*
X108726413Y-95296096D01*
X108727108Y-95287900D01*
X108743703Y-95266330D01*
X108757374Y-95242795D01*
X108766238Y-95237039D01*
X108769713Y-95232524D01*
X108777474Y-95229744D01*
X108795254Y-95218201D01*
X108858070Y-95192183D01*
X108938673Y-95158797D01*
X108938676Y-95158795D01*
X108938679Y-95158794D01*
X109069789Y-95071189D01*
X109181289Y-94959689D01*
X109268894Y-94828579D01*
X109329237Y-94682897D01*
X109360000Y-94528242D01*
X109360000Y-94370558D01*
X109355103Y-94345939D01*
X109361330Y-94276348D01*
X109404192Y-94221170D01*
X109470081Y-94197925D01*
X109515724Y-94204041D01*
X109547302Y-94214505D01*
X109547309Y-94214506D01*
X109650019Y-94224999D01*
X109699999Y-94224998D01*
X109700000Y-94224998D01*
X109700000Y-93124000D01*
X109719685Y-93056961D01*
X109772489Y-93011206D01*
X109824000Y-93000000D01*
X109950000Y-93000000D01*
X109950000Y-92874000D01*
X109969685Y-92806961D01*
X110022489Y-92761206D01*
X110074000Y-92750000D01*
X110791400Y-92750000D01*
X110853399Y-92766612D01*
X110927816Y-92809577D01*
X111080543Y-92850501D01*
X111080545Y-92850501D01*
X111246254Y-92850501D01*
X111246270Y-92850500D01*
X111425501Y-92850500D01*
X111492540Y-92870185D01*
X111538295Y-92922989D01*
X111548436Y-92969608D01*
X111549324Y-92969561D01*
X111549501Y-92972873D01*
X111550992Y-92986748D01*
X111550992Y-93013239D01*
X111549500Y-93027122D01*
X111549500Y-93378376D01*
X111529815Y-93445415D01*
X111477011Y-93491170D01*
X111407853Y-93501114D01*
X111401356Y-93500001D01*
X111401343Y-93500000D01*
X111401342Y-93500000D01*
X111243658Y-93500000D01*
X111243653Y-93500000D01*
X111098191Y-93528934D01*
X111028599Y-93522707D01*
X110973422Y-93479843D01*
X110950178Y-93413954D01*
X110950000Y-93407317D01*
X110950000Y-93250000D01*
X110200000Y-93250000D01*
X110200000Y-94224999D01*
X110249972Y-94224999D01*
X110249986Y-94224998D01*
X110352695Y-94214506D01*
X110358990Y-94212420D01*
X110428819Y-94210015D01*
X110488862Y-94245744D01*
X110520058Y-94308262D01*
X110522000Y-94330124D01*
X110522000Y-94379346D01*
X110552761Y-94533989D01*
X110552764Y-94534001D01*
X110613102Y-94679672D01*
X110613109Y-94679685D01*
X110700710Y-94810788D01*
X110700713Y-94810792D01*
X110812207Y-94922286D01*
X110812211Y-94922289D01*
X110943314Y-95009890D01*
X110943327Y-95009897D01*
X111018075Y-95040858D01*
X111089003Y-95070237D01*
X111243653Y-95100999D01*
X111243656Y-95101000D01*
X111243658Y-95101000D01*
X111401343Y-95101000D01*
X111411135Y-95099052D01*
X111555997Y-95070237D01*
X111701679Y-95009894D01*
X111791567Y-94949833D01*
X111833375Y-94921898D01*
X111851421Y-94916247D01*
X111867331Y-94906023D01*
X111898292Y-94901571D01*
X111900053Y-94901020D01*
X111902266Y-94901000D01*
X112025500Y-94901000D01*
X112092539Y-94920685D01*
X112138294Y-94973489D01*
X112149500Y-95025000D01*
X112149500Y-95150500D01*
X112129815Y-95217539D01*
X112077011Y-95263294D01*
X112025500Y-95274500D01*
X111749999Y-95274500D01*
X111749980Y-95274501D01*
X111690577Y-95280570D01*
X111690575Y-95280570D01*
X111647203Y-95285001D01*
X111501043Y-95333433D01*
X111501024Y-95333439D01*
X111480672Y-95340183D01*
X111480663Y-95340187D01*
X111331342Y-95432289D01*
X111207289Y-95556342D01*
X111115187Y-95705663D01*
X111112136Y-95712209D01*
X111109358Y-95710913D01*
X111076695Y-95757101D01*
X111011915Y-95783280D01*
X110943266Y-95770280D01*
X110892542Y-95722229D01*
X110887343Y-95712280D01*
X110884359Y-95705881D01*
X110792315Y-95556654D01*
X110668345Y-95432684D01*
X110519124Y-95340643D01*
X110519119Y-95340641D01*
X110352697Y-95285494D01*
X110352690Y-95285493D01*
X110249986Y-95275000D01*
X110200000Y-95275000D01*
X110200000Y-97724999D01*
X110249972Y-97724999D01*
X110249986Y-97724998D01*
X110352697Y-97714505D01*
X110519119Y-97659358D01*
X110519124Y-97659356D01*
X110668345Y-97567315D01*
X110792315Y-97443345D01*
X110884356Y-97294124D01*
X110887341Y-97287722D01*
X110933510Y-97235280D01*
X111000702Y-97216123D01*
X111067585Y-97236334D01*
X111111658Y-97288013D01*
X111112136Y-97287791D01*
X111115187Y-97294336D01*
X111138168Y-97331594D01*
X111207288Y-97443656D01*
X111331344Y-97567712D01*
X111480666Y-97659814D01*
X111647203Y-97714999D01*
X111749991Y-97725500D01*
X112350008Y-97725499D01*
X112350016Y-97725498D01*
X112350019Y-97725498D01*
X112406302Y-97719748D01*
X112452797Y-97714999D01*
X112619334Y-97659814D01*
X112768656Y-97567712D01*
X112892712Y-97443656D01*
X112894752Y-97440347D01*
X112896745Y-97438555D01*
X112897193Y-97437989D01*
X112897289Y-97438065D01*
X112946694Y-97393623D01*
X113015656Y-97382395D01*
X113079740Y-97410234D01*
X113105829Y-97440339D01*
X113107681Y-97443341D01*
X113107683Y-97443344D01*
X113231654Y-97567315D01*
X113380875Y-97659356D01*
X113380880Y-97659358D01*
X113547302Y-97714505D01*
X113547309Y-97714506D01*
X113650019Y-97724999D01*
X113699999Y-97724998D01*
X113700000Y-97724998D01*
X113700000Y-95275000D01*
X113699999Y-95274999D01*
X113650029Y-95275000D01*
X113650011Y-95275001D01*
X113547302Y-95285494D01*
X113513504Y-95296694D01*
X113443676Y-95299096D01*
X113383634Y-95263364D01*
X113352441Y-95200844D01*
X113350500Y-95178988D01*
X113350500Y-94574000D01*
X113370185Y-94506961D01*
X113422989Y-94461206D01*
X113451323Y-94452185D01*
X113580094Y-94427684D01*
X113587268Y-94428386D01*
X113603266Y-94425499D01*
X113997872Y-94425499D01*
X114057483Y-94419091D01*
X114192331Y-94368796D01*
X114192336Y-94368791D01*
X114198055Y-94365670D01*
X114257485Y-94350501D01*
X114330754Y-94350501D01*
X114330757Y-94350501D01*
X114483485Y-94309577D01*
X114562047Y-94264219D01*
X114620416Y-94230520D01*
X114732220Y-94118716D01*
X114732220Y-94118714D01*
X114742420Y-94108515D01*
X114742423Y-94108510D01*
X114852422Y-93998512D01*
X114913742Y-93965030D01*
X114983434Y-93970014D01*
X115039367Y-94011886D01*
X115063784Y-94077351D01*
X115064100Y-94086196D01*
X115064100Y-95560048D01*
X115044415Y-95627087D01*
X114991611Y-95672842D01*
X114922453Y-95682786D01*
X114858897Y-95653761D01*
X114834561Y-95625145D01*
X114792315Y-95556654D01*
X114668345Y-95432684D01*
X114519124Y-95340643D01*
X114519119Y-95340641D01*
X114352697Y-95285494D01*
X114352690Y-95285493D01*
X114249986Y-95275000D01*
X114200000Y-95275000D01*
X114200000Y-97724999D01*
X114249972Y-97724999D01*
X114249986Y-97724998D01*
X114352697Y-97714505D01*
X114519119Y-97659358D01*
X114519124Y-97659356D01*
X114668345Y-97567315D01*
X114792315Y-97443345D01*
X114884356Y-97294124D01*
X114884356Y-97294122D01*
X114892540Y-97269426D01*
X114903145Y-97254107D01*
X114909238Y-97236504D01*
X114922620Y-97225979D01*
X114932312Y-97211981D01*
X114949514Y-97204828D01*
X114964158Y-97193312D01*
X114981104Y-97191693D01*
X114996827Y-97185156D01*
X115015165Y-97188439D01*
X115033711Y-97186668D01*
X115048844Y-97194469D01*
X115065603Y-97197470D01*
X115079255Y-97210146D01*
X115095814Y-97218683D01*
X115115753Y-97244036D01*
X115116804Y-97245012D01*
X115117632Y-97246425D01*
X115132800Y-97272695D01*
X115132801Y-97272700D01*
X115132803Y-97272700D01*
X115184079Y-97361514D01*
X115184081Y-97361517D01*
X115302949Y-97480385D01*
X115302955Y-97480390D01*
X117208181Y-99385616D01*
X117241666Y-99446939D01*
X117244500Y-99473297D01*
X117244500Y-99906388D01*
X117259279Y-100018651D01*
X117259282Y-100018662D01*
X117317142Y-100158350D01*
X117317143Y-100158352D01*
X117317144Y-100158353D01*
X117409190Y-100278310D01*
X117529147Y-100370356D01*
X117529148Y-100370356D01*
X117529149Y-100370357D01*
X117547751Y-100378062D01*
X117668841Y-100428219D01*
X117781113Y-100443000D01*
X119778886Y-100442999D01*
X119778888Y-100442999D01*
X119891151Y-100428220D01*
X119891150Y-100428220D01*
X119891159Y-100428219D01*
X120030853Y-100370356D01*
X120150810Y-100278310D01*
X120238819Y-100163613D01*
X120241897Y-100161365D01*
X120243482Y-100157897D01*
X120269896Y-100140921D01*
X120295247Y-100122411D01*
X120299984Y-100121585D01*
X120302260Y-100120123D01*
X120337195Y-100115100D01*
X120475434Y-100115100D01*
X120542473Y-100134785D01*
X120544325Y-100135998D01*
X120676014Y-100223990D01*
X120676027Y-100223997D01*
X120807150Y-100278309D01*
X120821703Y-100284337D01*
X120976353Y-100315099D01*
X120976356Y-100315100D01*
X120976358Y-100315100D01*
X121134044Y-100315100D01*
X121134045Y-100315099D01*
X121288697Y-100284337D01*
X121434379Y-100223994D01*
X121565489Y-100136389D01*
X121676989Y-100024889D01*
X121764594Y-99893779D01*
X121824937Y-99748097D01*
X121855700Y-99593442D01*
X121855700Y-99435758D01*
X121855700Y-99435755D01*
X121855699Y-99435753D01*
X121846618Y-99390100D01*
X121824937Y-99281103D01*
X121824935Y-99281098D01*
X121764597Y-99135427D01*
X121764590Y-99135414D01*
X121676989Y-99004311D01*
X121676986Y-99004307D01*
X121565492Y-98892813D01*
X121565488Y-98892810D01*
X121434385Y-98805209D01*
X121434372Y-98805202D01*
X121288701Y-98744864D01*
X121288689Y-98744861D01*
X121134045Y-98714100D01*
X121134042Y-98714100D01*
X120976358Y-98714100D01*
X120976355Y-98714100D01*
X120821710Y-98744861D01*
X120821698Y-98744864D01*
X120676027Y-98805202D01*
X120676014Y-98805209D01*
X120544325Y-98893202D01*
X120526278Y-98898852D01*
X120510369Y-98909077D01*
X120479407Y-98913528D01*
X120477647Y-98914080D01*
X120475434Y-98914100D01*
X120417770Y-98914100D01*
X120350731Y-98894415D01*
X120304976Y-98841611D01*
X120295032Y-98772453D01*
X120299351Y-98756707D01*
X120298615Y-98756510D01*
X120300715Y-98748667D01*
X120300719Y-98748659D01*
X120315500Y-98636387D01*
X120315499Y-98118614D01*
X120307522Y-98058022D01*
X120300720Y-98006348D01*
X120300719Y-98006347D01*
X120300719Y-98006341D01*
X120242856Y-97866647D01*
X120242856Y-97866646D01*
X120205518Y-97817987D01*
X120180323Y-97752818D01*
X120194361Y-97684373D01*
X120205518Y-97667013D01*
X120242856Y-97618353D01*
X120263833Y-97567710D01*
X120300719Y-97478659D01*
X120315500Y-97366387D01*
X120315500Y-97346700D01*
X120318050Y-97338014D01*
X120316762Y-97329053D01*
X120327740Y-97305012D01*
X120335185Y-97279661D01*
X120342025Y-97273733D01*
X120345787Y-97265497D01*
X120368021Y-97251207D01*
X120387989Y-97233906D01*
X120398503Y-97231618D01*
X120404565Y-97227723D01*
X120439500Y-97222700D01*
X120475434Y-97222700D01*
X120542473Y-97242385D01*
X120544325Y-97243598D01*
X120676014Y-97331590D01*
X120676027Y-97331597D01*
X120798666Y-97382395D01*
X120821703Y-97391937D01*
X120976353Y-97422699D01*
X120976356Y-97422700D01*
X120976358Y-97422700D01*
X121134044Y-97422700D01*
X121134045Y-97422699D01*
X121288697Y-97391937D01*
X121434379Y-97331594D01*
X121565489Y-97243989D01*
X121676989Y-97132489D01*
X121764594Y-97001379D01*
X121824937Y-96855697D01*
X121855700Y-96701042D01*
X121855700Y-96543358D01*
X121855700Y-96543355D01*
X121855699Y-96543353D01*
X121839471Y-96461772D01*
X121824937Y-96388703D01*
X121815265Y-96365353D01*
X121764597Y-96243027D01*
X121764590Y-96243014D01*
X121676989Y-96111911D01*
X121676986Y-96111907D01*
X121565492Y-96000413D01*
X121565488Y-96000410D01*
X121434385Y-95912809D01*
X121434372Y-95912802D01*
X121288701Y-95852464D01*
X121288689Y-95852461D01*
X121134045Y-95821700D01*
X121134042Y-95821700D01*
X120976358Y-95821700D01*
X120976355Y-95821700D01*
X120821710Y-95852461D01*
X120821698Y-95852464D01*
X120676027Y-95912802D01*
X120676014Y-95912809D01*
X120544325Y-96000802D01*
X120477647Y-96021680D01*
X120475434Y-96021700D01*
X119351969Y-96021700D01*
X119351953Y-96021699D01*
X119344357Y-96021699D01*
X119186243Y-96021699D01*
X119033515Y-96062623D01*
X119033514Y-96062623D01*
X119033512Y-96062624D01*
X119019203Y-96070886D01*
X119003713Y-96075036D01*
X118992136Y-96082477D01*
X118957201Y-96087500D01*
X118904000Y-96087500D01*
X118836961Y-96067815D01*
X118791206Y-96015011D01*
X118780000Y-95963500D01*
X118780000Y-95837500D01*
X118654000Y-95837500D01*
X118586961Y-95817815D01*
X118541206Y-95765011D01*
X118530000Y-95713500D01*
X118530000Y-95587500D01*
X119030000Y-95587500D01*
X120315000Y-95587500D01*
X120315000Y-95578650D01*
X120314999Y-95578636D01*
X120300231Y-95466471D01*
X120300230Y-95466467D01*
X120242421Y-95326900D01*
X120242419Y-95326897D01*
X120204888Y-95277988D01*
X120179692Y-95212820D01*
X120193729Y-95144375D01*
X120204888Y-95127012D01*
X120242419Y-95078102D01*
X120242421Y-95078099D01*
X120300230Y-94938532D01*
X120300231Y-94938528D01*
X120314999Y-94826363D01*
X120315000Y-94826349D01*
X120315000Y-94817500D01*
X119030000Y-94817500D01*
X119030000Y-95587500D01*
X118530000Y-95587500D01*
X118530000Y-94317500D01*
X119030000Y-94317500D01*
X120315000Y-94317500D01*
X120315000Y-94308650D01*
X120314999Y-94308636D01*
X120300231Y-94196471D01*
X120300230Y-94196467D01*
X120242421Y-94056900D01*
X120242419Y-94056897D01*
X120204888Y-94007988D01*
X120179692Y-93942820D01*
X120193729Y-93874375D01*
X120204888Y-93857012D01*
X120242419Y-93808102D01*
X120242421Y-93808099D01*
X120300230Y-93668532D01*
X120300231Y-93668528D01*
X120314999Y-93556363D01*
X120315000Y-93556349D01*
X120315000Y-93547500D01*
X119030000Y-93547500D01*
X119030000Y-94317500D01*
X118530000Y-94317500D01*
X118530000Y-93047500D01*
X119030000Y-93047500D01*
X120315000Y-93047500D01*
X120315000Y-93038650D01*
X120314999Y-93038636D01*
X120300231Y-92926471D01*
X120300230Y-92926467D01*
X120242421Y-92786900D01*
X120242419Y-92786897D01*
X120204888Y-92737988D01*
X120179692Y-92672820D01*
X120193729Y-92604375D01*
X120204888Y-92587012D01*
X120242419Y-92538102D01*
X120242421Y-92538099D01*
X120300230Y-92398532D01*
X120300231Y-92398528D01*
X120314999Y-92286363D01*
X120315000Y-92286349D01*
X120315000Y-92277500D01*
X119030000Y-92277500D01*
X119030000Y-93047500D01*
X118530000Y-93047500D01*
X118530000Y-92151500D01*
X118549685Y-92084461D01*
X118602489Y-92038706D01*
X118654000Y-92027500D01*
X118780000Y-92027500D01*
X118780000Y-91901500D01*
X118799685Y-91834461D01*
X118852489Y-91788706D01*
X118904000Y-91777500D01*
X120315000Y-91777500D01*
X120315000Y-91768650D01*
X120314999Y-91768636D01*
X120300231Y-91656471D01*
X120300230Y-91656467D01*
X120242421Y-91516900D01*
X120242419Y-91516897D01*
X120205203Y-91468397D01*
X120180008Y-91403228D01*
X120194046Y-91334783D01*
X120205201Y-91317425D01*
X120242856Y-91268353D01*
X120300719Y-91128659D01*
X120315500Y-91016387D01*
X120315499Y-90618895D01*
X120335183Y-90551857D01*
X120351813Y-90531220D01*
X123463421Y-87419613D01*
X123524742Y-87386130D01*
X123594434Y-87391114D01*
X123650367Y-87432986D01*
X123674784Y-87498450D01*
X123675100Y-87507296D01*
X123675100Y-95023730D01*
X123675099Y-95023748D01*
X123675099Y-95189454D01*
X123675098Y-95189454D01*
X123716023Y-95342185D01*
X123744958Y-95392300D01*
X123744959Y-95392304D01*
X123744960Y-95392304D01*
X123795079Y-95479114D01*
X123795081Y-95479117D01*
X123913949Y-95597985D01*
X123913955Y-95597990D01*
X126498181Y-98182216D01*
X126531666Y-98243539D01*
X126534500Y-98269897D01*
X126534500Y-98636388D01*
X126549279Y-98748651D01*
X126549282Y-98748662D01*
X126607143Y-98888353D01*
X126644482Y-98937014D01*
X126669676Y-99002184D01*
X126655637Y-99070628D01*
X126644482Y-99087986D01*
X126607143Y-99136646D01*
X126549282Y-99276337D01*
X126549281Y-99276341D01*
X126534500Y-99388605D01*
X126534500Y-99906388D01*
X126549279Y-100018651D01*
X126549282Y-100018662D01*
X126607142Y-100158350D01*
X126607143Y-100158352D01*
X126607144Y-100158353D01*
X126699189Y-100278309D01*
X126699191Y-100278311D01*
X126762586Y-100326955D01*
X126803789Y-100383383D01*
X126811100Y-100425331D01*
X126811100Y-100530646D01*
X126841861Y-100685289D01*
X126841864Y-100685301D01*
X126902202Y-100830972D01*
X126902209Y-100830985D01*
X126989810Y-100962088D01*
X126989813Y-100962092D01*
X127101307Y-101073586D01*
X127101311Y-101073589D01*
X127232414Y-101161190D01*
X127232427Y-101161197D01*
X127376362Y-101220816D01*
X127378103Y-101221537D01*
X127532753Y-101252299D01*
X127532756Y-101252300D01*
X127532758Y-101252300D01*
X127690444Y-101252300D01*
X127690445Y-101252299D01*
X127845097Y-101221537D01*
X127990779Y-101161194D01*
X128121889Y-101073589D01*
X128233389Y-100962089D01*
X128320994Y-100830979D01*
X128381337Y-100685297D01*
X128390410Y-100639684D01*
X128409681Y-100542807D01*
X128442066Y-100480896D01*
X128502782Y-100446322D01*
X128531298Y-100442999D01*
X129068888Y-100442999D01*
X129181151Y-100428220D01*
X129181150Y-100428220D01*
X129181159Y-100428219D01*
X129181166Y-100428215D01*
X129189005Y-100426116D01*
X129189815Y-100429141D01*
X129207737Y-100427205D01*
X129240247Y-100422531D01*
X129242304Y-100423470D01*
X129244552Y-100423228D01*
X129273913Y-100437906D01*
X129303803Y-100451556D01*
X129305026Y-100453459D01*
X129307048Y-100454470D01*
X129323816Y-100482697D01*
X129341577Y-100510334D01*
X129342006Y-100513317D01*
X129342732Y-100514540D01*
X129346600Y-100545269D01*
X129346600Y-100765430D01*
X129346599Y-100765448D01*
X129346599Y-100931154D01*
X129346598Y-100931154D01*
X129346599Y-100931157D01*
X129384764Y-101073589D01*
X129387524Y-101083887D01*
X129398154Y-101102298D01*
X129398155Y-101102300D01*
X129466577Y-101220812D01*
X129466581Y-101220817D01*
X129585449Y-101339685D01*
X129585455Y-101339690D01*
X132097099Y-103851334D01*
X132130584Y-103912657D01*
X132125600Y-103982349D01*
X132083728Y-104038282D01*
X132018264Y-104062699D01*
X131949991Y-104047847D01*
X131935108Y-104038283D01*
X131932330Y-104036203D01*
X131932328Y-104036202D01*
X131797482Y-103985908D01*
X131797483Y-103985908D01*
X131737883Y-103979501D01*
X131737881Y-103979500D01*
X131737873Y-103979500D01*
X131737864Y-103979500D01*
X124022129Y-103979500D01*
X124022123Y-103979501D01*
X123962516Y-103985908D01*
X123827671Y-104036202D01*
X123827664Y-104036206D01*
X123712455Y-104122452D01*
X123712452Y-104122455D01*
X123626206Y-104237664D01*
X123626202Y-104237671D01*
X123575908Y-104372517D01*
X123569501Y-104432116D01*
X123569501Y-104432123D01*
X123569500Y-104432135D01*
X123569500Y-115367870D01*
X123569501Y-115367876D01*
X123575908Y-115427483D01*
X123626202Y-115562328D01*
X123626206Y-115562335D01*
X123712452Y-115677544D01*
X123712455Y-115677547D01*
X123827664Y-115763793D01*
X123827671Y-115763797D01*
X123962517Y-115814091D01*
X123962516Y-115814091D01*
X123969444Y-115814835D01*
X124022127Y-115820500D01*
X131737872Y-115820499D01*
X131797483Y-115814091D01*
X131932331Y-115763796D01*
X132047546Y-115677546D01*
X132133796Y-115562331D01*
X132184091Y-115427483D01*
X132190500Y-115367873D01*
X132190499Y-104432128D01*
X132184091Y-104372517D01*
X132133796Y-104237669D01*
X132131718Y-104234893D01*
X132130506Y-104231645D01*
X132129546Y-104229886D01*
X132129798Y-104229747D01*
X132107300Y-104169428D01*
X132122151Y-104101155D01*
X132171556Y-104051749D01*
X132239829Y-104036897D01*
X132305293Y-104061313D01*
X132318665Y-104072900D01*
X139761241Y-111515476D01*
X139794726Y-111576799D01*
X139791492Y-111641473D01*
X139777753Y-111683757D01*
X139744783Y-111891925D01*
X139744500Y-111893713D01*
X139744500Y-112106287D01*
X139777754Y-112316243D01*
X139821437Y-112450686D01*
X139843444Y-112518414D01*
X139939951Y-112707820D01*
X140064890Y-112879786D01*
X140215213Y-113030109D01*
X140387179Y-113155048D01*
X140387181Y-113155049D01*
X140387184Y-113155051D01*
X140576588Y-113251557D01*
X140778757Y-113317246D01*
X140988713Y-113350500D01*
X140988714Y-113350500D01*
X141201286Y-113350500D01*
X141201287Y-113350500D01*
X141411243Y-113317246D01*
X141613412Y-113251557D01*
X141802816Y-113155051D01*
X141878834Y-113099821D01*
X141974786Y-113030109D01*
X141974788Y-113030106D01*
X141974792Y-113030104D01*
X142125104Y-112879792D01*
X142125106Y-112879788D01*
X142125109Y-112879786D01*
X142250048Y-112707820D01*
X142250047Y-112707820D01*
X142250051Y-112707816D01*
X142346557Y-112518412D01*
X142412246Y-112316243D01*
X142445500Y-112106287D01*
X142445500Y-111893713D01*
X142412246Y-111683757D01*
X142346557Y-111481588D01*
X142250051Y-111292184D01*
X142250049Y-111292181D01*
X142250048Y-111292179D01*
X142125109Y-111120213D01*
X142011569Y-111006673D01*
X141978084Y-110945350D01*
X141983068Y-110875658D01*
X142024940Y-110819725D01*
X142055915Y-110802810D01*
X142187331Y-110753796D01*
X142302546Y-110667546D01*
X142388796Y-110552331D01*
X142439091Y-110417483D01*
X142445500Y-110357873D01*
X142445499Y-108562128D01*
X142439091Y-108502517D01*
X142427261Y-108470800D01*
X142388797Y-108367671D01*
X142388793Y-108367664D01*
X142302547Y-108252455D01*
X142302544Y-108252452D01*
X142187335Y-108166206D01*
X142187328Y-108166202D01*
X142052482Y-108115908D01*
X142052483Y-108115908D01*
X141992883Y-108109501D01*
X141992881Y-108109500D01*
X141992873Y-108109500D01*
X141992865Y-108109500D01*
X141819500Y-108109500D01*
X141752461Y-108089815D01*
X141706706Y-108037011D01*
X141695500Y-107985500D01*
X141695500Y-101524459D01*
X141695501Y-101524446D01*
X141695501Y-101356345D01*
X141695501Y-101356343D01*
X141654577Y-101203615D01*
X141625639Y-101153495D01*
X141575520Y-101066684D01*
X141463716Y-100954880D01*
X141463715Y-100954879D01*
X141459385Y-100950549D01*
X141459374Y-100950539D01*
X134232750Y-93723915D01*
X134199265Y-93662592D01*
X134204249Y-93592900D01*
X134214892Y-93571137D01*
X134279356Y-93466624D01*
X134279358Y-93466619D01*
X134334505Y-93300197D01*
X134334506Y-93300190D01*
X134344999Y-93197486D01*
X134345000Y-93197473D01*
X134345000Y-92922500D01*
X133595000Y-92922500D01*
X133595000Y-93059199D01*
X133592449Y-93067884D01*
X133593738Y-93076845D01*
X133582759Y-93100886D01*
X133575315Y-93126238D01*
X133568475Y-93132164D01*
X133564714Y-93140401D01*
X133542478Y-93154691D01*
X133522511Y-93171993D01*
X133511998Y-93174280D01*
X133505936Y-93178176D01*
X133471002Y-93183198D01*
X133471001Y-93183199D01*
X133364243Y-93183199D01*
X133364239Y-93183199D01*
X133356632Y-93183200D01*
X133356631Y-93183199D01*
X133356631Y-93183200D01*
X133219197Y-93183200D01*
X133152158Y-93163515D01*
X133131516Y-93146881D01*
X133131319Y-93146684D01*
X133097834Y-93085361D01*
X133095000Y-93059003D01*
X133095000Y-92422500D01*
X133595000Y-92422500D01*
X134344999Y-92422500D01*
X134344999Y-92147528D01*
X134344998Y-92147513D01*
X134334505Y-92044802D01*
X134279358Y-91878380D01*
X134279356Y-91878375D01*
X134187315Y-91729154D01*
X134063345Y-91605184D01*
X133914124Y-91513143D01*
X133914119Y-91513141D01*
X133747697Y-91457994D01*
X133747690Y-91457993D01*
X133644986Y-91447500D01*
X133595000Y-91447500D01*
X133595000Y-92422500D01*
X133095000Y-92422500D01*
X133095000Y-91447500D01*
X133094999Y-91447499D01*
X133045029Y-91447500D01*
X133045011Y-91447501D01*
X132942303Y-91457994D01*
X132942294Y-91457996D01*
X132874841Y-91480347D01*
X132805013Y-91482748D01*
X132748158Y-91450322D01*
X131693690Y-90395855D01*
X131693688Y-90395852D01*
X131574817Y-90276981D01*
X131574809Y-90276975D01*
X131480993Y-90222811D01*
X131480991Y-90222810D01*
X131437890Y-90197925D01*
X131437889Y-90197924D01*
X131425363Y-90194567D01*
X131285157Y-90156999D01*
X131127043Y-90156999D01*
X131119447Y-90156999D01*
X131119431Y-90157000D01*
X129652721Y-90157000D01*
X129585682Y-90137315D01*
X129539927Y-90084511D01*
X129529983Y-90015353D01*
X129538160Y-89985547D01*
X129540937Y-89978843D01*
X129590719Y-89858659D01*
X129605500Y-89746387D01*
X129605499Y-89353395D01*
X129614145Y-89323949D01*
X129620667Y-89293969D01*
X129624419Y-89288955D01*
X129625183Y-89286357D01*
X129641813Y-89265720D01*
X129778106Y-89129428D01*
X129778111Y-89129424D01*
X129788314Y-89119220D01*
X129788316Y-89119220D01*
X129900120Y-89007416D01*
X129979177Y-88870484D01*
X130020100Y-88717757D01*
X130020100Y-73433060D01*
X130020101Y-73433047D01*
X130020101Y-73264944D01*
X130020101Y-73264943D01*
X129979177Y-73112216D01*
X129954004Y-73068614D01*
X129900124Y-72975290D01*
X129900118Y-72975282D01*
X127052473Y-70127637D01*
X127018988Y-70066314D01*
X127018537Y-70064147D01*
X126987638Y-69908810D01*
X126987637Y-69908803D01*
X126987635Y-69908798D01*
X126927297Y-69763127D01*
X126927290Y-69763114D01*
X126839689Y-69632011D01*
X126839686Y-69632007D01*
X126728192Y-69520513D01*
X126728188Y-69520510D01*
X126597085Y-69432909D01*
X126597072Y-69432902D01*
X126451401Y-69372564D01*
X126451389Y-69372561D01*
X126296745Y-69341800D01*
X126296742Y-69341800D01*
X126139058Y-69341800D01*
X126139055Y-69341800D01*
X125984410Y-69372561D01*
X125984398Y-69372564D01*
X125838727Y-69432902D01*
X125838714Y-69432909D01*
X125707611Y-69520510D01*
X125707607Y-69520513D01*
X125596113Y-69632007D01*
X125596110Y-69632011D01*
X125508509Y-69763114D01*
X125508502Y-69763127D01*
X125448164Y-69908798D01*
X125448161Y-69908810D01*
X125417400Y-70063453D01*
X125417400Y-70221146D01*
X125448161Y-70375789D01*
X125448164Y-70375801D01*
X125508502Y-70521472D01*
X125508509Y-70521485D01*
X125596110Y-70652588D01*
X125596113Y-70652592D01*
X125707607Y-70764086D01*
X125707611Y-70764089D01*
X125838714Y-70851690D01*
X125838727Y-70851697D01*
X125980687Y-70910498D01*
X125984403Y-70912037D01*
X126049047Y-70924895D01*
X126139749Y-70942938D01*
X126201660Y-70975323D01*
X126203239Y-70976874D01*
X128782781Y-73556416D01*
X128816266Y-73617739D01*
X128819100Y-73644097D01*
X128819100Y-87298000D01*
X128816549Y-87306685D01*
X128817838Y-87315647D01*
X128806859Y-87339687D01*
X128799415Y-87365039D01*
X128792574Y-87370966D01*
X128788813Y-87379203D01*
X128766578Y-87393492D01*
X128746611Y-87410794D01*
X128736096Y-87413081D01*
X128730035Y-87416977D01*
X128695100Y-87422000D01*
X128679913Y-87422000D01*
X128612874Y-87402315D01*
X128572526Y-87360000D01*
X128550520Y-87321884D01*
X128438716Y-87210080D01*
X128438715Y-87210079D01*
X128434385Y-87205749D01*
X128434374Y-87205739D01*
X128424474Y-87195839D01*
X128390989Y-87134516D01*
X128390538Y-87132349D01*
X128359638Y-86977010D01*
X128359638Y-86977008D01*
X128359637Y-86977003D01*
X128359635Y-86976998D01*
X128299297Y-86831327D01*
X128299290Y-86831314D01*
X128211689Y-86700211D01*
X128211686Y-86700207D01*
X128100192Y-86588713D01*
X128100188Y-86588710D01*
X127969085Y-86501109D01*
X127969072Y-86501102D01*
X127823401Y-86440764D01*
X127823389Y-86440761D01*
X127668745Y-86410000D01*
X127668742Y-86410000D01*
X127511058Y-86410000D01*
X127511055Y-86410000D01*
X127356410Y-86440761D01*
X127356398Y-86440764D01*
X127210727Y-86501102D01*
X127210714Y-86501109D01*
X127079611Y-86588710D01*
X127079607Y-86588713D01*
X126968113Y-86700207D01*
X126968110Y-86700211D01*
X126880509Y-86831314D01*
X126880502Y-86831327D01*
X126820164Y-86976998D01*
X126820161Y-86977010D01*
X126789400Y-87131653D01*
X126789400Y-87289346D01*
X126813725Y-87411634D01*
X126807498Y-87481225D01*
X126767595Y-87534200D01*
X126699192Y-87586687D01*
X126607142Y-87706649D01*
X126549282Y-87846337D01*
X126549281Y-87846341D01*
X126534500Y-87958605D01*
X126534500Y-88476388D01*
X126549279Y-88588651D01*
X126549282Y-88588662D01*
X126607143Y-88728353D01*
X126644482Y-88777014D01*
X126669676Y-88842184D01*
X126655637Y-88910628D01*
X126644482Y-88927986D01*
X126607143Y-88976646D01*
X126549282Y-89116337D01*
X126549281Y-89116341D01*
X126534500Y-89228605D01*
X126534500Y-89746388D01*
X126549279Y-89858651D01*
X126549282Y-89858662D01*
X126607143Y-89998353D01*
X126644482Y-90047014D01*
X126669676Y-90112184D01*
X126655637Y-90180628D01*
X126644482Y-90197986D01*
X126607143Y-90246646D01*
X126549282Y-90386337D01*
X126549281Y-90386341D01*
X126534500Y-90498605D01*
X126534500Y-91016388D01*
X126549279Y-91128651D01*
X126549282Y-91128662D01*
X126607143Y-91268352D01*
X126644797Y-91317424D01*
X126669991Y-91382593D01*
X126655953Y-91451038D01*
X126644797Y-91468396D01*
X126607580Y-91516898D01*
X126607578Y-91516900D01*
X126549769Y-91656467D01*
X126549768Y-91656471D01*
X126535000Y-91768636D01*
X126535000Y-91777500D01*
X129605000Y-91777500D01*
X129605000Y-91768650D01*
X129604999Y-91768636D01*
X129590231Y-91656471D01*
X129590230Y-91656467D01*
X129537620Y-91529452D01*
X129530151Y-91459983D01*
X129561427Y-91397504D01*
X129621516Y-91361852D01*
X129652181Y-91358000D01*
X130090900Y-91358000D01*
X130157939Y-91377685D01*
X130203694Y-91430489D01*
X130214900Y-91482000D01*
X130214900Y-91496546D01*
X130245661Y-91651189D01*
X130245664Y-91651201D01*
X130306002Y-91796872D01*
X130306009Y-91796885D01*
X130393610Y-91927988D01*
X130393613Y-91927992D01*
X130418463Y-91952842D01*
X130451948Y-92014165D01*
X130454140Y-92053125D01*
X130444500Y-92147481D01*
X130444500Y-93197501D01*
X130444501Y-93197519D01*
X130455000Y-93300296D01*
X130455001Y-93300299D01*
X130510185Y-93466831D01*
X130510187Y-93466836D01*
X130544649Y-93522707D01*
X130602288Y-93616156D01*
X130726344Y-93740212D01*
X130866988Y-93826961D01*
X130913712Y-93878909D01*
X130924935Y-93947872D01*
X130897091Y-94011954D01*
X130866989Y-94038037D01*
X130797592Y-94080842D01*
X130726342Y-94124789D01*
X130602289Y-94248842D01*
X130510187Y-94398163D01*
X130510185Y-94398168D01*
X130489279Y-94461259D01*
X130455001Y-94564703D01*
X130455001Y-94564704D01*
X130455000Y-94564704D01*
X130444500Y-94667483D01*
X130444500Y-95292402D01*
X130424815Y-95359441D01*
X130408181Y-95380083D01*
X130068281Y-95719982D01*
X130068277Y-95719987D01*
X130049091Y-95753221D01*
X130049090Y-95753223D01*
X130015628Y-95811181D01*
X129991795Y-95852461D01*
X129989223Y-95856915D01*
X129948299Y-96009643D01*
X129948299Y-96009645D01*
X129948299Y-96177746D01*
X129948300Y-96177759D01*
X129948300Y-97329503D01*
X129942061Y-97350748D01*
X129940482Y-97372837D01*
X129932409Y-97383620D01*
X129928615Y-97396542D01*
X129911881Y-97411041D01*
X129898610Y-97428770D01*
X129885989Y-97433477D01*
X129875811Y-97442297D01*
X129853893Y-97445448D01*
X129833146Y-97453187D01*
X129819985Y-97450324D01*
X129806653Y-97452241D01*
X129786509Y-97443041D01*
X129764873Y-97438335D01*
X129747147Y-97425066D01*
X129743097Y-97423216D01*
X129736619Y-97417184D01*
X129641818Y-97322383D01*
X129608333Y-97261060D01*
X129605499Y-97234702D01*
X129605499Y-96848611D01*
X129590720Y-96736348D01*
X129590719Y-96736347D01*
X129590719Y-96736341D01*
X129532856Y-96596647D01*
X129495202Y-96547575D01*
X129470008Y-96482406D01*
X129484046Y-96413961D01*
X129495203Y-96396601D01*
X129532421Y-96348098D01*
X129590230Y-96208532D01*
X129590231Y-96208528D01*
X129604999Y-96096363D01*
X129605000Y-96096349D01*
X129605000Y-96087500D01*
X126535000Y-96087500D01*
X126535000Y-96096363D01*
X126550829Y-96216586D01*
X126549403Y-96216773D01*
X126547947Y-96277803D01*
X126508781Y-96335663D01*
X126444551Y-96363164D01*
X126375649Y-96351573D01*
X126342156Y-96327721D01*
X124912419Y-94897984D01*
X124897715Y-94871056D01*
X124881123Y-94845238D01*
X124880231Y-94839037D01*
X124878934Y-94836661D01*
X124877827Y-94826363D01*
X126535000Y-94826363D01*
X126549768Y-94938528D01*
X126549769Y-94938532D01*
X126607578Y-95078099D01*
X126607580Y-95078101D01*
X126645112Y-95127014D01*
X126670306Y-95192183D01*
X126656268Y-95260628D01*
X126645112Y-95277986D01*
X126607580Y-95326898D01*
X126607578Y-95326900D01*
X126549769Y-95466467D01*
X126549768Y-95466471D01*
X126535000Y-95578636D01*
X126535000Y-95587500D01*
X127820000Y-95587500D01*
X128320000Y-95587500D01*
X129605000Y-95587500D01*
X129605000Y-95578650D01*
X129604999Y-95578636D01*
X129590231Y-95466471D01*
X129590230Y-95466467D01*
X129532421Y-95326900D01*
X129532419Y-95326897D01*
X129494888Y-95277988D01*
X129469692Y-95212820D01*
X129483729Y-95144375D01*
X129494888Y-95127012D01*
X129532419Y-95078102D01*
X129532421Y-95078099D01*
X129590230Y-94938532D01*
X129590231Y-94938528D01*
X129604999Y-94826363D01*
X129605000Y-94826349D01*
X129605000Y-94817500D01*
X128320000Y-94817500D01*
X128320000Y-95587500D01*
X127820000Y-95587500D01*
X127820000Y-94817500D01*
X126535000Y-94817500D01*
X126535000Y-94826363D01*
X124877827Y-94826363D01*
X124876100Y-94810303D01*
X124876100Y-93556363D01*
X126535000Y-93556363D01*
X126549768Y-93668528D01*
X126549769Y-93668532D01*
X126607578Y-93808099D01*
X126607580Y-93808101D01*
X126645112Y-93857014D01*
X126670306Y-93922183D01*
X126656268Y-93990628D01*
X126645112Y-94007986D01*
X126607580Y-94056898D01*
X126607578Y-94056900D01*
X126549769Y-94196467D01*
X126549768Y-94196471D01*
X126535000Y-94308636D01*
X126535000Y-94317500D01*
X127820000Y-94317500D01*
X128320000Y-94317500D01*
X129605000Y-94317500D01*
X129605000Y-94308650D01*
X129604999Y-94308636D01*
X129590231Y-94196471D01*
X129590230Y-94196467D01*
X129532421Y-94056900D01*
X129532419Y-94056897D01*
X129494888Y-94007988D01*
X129469692Y-93942820D01*
X129483729Y-93874375D01*
X129494888Y-93857012D01*
X129532419Y-93808102D01*
X129532421Y-93808099D01*
X129590230Y-93668532D01*
X129590231Y-93668528D01*
X129604999Y-93556363D01*
X129605000Y-93556349D01*
X129605000Y-93547500D01*
X128320000Y-93547500D01*
X128320000Y-94317500D01*
X127820000Y-94317500D01*
X127820000Y-93547500D01*
X126535000Y-93547500D01*
X126535000Y-93556363D01*
X124876100Y-93556363D01*
X124876100Y-92286363D01*
X126535000Y-92286363D01*
X126549768Y-92398528D01*
X126549769Y-92398532D01*
X126607578Y-92538099D01*
X126607580Y-92538101D01*
X126645112Y-92587014D01*
X126670306Y-92652183D01*
X126656268Y-92720628D01*
X126645112Y-92737986D01*
X126607580Y-92786898D01*
X126607578Y-92786900D01*
X126549769Y-92926467D01*
X126549768Y-92926471D01*
X126535000Y-93038636D01*
X126535000Y-93047500D01*
X127820000Y-93047500D01*
X128320000Y-93047500D01*
X129605000Y-93047500D01*
X129605000Y-93038650D01*
X129604999Y-93038636D01*
X129590231Y-92926471D01*
X129590230Y-92926467D01*
X129532421Y-92786900D01*
X129532419Y-92786897D01*
X129494888Y-92737988D01*
X129469692Y-92672820D01*
X129483729Y-92604375D01*
X129494888Y-92587012D01*
X129532419Y-92538102D01*
X129532421Y-92538099D01*
X129590230Y-92398532D01*
X129590231Y-92398528D01*
X129604999Y-92286363D01*
X129605000Y-92286349D01*
X129605000Y-92277500D01*
X128320000Y-92277500D01*
X128320000Y-93047500D01*
X127820000Y-93047500D01*
X127820000Y-92277500D01*
X126535000Y-92277500D01*
X126535000Y-92286363D01*
X124876100Y-92286363D01*
X124876100Y-80520030D01*
X124895785Y-80452991D01*
X124948589Y-80407236D01*
X125017747Y-80397292D01*
X125038418Y-80402099D01*
X125226052Y-80463065D01*
X125226051Y-80463065D01*
X125459248Y-80500000D01*
X125695352Y-80500000D01*
X125928547Y-80463065D01*
X126153102Y-80390102D01*
X126363463Y-80282918D01*
X126363469Y-80282914D01*
X126446404Y-80222658D01*
X126446405Y-80222658D01*
X125706709Y-79482962D01*
X125770293Y-79465925D01*
X125884307Y-79400099D01*
X125977399Y-79307007D01*
X126043225Y-79192993D01*
X126060262Y-79129409D01*
X126799958Y-79869105D01*
X126799958Y-79869104D01*
X126860214Y-79786169D01*
X126860218Y-79786163D01*
X126967402Y-79575802D01*
X127040365Y-79351247D01*
X127077300Y-79118052D01*
X127077300Y-78881947D01*
X127040365Y-78648752D01*
X126967402Y-78424197D01*
X126860214Y-78213828D01*
X126799958Y-78130894D01*
X126799958Y-78130893D01*
X126060262Y-78870590D01*
X126043225Y-78807007D01*
X125977399Y-78692993D01*
X125884307Y-78599901D01*
X125770293Y-78534075D01*
X125706708Y-78517037D01*
X126446405Y-77777340D01*
X126446404Y-77777338D01*
X126363474Y-77717087D01*
X126153102Y-77609897D01*
X125928547Y-77536934D01*
X125928548Y-77536934D01*
X125695352Y-77500000D01*
X125459248Y-77500000D01*
X125226051Y-77536934D01*
X125038418Y-77597900D01*
X124968577Y-77599895D01*
X124908744Y-77563815D01*
X124877916Y-77501114D01*
X124876100Y-77479969D01*
X124876100Y-74812906D01*
X124888870Y-74765277D01*
X124886265Y-74764198D01*
X124889372Y-74756691D01*
X124889377Y-74756684D01*
X124930300Y-74603957D01*
X124930300Y-65280554D01*
X127797798Y-65280554D01*
X127797799Y-65280557D01*
X127838723Y-65433285D01*
X127841372Y-65437873D01*
X127841373Y-65437874D01*
X127841373Y-65437875D01*
X127917777Y-65570212D01*
X127917781Y-65570217D01*
X128036649Y-65689085D01*
X128036655Y-65689090D01*
X128300839Y-65953274D01*
X128300849Y-65953285D01*
X128305179Y-65957615D01*
X128305180Y-65957616D01*
X128416984Y-66069420D01*
X128416986Y-66069421D01*
X128416990Y-66069424D01*
X128553909Y-66148473D01*
X128553916Y-66148477D01*
X128665719Y-66178434D01*
X128706642Y-66189400D01*
X128706643Y-66189400D01*
X128990634Y-66189400D01*
X129057673Y-66209085D01*
X129059525Y-66210298D01*
X129191214Y-66298290D01*
X129191227Y-66298297D01*
X129336898Y-66358635D01*
X129336903Y-66358637D01*
X129491553Y-66389399D01*
X129491556Y-66389400D01*
X129491558Y-66389400D01*
X129649244Y-66389400D01*
X129649245Y-66389399D01*
X129803897Y-66358637D01*
X129949579Y-66298294D01*
X130080689Y-66210689D01*
X130192189Y-66099189D01*
X130279794Y-65968079D01*
X130340137Y-65822397D01*
X130370900Y-65667742D01*
X130370900Y-65624499D01*
X130390585Y-65557460D01*
X130443389Y-65511705D01*
X130494900Y-65500499D01*
X131547871Y-65500499D01*
X131547872Y-65500499D01*
X131607483Y-65494091D01*
X131742331Y-65443796D01*
X131857546Y-65357546D01*
X131943796Y-65242331D01*
X131966609Y-65181167D01*
X132008480Y-65125233D01*
X132073944Y-65100816D01*
X132082791Y-65100500D01*
X133917209Y-65100500D01*
X133984248Y-65120185D01*
X134030003Y-65172989D01*
X134033391Y-65181167D01*
X134056202Y-65242328D01*
X134056206Y-65242335D01*
X134142452Y-65357544D01*
X134142455Y-65357547D01*
X134257664Y-65443793D01*
X134257671Y-65443797D01*
X134392517Y-65494091D01*
X134392516Y-65494091D01*
X134399444Y-65494835D01*
X134452127Y-65500500D01*
X137347872Y-65500499D01*
X137407483Y-65494091D01*
X137542331Y-65443796D01*
X137657546Y-65357546D01*
X137743796Y-65242331D01*
X137794091Y-65107483D01*
X137800500Y-65047873D01*
X137800499Y-63952128D01*
X137795299Y-63903757D01*
X137794091Y-63892516D01*
X137743797Y-63757671D01*
X137743793Y-63757664D01*
X137657547Y-63642455D01*
X137657544Y-63642452D01*
X137542335Y-63556206D01*
X137542328Y-63556202D01*
X137407482Y-63505908D01*
X137407483Y-63505908D01*
X137347883Y-63499501D01*
X137347881Y-63499500D01*
X137347873Y-63499500D01*
X137347864Y-63499500D01*
X134452129Y-63499500D01*
X134452123Y-63499501D01*
X134392516Y-63505908D01*
X134257671Y-63556202D01*
X134257664Y-63556206D01*
X134142455Y-63642452D01*
X134142452Y-63642455D01*
X134056206Y-63757664D01*
X134056202Y-63757671D01*
X134033391Y-63818833D01*
X133991520Y-63874767D01*
X133926056Y-63899184D01*
X133917209Y-63899500D01*
X132082791Y-63899500D01*
X132015752Y-63879815D01*
X131969997Y-63827011D01*
X131966609Y-63818833D01*
X131943797Y-63757671D01*
X131943793Y-63757664D01*
X131857547Y-63642455D01*
X131857544Y-63642452D01*
X131742335Y-63556206D01*
X131742328Y-63556202D01*
X131607482Y-63505908D01*
X131607483Y-63505908D01*
X131547883Y-63499501D01*
X131547881Y-63499500D01*
X131547873Y-63499500D01*
X131547864Y-63499500D01*
X128652129Y-63499500D01*
X128652123Y-63499501D01*
X128592516Y-63505908D01*
X128457671Y-63556202D01*
X128457664Y-63556206D01*
X128342455Y-63642452D01*
X128342452Y-63642455D01*
X128256206Y-63757664D01*
X128256203Y-63757669D01*
X128209525Y-63882819D01*
X128167653Y-63938752D01*
X128155343Y-63946872D01*
X128029587Y-64019477D01*
X128029582Y-64019481D01*
X127917781Y-64131282D01*
X127917775Y-64131290D01*
X127838726Y-64268209D01*
X127838723Y-64268216D01*
X127797800Y-64420943D01*
X127797800Y-65114830D01*
X127797799Y-65114848D01*
X127797799Y-65280554D01*
X127797798Y-65280554D01*
X124930300Y-65280554D01*
X124930300Y-61047844D01*
X128200000Y-61047844D01*
X128206401Y-61107372D01*
X128206403Y-61107379D01*
X128256645Y-61242086D01*
X128256649Y-61242093D01*
X128342809Y-61357187D01*
X128342812Y-61357190D01*
X128457906Y-61443350D01*
X128457913Y-61443354D01*
X128592620Y-61493596D01*
X128592627Y-61493598D01*
X128652155Y-61499999D01*
X128652172Y-61500000D01*
X129850000Y-61500000D01*
X130350000Y-61500000D01*
X131547828Y-61500000D01*
X131547844Y-61499999D01*
X131607372Y-61493598D01*
X131607379Y-61493596D01*
X131742086Y-61443354D01*
X131742093Y-61443350D01*
X131857187Y-61357190D01*
X131857190Y-61357187D01*
X131943350Y-61242093D01*
X131943354Y-61242086D01*
X131993596Y-61107379D01*
X131993598Y-61107372D01*
X131999999Y-61047844D01*
X134000000Y-61047844D01*
X134006401Y-61107372D01*
X134006403Y-61107379D01*
X134056645Y-61242086D01*
X134056649Y-61242093D01*
X134142809Y-61357187D01*
X134142812Y-61357190D01*
X134257906Y-61443350D01*
X134257913Y-61443354D01*
X134392620Y-61493596D01*
X134392627Y-61493598D01*
X134452155Y-61499999D01*
X134452172Y-61500000D01*
X135650000Y-61500000D01*
X136150000Y-61500000D01*
X137347828Y-61500000D01*
X137347844Y-61499999D01*
X137407372Y-61493598D01*
X137407379Y-61493596D01*
X137542086Y-61443354D01*
X137542093Y-61443350D01*
X137657187Y-61357190D01*
X137657190Y-61357187D01*
X137743350Y-61242093D01*
X137743354Y-61242086D01*
X137793596Y-61107379D01*
X137793598Y-61107372D01*
X137799999Y-61047844D01*
X137800000Y-61047827D01*
X137800000Y-60750000D01*
X136150000Y-60750000D01*
X136150000Y-61500000D01*
X135650000Y-61500000D01*
X135650000Y-60750000D01*
X134000000Y-60750000D01*
X134000000Y-61047844D01*
X131999999Y-61047844D01*
X132000000Y-61047827D01*
X132000000Y-60750000D01*
X130350000Y-60750000D01*
X130350000Y-61500000D01*
X129850000Y-61500000D01*
X129850000Y-60750000D01*
X128200000Y-60750000D01*
X128200000Y-61047844D01*
X124930300Y-61047844D01*
X124930300Y-60562135D01*
X139744500Y-60562135D01*
X139744500Y-62357870D01*
X139744501Y-62357876D01*
X139750908Y-62417483D01*
X139801202Y-62552328D01*
X139801206Y-62552335D01*
X139887452Y-62667544D01*
X139887455Y-62667547D01*
X140002664Y-62753793D01*
X140002671Y-62753797D01*
X140134082Y-62802810D01*
X140190016Y-62844681D01*
X140214433Y-62910145D01*
X140199582Y-62978418D01*
X140178431Y-63006673D01*
X140064889Y-63120215D01*
X139939951Y-63292179D01*
X139843444Y-63481585D01*
X139777753Y-63683760D01*
X139752896Y-63840703D01*
X139744500Y-63893713D01*
X139744500Y-64106287D01*
X139746701Y-64120185D01*
X139771798Y-64278642D01*
X139777754Y-64316243D01*
X139840550Y-64509509D01*
X139843444Y-64518414D01*
X139939951Y-64707820D01*
X140064890Y-64879786D01*
X140215213Y-65030109D01*
X140387179Y-65155048D01*
X140387181Y-65155049D01*
X140387184Y-65155051D01*
X140576588Y-65251557D01*
X140778757Y-65317246D01*
X140988713Y-65350500D01*
X140988714Y-65350500D01*
X141201286Y-65350500D01*
X141201287Y-65350500D01*
X141411243Y-65317246D01*
X141523184Y-65280873D01*
X141593023Y-65278879D01*
X141652856Y-65314959D01*
X141683684Y-65377660D01*
X141685500Y-65398805D01*
X141685500Y-92451203D01*
X141665815Y-92518242D01*
X141649181Y-92538884D01*
X141292839Y-92895225D01*
X141231516Y-92928710D01*
X141229350Y-92929161D01*
X141074008Y-92960061D01*
X141073998Y-92960064D01*
X140928327Y-93020402D01*
X140928314Y-93020409D01*
X140797211Y-93108010D01*
X140797207Y-93108013D01*
X140685713Y-93219507D01*
X140685710Y-93219511D01*
X140598109Y-93350614D01*
X140598102Y-93350627D01*
X140537764Y-93496298D01*
X140537761Y-93496310D01*
X140507000Y-93650953D01*
X140507000Y-93808646D01*
X140537761Y-93963289D01*
X140537764Y-93963301D01*
X140598102Y-94108972D01*
X140598109Y-94108985D01*
X140685710Y-94240088D01*
X140685713Y-94240092D01*
X140797207Y-94351586D01*
X140797211Y-94351589D01*
X140928314Y-94439190D01*
X140928327Y-94439197D01*
X141051664Y-94490284D01*
X141074003Y-94499537D01*
X141203939Y-94525383D01*
X141228653Y-94530299D01*
X141228656Y-94530300D01*
X141228658Y-94530300D01*
X141386344Y-94530300D01*
X141386345Y-94530299D01*
X141540997Y-94499537D01*
X141655316Y-94452185D01*
X141686672Y-94439197D01*
X141686672Y-94439196D01*
X141686679Y-94439194D01*
X141817789Y-94351589D01*
X141929289Y-94240089D01*
X142016894Y-94108979D01*
X142017093Y-94108500D01*
X142057111Y-94011886D01*
X142077237Y-93963297D01*
X142099047Y-93853653D01*
X142108138Y-93807950D01*
X142140523Y-93746039D01*
X142142022Y-93744512D01*
X142644506Y-93242027D01*
X142644511Y-93242024D01*
X142654714Y-93231820D01*
X142654716Y-93231820D01*
X142766520Y-93120016D01*
X142824029Y-93020406D01*
X142845577Y-92983085D01*
X142886501Y-92830357D01*
X142886501Y-92672243D01*
X142886501Y-92664648D01*
X142886500Y-92664630D01*
X142886500Y-63435741D01*
X142883757Y-63425503D01*
X142883757Y-63425504D01*
X142883756Y-63425500D01*
X142845577Y-63283015D01*
X142804692Y-63212200D01*
X142804692Y-63212199D01*
X142766524Y-63146090D01*
X142766522Y-63146087D01*
X142766520Y-63146084D01*
X142654716Y-63034280D01*
X142654715Y-63034279D01*
X142650385Y-63029949D01*
X142650374Y-63029939D01*
X142372287Y-62751852D01*
X142338802Y-62690529D01*
X142343786Y-62620837D01*
X142360700Y-62589861D01*
X142388796Y-62552331D01*
X142439091Y-62417483D01*
X142445500Y-62357873D01*
X142445499Y-60562128D01*
X142439091Y-60502517D01*
X142438152Y-60500000D01*
X142388797Y-60367671D01*
X142388793Y-60367664D01*
X142302547Y-60252455D01*
X142302544Y-60252452D01*
X142187335Y-60166206D01*
X142187328Y-60166202D01*
X142052482Y-60115908D01*
X142052483Y-60115908D01*
X141992883Y-60109501D01*
X141992881Y-60109500D01*
X141992873Y-60109500D01*
X141992864Y-60109500D01*
X140197129Y-60109500D01*
X140197123Y-60109501D01*
X140137516Y-60115908D01*
X140002671Y-60166202D01*
X140002664Y-60166206D01*
X139887455Y-60252452D01*
X139887452Y-60252455D01*
X139801206Y-60367664D01*
X139801202Y-60367671D01*
X139750908Y-60502517D01*
X139747058Y-60538334D01*
X139744501Y-60562123D01*
X139744500Y-60562135D01*
X124930300Y-60562135D01*
X124930300Y-59952155D01*
X128200000Y-59952155D01*
X128200000Y-60250000D01*
X129850000Y-60250000D01*
X130350000Y-60250000D01*
X132000000Y-60250000D01*
X132000000Y-59952172D01*
X131999999Y-59952155D01*
X134000000Y-59952155D01*
X134000000Y-60250000D01*
X135650000Y-60250000D01*
X136150000Y-60250000D01*
X137800000Y-60250000D01*
X137800000Y-59952172D01*
X137799999Y-59952155D01*
X137793598Y-59892627D01*
X137793596Y-59892620D01*
X137743354Y-59757913D01*
X137743350Y-59757906D01*
X137657190Y-59642812D01*
X137657187Y-59642809D01*
X137542093Y-59556649D01*
X137542086Y-59556645D01*
X137407379Y-59506403D01*
X137407372Y-59506401D01*
X137347844Y-59500000D01*
X136150000Y-59500000D01*
X136150000Y-60250000D01*
X135650000Y-60250000D01*
X135650000Y-59500000D01*
X134452155Y-59500000D01*
X134392627Y-59506401D01*
X134392620Y-59506403D01*
X134257913Y-59556645D01*
X134257906Y-59556649D01*
X134142812Y-59642809D01*
X134142809Y-59642812D01*
X134056649Y-59757906D01*
X134056645Y-59757913D01*
X134006403Y-59892620D01*
X134006401Y-59892627D01*
X134000000Y-59952155D01*
X131999999Y-59952155D01*
X131993598Y-59892627D01*
X131993596Y-59892620D01*
X131943354Y-59757913D01*
X131943350Y-59757906D01*
X131857190Y-59642812D01*
X131857187Y-59642809D01*
X131742093Y-59556649D01*
X131742086Y-59556645D01*
X131607379Y-59506403D01*
X131607372Y-59506401D01*
X131547844Y-59500000D01*
X130350000Y-59500000D01*
X130350000Y-60250000D01*
X129850000Y-60250000D01*
X129850000Y-59500000D01*
X128652155Y-59500000D01*
X128592627Y-59506401D01*
X128592620Y-59506403D01*
X128457913Y-59556645D01*
X128457906Y-59556649D01*
X128342812Y-59642809D01*
X128342809Y-59642812D01*
X128256649Y-59757906D01*
X128256645Y-59757913D01*
X128206403Y-59892620D01*
X128206401Y-59892627D01*
X128200000Y-59952155D01*
X124930300Y-59952155D01*
X124930300Y-55480643D01*
X124903467Y-55380500D01*
X124889377Y-55327915D01*
X124850466Y-55260520D01*
X124850466Y-55260519D01*
X124810322Y-55190987D01*
X124810321Y-55190986D01*
X124810320Y-55190984D01*
X124698516Y-55079180D01*
X124698515Y-55079179D01*
X124694185Y-55074849D01*
X124694174Y-55074839D01*
X120745990Y-51126655D01*
X120745988Y-51126652D01*
X120627117Y-51007781D01*
X120627109Y-51007775D01*
X120581403Y-50981387D01*
X120533187Y-50930821D01*
X120519963Y-50862214D01*
X120545931Y-50797349D01*
X120602845Y-50756820D01*
X120643402Y-50750000D01*
X134595000Y-50750000D01*
X134595000Y-49624500D01*
X134614685Y-49557461D01*
X134667489Y-49511706D01*
X134719000Y-49500500D01*
X144876000Y-49500500D01*
X144943039Y-49520185D01*
G37*
%TD.AperFunction*%
%TA.AperFunction,Conductor*%
G36*
X113888834Y-118755126D02*
G01*
X113944767Y-118796998D01*
X113969184Y-118862462D01*
X113969500Y-118871308D01*
X113969500Y-119227691D01*
X113949815Y-119294730D01*
X113933181Y-119315373D01*
X113834457Y-119414096D01*
X113826510Y-119418434D01*
X113821086Y-119425681D01*
X113796326Y-119434915D01*
X113773133Y-119447580D01*
X113764104Y-119446934D01*
X113755622Y-119450098D01*
X113732725Y-119445117D01*
X113739552Y-119438291D01*
X113770000Y-119364782D01*
X113770000Y-119285218D01*
X113739552Y-119211709D01*
X113683291Y-119155448D01*
X113609782Y-119125000D01*
X113547380Y-119125000D01*
X113538587Y-119080794D01*
X113544814Y-119011203D01*
X113572523Y-118968922D01*
X113757819Y-118783627D01*
X113819142Y-118750142D01*
X113888834Y-118755126D01*
G37*
%TD.AperFunction*%
%TA.AperFunction,Conductor*%
G36*
X107425703Y-118777596D02*
G01*
X107432181Y-118783628D01*
X107617476Y-118968922D01*
X107650961Y-119030245D01*
X107651412Y-119080794D01*
X107642619Y-119125000D01*
X107580218Y-119125000D01*
X107506709Y-119155448D01*
X107450448Y-119211709D01*
X107420000Y-119285218D01*
X107420000Y-119364782D01*
X107450448Y-119438291D01*
X107458978Y-119446821D01*
X107399888Y-119442595D01*
X107355542Y-119414095D01*
X107256819Y-119315372D01*
X107223334Y-119254049D01*
X107220500Y-119227691D01*
X107220500Y-118871309D01*
X107240185Y-118804270D01*
X107292989Y-118758515D01*
X107362147Y-118748571D01*
X107425703Y-118777596D01*
G37*
%TD.AperFunction*%
%TA.AperFunction,Conductor*%
G36*
X133300203Y-94490284D02*
G01*
X133306681Y-94496316D01*
X133558681Y-94748316D01*
X133592166Y-94809639D01*
X133595000Y-94835997D01*
X133595000Y-96417499D01*
X133644972Y-96417499D01*
X133644986Y-96417498D01*
X133747697Y-96407005D01*
X133914119Y-96351858D01*
X133914124Y-96351856D01*
X134063345Y-96259815D01*
X134187315Y-96135845D01*
X134279356Y-95986624D01*
X134279358Y-95986619D01*
X134334505Y-95820197D01*
X134334506Y-95820189D01*
X134335427Y-95811181D01*
X134361822Y-95746489D01*
X134419002Y-95706337D01*
X134488813Y-95703473D01*
X134546466Y-95736101D01*
X140458181Y-101647816D01*
X140491666Y-101709139D01*
X140494500Y-101735497D01*
X140494500Y-107985500D01*
X140474815Y-108052539D01*
X140422011Y-108098294D01*
X140370501Y-108109500D01*
X140197130Y-108109500D01*
X140197123Y-108109501D01*
X140137516Y-108115908D01*
X140002671Y-108166202D01*
X140002664Y-108166206D01*
X139887455Y-108252452D01*
X139887452Y-108252455D01*
X139801206Y-108367664D01*
X139801202Y-108367671D01*
X139750908Y-108502517D01*
X139744501Y-108562116D01*
X139744501Y-108562123D01*
X139744500Y-108562135D01*
X139744500Y-109500903D01*
X139724815Y-109567942D01*
X139672011Y-109613697D01*
X139602853Y-109623641D01*
X139539297Y-109594616D01*
X139532819Y-109588584D01*
X130583919Y-100639684D01*
X130550434Y-100578361D01*
X130547600Y-100552003D01*
X130547600Y-99507785D01*
X130567285Y-99440746D01*
X130620089Y-99394991D01*
X130647409Y-99386168D01*
X130650184Y-99385616D01*
X130782297Y-99359337D01*
X130927979Y-99298994D01*
X131059089Y-99211389D01*
X131170589Y-99099889D01*
X131258194Y-98968779D01*
X131318537Y-98823097D01*
X131349300Y-98668442D01*
X131349300Y-98510758D01*
X131349300Y-98510755D01*
X131349299Y-98510753D01*
X131336531Y-98446565D01*
X131318537Y-98356103D01*
X131261555Y-98218535D01*
X131258197Y-98210427D01*
X131258190Y-98210414D01*
X131170198Y-98078725D01*
X131149320Y-98012047D01*
X131149300Y-98009834D01*
X131149300Y-96541999D01*
X131168985Y-96474960D01*
X131221789Y-96429205D01*
X131273300Y-96417999D01*
X131745002Y-96417999D01*
X131745008Y-96417999D01*
X131847797Y-96407499D01*
X132014334Y-96352314D01*
X132163656Y-96260212D01*
X132287712Y-96136156D01*
X132289752Y-96132847D01*
X132291745Y-96131055D01*
X132292193Y-96130489D01*
X132292289Y-96130565D01*
X132341694Y-96086123D01*
X132410656Y-96074895D01*
X132474740Y-96102734D01*
X132500829Y-96132839D01*
X132502681Y-96135841D01*
X132502683Y-96135844D01*
X132626654Y-96259815D01*
X132775875Y-96351856D01*
X132775880Y-96351858D01*
X132942302Y-96407005D01*
X132942309Y-96407006D01*
X133045019Y-96417499D01*
X133094999Y-96417498D01*
X133095000Y-96417498D01*
X133095000Y-94583997D01*
X133114685Y-94516958D01*
X133167489Y-94471203D01*
X133236647Y-94461259D01*
X133300203Y-94490284D01*
G37*
%TD.AperFunction*%
%TA.AperFunction,Conductor*%
G36*
X102130739Y-92047185D02*
G01*
X102176494Y-92099989D01*
X102187700Y-92151500D01*
X102187700Y-94317500D01*
X103472700Y-94317500D01*
X103472700Y-94308650D01*
X103472699Y-94308636D01*
X103457932Y-94196477D01*
X103457232Y-94193863D01*
X103457286Y-94191569D01*
X103456871Y-94188414D01*
X103457363Y-94188349D01*
X103458892Y-94124013D01*
X103498053Y-94066149D01*
X103562280Y-94038643D01*
X103601496Y-94040207D01*
X103613312Y-94042587D01*
X103625503Y-94047637D01*
X103780158Y-94078400D01*
X103791069Y-94078400D01*
X103803190Y-94080842D01*
X103823607Y-94091586D01*
X103845739Y-94098085D01*
X103853938Y-94107548D01*
X103865021Y-94113380D01*
X103876387Y-94133455D01*
X103891494Y-94150889D01*
X103894760Y-94165904D01*
X103899446Y-94174180D01*
X103898854Y-94184724D01*
X103902700Y-94202400D01*
X103902700Y-96012701D01*
X103883015Y-96079740D01*
X103866381Y-96100382D01*
X103670702Y-96296061D01*
X103609379Y-96329546D01*
X103539687Y-96324562D01*
X103483754Y-96282690D01*
X103459337Y-96217226D01*
X103460082Y-96192194D01*
X103472699Y-96096363D01*
X103472700Y-96096349D01*
X103472700Y-96087500D01*
X100402700Y-96087500D01*
X100402700Y-96096363D01*
X100417468Y-96208528D01*
X100417469Y-96208532D01*
X100475278Y-96348098D01*
X100512497Y-96396602D01*
X100537691Y-96461772D01*
X100523674Y-96530176D01*
X100518810Y-96539348D01*
X100474844Y-96596647D01*
X100426333Y-96713761D01*
X100423571Y-96718971D01*
X100416919Y-96725788D01*
X100401701Y-96748564D01*
X99812183Y-97338102D01*
X99750860Y-97371588D01*
X99681168Y-97366605D01*
X99625234Y-97324734D01*
X99600816Y-97259270D01*
X99600500Y-97250422D01*
X99600500Y-94826363D01*
X100402700Y-94826363D01*
X100417468Y-94938528D01*
X100417469Y-94938532D01*
X100475278Y-95078099D01*
X100475280Y-95078101D01*
X100512812Y-95127014D01*
X100538006Y-95192183D01*
X100523968Y-95260628D01*
X100512812Y-95277986D01*
X100475280Y-95326898D01*
X100475278Y-95326900D01*
X100417469Y-95466467D01*
X100417468Y-95466471D01*
X100402700Y-95578636D01*
X100402700Y-95587500D01*
X101687700Y-95587500D01*
X102187700Y-95587500D01*
X103472700Y-95587500D01*
X103472700Y-95578650D01*
X103472699Y-95578636D01*
X103457931Y-95466471D01*
X103457930Y-95466467D01*
X103400121Y-95326900D01*
X103400119Y-95326897D01*
X103362588Y-95277988D01*
X103337392Y-95212820D01*
X103351429Y-95144375D01*
X103362588Y-95127012D01*
X103400119Y-95078102D01*
X103400121Y-95078099D01*
X103457930Y-94938532D01*
X103457931Y-94938528D01*
X103472699Y-94826363D01*
X103472700Y-94826349D01*
X103472700Y-94817500D01*
X102187700Y-94817500D01*
X102187700Y-95587500D01*
X101687700Y-95587500D01*
X101687700Y-94817500D01*
X100402700Y-94817500D01*
X100402700Y-94826363D01*
X99600500Y-94826363D01*
X99600500Y-93556363D01*
X100402700Y-93556363D01*
X100417468Y-93668528D01*
X100417469Y-93668532D01*
X100475278Y-93808099D01*
X100475280Y-93808101D01*
X100512812Y-93857014D01*
X100538006Y-93922183D01*
X100523968Y-93990628D01*
X100512812Y-94007986D01*
X100475280Y-94056898D01*
X100475278Y-94056900D01*
X100417469Y-94196467D01*
X100417468Y-94196471D01*
X100402700Y-94308636D01*
X100402700Y-94317500D01*
X101687700Y-94317500D01*
X101687700Y-93547500D01*
X100402700Y-93547500D01*
X100402700Y-93556363D01*
X99600500Y-93556363D01*
X99600500Y-92960329D01*
X99620185Y-92893290D01*
X99636823Y-92872644D01*
X100204028Y-92305527D01*
X100265350Y-92272050D01*
X100335042Y-92277040D01*
X100390972Y-92318915D01*
X100414638Y-92377032D01*
X100417468Y-92398528D01*
X100417469Y-92398532D01*
X100475278Y-92538099D01*
X100475280Y-92538101D01*
X100512812Y-92587014D01*
X100538006Y-92652183D01*
X100523968Y-92720628D01*
X100512812Y-92737986D01*
X100475280Y-92786898D01*
X100475278Y-92786900D01*
X100417469Y-92926467D01*
X100417468Y-92926471D01*
X100402700Y-93038636D01*
X100402700Y-93047500D01*
X101687700Y-93047500D01*
X101687700Y-92151500D01*
X101707385Y-92084461D01*
X101760189Y-92038706D01*
X101811700Y-92027500D01*
X102063700Y-92027500D01*
X102130739Y-92047185D01*
G37*
%TD.AperFunction*%
%TA.AperFunction,Conductor*%
G36*
X91056157Y-95931500D02*
G01*
X91101700Y-95984487D01*
X91112700Y-96035546D01*
X91112700Y-96096363D01*
X91127468Y-96208528D01*
X91127469Y-96208532D01*
X91180080Y-96335548D01*
X91187549Y-96405017D01*
X91156273Y-96467496D01*
X91096184Y-96503148D01*
X91065519Y-96507000D01*
X90683622Y-96507000D01*
X90616583Y-96487315D01*
X90570828Y-96434511D01*
X90560884Y-96365353D01*
X90589909Y-96301797D01*
X90618525Y-96277461D01*
X90663345Y-96249815D01*
X90787315Y-96125845D01*
X90883149Y-95970475D01*
X90886017Y-95972244D01*
X90922079Y-95930963D01*
X90989197Y-95911547D01*
X91056157Y-95931500D01*
G37*
%TD.AperFunction*%
%TA.AperFunction,Conductor*%
G36*
X94655361Y-88925886D02*
G01*
X94659479Y-88927507D01*
X94696312Y-88942763D01*
X94766503Y-88971837D01*
X94801124Y-88978723D01*
X94802473Y-88979024D01*
X94831856Y-88995263D01*
X94861600Y-89010821D01*
X94862331Y-89012104D01*
X94863625Y-89012820D01*
X94879561Y-89042361D01*
X94896176Y-89071536D01*
X94896417Y-89073606D01*
X94896798Y-89074312D01*
X94896679Y-89075856D01*
X94899500Y-89100055D01*
X94899500Y-95722702D01*
X94879815Y-95789741D01*
X94863181Y-95810383D01*
X94381187Y-96292376D01*
X94319864Y-96325861D01*
X94250172Y-96320877D01*
X94194239Y-96279005D01*
X94169822Y-96213541D01*
X94170567Y-96188509D01*
X94182699Y-96096363D01*
X94182700Y-96096349D01*
X94182700Y-96087500D01*
X92771700Y-96087500D01*
X92704661Y-96067815D01*
X92658906Y-96015011D01*
X92647700Y-95963500D01*
X92647700Y-95837500D01*
X92521700Y-95837500D01*
X92454661Y-95817815D01*
X92408906Y-95765011D01*
X92397700Y-95713500D01*
X92397700Y-95587500D01*
X92897700Y-95587500D01*
X94182700Y-95587500D01*
X94182700Y-95578650D01*
X94182699Y-95578636D01*
X94167931Y-95466471D01*
X94167930Y-95466467D01*
X94110121Y-95326900D01*
X94110119Y-95326897D01*
X94072588Y-95277988D01*
X94047392Y-95212820D01*
X94061429Y-95144375D01*
X94072588Y-95127012D01*
X94110119Y-95078102D01*
X94110121Y-95078099D01*
X94167930Y-94938532D01*
X94167931Y-94938528D01*
X94182699Y-94826363D01*
X94182700Y-94826349D01*
X94182700Y-94817500D01*
X92897700Y-94817500D01*
X92897700Y-95587500D01*
X92397700Y-95587500D01*
X92397700Y-94317500D01*
X92897700Y-94317500D01*
X94182700Y-94317500D01*
X94182700Y-94308650D01*
X94182699Y-94308636D01*
X94167931Y-94196471D01*
X94167930Y-94196467D01*
X94110121Y-94056900D01*
X94110119Y-94056897D01*
X94072588Y-94007988D01*
X94047392Y-93942820D01*
X94061429Y-93874375D01*
X94072588Y-93857012D01*
X94110119Y-93808102D01*
X94110121Y-93808099D01*
X94167930Y-93668532D01*
X94167931Y-93668528D01*
X94182699Y-93556363D01*
X94182700Y-93556349D01*
X94182700Y-93547500D01*
X92897700Y-93547500D01*
X92897700Y-94317500D01*
X92397700Y-94317500D01*
X92397700Y-93047500D01*
X92897700Y-93047500D01*
X94182700Y-93047500D01*
X94182700Y-93038650D01*
X94182699Y-93038636D01*
X94167931Y-92926471D01*
X94167930Y-92926467D01*
X94110121Y-92786900D01*
X94110119Y-92786897D01*
X94072588Y-92737988D01*
X94047392Y-92672820D01*
X94061429Y-92604375D01*
X94072588Y-92587012D01*
X94110119Y-92538102D01*
X94110121Y-92538099D01*
X94167930Y-92398532D01*
X94167931Y-92398528D01*
X94182699Y-92286363D01*
X94182700Y-92286349D01*
X94182700Y-92277500D01*
X92897700Y-92277500D01*
X92897700Y-93047500D01*
X92397700Y-93047500D01*
X92397700Y-92151500D01*
X92417385Y-92084461D01*
X92470189Y-92038706D01*
X92521700Y-92027500D01*
X92647700Y-92027500D01*
X92647700Y-91901500D01*
X92667385Y-91834461D01*
X92720189Y-91788706D01*
X92771700Y-91777500D01*
X94182700Y-91777500D01*
X94182700Y-91768650D01*
X94182699Y-91768636D01*
X94167931Y-91656471D01*
X94167930Y-91656467D01*
X94110121Y-91516900D01*
X94110119Y-91516897D01*
X94072903Y-91468397D01*
X94047708Y-91403228D01*
X94061746Y-91334783D01*
X94072901Y-91317425D01*
X94110556Y-91268353D01*
X94168419Y-91128659D01*
X94183200Y-91016387D01*
X94183199Y-90498614D01*
X94179891Y-90473488D01*
X94168420Y-90386348D01*
X94168419Y-90386347D01*
X94168419Y-90386341D01*
X94135404Y-90306635D01*
X94110556Y-90246646D01*
X94073218Y-90197987D01*
X94048023Y-90132818D01*
X94062061Y-90064373D01*
X94073218Y-90047013D01*
X94110556Y-89998353D01*
X94119492Y-89976779D01*
X94168419Y-89858659D01*
X94183200Y-89746387D01*
X94183199Y-89346895D01*
X94202883Y-89279857D01*
X94219513Y-89259220D01*
X94524348Y-88954385D01*
X94585669Y-88920902D01*
X94655361Y-88925886D01*
G37*
%TD.AperFunction*%
%TA.AperFunction,Conductor*%
G36*
X79749003Y-79161984D02*
G01*
X79755481Y-79168016D01*
X91075881Y-90488416D01*
X91109366Y-90549739D01*
X91112200Y-90576097D01*
X91112200Y-91016388D01*
X91126979Y-91128651D01*
X91126982Y-91128662D01*
X91184843Y-91268352D01*
X91222497Y-91317424D01*
X91247691Y-91382593D01*
X91233653Y-91451038D01*
X91222497Y-91468396D01*
X91185280Y-91516898D01*
X91185278Y-91516900D01*
X91127469Y-91656467D01*
X91127468Y-91656471D01*
X91112700Y-91768636D01*
X91112700Y-91829453D01*
X91093015Y-91896492D01*
X91040211Y-91942247D01*
X90971053Y-91952191D01*
X90907497Y-91923166D01*
X90884833Y-91893486D01*
X90883149Y-91894525D01*
X90787315Y-91739154D01*
X90663345Y-91615184D01*
X90514124Y-91523143D01*
X90514119Y-91523141D01*
X90347697Y-91467994D01*
X90347690Y-91467993D01*
X90244986Y-91457500D01*
X90195000Y-91457500D01*
X90195000Y-92432500D01*
X90944998Y-92432500D01*
X90952748Y-92424750D01*
X90975390Y-92412385D01*
X90995877Y-92396711D01*
X91005550Y-92395916D01*
X91014071Y-92391264D01*
X91039801Y-92393104D01*
X91065512Y-92390993D01*
X91074080Y-92395555D01*
X91083762Y-92396248D01*
X91104411Y-92411705D01*
X91127184Y-92423831D01*
X91133914Y-92433790D01*
X91139696Y-92438118D01*
X91148631Y-92451861D01*
X91232637Y-92601931D01*
X91238507Y-92627612D01*
X91248006Y-92652183D01*
X91246169Y-92661135D01*
X91248206Y-92670044D01*
X91239261Y-92694817D01*
X91233968Y-92720628D01*
X91224783Y-92734918D01*
X91224479Y-92735762D01*
X91224011Y-92736119D01*
X91222812Y-92737986D01*
X91185280Y-92786898D01*
X91143276Y-92888306D01*
X91099435Y-92942709D01*
X91033141Y-92964774D01*
X90965442Y-92947495D01*
X90946139Y-92932500D01*
X90195000Y-92932500D01*
X90195000Y-94932500D01*
X90948293Y-94932500D01*
X90964606Y-94923591D01*
X90986223Y-94907653D01*
X90994805Y-94907101D01*
X91002355Y-94902979D01*
X91029147Y-94904895D01*
X91055949Y-94903173D01*
X91063467Y-94907349D01*
X91072047Y-94907963D01*
X91093547Y-94924057D01*
X91117028Y-94937100D01*
X91122994Y-94946100D01*
X91127981Y-94949833D01*
X91137974Y-94965507D01*
X91233695Y-95143862D01*
X91238890Y-95168603D01*
X91248006Y-95192183D01*
X91245948Y-95202216D01*
X91248053Y-95212240D01*
X91239047Y-95235861D01*
X91233968Y-95260628D01*
X91223244Y-95277312D01*
X91223163Y-95277527D01*
X91223056Y-95277605D01*
X91222812Y-95277986D01*
X91185280Y-95326897D01*
X91154991Y-95400022D01*
X91111149Y-95454425D01*
X91044855Y-95476489D01*
X90977155Y-95459209D01*
X90952749Y-95440249D01*
X90945000Y-95432500D01*
X90069000Y-95432500D01*
X90001961Y-95412815D01*
X89956206Y-95360011D01*
X89945000Y-95308500D01*
X89945000Y-95182500D01*
X89819000Y-95182500D01*
X89751961Y-95162815D01*
X89706206Y-95110011D01*
X89695000Y-95058500D01*
X89695000Y-91457500D01*
X89684813Y-91447313D01*
X89652461Y-91437814D01*
X89606706Y-91385010D01*
X89595500Y-91333499D01*
X89595500Y-89978845D01*
X89595498Y-89978837D01*
X89594947Y-89976779D01*
X89594940Y-89976754D01*
X89571886Y-89890716D01*
X89569533Y-89881933D01*
X89554577Y-89826116D01*
X89512818Y-89753786D01*
X89475524Y-89689190D01*
X89475521Y-89689186D01*
X89475520Y-89689184D01*
X89363716Y-89577380D01*
X89363715Y-89577379D01*
X89359385Y-89573049D01*
X89359374Y-89573039D01*
X79580119Y-79793784D01*
X79546634Y-79732461D01*
X79543800Y-79706103D01*
X79543800Y-79255697D01*
X79563485Y-79188658D01*
X79616289Y-79142903D01*
X79685447Y-79132959D01*
X79749003Y-79161984D01*
G37*
%TD.AperFunction*%
%TA.AperFunction,Conductor*%
G36*
X114365049Y-79911951D02*
G01*
X114391409Y-79913836D01*
X114400464Y-79919655D01*
X114407505Y-79921187D01*
X114435759Y-79942338D01*
X114472207Y-79978786D01*
X114472211Y-79978789D01*
X114603314Y-80066390D01*
X114603327Y-80066397D01*
X114696124Y-80104834D01*
X114749003Y-80126737D01*
X114900898Y-80156951D01*
X114903653Y-80157499D01*
X114903656Y-80157500D01*
X114940100Y-80157500D01*
X114948785Y-80160050D01*
X114957747Y-80158762D01*
X114981787Y-80169740D01*
X115007139Y-80177185D01*
X115013066Y-80184025D01*
X115021303Y-80187787D01*
X115035592Y-80210021D01*
X115052894Y-80229989D01*
X115055181Y-80240503D01*
X115059077Y-80246565D01*
X115064100Y-80281500D01*
X115064100Y-80376000D01*
X115044415Y-80443039D01*
X114991611Y-80488794D01*
X114940100Y-80500000D01*
X113745000Y-80500000D01*
X113745000Y-82500000D01*
X114940100Y-82500000D01*
X115007139Y-82519685D01*
X115052894Y-82572489D01*
X115064100Y-82624000D01*
X115064100Y-86048502D01*
X115044415Y-86115541D01*
X114991611Y-86161296D01*
X114922453Y-86171240D01*
X114858897Y-86142215D01*
X114852419Y-86136183D01*
X113763373Y-85047137D01*
X113729888Y-84985814D01*
X113729437Y-84983647D01*
X113698538Y-84828310D01*
X113698537Y-84828303D01*
X113698535Y-84828298D01*
X113638197Y-84682627D01*
X113638190Y-84682614D01*
X113550589Y-84551511D01*
X113550586Y-84551507D01*
X113439092Y-84440013D01*
X113439088Y-84440010D01*
X113307985Y-84352409D01*
X113307972Y-84352402D01*
X113162301Y-84292064D01*
X113162289Y-84292061D01*
X113007645Y-84261300D01*
X113007642Y-84261300D01*
X112849958Y-84261300D01*
X112849955Y-84261300D01*
X112695310Y-84292061D01*
X112695298Y-84292064D01*
X112549627Y-84352402D01*
X112549614Y-84352409D01*
X112418511Y-84440010D01*
X112418507Y-84440013D01*
X112307013Y-84551507D01*
X112307010Y-84551511D01*
X112219409Y-84682614D01*
X112219402Y-84682627D01*
X112159064Y-84828298D01*
X112159061Y-84828310D01*
X112128300Y-84982953D01*
X112128300Y-85140646D01*
X112159061Y-85295289D01*
X112159064Y-85295301D01*
X112219402Y-85440972D01*
X112219409Y-85440985D01*
X112307010Y-85572088D01*
X112307013Y-85572092D01*
X112418507Y-85683586D01*
X112418511Y-85683589D01*
X112549614Y-85771190D01*
X112549627Y-85771197D01*
X112695298Y-85831535D01*
X112695303Y-85831537D01*
X112759947Y-85844395D01*
X112850649Y-85862438D01*
X112912560Y-85894823D01*
X112914139Y-85896374D01*
X114505681Y-87487916D01*
X114539166Y-87549239D01*
X114542000Y-87575597D01*
X114542000Y-89814894D01*
X114522315Y-89881933D01*
X114469511Y-89927688D01*
X114442192Y-89936511D01*
X114307208Y-89963361D01*
X114307198Y-89963364D01*
X114161527Y-90023702D01*
X114161514Y-90023709D01*
X114030411Y-90111310D01*
X114030407Y-90111313D01*
X113918913Y-90222807D01*
X113918911Y-90222810D01*
X113831309Y-90353914D01*
X113831302Y-90353927D01*
X113770964Y-90499598D01*
X113770961Y-90499610D01*
X113740200Y-90654253D01*
X113740200Y-90811946D01*
X113749571Y-90859056D01*
X113743344Y-90928648D01*
X113715635Y-90970928D01*
X113393786Y-91292778D01*
X113281981Y-91404582D01*
X113281975Y-91404590D01*
X113237418Y-91481767D01*
X113237413Y-91481777D01*
X113234103Y-91487509D01*
X113183532Y-91535720D01*
X113126722Y-91549500D01*
X113027134Y-91549500D01*
X113027121Y-91549501D01*
X113013248Y-91550992D01*
X112986756Y-91550991D01*
X112972889Y-91549501D01*
X112972875Y-91549500D01*
X112972873Y-91549500D01*
X112972870Y-91549500D01*
X112527129Y-91549500D01*
X112527123Y-91549501D01*
X112467517Y-91555908D01*
X112438633Y-91566682D01*
X112395300Y-91574500D01*
X112002129Y-91574500D01*
X112002123Y-91574501D01*
X111942516Y-91580908D01*
X111807669Y-91631203D01*
X111801942Y-91634331D01*
X111742513Y-91649500D01*
X111459698Y-91649500D01*
X111392659Y-91629815D01*
X111372017Y-91613181D01*
X110567588Y-90808752D01*
X110534103Y-90747429D01*
X110539087Y-90677737D01*
X110580959Y-90621804D01*
X110590173Y-90615532D01*
X110668343Y-90567317D01*
X110792315Y-90443345D01*
X110884356Y-90294124D01*
X110884358Y-90294119D01*
X110939505Y-90127697D01*
X110939506Y-90127690D01*
X110949999Y-90024986D01*
X110950000Y-90024973D01*
X110950000Y-89750000D01*
X110074000Y-89750000D01*
X110006961Y-89730315D01*
X109961206Y-89677511D01*
X109950000Y-89626000D01*
X109950000Y-89500000D01*
X109824000Y-89500000D01*
X109756961Y-89480315D01*
X109711206Y-89427511D01*
X109700000Y-89376000D01*
X109700000Y-89250000D01*
X110200000Y-89250000D01*
X110949999Y-89250000D01*
X110949999Y-88975028D01*
X110949998Y-88975013D01*
X110939505Y-88872302D01*
X110884358Y-88705880D01*
X110884356Y-88705875D01*
X110792315Y-88556654D01*
X110668345Y-88432684D01*
X110519124Y-88340643D01*
X110519119Y-88340641D01*
X110352697Y-88285494D01*
X110352690Y-88285493D01*
X110249986Y-88275000D01*
X110200000Y-88275000D01*
X110200000Y-89250000D01*
X109700000Y-89250000D01*
X109700000Y-88252340D01*
X109708301Y-88224068D01*
X109713975Y-88195152D01*
X109718676Y-88188736D01*
X109719685Y-88185301D01*
X109734543Y-88166471D01*
X109735403Y-88165574D01*
X109754289Y-88146689D01*
X109841894Y-88015579D01*
X109902237Y-87869897D01*
X109933000Y-87715242D01*
X109933000Y-87557558D01*
X109933000Y-87557555D01*
X109932999Y-87557553D01*
X109922660Y-87505576D01*
X109902237Y-87402903D01*
X109902235Y-87402898D01*
X109841897Y-87257227D01*
X109841890Y-87257214D01*
X109753898Y-87125525D01*
X109733020Y-87058847D01*
X109733000Y-87056634D01*
X109733000Y-83748997D01*
X109752685Y-83681958D01*
X109769319Y-83661316D01*
X110561043Y-82869592D01*
X111391138Y-82039497D01*
X111452458Y-82006014D01*
X111522150Y-82010998D01*
X111578083Y-82052870D01*
X111596841Y-82100488D01*
X111599620Y-82099832D01*
X111601403Y-82107379D01*
X111651645Y-82242086D01*
X111651649Y-82242093D01*
X111737809Y-82357187D01*
X111737812Y-82357190D01*
X111852906Y-82443350D01*
X111852913Y-82443354D01*
X111987620Y-82493596D01*
X111987627Y-82493598D01*
X112047155Y-82499999D01*
X112047172Y-82500000D01*
X113245000Y-82500000D01*
X113245000Y-80500000D01*
X113229998Y-80500000D01*
X113208752Y-80493761D01*
X113186664Y-80492182D01*
X113175880Y-80484109D01*
X113162959Y-80480315D01*
X113148459Y-80463581D01*
X113130731Y-80450310D01*
X113126023Y-80437689D01*
X113117204Y-80427511D01*
X113114052Y-80405593D01*
X113106314Y-80384846D01*
X113109176Y-80371685D01*
X113107260Y-80358353D01*
X113116459Y-80338209D01*
X113121166Y-80316573D01*
X113134434Y-80298847D01*
X113136285Y-80294797D01*
X113142317Y-80288319D01*
X113292317Y-80138319D01*
X113353640Y-80104834D01*
X113379998Y-80102000D01*
X113765331Y-80102000D01*
X113765347Y-80102001D01*
X113772943Y-80102001D01*
X113931054Y-80102001D01*
X113931057Y-80102001D01*
X114083785Y-80061077D01*
X114133904Y-80032139D01*
X114220716Y-79982020D01*
X114260397Y-79942338D01*
X114268341Y-79938000D01*
X114273768Y-79930752D01*
X114298523Y-79921518D01*
X114321717Y-79908853D01*
X114330749Y-79909498D01*
X114339232Y-79906335D01*
X114365049Y-79911951D01*
G37*
%TD.AperFunction*%
%TA.AperFunction,Conductor*%
G36*
X111533454Y-78106738D02*
G01*
X111555543Y-78108318D01*
X111566327Y-78116390D01*
X111579248Y-78120185D01*
X111593746Y-78136916D01*
X111611477Y-78150190D01*
X111622090Y-78169627D01*
X111625003Y-78172989D01*
X111628391Y-78181167D01*
X111651202Y-78242328D01*
X111651206Y-78242335D01*
X111737452Y-78357544D01*
X111737455Y-78357547D01*
X111852664Y-78443793D01*
X111852671Y-78443797D01*
X111987517Y-78494091D01*
X111987516Y-78494091D01*
X111994444Y-78494835D01*
X112047127Y-78500500D01*
X113704403Y-78500499D01*
X113725648Y-78506737D01*
X113747736Y-78508317D01*
X113758519Y-78516389D01*
X113771442Y-78520184D01*
X113785941Y-78536916D01*
X113803670Y-78550188D01*
X113808377Y-78562808D01*
X113817197Y-78572987D01*
X113820348Y-78594905D01*
X113828087Y-78615653D01*
X113825224Y-78628813D01*
X113827141Y-78642146D01*
X113817941Y-78662289D01*
X113813235Y-78683926D01*
X113799965Y-78701653D01*
X113798116Y-78705702D01*
X113792091Y-78712173D01*
X113639582Y-78864682D01*
X113578261Y-78898166D01*
X113551903Y-78901000D01*
X113166570Y-78901000D01*
X113166554Y-78900999D01*
X113158958Y-78900999D01*
X113000843Y-78900999D01*
X112926413Y-78920943D01*
X112848114Y-78941923D01*
X112848109Y-78941926D01*
X112711190Y-79020975D01*
X112711182Y-79020981D01*
X109806681Y-81925482D01*
X109745358Y-81958967D01*
X109675666Y-81953983D01*
X109619733Y-81912111D01*
X109595316Y-81846647D01*
X109595000Y-81837801D01*
X109595000Y-81750000D01*
X107945000Y-81750000D01*
X107945000Y-82500000D01*
X108932801Y-82500000D01*
X108999840Y-82519685D01*
X109045595Y-82572489D01*
X109055539Y-82641647D01*
X109026514Y-82705203D01*
X109020482Y-82711681D01*
X108767189Y-82964974D01*
X108767183Y-82964980D01*
X108763786Y-82968378D01*
X108763784Y-82968380D01*
X108651980Y-83080184D01*
X108623187Y-83130056D01*
X108572923Y-83217115D01*
X108531999Y-83369843D01*
X108531999Y-83369845D01*
X108531999Y-83537946D01*
X108532000Y-83537959D01*
X108532000Y-87056634D01*
X108527026Y-87073663D01*
X108527077Y-87091227D01*
X108513187Y-87121047D01*
X108512508Y-87123374D01*
X108510846Y-87125975D01*
X108510711Y-87126111D01*
X108423106Y-87257221D01*
X108415859Y-87274716D01*
X108409983Y-87283918D01*
X108391540Y-87299991D01*
X108376192Y-87319036D01*
X108365670Y-87322537D01*
X108357310Y-87329824D01*
X108333106Y-87333374D01*
X108309897Y-87341099D01*
X108299152Y-87338356D01*
X108288181Y-87339966D01*
X108265901Y-87329868D01*
X108242198Y-87323818D01*
X108227701Y-87312555D01*
X108224542Y-87311124D01*
X108223212Y-87309068D01*
X108217794Y-87304859D01*
X106630119Y-85717184D01*
X106596634Y-85655861D01*
X106593800Y-85629503D01*
X106593800Y-82624000D01*
X106613485Y-82556961D01*
X106666289Y-82511206D01*
X106717800Y-82500000D01*
X107445000Y-82500000D01*
X107445000Y-81250000D01*
X107945000Y-81250000D01*
X109595000Y-81250000D01*
X109595000Y-80952172D01*
X109594999Y-80952155D01*
X109588598Y-80892627D01*
X109588596Y-80892620D01*
X109538354Y-80757913D01*
X109538350Y-80757906D01*
X109452190Y-80642812D01*
X109452187Y-80642809D01*
X109337093Y-80556649D01*
X109337086Y-80556645D01*
X109202379Y-80506403D01*
X109202372Y-80506401D01*
X109142844Y-80500000D01*
X107945000Y-80500000D01*
X107945000Y-81250000D01*
X107445000Y-81250000D01*
X107445000Y-80500000D01*
X106717800Y-80500000D01*
X106650761Y-80480315D01*
X106605006Y-80427511D01*
X106593800Y-80376000D01*
X106593800Y-78624499D01*
X106613485Y-78557460D01*
X106666289Y-78511705D01*
X106717800Y-78500499D01*
X109142871Y-78500499D01*
X109142872Y-78500499D01*
X109202483Y-78494091D01*
X109337331Y-78443796D01*
X109452546Y-78357546D01*
X109538796Y-78242331D01*
X109554585Y-78199998D01*
X109561609Y-78181167D01*
X109603480Y-78125233D01*
X109668944Y-78100816D01*
X109677791Y-78100500D01*
X111512209Y-78100500D01*
X111533454Y-78106738D01*
G37*
%TD.AperFunction*%
%TA.AperFunction,Conductor*%
G36*
X120786428Y-52868349D02*
G01*
X120803388Y-52882523D01*
X123692981Y-55772116D01*
X123726466Y-55833439D01*
X123729300Y-55859797D01*
X123729300Y-72527824D01*
X123709615Y-72594863D01*
X123656811Y-72640618D01*
X123629492Y-72649441D01*
X123485608Y-72678061D01*
X123485598Y-72678064D01*
X123339927Y-72738402D01*
X123339914Y-72738409D01*
X123208811Y-72826010D01*
X123208807Y-72826013D01*
X123097313Y-72937507D01*
X123097310Y-72937511D01*
X123009709Y-73068614D01*
X123009702Y-73068627D01*
X122949364Y-73214298D01*
X122949361Y-73214310D01*
X122918600Y-73368953D01*
X122918600Y-73526646D01*
X122949361Y-73681289D01*
X122949364Y-73681301D01*
X123009702Y-73826972D01*
X123009709Y-73826985D01*
X123097702Y-73958674D01*
X123118580Y-74025351D01*
X123118600Y-74027565D01*
X123118600Y-86014603D01*
X123098915Y-86081642D01*
X123082281Y-86102284D01*
X122700581Y-86483984D01*
X122639258Y-86517469D01*
X122569566Y-86512485D01*
X122513633Y-86470613D01*
X122489216Y-86405149D01*
X122488900Y-86396303D01*
X122488900Y-60002642D01*
X122484708Y-59987000D01*
X122484707Y-59986996D01*
X122449699Y-59856344D01*
X122449698Y-59856339D01*
X122447977Y-59849915D01*
X122368922Y-59712987D01*
X122368921Y-59712986D01*
X122368920Y-59712984D01*
X122257116Y-59601180D01*
X122257115Y-59601179D01*
X122252785Y-59596849D01*
X122252774Y-59596839D01*
X120884290Y-58228355D01*
X120884288Y-58228352D01*
X120765417Y-58109481D01*
X120765416Y-58109480D01*
X120735352Y-58092123D01*
X120678605Y-58059360D01*
X120678603Y-58059359D01*
X120639967Y-58037052D01*
X120591755Y-57986487D01*
X120578533Y-57917880D01*
X120585791Y-57886331D01*
X120589091Y-57877483D01*
X120589091Y-57877481D01*
X120595500Y-57817873D01*
X120595499Y-56822128D01*
X120589091Y-56762517D01*
X120576340Y-56728332D01*
X120571357Y-56658642D01*
X120576338Y-56641672D01*
X120589091Y-56607483D01*
X120595500Y-56547873D01*
X120595499Y-55552128D01*
X120589091Y-55492517D01*
X120576340Y-55458332D01*
X120571357Y-55388642D01*
X120576338Y-55371672D01*
X120589091Y-55337483D01*
X120595500Y-55277873D01*
X120595499Y-54282128D01*
X120589091Y-54222517D01*
X120576340Y-54188332D01*
X120571357Y-54118642D01*
X120576338Y-54101672D01*
X120589091Y-54067483D01*
X120595500Y-54007873D01*
X120595499Y-53012128D01*
X120592417Y-52983457D01*
X120604824Y-52914698D01*
X120652435Y-52863562D01*
X120720134Y-52846283D01*
X120786428Y-52868349D01*
G37*
%TD.AperFunction*%
%TD*%
M02*
