%TF.GenerationSoftware,KiCad,Pcbnew,9.0.3*%
%TF.CreationDate,2025-08-18T21:06:09-04:00*%
%TF.ProjectId,robotbrain,726f626f-7462-4726-9169-6e2e6b696361,rev?*%
%TF.SameCoordinates,Original*%
%TF.FileFunction,Copper,L2,Bot*%
%TF.FilePolarity,Positive*%
%FSLAX46Y46*%
G04 Gerber Fmt 4.6, Leading zero omitted, Abs format (unit mm)*
G04 Created by KiCad (PCBNEW 9.0.3) date 2025-08-18 21:06:09*
%MOMM*%
%LPD*%
G01*
G04 APERTURE LIST*
G04 Aperture macros list*
%AMRoundRect*
0 Rectangle with rounded corners*
0 $1 Rounding radius*
0 $2 $3 $4 $5 $6 $7 $8 $9 X,Y pos of 4 corners*
0 Add a 4 corners polygon primitive as box body*
4,1,4,$2,$3,$4,$5,$6,$7,$8,$9,$2,$3,0*
0 Add four circle primitives for the rounded corners*
1,1,$1+$1,$2,$3*
1,1,$1+$1,$4,$5*
1,1,$1+$1,$6,$7*
1,1,$1+$1,$8,$9*
0 Add four rect primitives between the rounded corners*
20,1,$1+$1,$2,$3,$4,$5,0*
20,1,$1+$1,$4,$5,$6,$7,0*
20,1,$1+$1,$6,$7,$8,$9,0*
20,1,$1+$1,$8,$9,$2,$3,0*%
G04 Aperture macros list end*
%TA.AperFunction,ComponentPad*%
%ADD10R,1.700000X1.700000*%
%TD*%
%TA.AperFunction,ComponentPad*%
%ADD11C,1.700000*%
%TD*%
%TA.AperFunction,ComponentPad*%
%ADD12C,2.057400*%
%TD*%
%TA.AperFunction,ComponentPad*%
%ADD13RoundRect,0.250000X-0.750000X-0.750000X0.750000X-0.750000X0.750000X0.750000X-0.750000X0.750000X0*%
%TD*%
%TA.AperFunction,ComponentPad*%
%ADD14C,2.000000*%
%TD*%
%TA.AperFunction,HeatsinkPad*%
%ADD15C,0.600000*%
%TD*%
%TA.AperFunction,ComponentPad*%
%ADD16C,0.700000*%
%TD*%
%TA.AperFunction,ComponentPad*%
%ADD17O,0.900000X2.400000*%
%TD*%
%TA.AperFunction,ComponentPad*%
%ADD18O,0.900000X1.700000*%
%TD*%
%TA.AperFunction,ViaPad*%
%ADD19C,0.600000*%
%TD*%
%TA.AperFunction,Conductor*%
%ADD20C,0.200000*%
%TD*%
G04 APERTURE END LIST*
D10*
%TO.P,J1,1,Pin_1*%
%TO.N,VBAT*%
X95225000Y-121500000D03*
D11*
%TO.P,J1,2,Pin_2*%
%TO.N,GND*%
X97765000Y-121500000D03*
%TD*%
D12*
%TO.P,SW1,1,A*%
%TO.N,VBUS*%
X106594100Y-110000000D03*
%TO.P,SW1,2,B*%
%TO.N,Net-(SW1-B)*%
X101895100Y-110000000D03*
%TO.P,SW1,3,C*%
%TO.N,VBAT*%
X97196100Y-110000000D03*
%TD*%
D13*
%TO.P,C11,1*%
%TO.N,VBAT*%
X94445000Y-79000000D03*
D14*
%TO.P,C11,2*%
%TO.N,GND*%
X99445000Y-79000000D03*
%TD*%
D10*
%TO.P,J6,1,Pin_1*%
%TO.N,MOTOR3B*%
X141095000Y-61460000D03*
D11*
%TO.P,J6,2,Pin_2*%
%TO.N,MOTOR3A*%
X141095000Y-64000000D03*
%TD*%
D15*
%TO.P,U1,41,GND*%
%TO.N,GND*%
X107695000Y-59260000D03*
X107695000Y-60660000D03*
X108395000Y-58560000D03*
X108395000Y-59960000D03*
X108395000Y-61360000D03*
X109095000Y-59260000D03*
X109095000Y-60660000D03*
X109795000Y-58560000D03*
X109795000Y-59960000D03*
X109795000Y-61360000D03*
X110495000Y-59260000D03*
X110495000Y-60660000D03*
%TD*%
D10*
%TO.P,J7,1,Pin_1*%
%TO.N,MOTOR4B*%
X141095000Y-109460000D03*
D11*
%TO.P,J7,2,Pin_2*%
%TO.N,MOTOR4A*%
X141095000Y-112000000D03*
%TD*%
D16*
%TO.P,J3,A1,GND*%
%TO.N,GND*%
X107620000Y-117975000D03*
%TO.P,J3,A4,VBUS*%
%TO.N,VBUS*%
X108470000Y-117975000D03*
%TO.P,J3,A5,CC1*%
%TO.N,Net-(J3-CC1)*%
X109320000Y-117975000D03*
%TO.P,J3,A6,D+*%
%TO.N,D+*%
X110170000Y-117975000D03*
%TO.P,J3,A7,D-*%
%TO.N,D-*%
X111020000Y-117975000D03*
%TO.P,J3,A8,SBU1*%
%TO.N,unconnected-(J3-SBU1-PadA8)*%
X111870000Y-117975000D03*
%TO.P,J3,A9,VBUS*%
%TO.N,VBUS*%
X112720000Y-117975000D03*
%TO.P,J3,A12,GND*%
%TO.N,GND*%
X113570000Y-117975000D03*
%TO.P,J3,B1,GND*%
X113570000Y-119325000D03*
%TO.P,J3,B4,VBUS*%
%TO.N,VBUS*%
X112720000Y-119325000D03*
%TO.P,J3,B5,CC2*%
%TO.N,Net-(J3-CC2)*%
X111870000Y-119325000D03*
%TO.P,J3,B6,D+*%
%TO.N,D+*%
X111020000Y-119325000D03*
%TO.P,J3,B7,D-*%
%TO.N,D-*%
X110170000Y-119325000D03*
%TO.P,J3,B8,SBU2*%
%TO.N,unconnected-(J3-SBU2-PadB8)*%
X109320000Y-119325000D03*
%TO.P,J3,B9,VBUS*%
%TO.N,VBUS*%
X108470000Y-119325000D03*
%TO.P,J3,B12,GND*%
%TO.N,GND*%
X107620000Y-119325000D03*
D17*
%TO.P,J3,S1,SHIELD*%
%TO.N,unconnected-(J3-SHIELD-PadS1)_3*%
X106270000Y-118955000D03*
D18*
%TO.N,unconnected-(J3-SHIELD-PadS1)_1*%
X106270000Y-122335000D03*
D17*
%TO.N,unconnected-(J3-SHIELD-PadS1)_2*%
X114920000Y-118955000D03*
D18*
%TO.N,unconnected-(J3-SHIELD-PadS1)*%
X114920000Y-122335000D03*
%TD*%
D10*
%TO.P,J5,1,Pin_1*%
%TO.N,MOTOR2B*%
X80095000Y-109460000D03*
D11*
%TO.P,J5,2,Pin_2*%
%TO.N,MOTOR2A*%
X80095000Y-112000000D03*
%TD*%
D13*
%TO.P,C13,1*%
%TO.N,VBAT*%
X120577300Y-79000000D03*
D14*
%TO.P,C13,2*%
%TO.N,GND*%
X125577300Y-79000000D03*
%TD*%
D10*
%TO.P,J2,1,Pin_1*%
%TO.N,MOTOR1B*%
X80095000Y-61460000D03*
D11*
%TO.P,J2,2,Pin_2*%
%TO.N,MOTOR1A*%
X80095000Y-64000000D03*
%TD*%
D19*
%TO.N,GND*%
X100000000Y-93500000D03*
X121000000Y-53500000D03*
X108000000Y-84000000D03*
X109250000Y-92250000D03*
X134500000Y-97000000D03*
X94500000Y-94000000D03*
X137000000Y-95500000D03*
X111000000Y-90500000D03*
X108000000Y-121500000D03*
X96500000Y-76500000D03*
X111000000Y-83000000D03*
%TO.N,+3V3*%
X102396500Y-100451800D03*
X102374800Y-87210500D03*
X109132500Y-91251600D03*
X127589900Y-87210500D03*
X118452100Y-87210500D03*
X99979700Y-56359300D03*
X127611600Y-100451800D03*
X108559500Y-94449400D03*
X96444700Y-56562900D03*
X88010400Y-93932500D03*
X103670000Y-53236200D03*
X131015400Y-91417700D03*
X92723100Y-56537900D03*
X92328700Y-87210500D03*
X94835000Y-64805800D03*
X106147000Y-96622200D03*
X117907500Y-111170000D03*
X114540700Y-90733100D03*
%TO.N,VBAT*%
X121055200Y-99514600D03*
X130548800Y-98589600D03*
X115987500Y-78968700D03*
X91081800Y-104815000D03*
%TO.N,D-*%
X105156200Y-71394600D03*
X103670000Y-67902200D03*
%TO.N,D+*%
X96910100Y-99008500D03*
X99933500Y-99460900D03*
X97006700Y-81387100D03*
X103227600Y-81271100D03*
%TO.N,Net-(J3-CC1)*%
X116500000Y-117000000D03*
%TO.N,BOOT*%
X129570400Y-65588900D03*
X117520000Y-67698200D03*
%TO.N,IN2B*%
X103857400Y-88845000D03*
X116266300Y-87945000D03*
%TO.N,SCL*%
X99794200Y-76375400D03*
X107632500Y-75964600D03*
%TO.N,INT_MAG*%
X112928800Y-85061800D03*
X103866400Y-83319800D03*
%TO.N,IN4B*%
X126217900Y-70142300D03*
X116898400Y-68258200D03*
%TO.N,IN1B*%
X95000000Y-88202100D03*
X109132500Y-87636400D03*
%TO.N,SDA*%
X103859000Y-93277900D03*
X111322500Y-94300500D03*
%TO.N,IN1A*%
X114982500Y-79357000D03*
X94507500Y-82160200D03*
%TO.N,MOTOR3A*%
X123719100Y-73447800D03*
%TO.N,MOTOR3B*%
X141307500Y-93729800D03*
X121055200Y-96622200D03*
%TD*%
D20*
%TO.N,GND*%
X116255000Y-53500000D02*
X110495000Y-59260000D01*
X100000000Y-93500000D02*
X101250000Y-92250000D01*
X96945000Y-76500000D02*
X96500000Y-76500000D01*
X108000000Y-121500000D02*
X107620000Y-121120000D01*
X136000000Y-95500000D02*
X137000000Y-95500000D01*
X121000000Y-53500000D02*
X116255000Y-53500000D01*
X111000000Y-83000000D02*
X110000000Y-84000000D01*
X110000000Y-84000000D02*
X108000000Y-84000000D01*
X134500000Y-97000000D02*
X136000000Y-95500000D01*
X99445000Y-79000000D02*
X96945000Y-76500000D01*
X107620000Y-121120000D02*
X107620000Y-119325000D01*
X111000000Y-90500000D02*
X109250000Y-92250000D01*
X94500000Y-94000000D02*
X99500000Y-94000000D01*
X101250000Y-92250000D02*
X109250000Y-92250000D01*
X99500000Y-94000000D02*
X100000000Y-93500000D01*
%TO.N,VBAT*%
X92011100Y-104815000D02*
X91081800Y-104815000D01*
X115743700Y-78724900D02*
X102224700Y-78724900D01*
X130548800Y-98589600D02*
X121980200Y-98589600D01*
X115987500Y-78968700D02*
X115743700Y-78724900D01*
X120546000Y-78968700D02*
X115987500Y-78968700D01*
X121980200Y-98589600D02*
X121055200Y-99514600D01*
X97196100Y-110000000D02*
X92011100Y-104815000D01*
X102224700Y-78724900D02*
X100592400Y-80357200D01*
X120577300Y-79000000D02*
X120546000Y-78968700D01*
X95802200Y-80357200D02*
X94445000Y-79000000D01*
X100592400Y-80357200D02*
X95802200Y-80357200D01*
%TO.N,D-*%
X103670000Y-67902200D02*
X103670000Y-69908400D01*
X103670000Y-69908400D02*
X105156200Y-71394600D01*
%TO.N,VBUS*%
X108626000Y-119976000D02*
X108470000Y-119820000D01*
X112720000Y-119723000D02*
X112467000Y-119976000D01*
X112467000Y-119976000D02*
X108626000Y-119976000D01*
X108470000Y-119820000D02*
X108470000Y-119325000D01*
X107532000Y-110938000D02*
X106594100Y-110000100D01*
X106594100Y-110000100D02*
X106594100Y-110000000D01*
X108470000Y-111876000D02*
X107532000Y-110938000D01*
X107532000Y-110938000D02*
X106594000Y-110000000D01*
X108470000Y-117975000D02*
X108470000Y-111876000D01*
X112720000Y-119325000D02*
X112720000Y-119723000D01*
%TO.N,D+*%
X97362500Y-99460900D02*
X99933500Y-99460900D01*
X103227600Y-81271100D02*
X97122700Y-81271100D01*
X111020000Y-118896000D02*
X110170000Y-118046000D01*
X110170000Y-118046000D02*
X110170000Y-117975000D01*
X97122700Y-81271100D02*
X97006700Y-81387100D01*
X111020000Y-119325000D02*
X111020000Y-118896000D01*
X96910100Y-99008500D02*
X97362500Y-99460900D01*
%TO.N,Net-(J3-CC1)*%
X109320000Y-117480000D02*
X109320000Y-117975000D01*
X109800000Y-117000000D02*
X109320000Y-117480000D01*
X116500000Y-117000000D02*
X109800000Y-117000000D01*
%TO.N,BOOT*%
X127461100Y-67698200D02*
X129570400Y-65588900D01*
X117520000Y-67698200D02*
X127461100Y-67698200D01*
%TO.N,IN2B*%
X116266300Y-87945000D02*
X115366300Y-88845000D01*
X115366300Y-88845000D02*
X103857400Y-88845000D01*
%TO.N,SCL*%
X100205000Y-75964600D02*
X99794200Y-76375400D01*
X107632500Y-75964600D02*
X100205000Y-75964600D01*
%TO.N,INT_MAG*%
X112928800Y-85061800D02*
X105608400Y-85061800D01*
X105608400Y-85061800D02*
X103866400Y-83319800D01*
%TO.N,IN4B*%
X118782500Y-70142300D02*
X116898400Y-68258200D01*
X126217900Y-70142300D02*
X118782500Y-70142300D01*
%TO.N,IN1B*%
X108566800Y-88202100D02*
X109132500Y-87636400D01*
X95000000Y-88202100D02*
X108566800Y-88202100D01*
%TO.N,SDA*%
X103859000Y-93277900D02*
X110299900Y-93277900D01*
X110299900Y-93277900D02*
X111322500Y-94300500D01*
%TO.N,IN1A*%
X112179300Y-82160200D02*
X94507500Y-82160200D01*
X114982500Y-79357000D02*
X112179300Y-82160200D01*
%TO.N,MOTOR3A*%
X123719100Y-73447800D02*
X131647200Y-73447800D01*
X131647200Y-73447800D02*
X141095000Y-64000000D01*
%TO.N,MOTOR3B*%
X141307500Y-93729800D02*
X123947600Y-93729800D01*
X123947600Y-93729800D02*
X121055200Y-96622200D01*
%TD*%
%TA.AperFunction,Conductor*%
%TO.N,+3V3*%
G36*
X86538039Y-49520185D02*
G01*
X86583794Y-49572989D01*
X86595000Y-49624500D01*
X86595000Y-50750000D01*
X134595000Y-50750000D01*
X134595000Y-49624500D01*
X134614685Y-49557461D01*
X134667489Y-49511706D01*
X134719000Y-49500500D01*
X144876000Y-49500500D01*
X144943039Y-49520185D01*
X144988794Y-49572989D01*
X145000000Y-49624500D01*
X145000000Y-123375500D01*
X144980315Y-123442539D01*
X144927511Y-123488294D01*
X144876000Y-123499500D01*
X115784322Y-123499500D01*
X115717283Y-123479815D01*
X115671528Y-123427011D01*
X115661584Y-123357853D01*
X115681220Y-123306609D01*
X115762318Y-123185237D01*
X115762318Y-123185236D01*
X115762322Y-123185231D01*
X115833973Y-123012251D01*
X115870500Y-122828616D01*
X115870500Y-121841384D01*
X115833973Y-121657749D01*
X115762322Y-121484769D01*
X115762321Y-121484768D01*
X115762318Y-121484762D01*
X115658302Y-121329092D01*
X115658299Y-121329088D01*
X115525911Y-121196700D01*
X115525907Y-121196697D01*
X115370237Y-121092681D01*
X115370228Y-121092676D01*
X115197251Y-121021027D01*
X115197243Y-121021025D01*
X115013620Y-120984500D01*
X115013616Y-120984500D01*
X114826384Y-120984500D01*
X114826379Y-120984500D01*
X114642756Y-121021025D01*
X114642748Y-121021027D01*
X114469771Y-121092676D01*
X114469762Y-121092681D01*
X114314092Y-121196697D01*
X114314088Y-121196700D01*
X114181700Y-121329088D01*
X114181697Y-121329092D01*
X114077681Y-121484762D01*
X114077676Y-121484771D01*
X114006027Y-121657748D01*
X114006025Y-121657756D01*
X113969500Y-121841379D01*
X113969500Y-122828620D01*
X114006025Y-123012243D01*
X114006027Y-123012251D01*
X114077676Y-123185228D01*
X114077681Y-123185237D01*
X114158780Y-123306609D01*
X114179658Y-123373286D01*
X114161174Y-123440667D01*
X114109195Y-123487357D01*
X114055678Y-123499500D01*
X107134322Y-123499500D01*
X107067283Y-123479815D01*
X107021528Y-123427011D01*
X107011584Y-123357853D01*
X107031220Y-123306609D01*
X107112318Y-123185237D01*
X107112318Y-123185236D01*
X107112322Y-123185231D01*
X107183973Y-123012251D01*
X107220500Y-122828616D01*
X107220500Y-122151941D01*
X107240185Y-122084902D01*
X107292989Y-122039147D01*
X107362147Y-122029203D01*
X107425703Y-122058228D01*
X107432181Y-122064260D01*
X107489707Y-122121786D01*
X107489711Y-122121789D01*
X107620814Y-122209390D01*
X107620827Y-122209397D01*
X107766498Y-122269735D01*
X107766503Y-122269737D01*
X107921153Y-122300499D01*
X107921156Y-122300500D01*
X107921158Y-122300500D01*
X108078844Y-122300500D01*
X108078845Y-122300499D01*
X108233497Y-122269737D01*
X108379179Y-122209394D01*
X108510289Y-122121789D01*
X108621789Y-122010289D01*
X108709394Y-121879179D01*
X108769737Y-121733497D01*
X108800500Y-121578842D01*
X108800500Y-121421158D01*
X108800500Y-121421155D01*
X108800499Y-121421153D01*
X108769738Y-121266510D01*
X108769737Y-121266503D01*
X108735309Y-121183385D01*
X108709397Y-121120827D01*
X108709390Y-121120814D01*
X108621789Y-120989711D01*
X108621786Y-120989707D01*
X108510292Y-120878213D01*
X108510288Y-120878210D01*
X108379185Y-120790609D01*
X108379178Y-120790605D01*
X108363304Y-120784030D01*
X108355880Y-120780955D01*
X108301477Y-120737115D01*
X108279411Y-120670821D01*
X108296690Y-120603122D01*
X108347826Y-120555511D01*
X108416586Y-120543104D01*
X108435422Y-120546618D01*
X108546942Y-120576500D01*
X108546943Y-120576500D01*
X112380331Y-120576500D01*
X112380347Y-120576501D01*
X112387943Y-120576501D01*
X112546054Y-120576501D01*
X112546057Y-120576501D01*
X112698785Y-120535577D01*
X112761272Y-120499500D01*
X112835716Y-120456520D01*
X112947520Y-120344716D01*
X112947520Y-120344714D01*
X112957723Y-120334512D01*
X112957727Y-120334506D01*
X113078505Y-120213729D01*
X113078510Y-120213725D01*
X113088714Y-120203520D01*
X113088716Y-120203520D01*
X113141357Y-120150878D01*
X113202679Y-120117394D01*
X113272371Y-120122378D01*
X113276471Y-120123991D01*
X113321918Y-120142816D01*
X113486228Y-120175499D01*
X113486232Y-120175500D01*
X113486233Y-120175500D01*
X113653768Y-120175500D01*
X113653769Y-120175499D01*
X113818082Y-120142816D01*
X113921356Y-120100037D01*
X113990824Y-120092569D01*
X114053303Y-120123844D01*
X114073811Y-120150487D01*
X114074293Y-120150166D01*
X114181697Y-120310907D01*
X114181700Y-120310911D01*
X114314088Y-120443299D01*
X114314092Y-120443302D01*
X114469762Y-120547318D01*
X114469768Y-120547321D01*
X114469769Y-120547322D01*
X114642749Y-120618973D01*
X114826379Y-120655499D01*
X114826383Y-120655500D01*
X114826384Y-120655500D01*
X115013617Y-120655500D01*
X115013618Y-120655499D01*
X115197251Y-120618973D01*
X115370231Y-120547322D01*
X115525908Y-120443302D01*
X115658302Y-120310908D01*
X115762322Y-120155231D01*
X115833973Y-119982251D01*
X115870500Y-119798616D01*
X115870500Y-118111384D01*
X115833973Y-117927749D01*
X115769440Y-117771953D01*
X115765932Y-117739324D01*
X115761263Y-117706853D01*
X115762216Y-117704765D01*
X115761971Y-117702483D01*
X115776659Y-117673139D01*
X115790288Y-117643297D01*
X115792218Y-117642056D01*
X115793246Y-117640004D01*
X115821461Y-117623263D01*
X115849066Y-117605523D01*
X115852095Y-117605087D01*
X115853335Y-117604352D01*
X115884001Y-117600500D01*
X115920234Y-117600500D01*
X115987273Y-117620185D01*
X115989125Y-117621398D01*
X116120814Y-117709390D01*
X116120827Y-117709397D01*
X116266498Y-117769735D01*
X116266503Y-117769737D01*
X116421153Y-117800499D01*
X116421156Y-117800500D01*
X116421158Y-117800500D01*
X116578844Y-117800500D01*
X116578845Y-117800499D01*
X116733497Y-117769737D01*
X116879179Y-117709394D01*
X117010289Y-117621789D01*
X117121789Y-117510289D01*
X117209394Y-117379179D01*
X117269737Y-117233497D01*
X117300500Y-117078842D01*
X117300500Y-116921158D01*
X117300500Y-116921155D01*
X117300499Y-116921153D01*
X117269738Y-116766510D01*
X117269737Y-116766503D01*
X117269735Y-116766498D01*
X117209397Y-116620827D01*
X117209390Y-116620814D01*
X117121789Y-116489711D01*
X117121786Y-116489707D01*
X117010292Y-116378213D01*
X117010288Y-116378210D01*
X116879185Y-116290609D01*
X116879172Y-116290602D01*
X116733501Y-116230264D01*
X116733489Y-116230261D01*
X116578845Y-116199500D01*
X116578842Y-116199500D01*
X116421158Y-116199500D01*
X116421155Y-116199500D01*
X116266510Y-116230261D01*
X116266498Y-116230264D01*
X116120827Y-116290602D01*
X116120814Y-116290609D01*
X115989125Y-116378602D01*
X115922447Y-116399480D01*
X115920234Y-116399500D01*
X109886670Y-116399500D01*
X109886654Y-116399499D01*
X109879058Y-116399499D01*
X109720943Y-116399499D01*
X109644579Y-116419961D01*
X109568214Y-116440423D01*
X109568209Y-116440426D01*
X109431290Y-116519475D01*
X109431282Y-116519481D01*
X109282181Y-116668583D01*
X109220858Y-116702068D01*
X109151166Y-116697084D01*
X109095233Y-116655212D01*
X109070816Y-116589748D01*
X109070500Y-116580902D01*
X109070500Y-111796945D01*
X109070500Y-111796943D01*
X109029577Y-111644216D01*
X109029577Y-111644215D01*
X109029577Y-111644214D01*
X109000639Y-111594095D01*
X109000637Y-111594092D01*
X108950520Y-111507284D01*
X108838716Y-111395480D01*
X108838715Y-111395479D01*
X108834385Y-111391149D01*
X108834374Y-111391139D01*
X108069651Y-110626416D01*
X108036166Y-110565093D01*
X108039401Y-110500417D01*
X108085646Y-110358089D01*
X108123300Y-110120351D01*
X108123300Y-109879649D01*
X108085646Y-109641911D01*
X108018411Y-109434981D01*
X108011267Y-109412993D01*
X108011266Y-109412990D01*
X107973424Y-109338722D01*
X107901989Y-109198524D01*
X107883914Y-109173646D01*
X107760514Y-109003799D01*
X107760510Y-109003794D01*
X107590305Y-108833589D01*
X107590300Y-108833585D01*
X107395579Y-108692113D01*
X107395578Y-108692112D01*
X107395576Y-108692111D01*
X107317646Y-108652403D01*
X107181109Y-108582833D01*
X107181106Y-108582832D01*
X107117406Y-108562135D01*
X139744500Y-108562135D01*
X139744500Y-110357870D01*
X139744501Y-110357876D01*
X139750908Y-110417483D01*
X139801202Y-110552328D01*
X139801206Y-110552335D01*
X139887452Y-110667544D01*
X139887455Y-110667547D01*
X140002664Y-110753793D01*
X140002671Y-110753797D01*
X140134082Y-110802810D01*
X140190016Y-110844681D01*
X140214433Y-110910145D01*
X140199582Y-110978418D01*
X140178431Y-111006673D01*
X140064889Y-111120215D01*
X139939951Y-111292179D01*
X139843444Y-111481585D01*
X139843443Y-111481587D01*
X139843443Y-111481588D01*
X139827973Y-111529200D01*
X139777753Y-111683760D01*
X139744500Y-111893713D01*
X139744500Y-112106286D01*
X139777753Y-112316239D01*
X139843444Y-112518414D01*
X139939951Y-112707820D01*
X140064890Y-112879786D01*
X140215213Y-113030109D01*
X140387179Y-113155048D01*
X140387181Y-113155049D01*
X140387184Y-113155051D01*
X140576588Y-113251557D01*
X140778757Y-113317246D01*
X140988713Y-113350500D01*
X140988714Y-113350500D01*
X141201286Y-113350500D01*
X141201287Y-113350500D01*
X141411243Y-113317246D01*
X141613412Y-113251557D01*
X141802816Y-113155051D01*
X141824789Y-113139086D01*
X141974786Y-113030109D01*
X141974788Y-113030106D01*
X141974792Y-113030104D01*
X142125104Y-112879792D01*
X142125106Y-112879788D01*
X142125109Y-112879786D01*
X142250048Y-112707820D01*
X142250047Y-112707820D01*
X142250051Y-112707816D01*
X142346557Y-112518412D01*
X142412246Y-112316243D01*
X142445500Y-112106287D01*
X142445500Y-111893713D01*
X142412246Y-111683757D01*
X142346557Y-111481588D01*
X142250051Y-111292184D01*
X142250049Y-111292181D01*
X142250048Y-111292179D01*
X142125109Y-111120213D01*
X142011569Y-111006673D01*
X141978084Y-110945350D01*
X141983068Y-110875658D01*
X142024940Y-110819725D01*
X142055915Y-110802810D01*
X142187331Y-110753796D01*
X142302546Y-110667546D01*
X142388796Y-110552331D01*
X142439091Y-110417483D01*
X142445500Y-110357873D01*
X142445499Y-108562128D01*
X142439091Y-108502517D01*
X142427261Y-108470800D01*
X142388797Y-108367671D01*
X142388793Y-108367664D01*
X142302547Y-108252455D01*
X142302544Y-108252452D01*
X142187335Y-108166206D01*
X142187328Y-108166202D01*
X142052482Y-108115908D01*
X142052483Y-108115908D01*
X141992883Y-108109501D01*
X141992881Y-108109500D01*
X141992873Y-108109500D01*
X141992864Y-108109500D01*
X140197129Y-108109500D01*
X140197123Y-108109501D01*
X140137516Y-108115908D01*
X140002671Y-108166202D01*
X140002664Y-108166206D01*
X139887455Y-108252452D01*
X139887452Y-108252455D01*
X139801206Y-108367664D01*
X139801202Y-108367671D01*
X139750908Y-108502517D01*
X139745301Y-108554673D01*
X139744501Y-108562123D01*
X139744500Y-108562135D01*
X107117406Y-108562135D01*
X106952190Y-108508454D01*
X106833320Y-108489627D01*
X106714451Y-108470800D01*
X106473749Y-108470800D01*
X106394503Y-108483351D01*
X106236009Y-108508454D01*
X106007093Y-108582832D01*
X106007090Y-108582833D01*
X105792620Y-108692113D01*
X105597899Y-108833585D01*
X105597894Y-108833589D01*
X105427689Y-109003794D01*
X105427685Y-109003799D01*
X105286213Y-109198520D01*
X105176933Y-109412990D01*
X105176932Y-109412993D01*
X105102554Y-109641909D01*
X105064900Y-109879649D01*
X105064900Y-110120350D01*
X105102554Y-110358090D01*
X105176932Y-110587006D01*
X105176933Y-110587009D01*
X105286213Y-110801479D01*
X105427685Y-110996200D01*
X105427689Y-110996205D01*
X105597894Y-111166410D01*
X105597899Y-111166414D01*
X105767746Y-111289814D01*
X105792624Y-111307889D01*
X105932822Y-111379324D01*
X106007090Y-111417166D01*
X106007093Y-111417167D01*
X106021565Y-111421869D01*
X106236011Y-111491546D01*
X106473749Y-111529200D01*
X106473750Y-111529200D01*
X106714450Y-111529200D01*
X106714451Y-111529200D01*
X106952189Y-111491546D01*
X107094366Y-111445349D01*
X107164207Y-111443355D01*
X107220365Y-111475600D01*
X107833181Y-112088416D01*
X107866666Y-112149739D01*
X107869500Y-112176097D01*
X107869500Y-117006371D01*
X107849815Y-117073410D01*
X107797011Y-117119165D01*
X107727853Y-117129109D01*
X107721313Y-117127989D01*
X107703771Y-117124500D01*
X107703767Y-117124500D01*
X107536233Y-117124500D01*
X107536228Y-117124500D01*
X107371925Y-117157182D01*
X107371917Y-117157184D01*
X107217139Y-117221295D01*
X107077838Y-117314373D01*
X106977602Y-117414609D01*
X106916279Y-117448093D01*
X106846587Y-117443109D01*
X106821030Y-117430029D01*
X106720237Y-117362681D01*
X106720228Y-117362676D01*
X106547251Y-117291027D01*
X106547243Y-117291025D01*
X106363620Y-117254500D01*
X106363616Y-117254500D01*
X106176384Y-117254500D01*
X106176379Y-117254500D01*
X105992756Y-117291025D01*
X105992748Y-117291027D01*
X105819771Y-117362676D01*
X105819762Y-117362681D01*
X105664092Y-117466697D01*
X105664088Y-117466700D01*
X105531700Y-117599088D01*
X105531697Y-117599092D01*
X105427681Y-117754762D01*
X105427676Y-117754771D01*
X105356027Y-117927748D01*
X105356025Y-117927756D01*
X105319500Y-118111379D01*
X105319500Y-119798620D01*
X105356025Y-119982243D01*
X105356027Y-119982251D01*
X105427676Y-120155228D01*
X105427681Y-120155237D01*
X105531697Y-120310907D01*
X105531700Y-120310911D01*
X105664088Y-120443299D01*
X105664092Y-120443302D01*
X105819762Y-120547318D01*
X105819768Y-120547321D01*
X105819769Y-120547322D01*
X105992749Y-120618973D01*
X106176379Y-120655499D01*
X106176383Y-120655500D01*
X106176384Y-120655500D01*
X106363617Y-120655500D01*
X106363618Y-120655499D01*
X106547251Y-120618973D01*
X106720231Y-120547322D01*
X106826610Y-120476241D01*
X106893286Y-120455364D01*
X106960666Y-120473848D01*
X107007357Y-120525827D01*
X107019500Y-120579344D01*
X107019500Y-121040939D01*
X107019499Y-121040943D01*
X107019499Y-121060659D01*
X107006897Y-121103570D01*
X106999814Y-121127693D01*
X106999812Y-121127693D01*
X106999812Y-121127697D01*
X106969034Y-121154364D01*
X106947010Y-121173448D01*
X106947007Y-121173448D01*
X106947006Y-121173450D01*
X106915661Y-121177955D01*
X106877852Y-121183392D01*
X106877848Y-121183390D01*
X106877847Y-121183391D01*
X106877834Y-121183385D01*
X106826608Y-121163756D01*
X106720237Y-121092681D01*
X106720228Y-121092676D01*
X106547251Y-121021027D01*
X106547243Y-121021025D01*
X106363620Y-120984500D01*
X106363616Y-120984500D01*
X106176384Y-120984500D01*
X106176379Y-120984500D01*
X105992756Y-121021025D01*
X105992748Y-121021027D01*
X105819771Y-121092676D01*
X105819762Y-121092681D01*
X105664092Y-121196697D01*
X105664088Y-121196700D01*
X105531700Y-121329088D01*
X105531697Y-121329092D01*
X105427681Y-121484762D01*
X105427676Y-121484771D01*
X105356027Y-121657748D01*
X105356025Y-121657756D01*
X105319500Y-121841379D01*
X105319500Y-122828620D01*
X105356025Y-123012243D01*
X105356027Y-123012251D01*
X105427676Y-123185228D01*
X105427681Y-123185237D01*
X105508780Y-123306609D01*
X105529658Y-123373286D01*
X105511174Y-123440667D01*
X105459195Y-123487357D01*
X105405678Y-123499500D01*
X76219500Y-123499500D01*
X76152461Y-123479815D01*
X76106706Y-123427011D01*
X76095500Y-123375500D01*
X76095500Y-120602135D01*
X93874500Y-120602135D01*
X93874500Y-122397870D01*
X93874501Y-122397876D01*
X93880908Y-122457483D01*
X93931202Y-122592328D01*
X93931206Y-122592335D01*
X94017452Y-122707544D01*
X94017455Y-122707547D01*
X94132664Y-122793793D01*
X94132671Y-122793797D01*
X94267517Y-122844091D01*
X94267516Y-122844091D01*
X94274444Y-122844835D01*
X94327127Y-122850500D01*
X96122872Y-122850499D01*
X96182483Y-122844091D01*
X96317331Y-122793796D01*
X96432546Y-122707546D01*
X96518796Y-122592331D01*
X96567810Y-122460916D01*
X96609681Y-122404984D01*
X96675145Y-122380566D01*
X96743418Y-122395417D01*
X96771673Y-122416569D01*
X96885213Y-122530109D01*
X97057179Y-122655048D01*
X97057181Y-122655049D01*
X97057184Y-122655051D01*
X97246588Y-122751557D01*
X97448757Y-122817246D01*
X97658713Y-122850500D01*
X97658714Y-122850500D01*
X97871286Y-122850500D01*
X97871287Y-122850500D01*
X98081243Y-122817246D01*
X98283412Y-122751557D01*
X98472816Y-122655051D01*
X98559138Y-122592335D01*
X98644786Y-122530109D01*
X98644788Y-122530106D01*
X98644792Y-122530104D01*
X98795104Y-122379792D01*
X98795106Y-122379788D01*
X98795109Y-122379786D01*
X98918902Y-122209397D01*
X98920051Y-122207816D01*
X99016557Y-122018412D01*
X99082246Y-121816243D01*
X99115500Y-121606287D01*
X99115500Y-121393713D01*
X99082246Y-121183757D01*
X99016557Y-120981588D01*
X98920051Y-120792184D01*
X98920049Y-120792181D01*
X98920048Y-120792179D01*
X98795109Y-120620213D01*
X98644786Y-120469890D01*
X98472820Y-120344951D01*
X98283414Y-120248444D01*
X98283413Y-120248443D01*
X98283412Y-120248443D01*
X98081243Y-120182754D01*
X98081241Y-120182753D01*
X98081240Y-120182753D01*
X97919957Y-120157208D01*
X97871287Y-120149500D01*
X97658713Y-120149500D01*
X97610042Y-120157208D01*
X97448760Y-120182753D01*
X97246585Y-120248444D01*
X97057179Y-120344951D01*
X96885215Y-120469889D01*
X96771673Y-120583431D01*
X96710350Y-120616915D01*
X96640658Y-120611931D01*
X96584725Y-120570059D01*
X96567810Y-120539082D01*
X96518797Y-120407671D01*
X96518793Y-120407664D01*
X96432547Y-120292455D01*
X96432544Y-120292452D01*
X96317335Y-120206206D01*
X96317328Y-120206202D01*
X96182482Y-120155908D01*
X96182483Y-120155908D01*
X96122883Y-120149501D01*
X96122881Y-120149500D01*
X96122873Y-120149500D01*
X96122864Y-120149500D01*
X94327129Y-120149500D01*
X94327123Y-120149501D01*
X94267516Y-120155908D01*
X94132671Y-120206202D01*
X94132664Y-120206206D01*
X94017455Y-120292452D01*
X94017452Y-120292455D01*
X93931206Y-120407664D01*
X93931202Y-120407671D01*
X93880908Y-120542517D01*
X93874501Y-120602116D01*
X93874500Y-120602135D01*
X76095500Y-120602135D01*
X76095500Y-108562135D01*
X78744500Y-108562135D01*
X78744500Y-110357870D01*
X78744501Y-110357876D01*
X78750908Y-110417483D01*
X78801202Y-110552328D01*
X78801206Y-110552335D01*
X78887452Y-110667544D01*
X78887455Y-110667547D01*
X79002664Y-110753793D01*
X79002671Y-110753797D01*
X79134082Y-110802810D01*
X79190016Y-110844681D01*
X79214433Y-110910145D01*
X79199582Y-110978418D01*
X79178431Y-111006673D01*
X79064889Y-111120215D01*
X78939951Y-111292179D01*
X78843444Y-111481585D01*
X78843443Y-111481587D01*
X78843443Y-111481588D01*
X78827973Y-111529200D01*
X78777753Y-111683760D01*
X78744500Y-111893713D01*
X78744500Y-112106286D01*
X78777753Y-112316239D01*
X78843444Y-112518414D01*
X78939951Y-112707820D01*
X79064890Y-112879786D01*
X79215213Y-113030109D01*
X79387179Y-113155048D01*
X79387181Y-113155049D01*
X79387184Y-113155051D01*
X79576588Y-113251557D01*
X79778757Y-113317246D01*
X79988713Y-113350500D01*
X79988714Y-113350500D01*
X80201286Y-113350500D01*
X80201287Y-113350500D01*
X80411243Y-113317246D01*
X80613412Y-113251557D01*
X80802816Y-113155051D01*
X80824789Y-113139086D01*
X80974786Y-113030109D01*
X80974788Y-113030106D01*
X80974792Y-113030104D01*
X81125104Y-112879792D01*
X81125106Y-112879788D01*
X81125109Y-112879786D01*
X81250048Y-112707820D01*
X81250047Y-112707820D01*
X81250051Y-112707816D01*
X81346557Y-112518412D01*
X81412246Y-112316243D01*
X81445500Y-112106287D01*
X81445500Y-111893713D01*
X81412246Y-111683757D01*
X81346557Y-111481588D01*
X81250051Y-111292184D01*
X81250049Y-111292181D01*
X81250048Y-111292179D01*
X81125109Y-111120213D01*
X81011569Y-111006673D01*
X80978084Y-110945350D01*
X80983068Y-110875658D01*
X81024940Y-110819725D01*
X81055915Y-110802810D01*
X81187331Y-110753796D01*
X81302546Y-110667546D01*
X81388796Y-110552331D01*
X81439091Y-110417483D01*
X81445500Y-110357873D01*
X81445499Y-108562128D01*
X81439091Y-108502517D01*
X81427261Y-108470800D01*
X81388797Y-108367671D01*
X81388793Y-108367664D01*
X81302547Y-108252455D01*
X81302544Y-108252452D01*
X81187335Y-108166206D01*
X81187328Y-108166202D01*
X81052482Y-108115908D01*
X81052483Y-108115908D01*
X80992883Y-108109501D01*
X80992881Y-108109500D01*
X80992873Y-108109500D01*
X80992864Y-108109500D01*
X79197129Y-108109500D01*
X79197123Y-108109501D01*
X79137516Y-108115908D01*
X79002671Y-108166202D01*
X79002664Y-108166206D01*
X78887455Y-108252452D01*
X78887452Y-108252455D01*
X78801206Y-108367664D01*
X78801202Y-108367671D01*
X78750908Y-108502517D01*
X78745301Y-108554673D01*
X78744501Y-108562123D01*
X78744500Y-108562135D01*
X76095500Y-108562135D01*
X76095500Y-104736153D01*
X90281300Y-104736153D01*
X90281300Y-104893846D01*
X90312061Y-105048489D01*
X90312064Y-105048501D01*
X90372402Y-105194172D01*
X90372409Y-105194185D01*
X90460010Y-105325288D01*
X90460013Y-105325292D01*
X90571507Y-105436786D01*
X90571511Y-105436789D01*
X90702614Y-105524390D01*
X90702627Y-105524397D01*
X90848298Y-105584735D01*
X90848303Y-105584737D01*
X91002953Y-105615499D01*
X91002956Y-105615500D01*
X91002958Y-105615500D01*
X91160644Y-105615500D01*
X91160645Y-105615499D01*
X91315297Y-105584737D01*
X91460979Y-105524394D01*
X91460985Y-105524390D01*
X91592675Y-105436398D01*
X91610721Y-105430747D01*
X91626631Y-105420523D01*
X91657592Y-105416071D01*
X91659353Y-105415520D01*
X91661566Y-105415500D01*
X91711003Y-105415500D01*
X91778042Y-105435185D01*
X91798684Y-105451819D01*
X95720523Y-109373658D01*
X95754008Y-109434981D01*
X95750773Y-109499656D01*
X95704554Y-109641907D01*
X95666900Y-109879649D01*
X95666900Y-110120350D01*
X95704554Y-110358090D01*
X95778932Y-110587006D01*
X95778933Y-110587009D01*
X95888213Y-110801479D01*
X96029685Y-110996200D01*
X96029689Y-110996205D01*
X96199894Y-111166410D01*
X96199899Y-111166414D01*
X96369746Y-111289814D01*
X96394624Y-111307889D01*
X96534822Y-111379324D01*
X96609090Y-111417166D01*
X96609093Y-111417167D01*
X96623565Y-111421869D01*
X96838011Y-111491546D01*
X97075749Y-111529200D01*
X97075750Y-111529200D01*
X97316450Y-111529200D01*
X97316451Y-111529200D01*
X97554189Y-111491546D01*
X97783109Y-111417166D01*
X97997576Y-111307889D01*
X98192307Y-111166409D01*
X98362509Y-110996207D01*
X98503989Y-110801476D01*
X98613266Y-110587009D01*
X98687646Y-110358089D01*
X98725300Y-110120351D01*
X98725300Y-109879649D01*
X100365900Y-109879649D01*
X100365900Y-110120350D01*
X100403554Y-110358090D01*
X100477932Y-110587006D01*
X100477933Y-110587009D01*
X100587213Y-110801479D01*
X100728685Y-110996200D01*
X100728689Y-110996205D01*
X100898894Y-111166410D01*
X100898899Y-111166414D01*
X101068746Y-111289814D01*
X101093624Y-111307889D01*
X101233822Y-111379324D01*
X101308090Y-111417166D01*
X101308093Y-111417167D01*
X101322565Y-111421869D01*
X101537011Y-111491546D01*
X101774749Y-111529200D01*
X101774750Y-111529200D01*
X102015450Y-111529200D01*
X102015451Y-111529200D01*
X102253189Y-111491546D01*
X102482109Y-111417166D01*
X102696576Y-111307889D01*
X102891307Y-111166409D01*
X103061509Y-110996207D01*
X103202989Y-110801476D01*
X103312266Y-110587009D01*
X103386646Y-110358089D01*
X103424300Y-110120351D01*
X103424300Y-109879649D01*
X103386646Y-109641911D01*
X103319411Y-109434981D01*
X103312267Y-109412993D01*
X103312266Y-109412990D01*
X103274424Y-109338722D01*
X103202989Y-109198524D01*
X103184914Y-109173646D01*
X103061514Y-109003799D01*
X103061510Y-109003794D01*
X102891305Y-108833589D01*
X102891300Y-108833585D01*
X102696579Y-108692113D01*
X102696578Y-108692112D01*
X102696576Y-108692111D01*
X102627866Y-108657101D01*
X102482109Y-108582833D01*
X102482106Y-108582832D01*
X102253190Y-108508454D01*
X102134320Y-108489627D01*
X102015451Y-108470800D01*
X101774749Y-108470800D01*
X101695503Y-108483351D01*
X101537009Y-108508454D01*
X101308093Y-108582832D01*
X101308090Y-108582833D01*
X101093620Y-108692113D01*
X100898899Y-108833585D01*
X100898894Y-108833589D01*
X100728689Y-109003794D01*
X100728685Y-109003799D01*
X100587213Y-109198520D01*
X100477933Y-109412990D01*
X100477932Y-109412993D01*
X100403554Y-109641909D01*
X100365900Y-109879649D01*
X98725300Y-109879649D01*
X98687646Y-109641911D01*
X98620411Y-109434981D01*
X98613267Y-109412993D01*
X98613266Y-109412990D01*
X98575424Y-109338722D01*
X98503989Y-109198524D01*
X98485914Y-109173646D01*
X98362514Y-109003799D01*
X98362510Y-109003794D01*
X98192305Y-108833589D01*
X98192300Y-108833585D01*
X97997579Y-108692113D01*
X97997578Y-108692112D01*
X97997576Y-108692111D01*
X97928866Y-108657101D01*
X97783109Y-108582833D01*
X97783106Y-108582832D01*
X97554190Y-108508454D01*
X97435320Y-108489627D01*
X97316451Y-108470800D01*
X97075749Y-108470800D01*
X97028201Y-108478330D01*
X96838007Y-108508454D01*
X96695756Y-108554673D01*
X96625915Y-108556668D01*
X96569758Y-108524423D01*
X92498690Y-104453355D01*
X92498688Y-104453352D01*
X92379817Y-104334481D01*
X92379816Y-104334480D01*
X92293004Y-104284360D01*
X92293004Y-104284359D01*
X92293000Y-104284358D01*
X92242885Y-104255423D01*
X92090157Y-104214499D01*
X91932043Y-104214499D01*
X91924447Y-104214499D01*
X91924431Y-104214500D01*
X91661566Y-104214500D01*
X91594527Y-104194815D01*
X91592675Y-104193602D01*
X91460985Y-104105609D01*
X91460972Y-104105602D01*
X91315301Y-104045264D01*
X91315289Y-104045261D01*
X91160645Y-104014500D01*
X91160642Y-104014500D01*
X91002958Y-104014500D01*
X91002955Y-104014500D01*
X90848310Y-104045261D01*
X90848298Y-104045264D01*
X90702627Y-104105602D01*
X90702614Y-104105609D01*
X90571511Y-104193210D01*
X90571507Y-104193213D01*
X90460013Y-104304707D01*
X90460010Y-104304711D01*
X90372409Y-104435814D01*
X90372402Y-104435827D01*
X90312064Y-104581498D01*
X90312061Y-104581510D01*
X90281300Y-104736153D01*
X76095500Y-104736153D01*
X76095500Y-98929653D01*
X96109600Y-98929653D01*
X96109600Y-99087346D01*
X96140361Y-99241989D01*
X96140364Y-99242001D01*
X96200702Y-99387672D01*
X96200709Y-99387685D01*
X96288310Y-99518788D01*
X96288313Y-99518792D01*
X96399807Y-99630286D01*
X96399811Y-99630289D01*
X96530914Y-99717890D01*
X96530927Y-99717897D01*
X96676598Y-99778235D01*
X96676603Y-99778237D01*
X96789535Y-99800700D01*
X96831946Y-99809137D01*
X96893857Y-99841522D01*
X96895436Y-99843072D01*
X96993784Y-99941420D01*
X97045345Y-99971188D01*
X97080595Y-99991539D01*
X97080597Y-99991541D01*
X97130713Y-100020476D01*
X97130715Y-100020477D01*
X97283442Y-100061400D01*
X97283443Y-100061400D01*
X99353734Y-100061400D01*
X99420773Y-100081085D01*
X99422625Y-100082298D01*
X99554314Y-100170290D01*
X99554327Y-100170297D01*
X99683965Y-100223994D01*
X99700003Y-100230637D01*
X99854653Y-100261399D01*
X99854656Y-100261400D01*
X99854658Y-100261400D01*
X100012344Y-100261400D01*
X100012345Y-100261399D01*
X100166997Y-100230637D01*
X100312679Y-100170294D01*
X100443789Y-100082689D01*
X100555289Y-99971189D01*
X100642894Y-99840079D01*
X100655711Y-99809137D01*
X100703235Y-99694401D01*
X100703237Y-99694397D01*
X100734000Y-99539742D01*
X100734000Y-99435753D01*
X120254700Y-99435753D01*
X120254700Y-99593446D01*
X120285461Y-99748089D01*
X120285464Y-99748101D01*
X120345802Y-99893772D01*
X120345809Y-99893785D01*
X120433410Y-100024888D01*
X120433413Y-100024892D01*
X120544907Y-100136386D01*
X120544911Y-100136389D01*
X120676014Y-100223990D01*
X120676027Y-100223997D01*
X120821698Y-100284335D01*
X120821703Y-100284337D01*
X120976353Y-100315099D01*
X120976356Y-100315100D01*
X120976358Y-100315100D01*
X121134044Y-100315100D01*
X121134045Y-100315099D01*
X121288697Y-100284337D01*
X121434379Y-100223994D01*
X121565489Y-100136389D01*
X121676989Y-100024889D01*
X121764594Y-99893779D01*
X121824937Y-99748097D01*
X121848371Y-99630286D01*
X121855838Y-99592750D01*
X121888223Y-99530839D01*
X121889662Y-99529372D01*
X122192618Y-99226416D01*
X122253940Y-99192934D01*
X122280298Y-99190100D01*
X129969034Y-99190100D01*
X130036073Y-99209785D01*
X130037925Y-99210998D01*
X130169614Y-99298990D01*
X130169627Y-99298997D01*
X130315298Y-99359335D01*
X130315303Y-99359337D01*
X130457752Y-99387672D01*
X130469953Y-99390099D01*
X130469956Y-99390100D01*
X130469958Y-99390100D01*
X130627644Y-99390100D01*
X130627645Y-99390099D01*
X130782297Y-99359337D01*
X130927979Y-99298994D01*
X131059089Y-99211389D01*
X131170589Y-99099889D01*
X131258194Y-98968779D01*
X131318537Y-98823097D01*
X131349300Y-98668442D01*
X131349300Y-98510758D01*
X131349300Y-98510755D01*
X131349299Y-98510753D01*
X131346803Y-98498207D01*
X131318537Y-98356103D01*
X131318535Y-98356098D01*
X131258197Y-98210427D01*
X131258190Y-98210414D01*
X131170589Y-98079311D01*
X131170586Y-98079307D01*
X131059092Y-97967813D01*
X131059088Y-97967810D01*
X130927985Y-97880209D01*
X130927972Y-97880202D01*
X130782301Y-97819864D01*
X130782289Y-97819861D01*
X130627645Y-97789100D01*
X130627642Y-97789100D01*
X130469958Y-97789100D01*
X130469955Y-97789100D01*
X130315310Y-97819861D01*
X130315298Y-97819864D01*
X130169627Y-97880202D01*
X130169614Y-97880209D01*
X130037925Y-97968202D01*
X129971247Y-97989080D01*
X129969034Y-97989100D01*
X122066870Y-97989100D01*
X122066854Y-97989099D01*
X122059258Y-97989099D01*
X121901143Y-97989099D01*
X121824779Y-98009561D01*
X121748414Y-98030023D01*
X121748409Y-98030026D01*
X121611490Y-98109075D01*
X121611482Y-98109081D01*
X121040539Y-98680025D01*
X120979216Y-98713510D01*
X120977050Y-98713961D01*
X120821708Y-98744861D01*
X120821698Y-98744864D01*
X120676027Y-98805202D01*
X120676014Y-98805209D01*
X120544911Y-98892810D01*
X120544907Y-98892813D01*
X120433413Y-99004307D01*
X120433410Y-99004311D01*
X120345809Y-99135414D01*
X120345802Y-99135427D01*
X120285464Y-99281098D01*
X120285461Y-99281110D01*
X120254700Y-99435753D01*
X100734000Y-99435753D01*
X100734000Y-99382058D01*
X100734000Y-99382055D01*
X100733999Y-99382053D01*
X100717477Y-99298994D01*
X100703237Y-99227403D01*
X100696442Y-99210998D01*
X100642897Y-99081727D01*
X100642890Y-99081714D01*
X100555289Y-98950611D01*
X100555286Y-98950607D01*
X100443792Y-98839113D01*
X100443788Y-98839110D01*
X100312685Y-98751509D01*
X100312672Y-98751502D01*
X100167001Y-98691164D01*
X100166989Y-98691161D01*
X100012345Y-98660400D01*
X100012342Y-98660400D01*
X99854658Y-98660400D01*
X99854655Y-98660400D01*
X99700010Y-98691161D01*
X99699998Y-98691164D01*
X99554327Y-98751502D01*
X99554314Y-98751509D01*
X99422625Y-98839502D01*
X99355947Y-98860380D01*
X99353734Y-98860400D01*
X97797706Y-98860400D01*
X97730667Y-98840715D01*
X97684912Y-98787911D01*
X97682068Y-98780389D01*
X97619497Y-98629327D01*
X97619490Y-98629314D01*
X97531889Y-98498211D01*
X97531886Y-98498207D01*
X97420392Y-98386713D01*
X97420388Y-98386710D01*
X97289285Y-98299109D01*
X97289272Y-98299102D01*
X97143601Y-98238764D01*
X97143589Y-98238761D01*
X96988945Y-98208000D01*
X96988942Y-98208000D01*
X96831258Y-98208000D01*
X96831255Y-98208000D01*
X96676610Y-98238761D01*
X96676598Y-98238764D01*
X96530927Y-98299102D01*
X96530914Y-98299109D01*
X96399811Y-98386710D01*
X96399807Y-98386713D01*
X96288313Y-98498207D01*
X96288310Y-98498211D01*
X96200709Y-98629314D01*
X96200702Y-98629327D01*
X96140364Y-98774998D01*
X96140361Y-98775010D01*
X96109600Y-98929653D01*
X76095500Y-98929653D01*
X76095500Y-96543353D01*
X120254700Y-96543353D01*
X120254700Y-96701046D01*
X120285461Y-96855689D01*
X120285464Y-96855701D01*
X120345802Y-97001372D01*
X120345809Y-97001385D01*
X120433410Y-97132488D01*
X120433413Y-97132492D01*
X120544907Y-97243986D01*
X120544911Y-97243989D01*
X120676014Y-97331590D01*
X120676027Y-97331597D01*
X120821698Y-97391935D01*
X120821703Y-97391937D01*
X120976353Y-97422699D01*
X120976356Y-97422700D01*
X120976358Y-97422700D01*
X121134044Y-97422700D01*
X121134045Y-97422699D01*
X121288697Y-97391937D01*
X121434379Y-97331594D01*
X121565489Y-97243989D01*
X121676989Y-97132489D01*
X121764594Y-97001379D01*
X121797824Y-96921153D01*
X133699500Y-96921153D01*
X133699500Y-97078846D01*
X133730261Y-97233489D01*
X133730264Y-97233501D01*
X133790602Y-97379172D01*
X133790609Y-97379185D01*
X133878210Y-97510288D01*
X133878213Y-97510292D01*
X133989707Y-97621786D01*
X133989711Y-97621789D01*
X134120814Y-97709390D01*
X134120827Y-97709397D01*
X134266498Y-97769735D01*
X134266503Y-97769737D01*
X134363847Y-97789100D01*
X134421153Y-97800499D01*
X134421156Y-97800500D01*
X134421158Y-97800500D01*
X134578844Y-97800500D01*
X134578845Y-97800499D01*
X134733497Y-97769737D01*
X134879179Y-97709394D01*
X135010289Y-97621789D01*
X135121789Y-97510289D01*
X135209394Y-97379179D01*
X135269737Y-97233497D01*
X135289829Y-97132488D01*
X135300638Y-97078150D01*
X135333023Y-97016239D01*
X135334518Y-97014716D01*
X136212416Y-96136819D01*
X136239343Y-96122115D01*
X136265162Y-96105523D01*
X136271362Y-96104631D01*
X136273739Y-96103334D01*
X136300097Y-96100500D01*
X136420234Y-96100500D01*
X136487273Y-96120185D01*
X136489125Y-96121398D01*
X136620814Y-96209390D01*
X136620827Y-96209397D01*
X136766498Y-96269735D01*
X136766503Y-96269737D01*
X136921153Y-96300499D01*
X136921156Y-96300500D01*
X136921158Y-96300500D01*
X137078844Y-96300500D01*
X137078845Y-96300499D01*
X137233497Y-96269737D01*
X137379179Y-96209394D01*
X137510289Y-96121789D01*
X137621789Y-96010289D01*
X137709394Y-95879179D01*
X137769737Y-95733497D01*
X137800500Y-95578842D01*
X137800500Y-95421158D01*
X137800500Y-95421155D01*
X137800499Y-95421153D01*
X137769738Y-95266510D01*
X137769737Y-95266503D01*
X137713728Y-95131284D01*
X137709397Y-95120827D01*
X137709390Y-95120814D01*
X137621789Y-94989711D01*
X137621786Y-94989707D01*
X137510292Y-94878213D01*
X137510288Y-94878210D01*
X137379185Y-94790609D01*
X137379172Y-94790602D01*
X137233501Y-94730264D01*
X137233489Y-94730261D01*
X137078845Y-94699500D01*
X137078842Y-94699500D01*
X136921158Y-94699500D01*
X136921155Y-94699500D01*
X136766510Y-94730261D01*
X136766498Y-94730264D01*
X136620827Y-94790602D01*
X136620814Y-94790609D01*
X136489125Y-94878602D01*
X136422447Y-94899480D01*
X136420234Y-94899500D01*
X135920940Y-94899500D01*
X135880019Y-94910464D01*
X135880019Y-94910465D01*
X135842751Y-94920451D01*
X135768214Y-94940423D01*
X135768209Y-94940426D01*
X135631290Y-95019475D01*
X135631282Y-95019481D01*
X134485339Y-96165425D01*
X134424016Y-96198910D01*
X134421850Y-96199361D01*
X134266508Y-96230261D01*
X134266498Y-96230264D01*
X134120827Y-96290602D01*
X134120814Y-96290609D01*
X133989711Y-96378210D01*
X133989707Y-96378213D01*
X133878213Y-96489707D01*
X133878210Y-96489711D01*
X133790609Y-96620814D01*
X133790602Y-96620827D01*
X133730264Y-96766498D01*
X133730261Y-96766510D01*
X133699500Y-96921153D01*
X121797824Y-96921153D01*
X121824937Y-96855697D01*
X121855700Y-96701042D01*
X121855700Y-96700783D01*
X121856483Y-96697306D01*
X121872729Y-96668057D01*
X121888223Y-96638439D01*
X121889718Y-96636916D01*
X124160016Y-94366619D01*
X124221339Y-94333134D01*
X124247697Y-94330300D01*
X140727734Y-94330300D01*
X140794773Y-94349985D01*
X140796625Y-94351198D01*
X140928314Y-94439190D01*
X140928327Y-94439197D01*
X141028101Y-94480524D01*
X141074003Y-94499537D01*
X141228653Y-94530299D01*
X141228656Y-94530300D01*
X141228658Y-94530300D01*
X141386344Y-94530300D01*
X141386345Y-94530299D01*
X141540997Y-94499537D01*
X141686679Y-94439194D01*
X141817789Y-94351589D01*
X141929289Y-94240089D01*
X142016894Y-94108979D01*
X142077237Y-93963297D01*
X142108000Y-93808642D01*
X142108000Y-93650958D01*
X142108000Y-93650955D01*
X142107999Y-93650953D01*
X142077237Y-93496303D01*
X142064655Y-93465926D01*
X142016897Y-93350627D01*
X142016890Y-93350614D01*
X141929289Y-93219511D01*
X141929286Y-93219507D01*
X141817792Y-93108013D01*
X141817788Y-93108010D01*
X141686685Y-93020409D01*
X141686672Y-93020402D01*
X141541001Y-92960064D01*
X141540989Y-92960061D01*
X141386345Y-92929300D01*
X141386342Y-92929300D01*
X141228658Y-92929300D01*
X141228655Y-92929300D01*
X141074010Y-92960061D01*
X141073998Y-92960064D01*
X140928327Y-93020402D01*
X140928314Y-93020409D01*
X140796625Y-93108402D01*
X140729947Y-93129280D01*
X140727734Y-93129300D01*
X123868542Y-93129300D01*
X123715816Y-93170222D01*
X123678315Y-93191874D01*
X123678314Y-93191873D01*
X123578887Y-93249277D01*
X123578882Y-93249281D01*
X121040539Y-95787625D01*
X120979216Y-95821110D01*
X120977050Y-95821561D01*
X120821708Y-95852461D01*
X120821698Y-95852464D01*
X120676027Y-95912802D01*
X120676014Y-95912809D01*
X120544911Y-96000410D01*
X120544907Y-96000413D01*
X120433413Y-96111907D01*
X120433410Y-96111911D01*
X120345809Y-96243014D01*
X120345802Y-96243027D01*
X120285464Y-96388698D01*
X120285461Y-96388710D01*
X120254700Y-96543353D01*
X76095500Y-96543353D01*
X76095500Y-93921153D01*
X93699500Y-93921153D01*
X93699500Y-94078846D01*
X93730261Y-94233489D01*
X93730264Y-94233501D01*
X93790602Y-94379172D01*
X93790609Y-94379185D01*
X93878210Y-94510288D01*
X93878213Y-94510292D01*
X93989707Y-94621786D01*
X93989711Y-94621789D01*
X94120814Y-94709390D01*
X94120827Y-94709397D01*
X94266498Y-94769735D01*
X94266503Y-94769737D01*
X94421153Y-94800499D01*
X94421156Y-94800500D01*
X94421158Y-94800500D01*
X94578844Y-94800500D01*
X94578845Y-94800499D01*
X94733497Y-94769737D01*
X94879179Y-94709394D01*
X94879185Y-94709390D01*
X95010875Y-94621398D01*
X95077553Y-94600520D01*
X95079766Y-94600500D01*
X99413331Y-94600500D01*
X99413347Y-94600501D01*
X99420943Y-94600501D01*
X99579054Y-94600501D01*
X99579057Y-94600501D01*
X99731785Y-94559577D01*
X99782494Y-94530300D01*
X99782495Y-94530300D01*
X99868709Y-94480524D01*
X99868708Y-94480524D01*
X99868716Y-94480520D01*
X99980520Y-94368716D01*
X99980521Y-94368714D01*
X100014662Y-94334572D01*
X100075983Y-94301089D01*
X100078150Y-94300638D01*
X100136085Y-94289113D01*
X100233497Y-94269737D01*
X100379179Y-94209394D01*
X100510289Y-94121789D01*
X100621789Y-94010289D01*
X100709394Y-93879179D01*
X100769737Y-93733497D01*
X100798061Y-93591106D01*
X100800638Y-93578150D01*
X100833023Y-93516239D01*
X100834518Y-93514716D01*
X101462416Y-92886819D01*
X101523739Y-92853334D01*
X101550097Y-92850500D01*
X102984001Y-92850500D01*
X103051040Y-92870185D01*
X103096795Y-92922989D01*
X103106739Y-92992147D01*
X103098562Y-93021952D01*
X103089264Y-93044398D01*
X103089261Y-93044410D01*
X103058500Y-93199053D01*
X103058500Y-93356746D01*
X103089261Y-93511389D01*
X103089264Y-93511401D01*
X103149602Y-93657072D01*
X103149609Y-93657085D01*
X103237210Y-93788188D01*
X103237213Y-93788192D01*
X103348707Y-93899686D01*
X103348711Y-93899689D01*
X103479814Y-93987290D01*
X103479827Y-93987297D01*
X103625498Y-94047635D01*
X103625503Y-94047637D01*
X103780153Y-94078399D01*
X103780156Y-94078400D01*
X103780158Y-94078400D01*
X103937844Y-94078400D01*
X103937845Y-94078399D01*
X104092497Y-94047637D01*
X104238179Y-93987294D01*
X104274105Y-93963289D01*
X104369875Y-93899298D01*
X104436553Y-93878420D01*
X104438766Y-93878400D01*
X109999803Y-93878400D01*
X110066842Y-93898085D01*
X110087484Y-93914719D01*
X110487925Y-94315160D01*
X110521410Y-94376483D01*
X110521861Y-94378649D01*
X110552761Y-94533991D01*
X110552764Y-94534001D01*
X110613102Y-94679672D01*
X110613109Y-94679685D01*
X110700710Y-94810788D01*
X110700713Y-94810792D01*
X110812207Y-94922286D01*
X110812211Y-94922289D01*
X110943314Y-95009890D01*
X110943327Y-95009897D01*
X111088998Y-95070235D01*
X111089003Y-95070237D01*
X111243653Y-95100999D01*
X111243656Y-95101000D01*
X111243658Y-95101000D01*
X111401344Y-95101000D01*
X111401345Y-95100999D01*
X111555997Y-95070237D01*
X111701679Y-95009894D01*
X111832789Y-94922289D01*
X111944289Y-94810789D01*
X112031894Y-94679679D01*
X112092237Y-94533997D01*
X112123000Y-94379342D01*
X112123000Y-94221658D01*
X112123000Y-94221655D01*
X112122999Y-94221653D01*
X112120561Y-94209397D01*
X112092237Y-94067003D01*
X112084216Y-94047638D01*
X112031897Y-93921327D01*
X112031890Y-93921314D01*
X111944289Y-93790211D01*
X111944286Y-93790207D01*
X111832792Y-93678713D01*
X111832788Y-93678710D01*
X111701685Y-93591109D01*
X111701672Y-93591102D01*
X111556001Y-93530764D01*
X111555991Y-93530761D01*
X111400651Y-93499862D01*
X111338741Y-93467477D01*
X111337162Y-93465926D01*
X110787490Y-92916255D01*
X110787488Y-92916252D01*
X110668617Y-92797381D01*
X110668616Y-92797380D01*
X110581804Y-92747260D01*
X110581804Y-92747259D01*
X110581800Y-92747258D01*
X110531685Y-92718323D01*
X110378957Y-92677399D01*
X110220843Y-92677399D01*
X110213247Y-92677399D01*
X110213231Y-92677400D01*
X110124999Y-92677400D01*
X110057960Y-92657715D01*
X110012205Y-92604911D01*
X110002261Y-92535753D01*
X110010438Y-92505948D01*
X110019735Y-92483501D01*
X110019737Y-92483497D01*
X110050500Y-92328842D01*
X110050638Y-92328150D01*
X110083023Y-92266239D01*
X110084516Y-92264718D01*
X111014664Y-91334571D01*
X111075985Y-91301088D01*
X111078152Y-91300637D01*
X111078841Y-91300500D01*
X111078842Y-91300500D01*
X111233497Y-91269737D01*
X111379179Y-91209394D01*
X111510289Y-91121789D01*
X111621789Y-91010289D01*
X111709394Y-90879179D01*
X111769737Y-90733497D01*
X111800500Y-90578842D01*
X111800500Y-90421158D01*
X111800500Y-90421155D01*
X111800499Y-90421153D01*
X111769738Y-90266510D01*
X111769738Y-90266508D01*
X111769737Y-90266503D01*
X111769735Y-90266498D01*
X111709397Y-90120827D01*
X111709390Y-90120814D01*
X111621789Y-89989711D01*
X111621786Y-89989707D01*
X111510292Y-89878213D01*
X111510288Y-89878210D01*
X111379185Y-89790609D01*
X111379172Y-89790602D01*
X111233501Y-89730264D01*
X111233489Y-89730261D01*
X111078845Y-89699500D01*
X111078842Y-89699500D01*
X110921158Y-89699500D01*
X110921155Y-89699500D01*
X110766510Y-89730261D01*
X110766498Y-89730264D01*
X110620827Y-89790602D01*
X110620814Y-89790609D01*
X110489711Y-89878210D01*
X110489707Y-89878213D01*
X110378213Y-89989707D01*
X110378210Y-89989711D01*
X110290609Y-90120814D01*
X110290602Y-90120827D01*
X110230264Y-90266498D01*
X110230261Y-90266508D01*
X110199362Y-90421848D01*
X110166977Y-90483759D01*
X110165426Y-90485337D01*
X109235339Y-91415425D01*
X109174016Y-91448910D01*
X109171850Y-91449361D01*
X109016508Y-91480261D01*
X109016498Y-91480264D01*
X108870827Y-91540602D01*
X108870814Y-91540609D01*
X108739125Y-91628602D01*
X108672447Y-91649480D01*
X108670234Y-91649500D01*
X101336669Y-91649500D01*
X101336653Y-91649499D01*
X101329057Y-91649499D01*
X101170943Y-91649499D01*
X101063587Y-91678265D01*
X101018210Y-91690424D01*
X101018209Y-91690425D01*
X100968096Y-91719359D01*
X100968095Y-91719360D01*
X100924689Y-91744420D01*
X100881285Y-91769479D01*
X100881282Y-91769481D01*
X99985339Y-92665425D01*
X99924016Y-92698910D01*
X99921850Y-92699361D01*
X99766508Y-92730261D01*
X99766498Y-92730264D01*
X99620827Y-92790602D01*
X99620814Y-92790609D01*
X99489711Y-92878210D01*
X99489707Y-92878213D01*
X99378213Y-92989707D01*
X99378210Y-92989711D01*
X99290609Y-93120814D01*
X99290602Y-93120827D01*
X99230264Y-93266498D01*
X99230261Y-93266510D01*
X99223661Y-93299691D01*
X99191276Y-93361602D01*
X99130561Y-93396176D01*
X99102044Y-93399500D01*
X95079766Y-93399500D01*
X95012727Y-93379815D01*
X95010875Y-93378602D01*
X94879185Y-93290609D01*
X94879172Y-93290602D01*
X94733501Y-93230264D01*
X94733489Y-93230261D01*
X94578845Y-93199500D01*
X94578842Y-93199500D01*
X94421158Y-93199500D01*
X94421155Y-93199500D01*
X94266510Y-93230261D01*
X94266498Y-93230264D01*
X94120827Y-93290602D01*
X94120814Y-93290609D01*
X93989711Y-93378210D01*
X93989707Y-93378213D01*
X93878213Y-93489707D01*
X93878210Y-93489711D01*
X93790609Y-93620814D01*
X93790602Y-93620827D01*
X93730264Y-93766498D01*
X93730261Y-93766510D01*
X93699500Y-93921153D01*
X76095500Y-93921153D01*
X76095500Y-88123253D01*
X94199500Y-88123253D01*
X94199500Y-88280946D01*
X94230261Y-88435589D01*
X94230264Y-88435601D01*
X94290602Y-88581272D01*
X94290609Y-88581285D01*
X94378210Y-88712388D01*
X94378213Y-88712392D01*
X94489707Y-88823886D01*
X94489711Y-88823889D01*
X94620814Y-88911490D01*
X94620827Y-88911497D01*
X94766498Y-88971835D01*
X94766503Y-88971837D01*
X94921153Y-89002599D01*
X94921156Y-89002600D01*
X94921158Y-89002600D01*
X95078844Y-89002600D01*
X95078845Y-89002599D01*
X95233497Y-88971837D01*
X95379179Y-88911494D01*
X95433663Y-88875089D01*
X95510875Y-88823498D01*
X95577553Y-88802620D01*
X95579766Y-88802600D01*
X102932900Y-88802600D01*
X102999939Y-88822285D01*
X103045694Y-88875089D01*
X103055009Y-88917909D01*
X103056303Y-88917782D01*
X103056900Y-88923846D01*
X103087661Y-89078489D01*
X103087664Y-89078501D01*
X103148002Y-89224172D01*
X103148009Y-89224185D01*
X103235610Y-89355288D01*
X103235613Y-89355292D01*
X103347107Y-89466786D01*
X103347111Y-89466789D01*
X103478214Y-89554390D01*
X103478227Y-89554397D01*
X103623898Y-89614735D01*
X103623903Y-89614737D01*
X103778553Y-89645499D01*
X103778556Y-89645500D01*
X103778558Y-89645500D01*
X103936244Y-89645500D01*
X103936245Y-89645499D01*
X104090897Y-89614737D01*
X104236579Y-89554394D01*
X104236585Y-89554390D01*
X104368275Y-89466398D01*
X104434953Y-89445520D01*
X104437166Y-89445500D01*
X115279631Y-89445500D01*
X115279647Y-89445501D01*
X115287243Y-89445501D01*
X115445354Y-89445501D01*
X115445357Y-89445501D01*
X115598085Y-89404577D01*
X115648204Y-89375639D01*
X115735016Y-89325520D01*
X115846820Y-89213716D01*
X115846820Y-89213714D01*
X115857028Y-89203507D01*
X115857029Y-89203504D01*
X116280962Y-88779572D01*
X116342283Y-88746089D01*
X116344450Y-88745638D01*
X116402385Y-88734113D01*
X116499797Y-88714737D01*
X116645479Y-88654394D01*
X116776589Y-88566789D01*
X116888089Y-88455289D01*
X116975694Y-88324179D01*
X117036037Y-88178497D01*
X117066800Y-88023842D01*
X117066800Y-87866158D01*
X117066800Y-87866155D01*
X117066799Y-87866153D01*
X117058201Y-87822927D01*
X117036037Y-87711503D01*
X116984742Y-87587664D01*
X116975697Y-87565827D01*
X116975690Y-87565814D01*
X116888089Y-87434711D01*
X116888086Y-87434707D01*
X116776592Y-87323213D01*
X116776588Y-87323210D01*
X116645485Y-87235609D01*
X116645472Y-87235602D01*
X116499801Y-87175264D01*
X116499789Y-87175261D01*
X116345145Y-87144500D01*
X116345142Y-87144500D01*
X116187458Y-87144500D01*
X116187455Y-87144500D01*
X116032810Y-87175261D01*
X116032798Y-87175264D01*
X115887127Y-87235602D01*
X115887114Y-87235609D01*
X115756011Y-87323210D01*
X115756007Y-87323213D01*
X115644513Y-87434707D01*
X115644510Y-87434711D01*
X115556909Y-87565814D01*
X115556902Y-87565827D01*
X115496564Y-87711498D01*
X115496561Y-87711508D01*
X115465661Y-87866850D01*
X115433276Y-87928761D01*
X115431725Y-87930339D01*
X115153884Y-88208181D01*
X115092561Y-88241666D01*
X115066203Y-88244500D01*
X109920922Y-88244500D01*
X109853883Y-88224815D01*
X109808128Y-88172011D01*
X109798184Y-88102853D01*
X109817820Y-88051609D01*
X109841890Y-88015585D01*
X109841890Y-88015584D01*
X109841894Y-88015579D01*
X109902237Y-87869897D01*
X109933000Y-87715242D01*
X109933000Y-87557558D01*
X109933000Y-87557555D01*
X109932999Y-87557553D01*
X109921907Y-87501792D01*
X109902237Y-87402903D01*
X109869228Y-87323211D01*
X109841897Y-87257227D01*
X109841890Y-87257214D01*
X109754289Y-87126111D01*
X109754286Y-87126107D01*
X109642792Y-87014613D01*
X109642788Y-87014610D01*
X109511685Y-86927009D01*
X109511672Y-86927002D01*
X109366001Y-86866664D01*
X109365989Y-86866661D01*
X109211345Y-86835900D01*
X109211342Y-86835900D01*
X109053658Y-86835900D01*
X109053655Y-86835900D01*
X108899010Y-86866661D01*
X108898998Y-86866664D01*
X108753327Y-86927002D01*
X108753314Y-86927009D01*
X108622211Y-87014610D01*
X108622207Y-87014613D01*
X108510713Y-87126107D01*
X108510710Y-87126111D01*
X108423109Y-87257214D01*
X108423102Y-87257227D01*
X108362764Y-87402898D01*
X108362761Y-87402908D01*
X108343092Y-87501792D01*
X108310707Y-87563703D01*
X108249991Y-87598277D01*
X108221475Y-87601600D01*
X95579766Y-87601600D01*
X95512727Y-87581915D01*
X95510875Y-87580702D01*
X95379185Y-87492709D01*
X95379172Y-87492702D01*
X95233501Y-87432364D01*
X95233489Y-87432361D01*
X95078845Y-87401600D01*
X95078842Y-87401600D01*
X94921158Y-87401600D01*
X94921155Y-87401600D01*
X94766510Y-87432361D01*
X94766498Y-87432364D01*
X94620827Y-87492702D01*
X94620814Y-87492709D01*
X94489711Y-87580310D01*
X94489707Y-87580313D01*
X94378213Y-87691807D01*
X94378210Y-87691811D01*
X94290609Y-87822914D01*
X94290602Y-87822927D01*
X94230264Y-87968598D01*
X94230261Y-87968610D01*
X94199500Y-88123253D01*
X76095500Y-88123253D01*
X76095500Y-78199983D01*
X92944500Y-78199983D01*
X92944500Y-79800001D01*
X92944501Y-79800018D01*
X92955000Y-79902796D01*
X92955001Y-79902799D01*
X92979759Y-79977512D01*
X93010186Y-80069334D01*
X93102288Y-80218656D01*
X93226344Y-80342712D01*
X93375666Y-80434814D01*
X93542203Y-80489999D01*
X93644991Y-80500500D01*
X95044901Y-80500499D01*
X95111940Y-80520184D01*
X95132582Y-80536818D01*
X95433484Y-80837720D01*
X95433486Y-80837721D01*
X95433490Y-80837724D01*
X95527374Y-80891927D01*
X95570416Y-80916777D01*
X95723143Y-80957701D01*
X95723145Y-80957701D01*
X95888854Y-80957701D01*
X95888870Y-80957700D01*
X96132530Y-80957700D01*
X96199569Y-80977385D01*
X96245324Y-81030189D01*
X96255268Y-81099347D01*
X96247092Y-81129147D01*
X96236963Y-81153603D01*
X96236962Y-81153606D01*
X96236961Y-81153610D01*
X96206200Y-81308253D01*
X96206200Y-81435700D01*
X96186515Y-81502739D01*
X96133711Y-81548494D01*
X96082200Y-81559700D01*
X95087266Y-81559700D01*
X95020227Y-81540015D01*
X95018375Y-81538802D01*
X94886685Y-81450809D01*
X94886672Y-81450802D01*
X94741001Y-81390464D01*
X94740989Y-81390461D01*
X94586345Y-81359700D01*
X94586342Y-81359700D01*
X94428658Y-81359700D01*
X94428655Y-81359700D01*
X94274010Y-81390461D01*
X94273998Y-81390464D01*
X94128327Y-81450802D01*
X94128314Y-81450809D01*
X93997211Y-81538410D01*
X93997207Y-81538413D01*
X93885713Y-81649907D01*
X93885710Y-81649911D01*
X93798109Y-81781014D01*
X93798102Y-81781027D01*
X93737764Y-81926698D01*
X93737761Y-81926710D01*
X93707000Y-82081353D01*
X93707000Y-82239046D01*
X93737761Y-82393689D01*
X93737764Y-82393701D01*
X93798102Y-82539372D01*
X93798109Y-82539385D01*
X93885710Y-82670488D01*
X93885713Y-82670492D01*
X93997207Y-82781986D01*
X93997211Y-82781989D01*
X94128314Y-82869590D01*
X94128327Y-82869597D01*
X94252808Y-82921158D01*
X94274003Y-82929937D01*
X94428653Y-82960699D01*
X94428656Y-82960700D01*
X94428658Y-82960700D01*
X94586344Y-82960700D01*
X94586345Y-82960699D01*
X94740997Y-82929937D01*
X94886679Y-82869594D01*
X94890482Y-82867053D01*
X95018375Y-82781598D01*
X95085053Y-82760720D01*
X95087266Y-82760700D01*
X103046294Y-82760700D01*
X103113333Y-82780385D01*
X103159088Y-82833189D01*
X103169032Y-82902347D01*
X103158448Y-82934624D01*
X103159337Y-82934992D01*
X103096664Y-83086298D01*
X103096661Y-83086310D01*
X103065900Y-83240953D01*
X103065900Y-83398646D01*
X103096661Y-83553289D01*
X103096664Y-83553301D01*
X103157002Y-83698972D01*
X103157009Y-83698985D01*
X103244610Y-83830088D01*
X103244613Y-83830092D01*
X103356107Y-83941586D01*
X103356111Y-83941589D01*
X103487214Y-84029190D01*
X103487227Y-84029197D01*
X103607092Y-84078846D01*
X103632903Y-84089537D01*
X103697547Y-84102395D01*
X103788249Y-84120438D01*
X103850160Y-84152823D01*
X103851739Y-84154374D01*
X105123539Y-85426174D01*
X105123549Y-85426185D01*
X105127879Y-85430515D01*
X105127880Y-85430516D01*
X105239684Y-85542320D01*
X105291245Y-85572088D01*
X105326495Y-85592439D01*
X105326497Y-85592441D01*
X105364551Y-85614411D01*
X105376615Y-85621377D01*
X105529343Y-85662301D01*
X105529346Y-85662301D01*
X105695053Y-85662301D01*
X105695069Y-85662300D01*
X112349034Y-85662300D01*
X112416073Y-85681985D01*
X112417925Y-85683198D01*
X112549614Y-85771190D01*
X112549627Y-85771197D01*
X112695298Y-85831535D01*
X112695303Y-85831537D01*
X112849953Y-85862299D01*
X112849956Y-85862300D01*
X112849958Y-85862300D01*
X113007644Y-85862300D01*
X113007645Y-85862299D01*
X113162297Y-85831537D01*
X113307979Y-85771194D01*
X113439089Y-85683589D01*
X113550589Y-85572089D01*
X113638194Y-85440979D01*
X113698537Y-85295297D01*
X113729300Y-85140642D01*
X113729300Y-84982958D01*
X113729300Y-84982955D01*
X113729299Y-84982953D01*
X113698538Y-84828310D01*
X113698537Y-84828303D01*
X113698535Y-84828298D01*
X113638197Y-84682627D01*
X113638190Y-84682614D01*
X113550589Y-84551511D01*
X113550586Y-84551507D01*
X113439092Y-84440013D01*
X113439088Y-84440010D01*
X113307985Y-84352409D01*
X113307972Y-84352402D01*
X113162301Y-84292064D01*
X113162289Y-84292061D01*
X113007645Y-84261300D01*
X113007642Y-84261300D01*
X112849958Y-84261300D01*
X112849955Y-84261300D01*
X112695310Y-84292061D01*
X112695298Y-84292064D01*
X112549627Y-84352402D01*
X112549614Y-84352409D01*
X112417925Y-84440402D01*
X112351247Y-84461280D01*
X112349034Y-84461300D01*
X110687296Y-84461300D01*
X110620257Y-84441615D01*
X110574502Y-84388811D01*
X110564558Y-84319653D01*
X110593583Y-84256097D01*
X110599615Y-84249619D01*
X110615745Y-84233489D01*
X111014665Y-83834570D01*
X111075984Y-83801088D01*
X111078151Y-83800637D01*
X111078840Y-83800500D01*
X111078842Y-83800500D01*
X111233497Y-83769737D01*
X111379179Y-83709394D01*
X111510289Y-83621789D01*
X111621789Y-83510289D01*
X111709394Y-83379179D01*
X111769737Y-83233497D01*
X111800500Y-83078842D01*
X111800500Y-82921158D01*
X111798060Y-82908889D01*
X111799938Y-82887904D01*
X111796940Y-82867053D01*
X111802990Y-82853804D01*
X111804289Y-82839297D01*
X111817213Y-82822660D01*
X111825965Y-82803497D01*
X111838217Y-82795622D01*
X111847153Y-82784121D01*
X111867019Y-82777112D01*
X111884743Y-82765723D01*
X111909329Y-82762187D01*
X111913043Y-82760878D01*
X111919678Y-82760700D01*
X112092631Y-82760700D01*
X112092647Y-82760701D01*
X112100243Y-82760701D01*
X112258354Y-82760701D01*
X112258357Y-82760701D01*
X112411085Y-82719777D01*
X112461204Y-82690839D01*
X112548016Y-82640720D01*
X112659820Y-82528916D01*
X112659820Y-82528914D01*
X112670028Y-82518707D01*
X112670029Y-82518704D01*
X114997162Y-80191572D01*
X115058483Y-80158089D01*
X115060650Y-80157638D01*
X115118585Y-80146113D01*
X115215997Y-80126737D01*
X115328666Y-80080067D01*
X115361672Y-80066397D01*
X115361672Y-80066396D01*
X115361679Y-80066394D01*
X115492789Y-79978789D01*
X115604289Y-79867289D01*
X115651818Y-79796155D01*
X115705428Y-79751353D01*
X115774753Y-79742644D01*
X115779093Y-79743427D01*
X115802356Y-79748055D01*
X115908655Y-79769200D01*
X115908658Y-79769200D01*
X116066344Y-79769200D01*
X116066345Y-79769199D01*
X116220997Y-79738437D01*
X116366679Y-79678094D01*
X116444257Y-79626258D01*
X116498375Y-79590098D01*
X116565053Y-79569220D01*
X116567266Y-79569200D01*
X118952801Y-79569200D01*
X119019840Y-79588885D01*
X119065595Y-79641689D01*
X119076801Y-79693200D01*
X119076801Y-79800018D01*
X119087300Y-79902796D01*
X119087301Y-79902799D01*
X119112059Y-79977512D01*
X119142486Y-80069334D01*
X119234588Y-80218656D01*
X119358644Y-80342712D01*
X119507966Y-80434814D01*
X119674503Y-80489999D01*
X119777291Y-80500500D01*
X121377308Y-80500499D01*
X121480097Y-80489999D01*
X121646634Y-80434814D01*
X121795956Y-80342712D01*
X121920012Y-80218656D01*
X122012114Y-80069334D01*
X122067299Y-79902797D01*
X122077800Y-79800009D01*
X122077799Y-78881902D01*
X124076800Y-78881902D01*
X124076800Y-79118097D01*
X124113746Y-79351368D01*
X124186733Y-79575996D01*
X124269501Y-79738435D01*
X124293957Y-79786433D01*
X124432783Y-79977510D01*
X124599790Y-80144517D01*
X124790867Y-80283343D01*
X124890291Y-80334002D01*
X125001303Y-80390566D01*
X125001305Y-80390566D01*
X125001308Y-80390568D01*
X125121712Y-80429689D01*
X125225931Y-80463553D01*
X125459203Y-80500500D01*
X125459208Y-80500500D01*
X125695397Y-80500500D01*
X125928668Y-80463553D01*
X125942930Y-80458919D01*
X126153292Y-80390568D01*
X126363733Y-80283343D01*
X126554810Y-80144517D01*
X126721817Y-79977510D01*
X126860643Y-79786433D01*
X126967868Y-79575992D01*
X127040853Y-79351368D01*
X127044966Y-79325400D01*
X127077800Y-79118097D01*
X127077800Y-78881902D01*
X127040853Y-78648631D01*
X126978834Y-78457758D01*
X126967868Y-78424008D01*
X126967866Y-78424005D01*
X126967866Y-78424003D01*
X126910409Y-78311239D01*
X126860643Y-78213567D01*
X126721817Y-78022490D01*
X126554810Y-77855483D01*
X126363733Y-77716657D01*
X126153296Y-77609433D01*
X125928668Y-77536446D01*
X125695397Y-77499500D01*
X125695392Y-77499500D01*
X125459208Y-77499500D01*
X125459203Y-77499500D01*
X125225931Y-77536446D01*
X125001303Y-77609433D01*
X124790866Y-77716657D01*
X124701836Y-77781342D01*
X124599790Y-77855483D01*
X124599788Y-77855485D01*
X124599787Y-77855485D01*
X124432785Y-78022487D01*
X124432785Y-78022488D01*
X124432783Y-78022490D01*
X124378503Y-78097200D01*
X124293957Y-78213566D01*
X124186733Y-78424003D01*
X124113746Y-78648631D01*
X124076800Y-78881902D01*
X122077799Y-78881902D01*
X122077799Y-78199992D01*
X122074551Y-78168200D01*
X122067299Y-78097203D01*
X122067298Y-78097200D01*
X122012114Y-77930666D01*
X121920012Y-77781344D01*
X121795956Y-77657288D01*
X121646634Y-77565186D01*
X121480097Y-77510001D01*
X121480095Y-77510000D01*
X121377310Y-77499500D01*
X119777298Y-77499500D01*
X119777281Y-77499501D01*
X119674503Y-77510000D01*
X119674500Y-77510001D01*
X119507968Y-77565185D01*
X119507963Y-77565187D01*
X119358642Y-77657289D01*
X119234589Y-77781342D01*
X119142487Y-77930663D01*
X119142486Y-77930666D01*
X119087301Y-78097203D01*
X119087301Y-78097204D01*
X119087300Y-78097204D01*
X119076800Y-78199983D01*
X119076800Y-78244200D01*
X119057115Y-78311239D01*
X119004311Y-78356994D01*
X118952800Y-78368200D01*
X116567266Y-78368200D01*
X116500227Y-78348515D01*
X116498375Y-78347302D01*
X116366685Y-78259309D01*
X116366672Y-78259302D01*
X116221001Y-78198964D01*
X116220989Y-78198961D01*
X116066345Y-78168200D01*
X116066342Y-78168200D01*
X116002547Y-78168200D01*
X115970455Y-78163975D01*
X115822757Y-78124399D01*
X115664643Y-78124399D01*
X115657047Y-78124399D01*
X115657031Y-78124400D01*
X102311370Y-78124400D01*
X102311354Y-78124399D01*
X102303758Y-78124399D01*
X102145643Y-78124399D01*
X102005436Y-78161967D01*
X101992911Y-78165324D01*
X101855987Y-78244377D01*
X101855982Y-78244381D01*
X101154905Y-78945458D01*
X101093582Y-78978943D01*
X101023890Y-78973959D01*
X100967957Y-78932087D01*
X100944751Y-78877175D01*
X100908553Y-78648631D01*
X100846534Y-78457758D01*
X100835568Y-78424008D01*
X100835566Y-78424005D01*
X100835566Y-78424003D01*
X100778109Y-78311239D01*
X100728343Y-78213567D01*
X100589517Y-78022490D01*
X100422510Y-77855483D01*
X100231433Y-77716657D01*
X100020996Y-77609433D01*
X99796368Y-77536446D01*
X99563097Y-77499500D01*
X99563092Y-77499500D01*
X99326908Y-77499500D01*
X99326903Y-77499500D01*
X99093628Y-77536447D01*
X98967433Y-77577450D01*
X98897592Y-77579445D01*
X98841435Y-77547200D01*
X97590788Y-76296553D01*
X98993700Y-76296553D01*
X98993700Y-76454246D01*
X99024461Y-76608889D01*
X99024464Y-76608901D01*
X99084802Y-76754572D01*
X99084809Y-76754585D01*
X99172410Y-76885688D01*
X99172413Y-76885692D01*
X99283907Y-76997186D01*
X99283911Y-76997189D01*
X99415014Y-77084790D01*
X99415027Y-77084797D01*
X99560698Y-77145135D01*
X99560703Y-77145137D01*
X99715353Y-77175899D01*
X99715356Y-77175900D01*
X99715358Y-77175900D01*
X99873044Y-77175900D01*
X99873045Y-77175899D01*
X100027697Y-77145137D01*
X100173379Y-77084794D01*
X100304489Y-76997189D01*
X100415989Y-76885689D01*
X100503594Y-76754579D01*
X100550372Y-76641647D01*
X100594213Y-76587244D01*
X100660507Y-76565179D01*
X100664933Y-76565100D01*
X107052734Y-76565100D01*
X107119773Y-76584785D01*
X107121625Y-76585998D01*
X107253314Y-76673990D01*
X107253327Y-76673997D01*
X107396956Y-76733489D01*
X107399003Y-76734337D01*
X107553653Y-76765099D01*
X107553656Y-76765100D01*
X107553658Y-76765100D01*
X107711344Y-76765100D01*
X107711345Y-76765099D01*
X107865997Y-76734337D01*
X108011679Y-76673994D01*
X108142789Y-76586389D01*
X108254289Y-76474889D01*
X108341894Y-76343779D01*
X108402237Y-76198097D01*
X108433000Y-76043442D01*
X108433000Y-75885758D01*
X108433000Y-75885755D01*
X108432999Y-75885753D01*
X108428892Y-75865107D01*
X108402237Y-75731103D01*
X108402235Y-75731098D01*
X108341897Y-75585427D01*
X108341890Y-75585414D01*
X108254289Y-75454311D01*
X108254286Y-75454307D01*
X108142792Y-75342813D01*
X108142788Y-75342810D01*
X108011685Y-75255209D01*
X108011672Y-75255202D01*
X107866001Y-75194864D01*
X107865989Y-75194861D01*
X107711345Y-75164100D01*
X107711342Y-75164100D01*
X107553658Y-75164100D01*
X107553655Y-75164100D01*
X107399010Y-75194861D01*
X107398998Y-75194864D01*
X107253327Y-75255202D01*
X107253314Y-75255209D01*
X107121625Y-75343202D01*
X107054947Y-75364080D01*
X107052734Y-75364100D01*
X100291669Y-75364100D01*
X100291653Y-75364099D01*
X100284057Y-75364099D01*
X100125943Y-75364099D01*
X100018587Y-75392865D01*
X99973210Y-75405024D01*
X99973209Y-75405025D01*
X99929475Y-75430275D01*
X99929466Y-75430281D01*
X99923095Y-75433960D01*
X99836284Y-75484080D01*
X99773246Y-75547117D01*
X99766122Y-75552446D01*
X99741380Y-75561661D01*
X99718213Y-75574311D01*
X99716048Y-75574762D01*
X99560708Y-75605661D01*
X99560698Y-75605664D01*
X99415027Y-75666002D01*
X99415014Y-75666009D01*
X99283911Y-75753610D01*
X99283907Y-75753613D01*
X99172413Y-75865107D01*
X99172410Y-75865111D01*
X99084809Y-75996214D01*
X99084802Y-75996227D01*
X99024464Y-76141898D01*
X99024461Y-76141910D01*
X98993700Y-76296553D01*
X97590788Y-76296553D01*
X97432590Y-76138355D01*
X97432588Y-76138352D01*
X97313717Y-76019481D01*
X97313716Y-76019480D01*
X97211959Y-75960731D01*
X97176785Y-75940423D01*
X97061680Y-75909579D01*
X97057040Y-75907933D01*
X97039990Y-75895589D01*
X97015508Y-75881454D01*
X97014999Y-75882076D01*
X97011234Y-75878986D01*
X97010835Y-75878756D01*
X97010292Y-75878213D01*
X97010288Y-75878210D01*
X96879185Y-75790609D01*
X96879172Y-75790602D01*
X96733501Y-75730264D01*
X96733489Y-75730261D01*
X96578845Y-75699500D01*
X96578842Y-75699500D01*
X96421158Y-75699500D01*
X96421155Y-75699500D01*
X96266510Y-75730261D01*
X96266498Y-75730264D01*
X96120827Y-75790602D01*
X96120814Y-75790609D01*
X95989711Y-75878210D01*
X95989707Y-75878213D01*
X95878213Y-75989707D01*
X95878210Y-75989711D01*
X95790609Y-76120814D01*
X95790602Y-76120827D01*
X95730264Y-76266498D01*
X95730261Y-76266510D01*
X95699500Y-76421153D01*
X95699500Y-76578846D01*
X95730261Y-76733489D01*
X95730264Y-76733501D01*
X95790602Y-76879172D01*
X95790609Y-76879185D01*
X95878210Y-77010288D01*
X95878213Y-77010292D01*
X95989707Y-77121786D01*
X95989711Y-77121789D01*
X96120814Y-77209390D01*
X96120827Y-77209397D01*
X96266498Y-77269735D01*
X96266503Y-77269737D01*
X96421153Y-77300499D01*
X96421156Y-77300500D01*
X96421158Y-77300500D01*
X96578844Y-77300500D01*
X96578845Y-77300499D01*
X96733497Y-77269737D01*
X96750290Y-77262780D01*
X96819758Y-77255311D01*
X96882238Y-77286584D01*
X96885425Y-77289660D01*
X97992200Y-78396435D01*
X98025685Y-78457758D01*
X98022450Y-78522433D01*
X97981447Y-78648628D01*
X97944500Y-78881902D01*
X97944500Y-79118097D01*
X97981446Y-79351368D01*
X98054435Y-79576000D01*
X98054644Y-79576410D01*
X98054676Y-79576583D01*
X98056299Y-79580501D01*
X98055476Y-79580841D01*
X98067537Y-79645080D01*
X98041258Y-79709819D01*
X97984150Y-79750074D01*
X97944157Y-79756700D01*
X96102299Y-79756700D01*
X96072858Y-79748055D01*
X96042872Y-79741532D01*
X96037856Y-79737777D01*
X96035260Y-79737015D01*
X96014618Y-79720381D01*
X95981818Y-79687581D01*
X95948333Y-79626258D01*
X95945499Y-79599900D01*
X95945499Y-78199998D01*
X95945498Y-78199981D01*
X95934999Y-78097203D01*
X95934998Y-78097200D01*
X95879814Y-77930666D01*
X95787712Y-77781344D01*
X95663656Y-77657288D01*
X95514334Y-77565186D01*
X95347797Y-77510001D01*
X95347795Y-77510000D01*
X95245010Y-77499500D01*
X93644998Y-77499500D01*
X93644981Y-77499501D01*
X93542203Y-77510000D01*
X93542200Y-77510001D01*
X93375668Y-77565185D01*
X93375663Y-77565187D01*
X93226342Y-77657289D01*
X93102289Y-77781342D01*
X93010187Y-77930663D01*
X93010186Y-77930666D01*
X92955001Y-78097203D01*
X92955001Y-78097204D01*
X92955000Y-78097204D01*
X92944500Y-78199983D01*
X76095500Y-78199983D01*
X76095500Y-73368953D01*
X122918600Y-73368953D01*
X122918600Y-73526646D01*
X122949361Y-73681289D01*
X122949364Y-73681301D01*
X123009702Y-73826972D01*
X123009709Y-73826985D01*
X123097310Y-73958088D01*
X123097313Y-73958092D01*
X123208807Y-74069586D01*
X123208811Y-74069589D01*
X123339914Y-74157190D01*
X123339927Y-74157197D01*
X123485598Y-74217535D01*
X123485603Y-74217537D01*
X123640253Y-74248299D01*
X123640256Y-74248300D01*
X123640258Y-74248300D01*
X123797944Y-74248300D01*
X123797945Y-74248299D01*
X123952597Y-74217537D01*
X124098279Y-74157194D01*
X124098285Y-74157190D01*
X124229975Y-74069198D01*
X124296653Y-74048320D01*
X124298866Y-74048300D01*
X131560531Y-74048300D01*
X131560547Y-74048301D01*
X131568143Y-74048301D01*
X131726254Y-74048301D01*
X131726257Y-74048301D01*
X131878985Y-74007377D01*
X131929104Y-73978439D01*
X132015916Y-73928320D01*
X132127720Y-73816516D01*
X132127720Y-73816514D01*
X132137928Y-73806307D01*
X132137930Y-73806304D01*
X140610478Y-65333755D01*
X140671799Y-65300272D01*
X140736473Y-65303506D01*
X140778757Y-65317246D01*
X140988713Y-65350500D01*
X140988714Y-65350500D01*
X141201286Y-65350500D01*
X141201287Y-65350500D01*
X141411243Y-65317246D01*
X141613412Y-65251557D01*
X141802816Y-65155051D01*
X141824789Y-65139086D01*
X141974786Y-65030109D01*
X141974788Y-65030106D01*
X141974792Y-65030104D01*
X142125104Y-64879792D01*
X142125106Y-64879788D01*
X142125109Y-64879786D01*
X142250048Y-64707820D01*
X142250047Y-64707820D01*
X142250051Y-64707816D01*
X142346557Y-64518412D01*
X142412246Y-64316243D01*
X142445500Y-64106287D01*
X142445500Y-63893713D01*
X142412246Y-63683757D01*
X142346557Y-63481588D01*
X142250051Y-63292184D01*
X142250049Y-63292181D01*
X142250048Y-63292179D01*
X142125109Y-63120213D01*
X142011569Y-63006673D01*
X141978084Y-62945350D01*
X141983068Y-62875658D01*
X142024940Y-62819725D01*
X142055915Y-62802810D01*
X142187331Y-62753796D01*
X142302546Y-62667546D01*
X142388796Y-62552331D01*
X142439091Y-62417483D01*
X142445500Y-62357873D01*
X142445499Y-60562128D01*
X142439091Y-60502517D01*
X142410742Y-60426510D01*
X142388797Y-60367671D01*
X142388793Y-60367664D01*
X142302547Y-60252455D01*
X142302544Y-60252452D01*
X142187335Y-60166206D01*
X142187328Y-60166202D01*
X142052482Y-60115908D01*
X142052483Y-60115908D01*
X141992883Y-60109501D01*
X141992881Y-60109500D01*
X141992873Y-60109500D01*
X141992864Y-60109500D01*
X140197129Y-60109500D01*
X140197123Y-60109501D01*
X140137516Y-60115908D01*
X140002671Y-60166202D01*
X140002664Y-60166206D01*
X139887455Y-60252452D01*
X139887452Y-60252455D01*
X139801206Y-60367664D01*
X139801202Y-60367671D01*
X139750908Y-60502517D01*
X139744501Y-60562116D01*
X139744501Y-60562123D01*
X139744500Y-60562135D01*
X139744500Y-62357870D01*
X139744501Y-62357876D01*
X139750908Y-62417483D01*
X139801202Y-62552328D01*
X139801206Y-62552335D01*
X139887452Y-62667544D01*
X139887455Y-62667547D01*
X140002664Y-62753793D01*
X140002671Y-62753797D01*
X140134082Y-62802810D01*
X140190016Y-62844681D01*
X140214433Y-62910145D01*
X140199582Y-62978418D01*
X140178431Y-63006673D01*
X140064889Y-63120215D01*
X139939951Y-63292179D01*
X139843444Y-63481585D01*
X139777753Y-63683760D01*
X139744500Y-63893713D01*
X139744500Y-64106286D01*
X139777754Y-64316244D01*
X139777754Y-64316247D01*
X139791491Y-64358523D01*
X139793486Y-64428364D01*
X139761241Y-64484522D01*
X131434784Y-72810981D01*
X131373461Y-72844466D01*
X131347103Y-72847300D01*
X124298866Y-72847300D01*
X124231827Y-72827615D01*
X124229975Y-72826402D01*
X124098285Y-72738409D01*
X124098272Y-72738402D01*
X123952601Y-72678064D01*
X123952589Y-72678061D01*
X123797945Y-72647300D01*
X123797942Y-72647300D01*
X123640258Y-72647300D01*
X123640255Y-72647300D01*
X123485610Y-72678061D01*
X123485598Y-72678064D01*
X123339927Y-72738402D01*
X123339914Y-72738409D01*
X123208811Y-72826010D01*
X123208807Y-72826013D01*
X123097313Y-72937507D01*
X123097310Y-72937511D01*
X123009709Y-73068614D01*
X123009702Y-73068627D01*
X122949364Y-73214298D01*
X122949361Y-73214310D01*
X122918600Y-73368953D01*
X76095500Y-73368953D01*
X76095500Y-67823353D01*
X102869500Y-67823353D01*
X102869500Y-67981046D01*
X102900261Y-68135689D01*
X102900264Y-68135701D01*
X102960602Y-68281372D01*
X102960609Y-68281385D01*
X103048602Y-68413074D01*
X103069480Y-68479751D01*
X103069500Y-68481965D01*
X103069500Y-69821730D01*
X103069499Y-69821748D01*
X103069499Y-69987454D01*
X103069498Y-69987454D01*
X103110423Y-70140185D01*
X103139358Y-70190300D01*
X103139359Y-70190304D01*
X103139360Y-70190304D01*
X103189479Y-70277114D01*
X103189481Y-70277117D01*
X103308349Y-70395985D01*
X103308355Y-70395990D01*
X104321625Y-71409260D01*
X104355110Y-71470583D01*
X104355561Y-71472749D01*
X104386461Y-71628091D01*
X104386464Y-71628101D01*
X104446802Y-71773772D01*
X104446809Y-71773785D01*
X104534410Y-71904888D01*
X104534413Y-71904892D01*
X104645907Y-72016386D01*
X104645911Y-72016389D01*
X104777014Y-72103990D01*
X104777027Y-72103997D01*
X104922698Y-72164335D01*
X104922703Y-72164337D01*
X105077353Y-72195099D01*
X105077356Y-72195100D01*
X105077358Y-72195100D01*
X105235044Y-72195100D01*
X105235045Y-72195099D01*
X105389697Y-72164337D01*
X105535379Y-72103994D01*
X105666489Y-72016389D01*
X105777989Y-71904889D01*
X105865594Y-71773779D01*
X105925937Y-71628097D01*
X105956700Y-71473442D01*
X105956700Y-71315758D01*
X105956700Y-71315755D01*
X105956699Y-71315753D01*
X105925938Y-71161110D01*
X105925937Y-71161103D01*
X105925935Y-71161098D01*
X105865597Y-71015427D01*
X105865590Y-71015414D01*
X105777989Y-70884311D01*
X105777986Y-70884307D01*
X105666492Y-70772813D01*
X105666488Y-70772810D01*
X105535385Y-70685209D01*
X105535372Y-70685202D01*
X105389701Y-70624864D01*
X105389691Y-70624861D01*
X105234349Y-70593961D01*
X105172438Y-70561576D01*
X105170860Y-70560025D01*
X104306819Y-69695984D01*
X104273334Y-69634661D01*
X104270500Y-69608303D01*
X104270500Y-68481965D01*
X104290185Y-68414926D01*
X104291398Y-68413074D01*
X104345904Y-68331501D01*
X104379394Y-68281379D01*
X104421654Y-68179353D01*
X116097900Y-68179353D01*
X116097900Y-68337046D01*
X116128661Y-68491689D01*
X116128664Y-68491701D01*
X116189002Y-68637372D01*
X116189009Y-68637385D01*
X116276610Y-68768488D01*
X116276613Y-68768492D01*
X116388107Y-68879986D01*
X116388111Y-68879989D01*
X116519214Y-68967590D01*
X116519227Y-68967597D01*
X116664898Y-69027935D01*
X116664903Y-69027937D01*
X116729547Y-69040795D01*
X116820249Y-69058838D01*
X116882160Y-69091223D01*
X116883737Y-69092772D01*
X118413784Y-70622820D01*
X118413786Y-70622821D01*
X118413790Y-70622824D01*
X118521846Y-70685209D01*
X118550716Y-70701877D01*
X118703443Y-70742801D01*
X118703445Y-70742801D01*
X118869154Y-70742801D01*
X118869170Y-70742800D01*
X125638134Y-70742800D01*
X125705173Y-70762485D01*
X125707025Y-70763698D01*
X125838714Y-70851690D01*
X125838727Y-70851697D01*
X125984398Y-70912035D01*
X125984403Y-70912037D01*
X126139053Y-70942799D01*
X126139056Y-70942800D01*
X126139058Y-70942800D01*
X126296744Y-70942800D01*
X126296745Y-70942799D01*
X126451397Y-70912037D01*
X126597079Y-70851694D01*
X126728189Y-70764089D01*
X126839689Y-70652589D01*
X126927294Y-70521479D01*
X126987637Y-70375797D01*
X127018400Y-70221142D01*
X127018400Y-70063458D01*
X127018400Y-70063455D01*
X127018399Y-70063453D01*
X126987638Y-69908810D01*
X126987637Y-69908803D01*
X126951578Y-69821748D01*
X126927297Y-69763127D01*
X126927290Y-69763114D01*
X126839689Y-69632011D01*
X126839686Y-69632007D01*
X126728192Y-69520513D01*
X126728188Y-69520510D01*
X126597085Y-69432909D01*
X126597072Y-69432902D01*
X126451401Y-69372564D01*
X126451389Y-69372561D01*
X126296745Y-69341800D01*
X126296742Y-69341800D01*
X126139058Y-69341800D01*
X126139055Y-69341800D01*
X125984410Y-69372561D01*
X125984398Y-69372564D01*
X125838727Y-69432902D01*
X125838714Y-69432909D01*
X125707025Y-69520902D01*
X125640347Y-69541780D01*
X125638134Y-69541800D01*
X119082598Y-69541800D01*
X119015559Y-69522115D01*
X118994917Y-69505481D01*
X118004730Y-68515295D01*
X117994632Y-68496802D01*
X117980552Y-68481126D01*
X117978223Y-68466751D01*
X117971245Y-68453972D01*
X117972747Y-68432956D01*
X117969378Y-68412155D01*
X117975190Y-68398803D01*
X117976229Y-68384281D01*
X117988855Y-68367413D01*
X117997267Y-68348093D01*
X118015739Y-68331501D01*
X118018101Y-68328347D01*
X118023525Y-68324509D01*
X118030880Y-68319595D01*
X118097558Y-68298720D01*
X118099766Y-68298700D01*
X127374431Y-68298700D01*
X127374447Y-68298701D01*
X127382043Y-68298701D01*
X127540154Y-68298701D01*
X127540157Y-68298701D01*
X127692885Y-68257777D01*
X127743004Y-68228839D01*
X127829816Y-68178720D01*
X127941620Y-68066916D01*
X127941620Y-68066914D01*
X127951828Y-68056707D01*
X127951829Y-68056704D01*
X129585064Y-66423471D01*
X129646385Y-66389988D01*
X129648552Y-66389537D01*
X129649241Y-66389400D01*
X129649242Y-66389400D01*
X129803897Y-66358637D01*
X129949579Y-66298294D01*
X130080689Y-66210689D01*
X130192189Y-66099189D01*
X130279794Y-65968079D01*
X130340137Y-65822397D01*
X130370900Y-65667742D01*
X130370900Y-65510058D01*
X130370900Y-65510055D01*
X130370899Y-65510053D01*
X130340138Y-65355410D01*
X130340138Y-65355408D01*
X130340137Y-65355403D01*
X130297122Y-65251555D01*
X130279797Y-65209727D01*
X130279790Y-65209714D01*
X130192189Y-65078611D01*
X130192186Y-65078607D01*
X130080692Y-64967113D01*
X130080688Y-64967110D01*
X129949585Y-64879509D01*
X129949572Y-64879502D01*
X129803901Y-64819164D01*
X129803889Y-64819161D01*
X129649245Y-64788400D01*
X129649242Y-64788400D01*
X129491558Y-64788400D01*
X129491555Y-64788400D01*
X129336910Y-64819161D01*
X129336898Y-64819164D01*
X129191227Y-64879502D01*
X129191214Y-64879509D01*
X129060111Y-64967110D01*
X129060107Y-64967113D01*
X128948613Y-65078607D01*
X128948610Y-65078611D01*
X128861009Y-65209714D01*
X128861002Y-65209727D01*
X128800664Y-65355398D01*
X128800661Y-65355408D01*
X128769762Y-65510748D01*
X128737377Y-65572659D01*
X128735826Y-65574237D01*
X127248684Y-67061381D01*
X127187361Y-67094866D01*
X127161003Y-67097700D01*
X118099766Y-67097700D01*
X118032727Y-67078015D01*
X118030875Y-67076802D01*
X117899185Y-66988809D01*
X117899172Y-66988802D01*
X117753501Y-66928464D01*
X117753489Y-66928461D01*
X117598845Y-66897700D01*
X117598842Y-66897700D01*
X117441158Y-66897700D01*
X117441155Y-66897700D01*
X117286510Y-66928461D01*
X117286498Y-66928464D01*
X117140827Y-66988802D01*
X117140814Y-66988809D01*
X117009711Y-67076410D01*
X117009707Y-67076413D01*
X116898213Y-67187907D01*
X116898210Y-67187911D01*
X116810609Y-67319014D01*
X116810602Y-67319027D01*
X116772566Y-67410857D01*
X116728725Y-67465261D01*
X116682200Y-67485022D01*
X116664904Y-67488462D01*
X116664898Y-67488464D01*
X116519227Y-67548802D01*
X116519214Y-67548809D01*
X116388111Y-67636410D01*
X116388107Y-67636413D01*
X116276613Y-67747907D01*
X116276610Y-67747911D01*
X116189009Y-67879014D01*
X116189002Y-67879027D01*
X116128664Y-68024698D01*
X116128661Y-68024710D01*
X116097900Y-68179353D01*
X104421654Y-68179353D01*
X104439737Y-68135697D01*
X104470500Y-67981042D01*
X104470500Y-67823358D01*
X104470500Y-67823355D01*
X104470499Y-67823353D01*
X104439737Y-67668703D01*
X104390076Y-67548809D01*
X104379397Y-67523027D01*
X104379390Y-67523014D01*
X104291789Y-67391911D01*
X104291786Y-67391907D01*
X104180292Y-67280413D01*
X104180288Y-67280410D01*
X104049185Y-67192809D01*
X104049172Y-67192802D01*
X103903501Y-67132464D01*
X103903489Y-67132461D01*
X103748845Y-67101700D01*
X103748842Y-67101700D01*
X103591158Y-67101700D01*
X103591155Y-67101700D01*
X103436510Y-67132461D01*
X103436498Y-67132464D01*
X103290827Y-67192802D01*
X103290814Y-67192809D01*
X103159711Y-67280410D01*
X103159707Y-67280413D01*
X103048213Y-67391907D01*
X103048210Y-67391911D01*
X102960609Y-67523014D01*
X102960602Y-67523027D01*
X102900264Y-67668698D01*
X102900261Y-67668710D01*
X102869500Y-67823353D01*
X76095500Y-67823353D01*
X76095500Y-60562135D01*
X78744500Y-60562135D01*
X78744500Y-62357870D01*
X78744501Y-62357876D01*
X78750908Y-62417483D01*
X78801202Y-62552328D01*
X78801206Y-62552335D01*
X78887452Y-62667544D01*
X78887455Y-62667547D01*
X79002664Y-62753793D01*
X79002671Y-62753797D01*
X79134082Y-62802810D01*
X79190016Y-62844681D01*
X79214433Y-62910145D01*
X79199582Y-62978418D01*
X79178431Y-63006673D01*
X79064889Y-63120215D01*
X78939951Y-63292179D01*
X78843444Y-63481585D01*
X78777753Y-63683760D01*
X78744500Y-63893713D01*
X78744500Y-64106287D01*
X78777754Y-64316243D01*
X78832431Y-64484522D01*
X78843444Y-64518414D01*
X78939951Y-64707820D01*
X79064890Y-64879786D01*
X79215213Y-65030109D01*
X79387179Y-65155048D01*
X79387181Y-65155049D01*
X79387184Y-65155051D01*
X79576588Y-65251557D01*
X79778757Y-65317246D01*
X79988713Y-65350500D01*
X79988714Y-65350500D01*
X80201286Y-65350500D01*
X80201287Y-65350500D01*
X80411243Y-65317246D01*
X80613412Y-65251557D01*
X80802816Y-65155051D01*
X80824789Y-65139086D01*
X80974786Y-65030109D01*
X80974788Y-65030106D01*
X80974792Y-65030104D01*
X81125104Y-64879792D01*
X81125106Y-64879788D01*
X81125109Y-64879786D01*
X81250048Y-64707820D01*
X81250047Y-64707820D01*
X81250051Y-64707816D01*
X81346557Y-64518412D01*
X81412246Y-64316243D01*
X81445500Y-64106287D01*
X81445500Y-63893713D01*
X81412246Y-63683757D01*
X81346557Y-63481588D01*
X81250051Y-63292184D01*
X81250049Y-63292181D01*
X81250048Y-63292179D01*
X81125109Y-63120213D01*
X81011569Y-63006673D01*
X80978084Y-62945350D01*
X80983068Y-62875658D01*
X81024940Y-62819725D01*
X81055915Y-62802810D01*
X81187331Y-62753796D01*
X81302546Y-62667546D01*
X81388796Y-62552331D01*
X81439091Y-62417483D01*
X81445500Y-62357873D01*
X81445499Y-60562128D01*
X81439091Y-60502517D01*
X81410742Y-60426510D01*
X81388797Y-60367671D01*
X81388793Y-60367664D01*
X81302547Y-60252455D01*
X81302544Y-60252452D01*
X81187335Y-60166206D01*
X81187328Y-60166202D01*
X81052482Y-60115908D01*
X81052483Y-60115908D01*
X80992883Y-60109501D01*
X80992881Y-60109500D01*
X80992873Y-60109500D01*
X80992864Y-60109500D01*
X79197129Y-60109500D01*
X79197123Y-60109501D01*
X79137516Y-60115908D01*
X79002671Y-60166202D01*
X79002664Y-60166206D01*
X78887455Y-60252452D01*
X78887452Y-60252455D01*
X78801206Y-60367664D01*
X78801202Y-60367671D01*
X78750908Y-60502517D01*
X78744501Y-60562116D01*
X78744501Y-60562123D01*
X78744500Y-60562135D01*
X76095500Y-60562135D01*
X76095500Y-59181153D01*
X106894500Y-59181153D01*
X106894500Y-59338846D01*
X106925261Y-59493489D01*
X106925264Y-59493501D01*
X106985602Y-59639172D01*
X106985609Y-59639185D01*
X107073210Y-59770288D01*
X107073213Y-59770292D01*
X107175240Y-59872319D01*
X107208725Y-59933642D01*
X107203741Y-60003334D01*
X107175240Y-60047681D01*
X107073213Y-60149707D01*
X107073210Y-60149711D01*
X106985609Y-60280814D01*
X106985602Y-60280827D01*
X106925264Y-60426498D01*
X106925261Y-60426510D01*
X106894500Y-60581153D01*
X106894500Y-60738846D01*
X106925261Y-60893489D01*
X106925264Y-60893501D01*
X106985602Y-61039172D01*
X106985609Y-61039185D01*
X107073210Y-61170288D01*
X107073213Y-61170292D01*
X107184707Y-61281786D01*
X107184711Y-61281789D01*
X107315814Y-61369390D01*
X107315827Y-61369397D01*
X107425082Y-61414651D01*
X107461503Y-61429737D01*
X107516831Y-61440742D01*
X107578740Y-61473126D01*
X107613315Y-61533841D01*
X107614256Y-61538166D01*
X107625261Y-61593492D01*
X107625264Y-61593501D01*
X107685602Y-61739172D01*
X107685609Y-61739185D01*
X107773210Y-61870288D01*
X107773213Y-61870292D01*
X107884707Y-61981786D01*
X107884711Y-61981789D01*
X108015814Y-62069390D01*
X108015827Y-62069397D01*
X108161498Y-62129735D01*
X108161503Y-62129737D01*
X108316153Y-62160499D01*
X108316156Y-62160500D01*
X108316158Y-62160500D01*
X108473844Y-62160500D01*
X108473845Y-62160499D01*
X108628497Y-62129737D01*
X108774179Y-62069394D01*
X108905289Y-61981789D01*
X108905292Y-61981786D01*
X109007319Y-61879760D01*
X109068642Y-61846275D01*
X109138334Y-61851259D01*
X109182681Y-61879760D01*
X109284707Y-61981786D01*
X109284711Y-61981789D01*
X109415814Y-62069390D01*
X109415827Y-62069397D01*
X109561498Y-62129735D01*
X109561503Y-62129737D01*
X109716153Y-62160499D01*
X109716156Y-62160500D01*
X109716158Y-62160500D01*
X109873844Y-62160500D01*
X109873845Y-62160499D01*
X110028497Y-62129737D01*
X110174179Y-62069394D01*
X110305289Y-61981789D01*
X110416789Y-61870289D01*
X110504394Y-61739179D01*
X110564737Y-61593497D01*
X110575743Y-61538166D01*
X110608125Y-61476258D01*
X110668841Y-61441683D01*
X110673118Y-61440752D01*
X110728497Y-61429737D01*
X110874179Y-61369394D01*
X111005289Y-61281789D01*
X111116789Y-61170289D01*
X111204394Y-61039179D01*
X111264737Y-60893497D01*
X111295500Y-60738842D01*
X111295500Y-60581158D01*
X111295500Y-60581155D01*
X111295499Y-60581153D01*
X111264738Y-60426510D01*
X111264737Y-60426503D01*
X111240368Y-60367671D01*
X111204397Y-60280827D01*
X111204390Y-60280814D01*
X111116789Y-60149711D01*
X111116786Y-60149707D01*
X111014760Y-60047681D01*
X110981275Y-59986358D01*
X110986259Y-59916666D01*
X111014760Y-59872319D01*
X111116786Y-59770292D01*
X111116789Y-59770289D01*
X111204394Y-59639179D01*
X111264737Y-59493497D01*
X111284113Y-59396085D01*
X111295638Y-59338150D01*
X111328023Y-59276239D01*
X111329518Y-59274716D01*
X116467416Y-54136819D01*
X116528739Y-54103334D01*
X116555097Y-54100500D01*
X120420234Y-54100500D01*
X120487273Y-54120185D01*
X120489125Y-54121398D01*
X120620814Y-54209390D01*
X120620827Y-54209397D01*
X120766498Y-54269735D01*
X120766503Y-54269737D01*
X120921153Y-54300499D01*
X120921156Y-54300500D01*
X120921158Y-54300500D01*
X121078844Y-54300500D01*
X121078845Y-54300499D01*
X121233497Y-54269737D01*
X121379179Y-54209394D01*
X121510289Y-54121789D01*
X121621789Y-54010289D01*
X121709394Y-53879179D01*
X121769737Y-53733497D01*
X121800500Y-53578842D01*
X121800500Y-53421158D01*
X121800500Y-53421155D01*
X121800499Y-53421153D01*
X121769738Y-53266510D01*
X121769737Y-53266503D01*
X121713728Y-53131284D01*
X121709397Y-53120827D01*
X121709390Y-53120814D01*
X121621789Y-52989711D01*
X121621786Y-52989707D01*
X121510292Y-52878213D01*
X121510288Y-52878210D01*
X121379185Y-52790609D01*
X121379172Y-52790602D01*
X121233501Y-52730264D01*
X121233489Y-52730261D01*
X121078845Y-52699500D01*
X121078842Y-52699500D01*
X120921158Y-52699500D01*
X120921155Y-52699500D01*
X120766510Y-52730261D01*
X120766498Y-52730264D01*
X120620827Y-52790602D01*
X120620814Y-52790609D01*
X120489125Y-52878602D01*
X120422447Y-52899480D01*
X120420234Y-52899500D01*
X116334057Y-52899500D01*
X116175943Y-52899500D01*
X116023215Y-52940423D01*
X116023214Y-52940423D01*
X116023212Y-52940424D01*
X116023209Y-52940425D01*
X115973096Y-52969359D01*
X115973095Y-52969360D01*
X115937853Y-52989707D01*
X115886285Y-53019479D01*
X115886282Y-53019481D01*
X115774478Y-53131286D01*
X110699441Y-58206322D01*
X110638118Y-58239807D01*
X110568426Y-58234823D01*
X110512493Y-58192951D01*
X110507933Y-58185782D01*
X110507779Y-58185886D01*
X110416789Y-58049711D01*
X110416786Y-58049707D01*
X110305292Y-57938213D01*
X110305288Y-57938210D01*
X110174185Y-57850609D01*
X110174172Y-57850602D01*
X110028501Y-57790264D01*
X110028489Y-57790261D01*
X109873845Y-57759500D01*
X109873842Y-57759500D01*
X109716158Y-57759500D01*
X109716155Y-57759500D01*
X109561510Y-57790261D01*
X109561498Y-57790264D01*
X109415827Y-57850602D01*
X109415814Y-57850609D01*
X109284711Y-57938210D01*
X109284707Y-57938213D01*
X109182681Y-58040240D01*
X109121358Y-58073725D01*
X109051666Y-58068741D01*
X109007319Y-58040240D01*
X108905292Y-57938213D01*
X108905288Y-57938210D01*
X108774185Y-57850609D01*
X108774172Y-57850602D01*
X108628501Y-57790264D01*
X108628489Y-57790261D01*
X108473845Y-57759500D01*
X108473842Y-57759500D01*
X108316158Y-57759500D01*
X108316155Y-57759500D01*
X108161510Y-57790261D01*
X108161498Y-57790264D01*
X108015827Y-57850602D01*
X108015814Y-57850609D01*
X107884711Y-57938210D01*
X107884707Y-57938213D01*
X107773213Y-58049707D01*
X107773210Y-58049711D01*
X107685609Y-58180814D01*
X107685602Y-58180827D01*
X107625264Y-58326498D01*
X107625262Y-58326505D01*
X107614256Y-58381833D01*
X107581870Y-58443743D01*
X107521153Y-58478316D01*
X107516833Y-58479256D01*
X107461505Y-58490262D01*
X107461498Y-58490264D01*
X107315827Y-58550602D01*
X107315814Y-58550609D01*
X107184711Y-58638210D01*
X107184707Y-58638213D01*
X107073213Y-58749707D01*
X107073210Y-58749711D01*
X106985609Y-58880814D01*
X106985602Y-58880827D01*
X106925264Y-59026498D01*
X106925261Y-59026510D01*
X106894500Y-59181153D01*
X76095500Y-59181153D01*
X76095500Y-49624500D01*
X76115185Y-49557461D01*
X76167989Y-49511706D01*
X76219500Y-49500500D01*
X86471000Y-49500500D01*
X86538039Y-49520185D01*
G37*
%TD.AperFunction*%
%TD*%
M02*
