%TF.GenerationSoftware,KiCad,Pcbnew,9.0.3*%
%TF.CreationDate,2025-08-18T21:06:09-04:00*%
%TF.ProjectId,robotbrain,726f626f-7462-4726-9169-6e2e6b696361,rev?*%
%TF.SameCoordinates,Original*%
%TF.FileFunction,Legend,Top*%
%TF.FilePolarity,Positive*%
%FSLAX46Y46*%
G04 Gerber Fmt 4.6, Leading zero omitted, Abs format (unit mm)*
G04 Created by KiCad (PCBNEW 9.0.3) date 2025-08-18 21:06:09*
%MOMM*%
%LPD*%
G01*
G04 APERTURE LIST*
%ADD10C,0.150000*%
%ADD11C,0.120000*%
%ADD12C,0.152400*%
%ADD13C,0.508000*%
%ADD14C,0.127000*%
%ADD15C,0.200000*%
G04 APERTURE END LIST*
D10*
X109261667Y-84147200D02*
X109404524Y-84194819D01*
X109404524Y-84194819D02*
X109642619Y-84194819D01*
X109642619Y-84194819D02*
X109737857Y-84147200D01*
X109737857Y-84147200D02*
X109785476Y-84099580D01*
X109785476Y-84099580D02*
X109833095Y-84004342D01*
X109833095Y-84004342D02*
X109833095Y-83909104D01*
X109833095Y-83909104D02*
X109785476Y-83813866D01*
X109785476Y-83813866D02*
X109737857Y-83766247D01*
X109737857Y-83766247D02*
X109642619Y-83718628D01*
X109642619Y-83718628D02*
X109452143Y-83671009D01*
X109452143Y-83671009D02*
X109356905Y-83623390D01*
X109356905Y-83623390D02*
X109309286Y-83575771D01*
X109309286Y-83575771D02*
X109261667Y-83480533D01*
X109261667Y-83480533D02*
X109261667Y-83385295D01*
X109261667Y-83385295D02*
X109309286Y-83290057D01*
X109309286Y-83290057D02*
X109356905Y-83242438D01*
X109356905Y-83242438D02*
X109452143Y-83194819D01*
X109452143Y-83194819D02*
X109690238Y-83194819D01*
X109690238Y-83194819D02*
X109833095Y-83242438D01*
X110166429Y-83194819D02*
X110404524Y-84194819D01*
X110404524Y-84194819D02*
X110595000Y-83480533D01*
X110595000Y-83480533D02*
X110785476Y-84194819D01*
X110785476Y-84194819D02*
X111023572Y-83194819D01*
X111356905Y-83290057D02*
X111404524Y-83242438D01*
X111404524Y-83242438D02*
X111499762Y-83194819D01*
X111499762Y-83194819D02*
X111737857Y-83194819D01*
X111737857Y-83194819D02*
X111833095Y-83242438D01*
X111833095Y-83242438D02*
X111880714Y-83290057D01*
X111880714Y-83290057D02*
X111928333Y-83385295D01*
X111928333Y-83385295D02*
X111928333Y-83480533D01*
X111928333Y-83480533D02*
X111880714Y-83623390D01*
X111880714Y-83623390D02*
X111309286Y-84194819D01*
X111309286Y-84194819D02*
X111928333Y-84194819D01*
X92299819Y-121833333D02*
X93014104Y-121833333D01*
X93014104Y-121833333D02*
X93156961Y-121880952D01*
X93156961Y-121880952D02*
X93252200Y-121976190D01*
X93252200Y-121976190D02*
X93299819Y-122119047D01*
X93299819Y-122119047D02*
X93299819Y-122214285D01*
X93299819Y-120833333D02*
X93299819Y-121404761D01*
X93299819Y-121119047D02*
X92299819Y-121119047D01*
X92299819Y-121119047D02*
X92442676Y-121214285D01*
X92442676Y-121214285D02*
X92537914Y-121309523D01*
X92537914Y-121309523D02*
X92585533Y-121404761D01*
X94669580Y-54216666D02*
X94717200Y-54264285D01*
X94717200Y-54264285D02*
X94764819Y-54407142D01*
X94764819Y-54407142D02*
X94764819Y-54502380D01*
X94764819Y-54502380D02*
X94717200Y-54645237D01*
X94717200Y-54645237D02*
X94621961Y-54740475D01*
X94621961Y-54740475D02*
X94526723Y-54788094D01*
X94526723Y-54788094D02*
X94336247Y-54835713D01*
X94336247Y-54835713D02*
X94193390Y-54835713D01*
X94193390Y-54835713D02*
X94002914Y-54788094D01*
X94002914Y-54788094D02*
X93907676Y-54740475D01*
X93907676Y-54740475D02*
X93812438Y-54645237D01*
X93812438Y-54645237D02*
X93764819Y-54502380D01*
X93764819Y-54502380D02*
X93764819Y-54407142D01*
X93764819Y-54407142D02*
X93812438Y-54264285D01*
X93812438Y-54264285D02*
X93860057Y-54216666D01*
X93764819Y-53359523D02*
X93764819Y-53549999D01*
X93764819Y-53549999D02*
X93812438Y-53645237D01*
X93812438Y-53645237D02*
X93860057Y-53692856D01*
X93860057Y-53692856D02*
X94002914Y-53788094D01*
X94002914Y-53788094D02*
X94193390Y-53835713D01*
X94193390Y-53835713D02*
X94574342Y-53835713D01*
X94574342Y-53835713D02*
X94669580Y-53788094D01*
X94669580Y-53788094D02*
X94717200Y-53740475D01*
X94717200Y-53740475D02*
X94764819Y-53645237D01*
X94764819Y-53645237D02*
X94764819Y-53454761D01*
X94764819Y-53454761D02*
X94717200Y-53359523D01*
X94717200Y-53359523D02*
X94669580Y-53311904D01*
X94669580Y-53311904D02*
X94574342Y-53264285D01*
X94574342Y-53264285D02*
X94336247Y-53264285D01*
X94336247Y-53264285D02*
X94241009Y-53311904D01*
X94241009Y-53311904D02*
X94193390Y-53359523D01*
X94193390Y-53359523D02*
X94145771Y-53454761D01*
X94145771Y-53454761D02*
X94145771Y-53645237D01*
X94145771Y-53645237D02*
X94193390Y-53740475D01*
X94193390Y-53740475D02*
X94241009Y-53788094D01*
X94241009Y-53788094D02*
X94336247Y-53835713D01*
X103228432Y-109592800D02*
X103085575Y-109545180D01*
X103085575Y-109545180D02*
X102847480Y-109545180D01*
X102847480Y-109545180D02*
X102752242Y-109592800D01*
X102752242Y-109592800D02*
X102704623Y-109640419D01*
X102704623Y-109640419D02*
X102657004Y-109735657D01*
X102657004Y-109735657D02*
X102657004Y-109830895D01*
X102657004Y-109830895D02*
X102704623Y-109926133D01*
X102704623Y-109926133D02*
X102752242Y-109973752D01*
X102752242Y-109973752D02*
X102847480Y-110021371D01*
X102847480Y-110021371D02*
X103037956Y-110068990D01*
X103037956Y-110068990D02*
X103133194Y-110116609D01*
X103133194Y-110116609D02*
X103180813Y-110164228D01*
X103180813Y-110164228D02*
X103228432Y-110259466D01*
X103228432Y-110259466D02*
X103228432Y-110354704D01*
X103228432Y-110354704D02*
X103180813Y-110449942D01*
X103180813Y-110449942D02*
X103133194Y-110497561D01*
X103133194Y-110497561D02*
X103037956Y-110545180D01*
X103037956Y-110545180D02*
X102799861Y-110545180D01*
X102799861Y-110545180D02*
X102657004Y-110497561D01*
X102323670Y-110545180D02*
X102085575Y-109545180D01*
X102085575Y-109545180D02*
X101895099Y-110259466D01*
X101895099Y-110259466D02*
X101704623Y-109545180D01*
X101704623Y-109545180D02*
X101466528Y-110545180D01*
X100561766Y-109545180D02*
X101133194Y-109545180D01*
X100847480Y-109545180D02*
X100847480Y-110545180D01*
X100847480Y-110545180D02*
X100942718Y-110402323D01*
X100942718Y-110402323D02*
X101037956Y-110307085D01*
X101037956Y-110307085D02*
X101133194Y-110259466D01*
X96302142Y-73109580D02*
X96254523Y-73157200D01*
X96254523Y-73157200D02*
X96111666Y-73204819D01*
X96111666Y-73204819D02*
X96016428Y-73204819D01*
X96016428Y-73204819D02*
X95873571Y-73157200D01*
X95873571Y-73157200D02*
X95778333Y-73061961D01*
X95778333Y-73061961D02*
X95730714Y-72966723D01*
X95730714Y-72966723D02*
X95683095Y-72776247D01*
X95683095Y-72776247D02*
X95683095Y-72633390D01*
X95683095Y-72633390D02*
X95730714Y-72442914D01*
X95730714Y-72442914D02*
X95778333Y-72347676D01*
X95778333Y-72347676D02*
X95873571Y-72252438D01*
X95873571Y-72252438D02*
X96016428Y-72204819D01*
X96016428Y-72204819D02*
X96111666Y-72204819D01*
X96111666Y-72204819D02*
X96254523Y-72252438D01*
X96254523Y-72252438D02*
X96302142Y-72300057D01*
X97254523Y-73204819D02*
X96683095Y-73204819D01*
X96968809Y-73204819D02*
X96968809Y-72204819D01*
X96968809Y-72204819D02*
X96873571Y-72347676D01*
X96873571Y-72347676D02*
X96778333Y-72442914D01*
X96778333Y-72442914D02*
X96683095Y-72490533D01*
X98206904Y-73204819D02*
X97635476Y-73204819D01*
X97921190Y-73204819D02*
X97921190Y-72204819D01*
X97921190Y-72204819D02*
X97825952Y-72347676D01*
X97825952Y-72347676D02*
X97730714Y-72442914D01*
X97730714Y-72442914D02*
X97635476Y-72490533D01*
X140761666Y-58534819D02*
X140761666Y-59249104D01*
X140761666Y-59249104D02*
X140714047Y-59391961D01*
X140714047Y-59391961D02*
X140618809Y-59487200D01*
X140618809Y-59487200D02*
X140475952Y-59534819D01*
X140475952Y-59534819D02*
X140380714Y-59534819D01*
X141666428Y-58534819D02*
X141475952Y-58534819D01*
X141475952Y-58534819D02*
X141380714Y-58582438D01*
X141380714Y-58582438D02*
X141333095Y-58630057D01*
X141333095Y-58630057D02*
X141237857Y-58772914D01*
X141237857Y-58772914D02*
X141190238Y-58963390D01*
X141190238Y-58963390D02*
X141190238Y-59344342D01*
X141190238Y-59344342D02*
X141237857Y-59439580D01*
X141237857Y-59439580D02*
X141285476Y-59487200D01*
X141285476Y-59487200D02*
X141380714Y-59534819D01*
X141380714Y-59534819D02*
X141571190Y-59534819D01*
X141571190Y-59534819D02*
X141666428Y-59487200D01*
X141666428Y-59487200D02*
X141714047Y-59439580D01*
X141714047Y-59439580D02*
X141761666Y-59344342D01*
X141761666Y-59344342D02*
X141761666Y-59106247D01*
X141761666Y-59106247D02*
X141714047Y-59011009D01*
X141714047Y-59011009D02*
X141666428Y-58963390D01*
X141666428Y-58963390D02*
X141571190Y-58915771D01*
X141571190Y-58915771D02*
X141380714Y-58915771D01*
X141380714Y-58915771D02*
X141285476Y-58963390D01*
X141285476Y-58963390D02*
X141237857Y-59011009D01*
X141237857Y-59011009D02*
X141190238Y-59106247D01*
X132228333Y-91352080D02*
X132180714Y-91399700D01*
X132180714Y-91399700D02*
X132037857Y-91447319D01*
X132037857Y-91447319D02*
X131942619Y-91447319D01*
X131942619Y-91447319D02*
X131799762Y-91399700D01*
X131799762Y-91399700D02*
X131704524Y-91304461D01*
X131704524Y-91304461D02*
X131656905Y-91209223D01*
X131656905Y-91209223D02*
X131609286Y-91018747D01*
X131609286Y-91018747D02*
X131609286Y-90875890D01*
X131609286Y-90875890D02*
X131656905Y-90685414D01*
X131656905Y-90685414D02*
X131704524Y-90590176D01*
X131704524Y-90590176D02*
X131799762Y-90494938D01*
X131799762Y-90494938D02*
X131942619Y-90447319D01*
X131942619Y-90447319D02*
X132037857Y-90447319D01*
X132037857Y-90447319D02*
X132180714Y-90494938D01*
X132180714Y-90494938D02*
X132228333Y-90542557D01*
X132704524Y-91447319D02*
X132895000Y-91447319D01*
X132895000Y-91447319D02*
X132990238Y-91399700D01*
X132990238Y-91399700D02*
X133037857Y-91352080D01*
X133037857Y-91352080D02*
X133133095Y-91209223D01*
X133133095Y-91209223D02*
X133180714Y-91018747D01*
X133180714Y-91018747D02*
X133180714Y-90637795D01*
X133180714Y-90637795D02*
X133133095Y-90542557D01*
X133133095Y-90542557D02*
X133085476Y-90494938D01*
X133085476Y-90494938D02*
X132990238Y-90447319D01*
X132990238Y-90447319D02*
X132799762Y-90447319D01*
X132799762Y-90447319D02*
X132704524Y-90494938D01*
X132704524Y-90494938D02*
X132656905Y-90542557D01*
X132656905Y-90542557D02*
X132609286Y-90637795D01*
X132609286Y-90637795D02*
X132609286Y-90875890D01*
X132609286Y-90875890D02*
X132656905Y-90971128D01*
X132656905Y-90971128D02*
X132704524Y-91018747D01*
X132704524Y-91018747D02*
X132799762Y-91066366D01*
X132799762Y-91066366D02*
X132990238Y-91066366D01*
X132990238Y-91066366D02*
X133085476Y-91018747D01*
X133085476Y-91018747D02*
X133133095Y-90971128D01*
X133133095Y-90971128D02*
X133180714Y-90875890D01*
X99549819Y-69661904D02*
X100359342Y-69661904D01*
X100359342Y-69661904D02*
X100454580Y-69614285D01*
X100454580Y-69614285D02*
X100502200Y-69566666D01*
X100502200Y-69566666D02*
X100549819Y-69471428D01*
X100549819Y-69471428D02*
X100549819Y-69280952D01*
X100549819Y-69280952D02*
X100502200Y-69185714D01*
X100502200Y-69185714D02*
X100454580Y-69138095D01*
X100454580Y-69138095D02*
X100359342Y-69090476D01*
X100359342Y-69090476D02*
X99549819Y-69090476D01*
X100549819Y-68090476D02*
X100549819Y-68661904D01*
X100549819Y-68376190D02*
X99549819Y-68376190D01*
X99549819Y-68376190D02*
X99692676Y-68471428D01*
X99692676Y-68471428D02*
X99787914Y-68566666D01*
X99787914Y-68566666D02*
X99835533Y-68661904D01*
X97679580Y-54216666D02*
X97727200Y-54264285D01*
X97727200Y-54264285D02*
X97774819Y-54407142D01*
X97774819Y-54407142D02*
X97774819Y-54502380D01*
X97774819Y-54502380D02*
X97727200Y-54645237D01*
X97727200Y-54645237D02*
X97631961Y-54740475D01*
X97631961Y-54740475D02*
X97536723Y-54788094D01*
X97536723Y-54788094D02*
X97346247Y-54835713D01*
X97346247Y-54835713D02*
X97203390Y-54835713D01*
X97203390Y-54835713D02*
X97012914Y-54788094D01*
X97012914Y-54788094D02*
X96917676Y-54740475D01*
X96917676Y-54740475D02*
X96822438Y-54645237D01*
X96822438Y-54645237D02*
X96774819Y-54502380D01*
X96774819Y-54502380D02*
X96774819Y-54407142D01*
X96774819Y-54407142D02*
X96822438Y-54264285D01*
X96822438Y-54264285D02*
X96870057Y-54216666D01*
X96774819Y-53883332D02*
X96774819Y-53216666D01*
X96774819Y-53216666D02*
X97774819Y-53645237D01*
X87783333Y-53179580D02*
X87735714Y-53227200D01*
X87735714Y-53227200D02*
X87592857Y-53274819D01*
X87592857Y-53274819D02*
X87497619Y-53274819D01*
X87497619Y-53274819D02*
X87354762Y-53227200D01*
X87354762Y-53227200D02*
X87259524Y-53131961D01*
X87259524Y-53131961D02*
X87211905Y-53036723D01*
X87211905Y-53036723D02*
X87164286Y-52846247D01*
X87164286Y-52846247D02*
X87164286Y-52703390D01*
X87164286Y-52703390D02*
X87211905Y-52512914D01*
X87211905Y-52512914D02*
X87259524Y-52417676D01*
X87259524Y-52417676D02*
X87354762Y-52322438D01*
X87354762Y-52322438D02*
X87497619Y-52274819D01*
X87497619Y-52274819D02*
X87592857Y-52274819D01*
X87592857Y-52274819D02*
X87735714Y-52322438D01*
X87735714Y-52322438D02*
X87783333Y-52370057D01*
X88354762Y-52703390D02*
X88259524Y-52655771D01*
X88259524Y-52655771D02*
X88211905Y-52608152D01*
X88211905Y-52608152D02*
X88164286Y-52512914D01*
X88164286Y-52512914D02*
X88164286Y-52465295D01*
X88164286Y-52465295D02*
X88211905Y-52370057D01*
X88211905Y-52370057D02*
X88259524Y-52322438D01*
X88259524Y-52322438D02*
X88354762Y-52274819D01*
X88354762Y-52274819D02*
X88545238Y-52274819D01*
X88545238Y-52274819D02*
X88640476Y-52322438D01*
X88640476Y-52322438D02*
X88688095Y-52370057D01*
X88688095Y-52370057D02*
X88735714Y-52465295D01*
X88735714Y-52465295D02*
X88735714Y-52512914D01*
X88735714Y-52512914D02*
X88688095Y-52608152D01*
X88688095Y-52608152D02*
X88640476Y-52655771D01*
X88640476Y-52655771D02*
X88545238Y-52703390D01*
X88545238Y-52703390D02*
X88354762Y-52703390D01*
X88354762Y-52703390D02*
X88259524Y-52751009D01*
X88259524Y-52751009D02*
X88211905Y-52798628D01*
X88211905Y-52798628D02*
X88164286Y-52893866D01*
X88164286Y-52893866D02*
X88164286Y-53084342D01*
X88164286Y-53084342D02*
X88211905Y-53179580D01*
X88211905Y-53179580D02*
X88259524Y-53227200D01*
X88259524Y-53227200D02*
X88354762Y-53274819D01*
X88354762Y-53274819D02*
X88545238Y-53274819D01*
X88545238Y-53274819D02*
X88640476Y-53227200D01*
X88640476Y-53227200D02*
X88688095Y-53179580D01*
X88688095Y-53179580D02*
X88735714Y-53084342D01*
X88735714Y-53084342D02*
X88735714Y-52893866D01*
X88735714Y-52893866D02*
X88688095Y-52798628D01*
X88688095Y-52798628D02*
X88640476Y-52751009D01*
X88640476Y-52751009D02*
X88545238Y-52703390D01*
X140761666Y-106534819D02*
X140761666Y-107249104D01*
X140761666Y-107249104D02*
X140714047Y-107391961D01*
X140714047Y-107391961D02*
X140618809Y-107487200D01*
X140618809Y-107487200D02*
X140475952Y-107534819D01*
X140475952Y-107534819D02*
X140380714Y-107534819D01*
X141142619Y-106534819D02*
X141809285Y-106534819D01*
X141809285Y-106534819D02*
X141380714Y-107534819D01*
X108833333Y-88179580D02*
X108785714Y-88227200D01*
X108785714Y-88227200D02*
X108642857Y-88274819D01*
X108642857Y-88274819D02*
X108547619Y-88274819D01*
X108547619Y-88274819D02*
X108404762Y-88227200D01*
X108404762Y-88227200D02*
X108309524Y-88131961D01*
X108309524Y-88131961D02*
X108261905Y-88036723D01*
X108261905Y-88036723D02*
X108214286Y-87846247D01*
X108214286Y-87846247D02*
X108214286Y-87703390D01*
X108214286Y-87703390D02*
X108261905Y-87512914D01*
X108261905Y-87512914D02*
X108309524Y-87417676D01*
X108309524Y-87417676D02*
X108404762Y-87322438D01*
X108404762Y-87322438D02*
X108547619Y-87274819D01*
X108547619Y-87274819D02*
X108642857Y-87274819D01*
X108642857Y-87274819D02*
X108785714Y-87322438D01*
X108785714Y-87322438D02*
X108833333Y-87370057D01*
X109214286Y-87370057D02*
X109261905Y-87322438D01*
X109261905Y-87322438D02*
X109357143Y-87274819D01*
X109357143Y-87274819D02*
X109595238Y-87274819D01*
X109595238Y-87274819D02*
X109690476Y-87322438D01*
X109690476Y-87322438D02*
X109738095Y-87370057D01*
X109738095Y-87370057D02*
X109785714Y-87465295D01*
X109785714Y-87465295D02*
X109785714Y-87560533D01*
X109785714Y-87560533D02*
X109738095Y-87703390D01*
X109738095Y-87703390D02*
X109166667Y-88274819D01*
X109166667Y-88274819D02*
X109785714Y-88274819D01*
X110261666Y-115629819D02*
X110261666Y-116344104D01*
X110261666Y-116344104D02*
X110214047Y-116486961D01*
X110214047Y-116486961D02*
X110118809Y-116582200D01*
X110118809Y-116582200D02*
X109975952Y-116629819D01*
X109975952Y-116629819D02*
X109880714Y-116629819D01*
X110642619Y-115629819D02*
X111261666Y-115629819D01*
X111261666Y-115629819D02*
X110928333Y-116010771D01*
X110928333Y-116010771D02*
X111071190Y-116010771D01*
X111071190Y-116010771D02*
X111166428Y-116058390D01*
X111166428Y-116058390D02*
X111214047Y-116106009D01*
X111214047Y-116106009D02*
X111261666Y-116201247D01*
X111261666Y-116201247D02*
X111261666Y-116439342D01*
X111261666Y-116439342D02*
X111214047Y-116534580D01*
X111214047Y-116534580D02*
X111166428Y-116582200D01*
X111166428Y-116582200D02*
X111071190Y-116629819D01*
X111071190Y-116629819D02*
X110785476Y-116629819D01*
X110785476Y-116629819D02*
X110690238Y-116582200D01*
X110690238Y-116582200D02*
X110642619Y-116534580D01*
X108833333Y-91679580D02*
X108785714Y-91727200D01*
X108785714Y-91727200D02*
X108642857Y-91774819D01*
X108642857Y-91774819D02*
X108547619Y-91774819D01*
X108547619Y-91774819D02*
X108404762Y-91727200D01*
X108404762Y-91727200D02*
X108309524Y-91631961D01*
X108309524Y-91631961D02*
X108261905Y-91536723D01*
X108261905Y-91536723D02*
X108214286Y-91346247D01*
X108214286Y-91346247D02*
X108214286Y-91203390D01*
X108214286Y-91203390D02*
X108261905Y-91012914D01*
X108261905Y-91012914D02*
X108309524Y-90917676D01*
X108309524Y-90917676D02*
X108404762Y-90822438D01*
X108404762Y-90822438D02*
X108547619Y-90774819D01*
X108547619Y-90774819D02*
X108642857Y-90774819D01*
X108642857Y-90774819D02*
X108785714Y-90822438D01*
X108785714Y-90822438D02*
X108833333Y-90870057D01*
X109166667Y-90774819D02*
X109785714Y-90774819D01*
X109785714Y-90774819D02*
X109452381Y-91155771D01*
X109452381Y-91155771D02*
X109595238Y-91155771D01*
X109595238Y-91155771D02*
X109690476Y-91203390D01*
X109690476Y-91203390D02*
X109738095Y-91251009D01*
X109738095Y-91251009D02*
X109785714Y-91346247D01*
X109785714Y-91346247D02*
X109785714Y-91584342D01*
X109785714Y-91584342D02*
X109738095Y-91679580D01*
X109738095Y-91679580D02*
X109690476Y-91727200D01*
X109690476Y-91727200D02*
X109595238Y-91774819D01*
X109595238Y-91774819D02*
X109309524Y-91774819D01*
X109309524Y-91774819D02*
X109214286Y-91727200D01*
X109214286Y-91727200D02*
X109166667Y-91679580D01*
X79761666Y-106534819D02*
X79761666Y-107249104D01*
X79761666Y-107249104D02*
X79714047Y-107391961D01*
X79714047Y-107391961D02*
X79618809Y-107487200D01*
X79618809Y-107487200D02*
X79475952Y-107534819D01*
X79475952Y-107534819D02*
X79380714Y-107534819D01*
X80714047Y-106534819D02*
X80237857Y-106534819D01*
X80237857Y-106534819D02*
X80190238Y-107011009D01*
X80190238Y-107011009D02*
X80237857Y-106963390D01*
X80237857Y-106963390D02*
X80333095Y-106915771D01*
X80333095Y-106915771D02*
X80571190Y-106915771D01*
X80571190Y-106915771D02*
X80666428Y-106963390D01*
X80666428Y-106963390D02*
X80714047Y-107011009D01*
X80714047Y-107011009D02*
X80761666Y-107106247D01*
X80761666Y-107106247D02*
X80761666Y-107344342D01*
X80761666Y-107344342D02*
X80714047Y-107439580D01*
X80714047Y-107439580D02*
X80666428Y-107487200D01*
X80666428Y-107487200D02*
X80571190Y-107534819D01*
X80571190Y-107534819D02*
X80333095Y-107534819D01*
X80333095Y-107534819D02*
X80237857Y-107487200D01*
X80237857Y-107487200D02*
X80190238Y-107439580D01*
X116813095Y-102719819D02*
X116813095Y-103529342D01*
X116813095Y-103529342D02*
X116860714Y-103624580D01*
X116860714Y-103624580D02*
X116908333Y-103672200D01*
X116908333Y-103672200D02*
X117003571Y-103719819D01*
X117003571Y-103719819D02*
X117194047Y-103719819D01*
X117194047Y-103719819D02*
X117289285Y-103672200D01*
X117289285Y-103672200D02*
X117336904Y-103624580D01*
X117336904Y-103624580D02*
X117384523Y-103529342D01*
X117384523Y-103529342D02*
X117384523Y-102719819D01*
X118289285Y-102719819D02*
X118098809Y-102719819D01*
X118098809Y-102719819D02*
X118003571Y-102767438D01*
X118003571Y-102767438D02*
X117955952Y-102815057D01*
X117955952Y-102815057D02*
X117860714Y-102957914D01*
X117860714Y-102957914D02*
X117813095Y-103148390D01*
X117813095Y-103148390D02*
X117813095Y-103529342D01*
X117813095Y-103529342D02*
X117860714Y-103624580D01*
X117860714Y-103624580D02*
X117908333Y-103672200D01*
X117908333Y-103672200D02*
X118003571Y-103719819D01*
X118003571Y-103719819D02*
X118194047Y-103719819D01*
X118194047Y-103719819D02*
X118289285Y-103672200D01*
X118289285Y-103672200D02*
X118336904Y-103624580D01*
X118336904Y-103624580D02*
X118384523Y-103529342D01*
X118384523Y-103529342D02*
X118384523Y-103291247D01*
X118384523Y-103291247D02*
X118336904Y-103196009D01*
X118336904Y-103196009D02*
X118289285Y-103148390D01*
X118289285Y-103148390D02*
X118194047Y-103100771D01*
X118194047Y-103100771D02*
X118003571Y-103100771D01*
X118003571Y-103100771D02*
X117908333Y-103148390D01*
X117908333Y-103148390D02*
X117860714Y-103196009D01*
X117860714Y-103196009D02*
X117813095Y-103291247D01*
X91659580Y-54216666D02*
X91707200Y-54264285D01*
X91707200Y-54264285D02*
X91754819Y-54407142D01*
X91754819Y-54407142D02*
X91754819Y-54502380D01*
X91754819Y-54502380D02*
X91707200Y-54645237D01*
X91707200Y-54645237D02*
X91611961Y-54740475D01*
X91611961Y-54740475D02*
X91516723Y-54788094D01*
X91516723Y-54788094D02*
X91326247Y-54835713D01*
X91326247Y-54835713D02*
X91183390Y-54835713D01*
X91183390Y-54835713D02*
X90992914Y-54788094D01*
X90992914Y-54788094D02*
X90897676Y-54740475D01*
X90897676Y-54740475D02*
X90802438Y-54645237D01*
X90802438Y-54645237D02*
X90754819Y-54502380D01*
X90754819Y-54502380D02*
X90754819Y-54407142D01*
X90754819Y-54407142D02*
X90802438Y-54264285D01*
X90802438Y-54264285D02*
X90850057Y-54216666D01*
X90754819Y-53311904D02*
X90754819Y-53788094D01*
X90754819Y-53788094D02*
X91231009Y-53835713D01*
X91231009Y-53835713D02*
X91183390Y-53788094D01*
X91183390Y-53788094D02*
X91135771Y-53692856D01*
X91135771Y-53692856D02*
X91135771Y-53454761D01*
X91135771Y-53454761D02*
X91183390Y-53359523D01*
X91183390Y-53359523D02*
X91231009Y-53311904D01*
X91231009Y-53311904D02*
X91326247Y-53264285D01*
X91326247Y-53264285D02*
X91564342Y-53264285D01*
X91564342Y-53264285D02*
X91659580Y-53311904D01*
X91659580Y-53311904D02*
X91707200Y-53359523D01*
X91707200Y-53359523D02*
X91754819Y-53454761D01*
X91754819Y-53454761D02*
X91754819Y-53692856D01*
X91754819Y-53692856D02*
X91707200Y-53788094D01*
X91707200Y-53788094D02*
X91659580Y-53835713D01*
X122434442Y-73109580D02*
X122386823Y-73157200D01*
X122386823Y-73157200D02*
X122243966Y-73204819D01*
X122243966Y-73204819D02*
X122148728Y-73204819D01*
X122148728Y-73204819D02*
X122005871Y-73157200D01*
X122005871Y-73157200D02*
X121910633Y-73061961D01*
X121910633Y-73061961D02*
X121863014Y-72966723D01*
X121863014Y-72966723D02*
X121815395Y-72776247D01*
X121815395Y-72776247D02*
X121815395Y-72633390D01*
X121815395Y-72633390D02*
X121863014Y-72442914D01*
X121863014Y-72442914D02*
X121910633Y-72347676D01*
X121910633Y-72347676D02*
X122005871Y-72252438D01*
X122005871Y-72252438D02*
X122148728Y-72204819D01*
X122148728Y-72204819D02*
X122243966Y-72204819D01*
X122243966Y-72204819D02*
X122386823Y-72252438D01*
X122386823Y-72252438D02*
X122434442Y-72300057D01*
X123386823Y-73204819D02*
X122815395Y-73204819D01*
X123101109Y-73204819D02*
X123101109Y-72204819D01*
X123101109Y-72204819D02*
X123005871Y-72347676D01*
X123005871Y-72347676D02*
X122910633Y-72442914D01*
X122910633Y-72442914D02*
X122815395Y-72490533D01*
X123720157Y-72204819D02*
X124339204Y-72204819D01*
X124339204Y-72204819D02*
X124005871Y-72585771D01*
X124005871Y-72585771D02*
X124148728Y-72585771D01*
X124148728Y-72585771D02*
X124243966Y-72633390D01*
X124243966Y-72633390D02*
X124291585Y-72681009D01*
X124291585Y-72681009D02*
X124339204Y-72776247D01*
X124339204Y-72776247D02*
X124339204Y-73014342D01*
X124339204Y-73014342D02*
X124291585Y-73109580D01*
X124291585Y-73109580D02*
X124243966Y-73157200D01*
X124243966Y-73157200D02*
X124148728Y-73204819D01*
X124148728Y-73204819D02*
X123863014Y-73204819D01*
X123863014Y-73204819D02*
X123767776Y-73157200D01*
X123767776Y-73157200D02*
X123720157Y-73109580D01*
X112833333Y-95179580D02*
X112785714Y-95227200D01*
X112785714Y-95227200D02*
X112642857Y-95274819D01*
X112642857Y-95274819D02*
X112547619Y-95274819D01*
X112547619Y-95274819D02*
X112404762Y-95227200D01*
X112404762Y-95227200D02*
X112309524Y-95131961D01*
X112309524Y-95131961D02*
X112261905Y-95036723D01*
X112261905Y-95036723D02*
X112214286Y-94846247D01*
X112214286Y-94846247D02*
X112214286Y-94703390D01*
X112214286Y-94703390D02*
X112261905Y-94512914D01*
X112261905Y-94512914D02*
X112309524Y-94417676D01*
X112309524Y-94417676D02*
X112404762Y-94322438D01*
X112404762Y-94322438D02*
X112547619Y-94274819D01*
X112547619Y-94274819D02*
X112642857Y-94274819D01*
X112642857Y-94274819D02*
X112785714Y-94322438D01*
X112785714Y-94322438D02*
X112833333Y-94370057D01*
X113785714Y-95274819D02*
X113214286Y-95274819D01*
X113500000Y-95274819D02*
X113500000Y-94274819D01*
X113500000Y-94274819D02*
X113404762Y-94417676D01*
X113404762Y-94417676D02*
X113309524Y-94512914D01*
X113309524Y-94512914D02*
X113214286Y-94560533D01*
X94304819Y-61666666D02*
X93828628Y-61999999D01*
X94304819Y-62238094D02*
X93304819Y-62238094D01*
X93304819Y-62238094D02*
X93304819Y-61857142D01*
X93304819Y-61857142D02*
X93352438Y-61761904D01*
X93352438Y-61761904D02*
X93400057Y-61714285D01*
X93400057Y-61714285D02*
X93495295Y-61666666D01*
X93495295Y-61666666D02*
X93638152Y-61666666D01*
X93638152Y-61666666D02*
X93733390Y-61714285D01*
X93733390Y-61714285D02*
X93781009Y-61761904D01*
X93781009Y-61761904D02*
X93828628Y-61857142D01*
X93828628Y-61857142D02*
X93828628Y-62238094D01*
X94304819Y-60714285D02*
X94304819Y-61285713D01*
X94304819Y-60999999D02*
X93304819Y-60999999D01*
X93304819Y-60999999D02*
X93447676Y-61095237D01*
X93447676Y-61095237D02*
X93542914Y-61190475D01*
X93542914Y-61190475D02*
X93590533Y-61285713D01*
X105949819Y-120142857D02*
X105473628Y-120476190D01*
X105949819Y-120714285D02*
X104949819Y-120714285D01*
X104949819Y-120714285D02*
X104949819Y-120333333D01*
X104949819Y-120333333D02*
X104997438Y-120238095D01*
X104997438Y-120238095D02*
X105045057Y-120190476D01*
X105045057Y-120190476D02*
X105140295Y-120142857D01*
X105140295Y-120142857D02*
X105283152Y-120142857D01*
X105283152Y-120142857D02*
X105378390Y-120190476D01*
X105378390Y-120190476D02*
X105426009Y-120238095D01*
X105426009Y-120238095D02*
X105473628Y-120333333D01*
X105473628Y-120333333D02*
X105473628Y-120714285D01*
X105949819Y-119190476D02*
X105949819Y-119761904D01*
X105949819Y-119476190D02*
X104949819Y-119476190D01*
X104949819Y-119476190D02*
X105092676Y-119571428D01*
X105092676Y-119571428D02*
X105187914Y-119666666D01*
X105187914Y-119666666D02*
X105235533Y-119761904D01*
X104949819Y-118285714D02*
X104949819Y-118761904D01*
X104949819Y-118761904D02*
X105426009Y-118809523D01*
X105426009Y-118809523D02*
X105378390Y-118761904D01*
X105378390Y-118761904D02*
X105330771Y-118666666D01*
X105330771Y-118666666D02*
X105330771Y-118428571D01*
X105330771Y-118428571D02*
X105378390Y-118333333D01*
X105378390Y-118333333D02*
X105426009Y-118285714D01*
X105426009Y-118285714D02*
X105521247Y-118238095D01*
X105521247Y-118238095D02*
X105759342Y-118238095D01*
X105759342Y-118238095D02*
X105854580Y-118285714D01*
X105854580Y-118285714D02*
X105902200Y-118333333D01*
X105902200Y-118333333D02*
X105949819Y-118428571D01*
X105949819Y-118428571D02*
X105949819Y-118666666D01*
X105949819Y-118666666D02*
X105902200Y-118761904D01*
X105902200Y-118761904D02*
X105854580Y-118809523D01*
X79761666Y-58534819D02*
X79761666Y-59249104D01*
X79761666Y-59249104D02*
X79714047Y-59391961D01*
X79714047Y-59391961D02*
X79618809Y-59487200D01*
X79618809Y-59487200D02*
X79475952Y-59534819D01*
X79475952Y-59534819D02*
X79380714Y-59534819D01*
X80190238Y-58630057D02*
X80237857Y-58582438D01*
X80237857Y-58582438D02*
X80333095Y-58534819D01*
X80333095Y-58534819D02*
X80571190Y-58534819D01*
X80571190Y-58534819D02*
X80666428Y-58582438D01*
X80666428Y-58582438D02*
X80714047Y-58630057D01*
X80714047Y-58630057D02*
X80761666Y-58725295D01*
X80761666Y-58725295D02*
X80761666Y-58820533D01*
X80761666Y-58820533D02*
X80714047Y-58963390D01*
X80714047Y-58963390D02*
X80142619Y-59534819D01*
X80142619Y-59534819D02*
X80761666Y-59534819D01*
X119449819Y-120142857D02*
X118973628Y-120476190D01*
X119449819Y-120714285D02*
X118449819Y-120714285D01*
X118449819Y-120714285D02*
X118449819Y-120333333D01*
X118449819Y-120333333D02*
X118497438Y-120238095D01*
X118497438Y-120238095D02*
X118545057Y-120190476D01*
X118545057Y-120190476D02*
X118640295Y-120142857D01*
X118640295Y-120142857D02*
X118783152Y-120142857D01*
X118783152Y-120142857D02*
X118878390Y-120190476D01*
X118878390Y-120190476D02*
X118926009Y-120238095D01*
X118926009Y-120238095D02*
X118973628Y-120333333D01*
X118973628Y-120333333D02*
X118973628Y-120714285D01*
X119449819Y-119190476D02*
X119449819Y-119761904D01*
X119449819Y-119476190D02*
X118449819Y-119476190D01*
X118449819Y-119476190D02*
X118592676Y-119571428D01*
X118592676Y-119571428D02*
X118687914Y-119666666D01*
X118687914Y-119666666D02*
X118735533Y-119761904D01*
X118449819Y-118333333D02*
X118449819Y-118523809D01*
X118449819Y-118523809D02*
X118497438Y-118619047D01*
X118497438Y-118619047D02*
X118545057Y-118666666D01*
X118545057Y-118666666D02*
X118687914Y-118761904D01*
X118687914Y-118761904D02*
X118878390Y-118809523D01*
X118878390Y-118809523D02*
X119259342Y-118809523D01*
X119259342Y-118809523D02*
X119354580Y-118761904D01*
X119354580Y-118761904D02*
X119402200Y-118714285D01*
X119402200Y-118714285D02*
X119449819Y-118619047D01*
X119449819Y-118619047D02*
X119449819Y-118428571D01*
X119449819Y-118428571D02*
X119402200Y-118333333D01*
X119402200Y-118333333D02*
X119354580Y-118285714D01*
X119354580Y-118285714D02*
X119259342Y-118238095D01*
X119259342Y-118238095D02*
X119021247Y-118238095D01*
X119021247Y-118238095D02*
X118926009Y-118285714D01*
X118926009Y-118285714D02*
X118878390Y-118333333D01*
X118878390Y-118333333D02*
X118830771Y-118428571D01*
X118830771Y-118428571D02*
X118830771Y-118619047D01*
X118830771Y-118619047D02*
X118878390Y-118714285D01*
X118878390Y-118714285D02*
X118926009Y-118761904D01*
X118926009Y-118761904D02*
X119021247Y-118809523D01*
X88352142Y-91362080D02*
X88304523Y-91409700D01*
X88304523Y-91409700D02*
X88161666Y-91457319D01*
X88161666Y-91457319D02*
X88066428Y-91457319D01*
X88066428Y-91457319D02*
X87923571Y-91409700D01*
X87923571Y-91409700D02*
X87828333Y-91314461D01*
X87828333Y-91314461D02*
X87780714Y-91219223D01*
X87780714Y-91219223D02*
X87733095Y-91028747D01*
X87733095Y-91028747D02*
X87733095Y-90885890D01*
X87733095Y-90885890D02*
X87780714Y-90695414D01*
X87780714Y-90695414D02*
X87828333Y-90600176D01*
X87828333Y-90600176D02*
X87923571Y-90504938D01*
X87923571Y-90504938D02*
X88066428Y-90457319D01*
X88066428Y-90457319D02*
X88161666Y-90457319D01*
X88161666Y-90457319D02*
X88304523Y-90504938D01*
X88304523Y-90504938D02*
X88352142Y-90552557D01*
X89304523Y-91457319D02*
X88733095Y-91457319D01*
X89018809Y-91457319D02*
X89018809Y-90457319D01*
X89018809Y-90457319D02*
X88923571Y-90600176D01*
X88923571Y-90600176D02*
X88828333Y-90695414D01*
X88828333Y-90695414D02*
X88733095Y-90743033D01*
X89923571Y-90457319D02*
X90018809Y-90457319D01*
X90018809Y-90457319D02*
X90114047Y-90504938D01*
X90114047Y-90504938D02*
X90161666Y-90552557D01*
X90161666Y-90552557D02*
X90209285Y-90647795D01*
X90209285Y-90647795D02*
X90256904Y-90838271D01*
X90256904Y-90838271D02*
X90256904Y-91076366D01*
X90256904Y-91076366D02*
X90209285Y-91266842D01*
X90209285Y-91266842D02*
X90161666Y-91362080D01*
X90161666Y-91362080D02*
X90114047Y-91409700D01*
X90114047Y-91409700D02*
X90018809Y-91457319D01*
X90018809Y-91457319D02*
X89923571Y-91457319D01*
X89923571Y-91457319D02*
X89828333Y-91409700D01*
X89828333Y-91409700D02*
X89780714Y-91362080D01*
X89780714Y-91362080D02*
X89733095Y-91266842D01*
X89733095Y-91266842D02*
X89685476Y-91076366D01*
X89685476Y-91076366D02*
X89685476Y-90838271D01*
X89685476Y-90838271D02*
X89733095Y-90647795D01*
X89733095Y-90647795D02*
X89780714Y-90552557D01*
X89780714Y-90552557D02*
X89828333Y-90504938D01*
X89828333Y-90504938D02*
X89923571Y-90457319D01*
X112238095Y-90379819D02*
X112238095Y-91189342D01*
X112238095Y-91189342D02*
X112285714Y-91284580D01*
X112285714Y-91284580D02*
X112333333Y-91332200D01*
X112333333Y-91332200D02*
X112428571Y-91379819D01*
X112428571Y-91379819D02*
X112619047Y-91379819D01*
X112619047Y-91379819D02*
X112714285Y-91332200D01*
X112714285Y-91332200D02*
X112761904Y-91284580D01*
X112761904Y-91284580D02*
X112809523Y-91189342D01*
X112809523Y-91189342D02*
X112809523Y-90379819D01*
X113238095Y-90475057D02*
X113285714Y-90427438D01*
X113285714Y-90427438D02*
X113380952Y-90379819D01*
X113380952Y-90379819D02*
X113619047Y-90379819D01*
X113619047Y-90379819D02*
X113714285Y-90427438D01*
X113714285Y-90427438D02*
X113761904Y-90475057D01*
X113761904Y-90475057D02*
X113809523Y-90570295D01*
X113809523Y-90570295D02*
X113809523Y-90665533D01*
X113809523Y-90665533D02*
X113761904Y-90808390D01*
X113761904Y-90808390D02*
X113190476Y-91379819D01*
X113190476Y-91379819D02*
X113809523Y-91379819D01*
X93835795Y-86075319D02*
X93835795Y-86884842D01*
X93835795Y-86884842D02*
X93883414Y-86980080D01*
X93883414Y-86980080D02*
X93931033Y-87027700D01*
X93931033Y-87027700D02*
X94026271Y-87075319D01*
X94026271Y-87075319D02*
X94216747Y-87075319D01*
X94216747Y-87075319D02*
X94311985Y-87027700D01*
X94311985Y-87027700D02*
X94359604Y-86980080D01*
X94359604Y-86980080D02*
X94407223Y-86884842D01*
X94407223Y-86884842D02*
X94407223Y-86075319D01*
X94788176Y-86075319D02*
X95407223Y-86075319D01*
X95407223Y-86075319D02*
X95073890Y-86456271D01*
X95073890Y-86456271D02*
X95216747Y-86456271D01*
X95216747Y-86456271D02*
X95311985Y-86503890D01*
X95311985Y-86503890D02*
X95359604Y-86551509D01*
X95359604Y-86551509D02*
X95407223Y-86646747D01*
X95407223Y-86646747D02*
X95407223Y-86884842D01*
X95407223Y-86884842D02*
X95359604Y-86980080D01*
X95359604Y-86980080D02*
X95311985Y-87027700D01*
X95311985Y-87027700D02*
X95216747Y-87075319D01*
X95216747Y-87075319D02*
X94931033Y-87075319D01*
X94931033Y-87075319D02*
X94835795Y-87027700D01*
X94835795Y-87027700D02*
X94788176Y-86980080D01*
X119968095Y-86075319D02*
X119968095Y-86884842D01*
X119968095Y-86884842D02*
X120015714Y-86980080D01*
X120015714Y-86980080D02*
X120063333Y-87027700D01*
X120063333Y-87027700D02*
X120158571Y-87075319D01*
X120158571Y-87075319D02*
X120349047Y-87075319D01*
X120349047Y-87075319D02*
X120444285Y-87027700D01*
X120444285Y-87027700D02*
X120491904Y-86980080D01*
X120491904Y-86980080D02*
X120539523Y-86884842D01*
X120539523Y-86884842D02*
X120539523Y-86075319D01*
X121444285Y-86408652D02*
X121444285Y-87075319D01*
X121206190Y-86027700D02*
X120968095Y-86741985D01*
X120968095Y-86741985D02*
X121587142Y-86741985D01*
X88066667Y-66147200D02*
X88209524Y-66194819D01*
X88209524Y-66194819D02*
X88447619Y-66194819D01*
X88447619Y-66194819D02*
X88542857Y-66147200D01*
X88542857Y-66147200D02*
X88590476Y-66099580D01*
X88590476Y-66099580D02*
X88638095Y-66004342D01*
X88638095Y-66004342D02*
X88638095Y-65909104D01*
X88638095Y-65909104D02*
X88590476Y-65813866D01*
X88590476Y-65813866D02*
X88542857Y-65766247D01*
X88542857Y-65766247D02*
X88447619Y-65718628D01*
X88447619Y-65718628D02*
X88257143Y-65671009D01*
X88257143Y-65671009D02*
X88161905Y-65623390D01*
X88161905Y-65623390D02*
X88114286Y-65575771D01*
X88114286Y-65575771D02*
X88066667Y-65480533D01*
X88066667Y-65480533D02*
X88066667Y-65385295D01*
X88066667Y-65385295D02*
X88114286Y-65290057D01*
X88114286Y-65290057D02*
X88161905Y-65242438D01*
X88161905Y-65242438D02*
X88257143Y-65194819D01*
X88257143Y-65194819D02*
X88495238Y-65194819D01*
X88495238Y-65194819D02*
X88638095Y-65242438D01*
X88971429Y-65194819D02*
X89209524Y-66194819D01*
X89209524Y-66194819D02*
X89400000Y-65480533D01*
X89400000Y-65480533D02*
X89590476Y-66194819D01*
X89590476Y-66194819D02*
X89828572Y-65194819D01*
X90685714Y-65194819D02*
X90209524Y-65194819D01*
X90209524Y-65194819D02*
X90161905Y-65671009D01*
X90161905Y-65671009D02*
X90209524Y-65623390D01*
X90209524Y-65623390D02*
X90304762Y-65575771D01*
X90304762Y-65575771D02*
X90542857Y-65575771D01*
X90542857Y-65575771D02*
X90638095Y-65623390D01*
X90638095Y-65623390D02*
X90685714Y-65671009D01*
X90685714Y-65671009D02*
X90733333Y-65766247D01*
X90733333Y-65766247D02*
X90733333Y-66004342D01*
X90733333Y-66004342D02*
X90685714Y-66099580D01*
X90685714Y-66099580D02*
X90638095Y-66147200D01*
X90638095Y-66147200D02*
X90542857Y-66194819D01*
X90542857Y-66194819D02*
X90304762Y-66194819D01*
X90304762Y-66194819D02*
X90209524Y-66147200D01*
X90209524Y-66147200D02*
X90161905Y-66099580D01*
X131752142Y-93872080D02*
X131704523Y-93919700D01*
X131704523Y-93919700D02*
X131561666Y-93967319D01*
X131561666Y-93967319D02*
X131466428Y-93967319D01*
X131466428Y-93967319D02*
X131323571Y-93919700D01*
X131323571Y-93919700D02*
X131228333Y-93824461D01*
X131228333Y-93824461D02*
X131180714Y-93729223D01*
X131180714Y-93729223D02*
X131133095Y-93538747D01*
X131133095Y-93538747D02*
X131133095Y-93395890D01*
X131133095Y-93395890D02*
X131180714Y-93205414D01*
X131180714Y-93205414D02*
X131228333Y-93110176D01*
X131228333Y-93110176D02*
X131323571Y-93014938D01*
X131323571Y-93014938D02*
X131466428Y-92967319D01*
X131466428Y-92967319D02*
X131561666Y-92967319D01*
X131561666Y-92967319D02*
X131704523Y-93014938D01*
X131704523Y-93014938D02*
X131752142Y-93062557D01*
X132704523Y-93967319D02*
X132133095Y-93967319D01*
X132418809Y-93967319D02*
X132418809Y-92967319D01*
X132418809Y-92967319D02*
X132323571Y-93110176D01*
X132323571Y-93110176D02*
X132228333Y-93205414D01*
X132228333Y-93205414D02*
X132133095Y-93253033D01*
X133085476Y-93062557D02*
X133133095Y-93014938D01*
X133133095Y-93014938D02*
X133228333Y-92967319D01*
X133228333Y-92967319D02*
X133466428Y-92967319D01*
X133466428Y-92967319D02*
X133561666Y-93014938D01*
X133561666Y-93014938D02*
X133609285Y-93062557D01*
X133609285Y-93062557D02*
X133656904Y-93157795D01*
X133656904Y-93157795D02*
X133656904Y-93253033D01*
X133656904Y-93253033D02*
X133609285Y-93395890D01*
X133609285Y-93395890D02*
X133037857Y-93967319D01*
X133037857Y-93967319D02*
X133656904Y-93967319D01*
X131666667Y-67147200D02*
X131809524Y-67194819D01*
X131809524Y-67194819D02*
X132047619Y-67194819D01*
X132047619Y-67194819D02*
X132142857Y-67147200D01*
X132142857Y-67147200D02*
X132190476Y-67099580D01*
X132190476Y-67099580D02*
X132238095Y-67004342D01*
X132238095Y-67004342D02*
X132238095Y-66909104D01*
X132238095Y-66909104D02*
X132190476Y-66813866D01*
X132190476Y-66813866D02*
X132142857Y-66766247D01*
X132142857Y-66766247D02*
X132047619Y-66718628D01*
X132047619Y-66718628D02*
X131857143Y-66671009D01*
X131857143Y-66671009D02*
X131761905Y-66623390D01*
X131761905Y-66623390D02*
X131714286Y-66575771D01*
X131714286Y-66575771D02*
X131666667Y-66480533D01*
X131666667Y-66480533D02*
X131666667Y-66385295D01*
X131666667Y-66385295D02*
X131714286Y-66290057D01*
X131714286Y-66290057D02*
X131761905Y-66242438D01*
X131761905Y-66242438D02*
X131857143Y-66194819D01*
X131857143Y-66194819D02*
X132095238Y-66194819D01*
X132095238Y-66194819D02*
X132238095Y-66242438D01*
X132571429Y-66194819D02*
X132809524Y-67194819D01*
X132809524Y-67194819D02*
X133000000Y-66480533D01*
X133000000Y-66480533D02*
X133190476Y-67194819D01*
X133190476Y-67194819D02*
X133428572Y-66194819D01*
X134238095Y-66194819D02*
X134047619Y-66194819D01*
X134047619Y-66194819D02*
X133952381Y-66242438D01*
X133952381Y-66242438D02*
X133904762Y-66290057D01*
X133904762Y-66290057D02*
X133809524Y-66432914D01*
X133809524Y-66432914D02*
X133761905Y-66623390D01*
X133761905Y-66623390D02*
X133761905Y-67004342D01*
X133761905Y-67004342D02*
X133809524Y-67099580D01*
X133809524Y-67099580D02*
X133857143Y-67147200D01*
X133857143Y-67147200D02*
X133952381Y-67194819D01*
X133952381Y-67194819D02*
X134142857Y-67194819D01*
X134142857Y-67194819D02*
X134238095Y-67147200D01*
X134238095Y-67147200D02*
X134285714Y-67099580D01*
X134285714Y-67099580D02*
X134333333Y-67004342D01*
X134333333Y-67004342D02*
X134333333Y-66766247D01*
X134333333Y-66766247D02*
X134285714Y-66671009D01*
X134285714Y-66671009D02*
X134238095Y-66623390D01*
X134238095Y-66623390D02*
X134142857Y-66575771D01*
X134142857Y-66575771D02*
X133952381Y-66575771D01*
X133952381Y-66575771D02*
X133857143Y-66623390D01*
X133857143Y-66623390D02*
X133809524Y-66671009D01*
X133809524Y-66671009D02*
X133761905Y-66766247D01*
X108833333Y-95179580D02*
X108785714Y-95227200D01*
X108785714Y-95227200D02*
X108642857Y-95274819D01*
X108642857Y-95274819D02*
X108547619Y-95274819D01*
X108547619Y-95274819D02*
X108404762Y-95227200D01*
X108404762Y-95227200D02*
X108309524Y-95131961D01*
X108309524Y-95131961D02*
X108261905Y-95036723D01*
X108261905Y-95036723D02*
X108214286Y-94846247D01*
X108214286Y-94846247D02*
X108214286Y-94703390D01*
X108214286Y-94703390D02*
X108261905Y-94512914D01*
X108261905Y-94512914D02*
X108309524Y-94417676D01*
X108309524Y-94417676D02*
X108404762Y-94322438D01*
X108404762Y-94322438D02*
X108547619Y-94274819D01*
X108547619Y-94274819D02*
X108642857Y-94274819D01*
X108642857Y-94274819D02*
X108785714Y-94322438D01*
X108785714Y-94322438D02*
X108833333Y-94370057D01*
X109690476Y-94608152D02*
X109690476Y-95274819D01*
X109452381Y-94227200D02*
X109214286Y-94941485D01*
X109214286Y-94941485D02*
X109833333Y-94941485D01*
X88352142Y-93862080D02*
X88304523Y-93909700D01*
X88304523Y-93909700D02*
X88161666Y-93957319D01*
X88161666Y-93957319D02*
X88066428Y-93957319D01*
X88066428Y-93957319D02*
X87923571Y-93909700D01*
X87923571Y-93909700D02*
X87828333Y-93814461D01*
X87828333Y-93814461D02*
X87780714Y-93719223D01*
X87780714Y-93719223D02*
X87733095Y-93528747D01*
X87733095Y-93528747D02*
X87733095Y-93385890D01*
X87733095Y-93385890D02*
X87780714Y-93195414D01*
X87780714Y-93195414D02*
X87828333Y-93100176D01*
X87828333Y-93100176D02*
X87923571Y-93004938D01*
X87923571Y-93004938D02*
X88066428Y-92957319D01*
X88066428Y-92957319D02*
X88161666Y-92957319D01*
X88161666Y-92957319D02*
X88304523Y-93004938D01*
X88304523Y-93004938D02*
X88352142Y-93052557D01*
X89304523Y-93957319D02*
X88733095Y-93957319D01*
X89018809Y-93957319D02*
X89018809Y-92957319D01*
X89018809Y-92957319D02*
X88923571Y-93100176D01*
X88923571Y-93100176D02*
X88828333Y-93195414D01*
X88828333Y-93195414D02*
X88733095Y-93243033D01*
X90161666Y-93290652D02*
X90161666Y-93957319D01*
X89923571Y-92909700D02*
X89685476Y-93623985D01*
X89685476Y-93623985D02*
X90304523Y-93623985D01*
D11*
%TO.C,SW2*%
X107385000Y-76290000D02*
X107385000Y-76700000D01*
X107385000Y-78300000D02*
X107385000Y-80700000D01*
X107385000Y-82300000D02*
X107385000Y-82710000D01*
X107385000Y-82710000D02*
X113805000Y-82710000D01*
X113805000Y-76290000D02*
X107385000Y-76290000D01*
X113805000Y-76700000D02*
X113805000Y-76290000D01*
X113805000Y-80700000D02*
X113805000Y-78300000D01*
X113805000Y-82710000D02*
X113805000Y-82430000D01*
%TO.C,J1*%
X93845000Y-122880000D02*
X93845000Y-121500000D01*
X95225000Y-122880000D02*
X93845000Y-122880000D01*
X96495000Y-120120000D02*
X99145000Y-120120000D01*
X96495000Y-122880000D02*
X96495000Y-120120000D01*
X96495000Y-122880000D02*
X99145000Y-122880000D01*
X99145000Y-122880000D02*
X99145000Y-120120000D01*
%TO.C,C6*%
X95255000Y-54311252D02*
X95255000Y-53788748D01*
X96725000Y-54311252D02*
X96725000Y-53788748D01*
D12*
%TO.C,SW1*%
X95265700Y-106469400D02*
X95265700Y-113530600D01*
X95265700Y-113530600D02*
X108524500Y-113530600D01*
X108524500Y-106469400D02*
X95265700Y-106469400D01*
X108524500Y-113530600D02*
X108524500Y-106469400D01*
D13*
X110683500Y-110000000D02*
G75*
G02*
X109921500Y-110000000I-381000J0D01*
G01*
X109921500Y-110000000D02*
G75*
G02*
X110683500Y-110000000I381000J0D01*
G01*
D11*
%TO.C,C11*%
X91465354Y-76125000D02*
X92465354Y-76125000D01*
X91965354Y-75625000D02*
X91965354Y-76625000D01*
X96945000Y-73920000D02*
X96945000Y-84080000D01*
X96985000Y-73920000D02*
X96985000Y-84080000D01*
X97025000Y-73921000D02*
X97025000Y-84079000D01*
X97065000Y-73921000D02*
X97065000Y-84079000D01*
X97105000Y-73923000D02*
X97105000Y-84077000D01*
X97145000Y-73924000D02*
X97145000Y-84076000D01*
X97185000Y-73926000D02*
X97185000Y-84074000D01*
X97225000Y-73928000D02*
X97225000Y-84072000D01*
X97265000Y-73930000D02*
X97265000Y-84070000D01*
X97305000Y-73933000D02*
X97305000Y-84067000D01*
X97345000Y-73936000D02*
X97345000Y-84064000D01*
X97385000Y-73939000D02*
X97385000Y-84061000D01*
X97425000Y-73943000D02*
X97425000Y-84057000D01*
X97465000Y-73946000D02*
X97465000Y-84054000D01*
X97505000Y-73951000D02*
X97505000Y-84049000D01*
X97545000Y-73955000D02*
X97545000Y-84045000D01*
X97585000Y-73960000D02*
X97585000Y-84040000D01*
X97625000Y-73965000D02*
X97625000Y-84035000D01*
X97665000Y-73971000D02*
X97665000Y-84029000D01*
X97705000Y-73977000D02*
X97705000Y-84023000D01*
X97745000Y-73983000D02*
X97745000Y-84017000D01*
X97785000Y-73989000D02*
X97785000Y-84011000D01*
X97825000Y-73996000D02*
X97825000Y-84004000D01*
X97865000Y-74003000D02*
X97865000Y-83997000D01*
X97905000Y-74011000D02*
X97905000Y-83989000D01*
X97945000Y-74019000D02*
X97945000Y-83981000D01*
X97985000Y-74027000D02*
X97985000Y-83973000D01*
X98025000Y-74035000D02*
X98025000Y-83965000D01*
X98065000Y-74044000D02*
X98065000Y-83956000D01*
X98105000Y-74053000D02*
X98105000Y-83947000D01*
X98145000Y-74063000D02*
X98145000Y-83937000D01*
X98185000Y-74072000D02*
X98185000Y-83928000D01*
X98225000Y-74083000D02*
X98225000Y-77760000D01*
X98225000Y-80240000D02*
X98225000Y-83917000D01*
X98265000Y-74093000D02*
X98265000Y-77760000D01*
X98265000Y-80240000D02*
X98265000Y-83907000D01*
X98305000Y-74104000D02*
X98305000Y-77760000D01*
X98305000Y-80240000D02*
X98305000Y-83896000D01*
X98345000Y-74115000D02*
X98345000Y-77760000D01*
X98345000Y-80240000D02*
X98345000Y-83885000D01*
X98385000Y-74127000D02*
X98385000Y-77760000D01*
X98385000Y-80240000D02*
X98385000Y-83873000D01*
X98425000Y-74139000D02*
X98425000Y-77760000D01*
X98425000Y-80240000D02*
X98425000Y-83861000D01*
X98465000Y-74151000D02*
X98465000Y-77760000D01*
X98465000Y-80240000D02*
X98465000Y-83849000D01*
X98505000Y-74163000D02*
X98505000Y-77760000D01*
X98505000Y-80240000D02*
X98505000Y-83837000D01*
X98545000Y-74176000D02*
X98545000Y-77760000D01*
X98545000Y-80240000D02*
X98545000Y-83824000D01*
X98585000Y-74190000D02*
X98585000Y-77760000D01*
X98585000Y-80240000D02*
X98585000Y-83810000D01*
X98625000Y-74203000D02*
X98625000Y-77760000D01*
X98625000Y-80240000D02*
X98625000Y-83797000D01*
X98665000Y-74218000D02*
X98665000Y-77760000D01*
X98665000Y-80240000D02*
X98665000Y-83782000D01*
X98705000Y-74232000D02*
X98705000Y-77760000D01*
X98705000Y-80240000D02*
X98705000Y-83768000D01*
X98745000Y-74247000D02*
X98745000Y-77760000D01*
X98745000Y-80240000D02*
X98745000Y-83753000D01*
X98785000Y-74262000D02*
X98785000Y-77760000D01*
X98785000Y-80240000D02*
X98785000Y-83738000D01*
X98825000Y-74278000D02*
X98825000Y-77760000D01*
X98825000Y-80240000D02*
X98825000Y-83722000D01*
X98865000Y-74294000D02*
X98865000Y-77760000D01*
X98865000Y-80240000D02*
X98865000Y-83706000D01*
X98905000Y-74310000D02*
X98905000Y-77760000D01*
X98905000Y-80240000D02*
X98905000Y-83690000D01*
X98945000Y-74327000D02*
X98945000Y-77760000D01*
X98945000Y-80240000D02*
X98945000Y-83673000D01*
X98985000Y-74344000D02*
X98985000Y-77760000D01*
X98985000Y-80240000D02*
X98985000Y-83656000D01*
X99025000Y-74362000D02*
X99025000Y-77760000D01*
X99025000Y-80240000D02*
X99025000Y-83638000D01*
X99065000Y-74380000D02*
X99065000Y-77760000D01*
X99065000Y-80240000D02*
X99065000Y-83620000D01*
X99105000Y-74398000D02*
X99105000Y-77760000D01*
X99105000Y-80240000D02*
X99105000Y-83602000D01*
X99145000Y-74417000D02*
X99145000Y-77760000D01*
X99145000Y-80240000D02*
X99145000Y-83583000D01*
X99185000Y-74436000D02*
X99185000Y-77760000D01*
X99185000Y-80240000D02*
X99185000Y-83564000D01*
X99225000Y-74456000D02*
X99225000Y-77760000D01*
X99225000Y-80240000D02*
X99225000Y-83544000D01*
X99265000Y-74476000D02*
X99265000Y-77760000D01*
X99265000Y-80240000D02*
X99265000Y-83524000D01*
X99305000Y-74496000D02*
X99305000Y-77760000D01*
X99305000Y-80240000D02*
X99305000Y-83504000D01*
X99345000Y-74517000D02*
X99345000Y-77760000D01*
X99345000Y-80240000D02*
X99345000Y-83483000D01*
X99385000Y-74539000D02*
X99385000Y-77760000D01*
X99385000Y-80240000D02*
X99385000Y-83461000D01*
X99425000Y-74561000D02*
X99425000Y-77760000D01*
X99425000Y-80240000D02*
X99425000Y-83439000D01*
X99465000Y-74583000D02*
X99465000Y-77760000D01*
X99465000Y-80240000D02*
X99465000Y-83417000D01*
X99505000Y-74606000D02*
X99505000Y-77760000D01*
X99505000Y-80240000D02*
X99505000Y-83394000D01*
X99545000Y-74629000D02*
X99545000Y-77760000D01*
X99545000Y-80240000D02*
X99545000Y-83371000D01*
X99585000Y-74653000D02*
X99585000Y-77760000D01*
X99585000Y-80240000D02*
X99585000Y-83347000D01*
X99625000Y-74677000D02*
X99625000Y-77760000D01*
X99625000Y-80240000D02*
X99625000Y-83323000D01*
X99665000Y-74702000D02*
X99665000Y-77760000D01*
X99665000Y-80240000D02*
X99665000Y-83298000D01*
X99705000Y-74728000D02*
X99705000Y-77760000D01*
X99705000Y-80240000D02*
X99705000Y-83272000D01*
X99745000Y-74753000D02*
X99745000Y-77760000D01*
X99745000Y-80240000D02*
X99745000Y-83247000D01*
X99785000Y-74780000D02*
X99785000Y-77760000D01*
X99785000Y-80240000D02*
X99785000Y-83220000D01*
X99825000Y-74807000D02*
X99825000Y-77760000D01*
X99825000Y-80240000D02*
X99825000Y-83193000D01*
X99865000Y-74834000D02*
X99865000Y-77760000D01*
X99865000Y-80240000D02*
X99865000Y-83166000D01*
X99905000Y-74862000D02*
X99905000Y-77760000D01*
X99905000Y-80240000D02*
X99905000Y-83138000D01*
X99945000Y-74891000D02*
X99945000Y-77760000D01*
X99945000Y-80240000D02*
X99945000Y-83109000D01*
X99985000Y-74920000D02*
X99985000Y-77760000D01*
X99985000Y-80240000D02*
X99985000Y-83080000D01*
X100025000Y-74950000D02*
X100025000Y-77760000D01*
X100025000Y-80240000D02*
X100025000Y-83050000D01*
X100065000Y-74980000D02*
X100065000Y-77760000D01*
X100065000Y-80240000D02*
X100065000Y-83020000D01*
X100105000Y-75012000D02*
X100105000Y-77760000D01*
X100105000Y-80240000D02*
X100105000Y-82988000D01*
X100145000Y-75043000D02*
X100145000Y-77760000D01*
X100145000Y-80240000D02*
X100145000Y-82957000D01*
X100185000Y-75076000D02*
X100185000Y-77760000D01*
X100185000Y-80240000D02*
X100185000Y-82924000D01*
X100225000Y-75109000D02*
X100225000Y-77760000D01*
X100225000Y-80240000D02*
X100225000Y-82891000D01*
X100265000Y-75142000D02*
X100265000Y-77760000D01*
X100265000Y-80240000D02*
X100265000Y-82858000D01*
X100305000Y-75177000D02*
X100305000Y-77760000D01*
X100305000Y-80240000D02*
X100305000Y-82823000D01*
X100345000Y-75212000D02*
X100345000Y-77760000D01*
X100345000Y-80240000D02*
X100345000Y-82788000D01*
X100385000Y-75248000D02*
X100385000Y-77760000D01*
X100385000Y-80240000D02*
X100385000Y-82752000D01*
X100425000Y-75284000D02*
X100425000Y-77760000D01*
X100425000Y-80240000D02*
X100425000Y-82716000D01*
X100465000Y-75322000D02*
X100465000Y-77760000D01*
X100465000Y-80240000D02*
X100465000Y-82678000D01*
X100505000Y-75360000D02*
X100505000Y-77760000D01*
X100505000Y-80240000D02*
X100505000Y-82640000D01*
X100545000Y-75399000D02*
X100545000Y-77760000D01*
X100545000Y-80240000D02*
X100545000Y-82601000D01*
X100585000Y-75439000D02*
X100585000Y-77760000D01*
X100585000Y-80240000D02*
X100585000Y-82561000D01*
X100625000Y-75480000D02*
X100625000Y-77760000D01*
X100625000Y-80240000D02*
X100625000Y-82520000D01*
X100665000Y-75522000D02*
X100665000Y-77760000D01*
X100665000Y-80240000D02*
X100665000Y-82478000D01*
X100705000Y-75565000D02*
X100705000Y-82435000D01*
X100745000Y-75609000D02*
X100745000Y-82391000D01*
X100785000Y-75653000D02*
X100785000Y-82347000D01*
X100825000Y-75699000D02*
X100825000Y-82301000D01*
X100865000Y-75746000D02*
X100865000Y-82254000D01*
X100905000Y-75795000D02*
X100905000Y-82205000D01*
X100945000Y-75844000D02*
X100945000Y-82156000D01*
X100985000Y-75895000D02*
X100985000Y-82105000D01*
X101025000Y-75947000D02*
X101025000Y-82053000D01*
X101065000Y-76000000D02*
X101065000Y-82000000D01*
X101105000Y-76055000D02*
X101105000Y-81945000D01*
X101145000Y-76112000D02*
X101145000Y-81888000D01*
X101185000Y-76170000D02*
X101185000Y-81830000D01*
X101225000Y-76230000D02*
X101225000Y-81770000D01*
X101265000Y-76292000D02*
X101265000Y-81708000D01*
X101305000Y-76356000D02*
X101305000Y-81644000D01*
X101345000Y-76422000D02*
X101345000Y-81578000D01*
X101385000Y-76490000D02*
X101385000Y-81510000D01*
X101425000Y-76561000D02*
X101425000Y-81439000D01*
X101465000Y-76635000D02*
X101465000Y-81365000D01*
X101505000Y-76712000D02*
X101505000Y-81288000D01*
X101545000Y-76792000D02*
X101545000Y-81208000D01*
X101585000Y-76876000D02*
X101585000Y-81124000D01*
X101625000Y-76963000D02*
X101625000Y-81037000D01*
X101665000Y-77056000D02*
X101665000Y-80944000D01*
X101705000Y-77154000D02*
X101705000Y-80846000D01*
X101745000Y-77258000D02*
X101745000Y-80742000D01*
X101785000Y-77370000D02*
X101785000Y-80630000D01*
X101825000Y-77491000D02*
X101825000Y-80509000D01*
X101865000Y-77623000D02*
X101865000Y-80377000D01*
X101905000Y-77770000D02*
X101905000Y-80230000D01*
X101945000Y-77938000D02*
X101945000Y-80062000D01*
X101985000Y-78138000D02*
X101985000Y-79862000D01*
X102025000Y-78401000D02*
X102025000Y-79599000D01*
X102065000Y-79000000D02*
G75*
G02*
X91825000Y-79000000I-5120000J0D01*
G01*
X91825000Y-79000000D02*
G75*
G02*
X102065000Y-79000000I5120000J0D01*
G01*
%TO.C,J6*%
X139715000Y-60080000D02*
X141095000Y-60080000D01*
X139715000Y-61460000D02*
X139715000Y-60080000D01*
X139715000Y-62730000D02*
X139715000Y-65380000D01*
X139715000Y-62730000D02*
X142475000Y-62730000D01*
X139715000Y-65380000D02*
X142475000Y-65380000D01*
X142475000Y-62730000D02*
X142475000Y-65380000D01*
%TO.C,C9*%
X132133748Y-91937500D02*
X132656252Y-91937500D01*
X132133748Y-93407500D02*
X132656252Y-93407500D01*
%TO.C,U1*%
X101395000Y-44600000D02*
X101395000Y-50800000D01*
X101395000Y-44600000D02*
X119795000Y-44600000D01*
X101395000Y-69450000D02*
X101395000Y-70450000D01*
X101395000Y-70450000D02*
X102895000Y-70450000D01*
X119795000Y-44600000D02*
X119795000Y-50800000D01*
X119795000Y-70450000D02*
X118295000Y-70450000D01*
X119795000Y-70450000D02*
X119795000Y-69450000D01*
X101395000Y-51475000D02*
X100895000Y-51475000D01*
X101395000Y-50975000D01*
X101395000Y-51475000D01*
G36*
X101395000Y-51475000D02*
G01*
X100895000Y-51475000D01*
X101395000Y-50975000D01*
X101395000Y-51475000D01*
G37*
%TO.C,C7*%
X98265000Y-54311252D02*
X98265000Y-53788748D01*
X99735000Y-54311252D02*
X99735000Y-53788748D01*
%TO.C,C8*%
X87688748Y-53765000D02*
X88211252Y-53765000D01*
X87688748Y-55235000D02*
X88211252Y-55235000D01*
%TO.C,J7*%
X139715000Y-108080000D02*
X141095000Y-108080000D01*
X139715000Y-109460000D02*
X139715000Y-108080000D01*
X139715000Y-110730000D02*
X139715000Y-113380000D01*
X139715000Y-110730000D02*
X142475000Y-110730000D01*
X139715000Y-113380000D02*
X142475000Y-113380000D01*
X142475000Y-110730000D02*
X142475000Y-113380000D01*
%TO.C,C2*%
X108738748Y-88765000D02*
X109261252Y-88765000D01*
X108738748Y-90235000D02*
X109261252Y-90235000D01*
%TO.C,J3*%
X106000000Y-120375000D02*
X106000000Y-121275000D01*
X106000000Y-123975000D02*
X106000000Y-126705000D01*
X106000000Y-126705000D02*
X115190000Y-126705000D01*
X106120000Y-117295000D02*
X115070000Y-117295000D01*
X115190000Y-120375000D02*
X115190000Y-121275000D01*
X115190000Y-123975000D02*
X115190000Y-126705000D01*
%TO.C,C3*%
X108738748Y-92265000D02*
X109261252Y-92265000D01*
X108738748Y-93735000D02*
X109261252Y-93735000D01*
%TO.C,J5*%
X78715000Y-108080000D02*
X80095000Y-108080000D01*
X78715000Y-109460000D02*
X78715000Y-108080000D01*
X78715000Y-110730000D02*
X78715000Y-113380000D01*
X78715000Y-110730000D02*
X81475000Y-110730000D01*
X78715000Y-113380000D02*
X81475000Y-113380000D01*
X81475000Y-110730000D02*
X81475000Y-113380000D01*
D14*
%TO.C,U6*%
X120752000Y-104820000D02*
X120752000Y-114980000D01*
X120752000Y-114980000D02*
X123750000Y-114980000D01*
X123750000Y-104820000D02*
X120752000Y-104820000D01*
D15*
X114500000Y-107360000D02*
G75*
G02*
X114300000Y-107360000I-100000J0D01*
G01*
X114300000Y-107360000D02*
G75*
G02*
X114500000Y-107360000I100000J0D01*
G01*
D11*
%TO.C,C5*%
X92245000Y-54311252D02*
X92245000Y-53788748D01*
X93715000Y-54311252D02*
X93715000Y-53788748D01*
%TO.C,C13*%
X117597654Y-76125000D02*
X118597654Y-76125000D01*
X118097654Y-75625000D02*
X118097654Y-76625000D01*
X123077300Y-73920000D02*
X123077300Y-84080000D01*
X123117300Y-73920000D02*
X123117300Y-84080000D01*
X123157300Y-73921000D02*
X123157300Y-84079000D01*
X123197300Y-73921000D02*
X123197300Y-84079000D01*
X123237300Y-73923000D02*
X123237300Y-84077000D01*
X123277300Y-73924000D02*
X123277300Y-84076000D01*
X123317300Y-73926000D02*
X123317300Y-84074000D01*
X123357300Y-73928000D02*
X123357300Y-84072000D01*
X123397300Y-73930000D02*
X123397300Y-84070000D01*
X123437300Y-73933000D02*
X123437300Y-84067000D01*
X123477300Y-73936000D02*
X123477300Y-84064000D01*
X123517300Y-73939000D02*
X123517300Y-84061000D01*
X123557300Y-73943000D02*
X123557300Y-84057000D01*
X123597300Y-73946000D02*
X123597300Y-84054000D01*
X123637300Y-73951000D02*
X123637300Y-84049000D01*
X123677300Y-73955000D02*
X123677300Y-84045000D01*
X123717300Y-73960000D02*
X123717300Y-84040000D01*
X123757300Y-73965000D02*
X123757300Y-84035000D01*
X123797300Y-73971000D02*
X123797300Y-84029000D01*
X123837300Y-73977000D02*
X123837300Y-84023000D01*
X123877300Y-73983000D02*
X123877300Y-84017000D01*
X123917300Y-73989000D02*
X123917300Y-84011000D01*
X123957300Y-73996000D02*
X123957300Y-84004000D01*
X123997300Y-74003000D02*
X123997300Y-83997000D01*
X124037300Y-74011000D02*
X124037300Y-83989000D01*
X124077300Y-74019000D02*
X124077300Y-83981000D01*
X124117300Y-74027000D02*
X124117300Y-83973000D01*
X124157300Y-74035000D02*
X124157300Y-83965000D01*
X124197300Y-74044000D02*
X124197300Y-83956000D01*
X124237300Y-74053000D02*
X124237300Y-83947000D01*
X124277300Y-74063000D02*
X124277300Y-83937000D01*
X124317300Y-74072000D02*
X124317300Y-83928000D01*
X124357300Y-74083000D02*
X124357300Y-77760000D01*
X124357300Y-80240000D02*
X124357300Y-83917000D01*
X124397300Y-74093000D02*
X124397300Y-77760000D01*
X124397300Y-80240000D02*
X124397300Y-83907000D01*
X124437300Y-74104000D02*
X124437300Y-77760000D01*
X124437300Y-80240000D02*
X124437300Y-83896000D01*
X124477300Y-74115000D02*
X124477300Y-77760000D01*
X124477300Y-80240000D02*
X124477300Y-83885000D01*
X124517300Y-74127000D02*
X124517300Y-77760000D01*
X124517300Y-80240000D02*
X124517300Y-83873000D01*
X124557300Y-74139000D02*
X124557300Y-77760000D01*
X124557300Y-80240000D02*
X124557300Y-83861000D01*
X124597300Y-74151000D02*
X124597300Y-77760000D01*
X124597300Y-80240000D02*
X124597300Y-83849000D01*
X124637300Y-74163000D02*
X124637300Y-77760000D01*
X124637300Y-80240000D02*
X124637300Y-83837000D01*
X124677300Y-74176000D02*
X124677300Y-77760000D01*
X124677300Y-80240000D02*
X124677300Y-83824000D01*
X124717300Y-74190000D02*
X124717300Y-77760000D01*
X124717300Y-80240000D02*
X124717300Y-83810000D01*
X124757300Y-74203000D02*
X124757300Y-77760000D01*
X124757300Y-80240000D02*
X124757300Y-83797000D01*
X124797300Y-74218000D02*
X124797300Y-77760000D01*
X124797300Y-80240000D02*
X124797300Y-83782000D01*
X124837300Y-74232000D02*
X124837300Y-77760000D01*
X124837300Y-80240000D02*
X124837300Y-83768000D01*
X124877300Y-74247000D02*
X124877300Y-77760000D01*
X124877300Y-80240000D02*
X124877300Y-83753000D01*
X124917300Y-74262000D02*
X124917300Y-77760000D01*
X124917300Y-80240000D02*
X124917300Y-83738000D01*
X124957300Y-74278000D02*
X124957300Y-77760000D01*
X124957300Y-80240000D02*
X124957300Y-83722000D01*
X124997300Y-74294000D02*
X124997300Y-77760000D01*
X124997300Y-80240000D02*
X124997300Y-83706000D01*
X125037300Y-74310000D02*
X125037300Y-77760000D01*
X125037300Y-80240000D02*
X125037300Y-83690000D01*
X125077300Y-74327000D02*
X125077300Y-77760000D01*
X125077300Y-80240000D02*
X125077300Y-83673000D01*
X125117300Y-74344000D02*
X125117300Y-77760000D01*
X125117300Y-80240000D02*
X125117300Y-83656000D01*
X125157300Y-74362000D02*
X125157300Y-77760000D01*
X125157300Y-80240000D02*
X125157300Y-83638000D01*
X125197300Y-74380000D02*
X125197300Y-77760000D01*
X125197300Y-80240000D02*
X125197300Y-83620000D01*
X125237300Y-74398000D02*
X125237300Y-77760000D01*
X125237300Y-80240000D02*
X125237300Y-83602000D01*
X125277300Y-74417000D02*
X125277300Y-77760000D01*
X125277300Y-80240000D02*
X125277300Y-83583000D01*
X125317300Y-74436000D02*
X125317300Y-77760000D01*
X125317300Y-80240000D02*
X125317300Y-83564000D01*
X125357300Y-74456000D02*
X125357300Y-77760000D01*
X125357300Y-80240000D02*
X125357300Y-83544000D01*
X125397300Y-74476000D02*
X125397300Y-77760000D01*
X125397300Y-80240000D02*
X125397300Y-83524000D01*
X125437300Y-74496000D02*
X125437300Y-77760000D01*
X125437300Y-80240000D02*
X125437300Y-83504000D01*
X125477300Y-74517000D02*
X125477300Y-77760000D01*
X125477300Y-80240000D02*
X125477300Y-83483000D01*
X125517300Y-74539000D02*
X125517300Y-77760000D01*
X125517300Y-80240000D02*
X125517300Y-83461000D01*
X125557300Y-74561000D02*
X125557300Y-77760000D01*
X125557300Y-80240000D02*
X125557300Y-83439000D01*
X125597300Y-74583000D02*
X125597300Y-77760000D01*
X125597300Y-80240000D02*
X125597300Y-83417000D01*
X125637300Y-74606000D02*
X125637300Y-77760000D01*
X125637300Y-80240000D02*
X125637300Y-83394000D01*
X125677300Y-74629000D02*
X125677300Y-77760000D01*
X125677300Y-80240000D02*
X125677300Y-83371000D01*
X125717300Y-74653000D02*
X125717300Y-77760000D01*
X125717300Y-80240000D02*
X125717300Y-83347000D01*
X125757300Y-74677000D02*
X125757300Y-77760000D01*
X125757300Y-80240000D02*
X125757300Y-83323000D01*
X125797300Y-74702000D02*
X125797300Y-77760000D01*
X125797300Y-80240000D02*
X125797300Y-83298000D01*
X125837300Y-74728000D02*
X125837300Y-77760000D01*
X125837300Y-80240000D02*
X125837300Y-83272000D01*
X125877300Y-74753000D02*
X125877300Y-77760000D01*
X125877300Y-80240000D02*
X125877300Y-83247000D01*
X125917300Y-74780000D02*
X125917300Y-77760000D01*
X125917300Y-80240000D02*
X125917300Y-83220000D01*
X125957300Y-74807000D02*
X125957300Y-77760000D01*
X125957300Y-80240000D02*
X125957300Y-83193000D01*
X125997300Y-74834000D02*
X125997300Y-77760000D01*
X125997300Y-80240000D02*
X125997300Y-83166000D01*
X126037300Y-74862000D02*
X126037300Y-77760000D01*
X126037300Y-80240000D02*
X126037300Y-83138000D01*
X126077300Y-74891000D02*
X126077300Y-77760000D01*
X126077300Y-80240000D02*
X126077300Y-83109000D01*
X126117300Y-74920000D02*
X126117300Y-77760000D01*
X126117300Y-80240000D02*
X126117300Y-83080000D01*
X126157300Y-74950000D02*
X126157300Y-77760000D01*
X126157300Y-80240000D02*
X126157300Y-83050000D01*
X126197300Y-74980000D02*
X126197300Y-77760000D01*
X126197300Y-80240000D02*
X126197300Y-83020000D01*
X126237300Y-75012000D02*
X126237300Y-77760000D01*
X126237300Y-80240000D02*
X126237300Y-82988000D01*
X126277300Y-75043000D02*
X126277300Y-77760000D01*
X126277300Y-80240000D02*
X126277300Y-82957000D01*
X126317300Y-75076000D02*
X126317300Y-77760000D01*
X126317300Y-80240000D02*
X126317300Y-82924000D01*
X126357300Y-75109000D02*
X126357300Y-77760000D01*
X126357300Y-80240000D02*
X126357300Y-82891000D01*
X126397300Y-75142000D02*
X126397300Y-77760000D01*
X126397300Y-80240000D02*
X126397300Y-82858000D01*
X126437300Y-75177000D02*
X126437300Y-77760000D01*
X126437300Y-80240000D02*
X126437300Y-82823000D01*
X126477300Y-75212000D02*
X126477300Y-77760000D01*
X126477300Y-80240000D02*
X126477300Y-82788000D01*
X126517300Y-75248000D02*
X126517300Y-77760000D01*
X126517300Y-80240000D02*
X126517300Y-82752000D01*
X126557300Y-75284000D02*
X126557300Y-77760000D01*
X126557300Y-80240000D02*
X126557300Y-82716000D01*
X126597300Y-75322000D02*
X126597300Y-77760000D01*
X126597300Y-80240000D02*
X126597300Y-82678000D01*
X126637300Y-75360000D02*
X126637300Y-77760000D01*
X126637300Y-80240000D02*
X126637300Y-82640000D01*
X126677300Y-75399000D02*
X126677300Y-77760000D01*
X126677300Y-80240000D02*
X126677300Y-82601000D01*
X126717300Y-75439000D02*
X126717300Y-77760000D01*
X126717300Y-80240000D02*
X126717300Y-82561000D01*
X126757300Y-75480000D02*
X126757300Y-77760000D01*
X126757300Y-80240000D02*
X126757300Y-82520000D01*
X126797300Y-75522000D02*
X126797300Y-77760000D01*
X126797300Y-80240000D02*
X126797300Y-82478000D01*
X126837300Y-75565000D02*
X126837300Y-82435000D01*
X126877300Y-75609000D02*
X126877300Y-82391000D01*
X126917300Y-75653000D02*
X126917300Y-82347000D01*
X126957300Y-75699000D02*
X126957300Y-82301000D01*
X126997300Y-75746000D02*
X126997300Y-82254000D01*
X127037300Y-75795000D02*
X127037300Y-82205000D01*
X127077300Y-75844000D02*
X127077300Y-82156000D01*
X127117300Y-75895000D02*
X127117300Y-82105000D01*
X127157300Y-75947000D02*
X127157300Y-82053000D01*
X127197300Y-76000000D02*
X127197300Y-82000000D01*
X127237300Y-76055000D02*
X127237300Y-81945000D01*
X127277300Y-76112000D02*
X127277300Y-81888000D01*
X127317300Y-76170000D02*
X127317300Y-81830000D01*
X127357300Y-76230000D02*
X127357300Y-81770000D01*
X127397300Y-76292000D02*
X127397300Y-81708000D01*
X127437300Y-76356000D02*
X127437300Y-81644000D01*
X127477300Y-76422000D02*
X127477300Y-81578000D01*
X127517300Y-76490000D02*
X127517300Y-81510000D01*
X127557300Y-76561000D02*
X127557300Y-81439000D01*
X127597300Y-76635000D02*
X127597300Y-81365000D01*
X127637300Y-76712000D02*
X127637300Y-81288000D01*
X127677300Y-76792000D02*
X127677300Y-81208000D01*
X127717300Y-76876000D02*
X127717300Y-81124000D01*
X127757300Y-76963000D02*
X127757300Y-81037000D01*
X127797300Y-77056000D02*
X127797300Y-80944000D01*
X127837300Y-77154000D02*
X127837300Y-80846000D01*
X127877300Y-77258000D02*
X127877300Y-80742000D01*
X127917300Y-77370000D02*
X127917300Y-80630000D01*
X127957300Y-77491000D02*
X127957300Y-80509000D01*
X127997300Y-77623000D02*
X127997300Y-80377000D01*
X128037300Y-77770000D02*
X128037300Y-80230000D01*
X128077300Y-77938000D02*
X128077300Y-80062000D01*
X128117300Y-78138000D02*
X128117300Y-79862000D01*
X128157300Y-78401000D02*
X128157300Y-79599000D01*
X128197300Y-79000000D02*
G75*
G02*
X117957300Y-79000000I-5120000J0D01*
G01*
X117957300Y-79000000D02*
G75*
G02*
X128197300Y-79000000I5120000J0D01*
G01*
%TO.C,C1*%
X112738748Y-95765000D02*
X113261252Y-95765000D01*
X112738748Y-97235000D02*
X113261252Y-97235000D01*
%TO.C,R1*%
X94765000Y-61727064D02*
X94765000Y-61272936D01*
X96235000Y-61727064D02*
X96235000Y-61272936D01*
%TO.C,R15*%
X103110000Y-119272936D02*
X103110000Y-119727064D01*
X104580000Y-119272936D02*
X104580000Y-119727064D01*
%TO.C,J2*%
X78715000Y-60080000D02*
X80095000Y-60080000D01*
X78715000Y-61460000D02*
X78715000Y-60080000D01*
X78715000Y-62730000D02*
X78715000Y-65380000D01*
X78715000Y-62730000D02*
X81475000Y-62730000D01*
X78715000Y-65380000D02*
X81475000Y-65380000D01*
X81475000Y-62730000D02*
X81475000Y-65380000D01*
%TO.C,R16*%
X116610000Y-119272936D02*
X116610000Y-119727064D01*
X118080000Y-119272936D02*
X118080000Y-119727064D01*
%TO.C,C10*%
X88733748Y-91947500D02*
X89256252Y-91947500D01*
X88733748Y-93417500D02*
X89256252Y-93417500D01*
%TO.C,U2*%
X111900000Y-91900000D02*
X111900000Y-91900000D01*
X111900000Y-92400000D02*
X111900000Y-92100000D01*
X111900000Y-93600000D02*
X111900000Y-93600000D01*
X111900000Y-94100000D02*
X111900000Y-93600000D01*
X112400000Y-91900000D02*
X112100000Y-91900000D01*
X112400000Y-94100000D02*
X111900000Y-94100000D01*
X113600000Y-91900000D02*
X114100000Y-91900000D01*
X113600000Y-94100000D02*
X113600000Y-94100000D01*
X114100000Y-91900000D02*
X114100000Y-92400000D01*
X114100000Y-92400000D02*
X114100000Y-92400000D01*
X114100000Y-93600000D02*
X114100000Y-94100000D01*
X114100000Y-94100000D02*
X113600000Y-94100000D01*
X111900000Y-91900000D02*
X111540000Y-91900000D01*
X111900000Y-91540000D01*
X111900000Y-91900000D01*
G36*
X111900000Y-91900000D02*
G01*
X111540000Y-91900000D01*
X111900000Y-91540000D01*
X111900000Y-91900000D01*
G37*
D14*
%TO.C,U3*%
X93492700Y-87432500D02*
X101092700Y-87432500D01*
X93492700Y-100432500D02*
X101092700Y-100432500D01*
D15*
X90677700Y-87627500D02*
G75*
G02*
X90477700Y-87627500I-100000J0D01*
G01*
X90477700Y-87627500D02*
G75*
G02*
X90677700Y-87627500I100000J0D01*
G01*
D14*
%TO.C,U4*%
X119625000Y-87432500D02*
X127225000Y-87432500D01*
X119625000Y-100432500D02*
X127225000Y-100432500D01*
D15*
X116810000Y-87627500D02*
G75*
G02*
X116610000Y-87627500I-100000J0D01*
G01*
X116610000Y-87627500D02*
G75*
G02*
X116810000Y-87627500I100000J0D01*
G01*
D11*
%TO.C,SW5*%
X86190000Y-58290000D02*
X86190000Y-58700000D01*
X86190000Y-60300000D02*
X86190000Y-62700000D01*
X86190000Y-64300000D02*
X86190000Y-64710000D01*
X86190000Y-64710000D02*
X92610000Y-64710000D01*
X92610000Y-58290000D02*
X86190000Y-58290000D01*
X92610000Y-58700000D02*
X92610000Y-58290000D01*
X92610000Y-62700000D02*
X92610000Y-60300000D01*
X92610000Y-64710000D02*
X92610000Y-64430000D01*
%TO.C,C12*%
X132133748Y-94457500D02*
X132656252Y-94457500D01*
X132133748Y-95927500D02*
X132656252Y-95927500D01*
%TO.C,SW6*%
X129790000Y-59290000D02*
X129790000Y-59700000D01*
X129790000Y-61300000D02*
X129790000Y-63700000D01*
X129790000Y-65300000D02*
X129790000Y-65710000D01*
X129790000Y-65710000D02*
X136210000Y-65710000D01*
X136210000Y-59290000D02*
X129790000Y-59290000D01*
X136210000Y-59700000D02*
X136210000Y-59290000D01*
X136210000Y-63700000D02*
X136210000Y-61300000D01*
X136210000Y-65710000D02*
X136210000Y-65430000D01*
%TO.C,C4*%
X108738748Y-95765000D02*
X109261252Y-95765000D01*
X108738748Y-97235000D02*
X109261252Y-97235000D01*
%TO.C,C14*%
X88733748Y-94447500D02*
X89256252Y-94447500D01*
X88733748Y-95917500D02*
X89256252Y-95917500D01*
%TD*%
M02*
