M48
; DRILL file {KiCad 9.0.3} date 2025-08-18T21:06:12-0400
; FORMAT={-:-/ absolute / metric / decimal}
; #@! TF.CreationDate,2025-08-18T21:06:12-04:00
; #@! TF.GenerationSoftware,Kicad,Pcbnew,9.0.3
; #@! TF.FileFunction,Plated,1,2,PTH
FMAT,2
METRIC
; #@! TA.AperFunction,Plated,PTH,ComponentDrill
T1C0.200
; #@! TA.AperFunction,Plated,PTH,ViaDrill
T2C0.300
; #@! TA.AperFunction,Plated,PTH,ComponentDrill
T3C0.400
; #@! TA.AperFunction,Plated,PTH,ComponentDrill
T4C0.600
; #@! TA.AperFunction,Plated,PTH,ComponentDrill
T5C1.000
; #@! TA.AperFunction,Plated,PTH,ComponentDrill
T6C1.549
%
G90
G05
T1
X107.695Y-59.26
X107.695Y-60.66
X108.395Y-58.56
X108.395Y-59.96
X108.395Y-61.36
X109.095Y-59.26
X109.095Y-60.66
X109.795Y-58.56
X109.795Y-59.96
X109.795Y-61.36
X110.495Y-59.26
X110.495Y-60.66
T2
X88.01Y-93.932
X91.082Y-104.815
X92.329Y-87.21
X92.723Y-56.538
X94.5Y-94.0
X94.507Y-82.16
X94.835Y-64.806
X95.0Y-88.202
X96.445Y-56.563
X96.5Y-76.5
X96.91Y-99.008
X97.007Y-81.387
X99.794Y-76.375
X99.933Y-99.461
X99.98Y-56.359
X100.0Y-93.5
X102.375Y-87.21
X102.396Y-100.452
X103.228Y-81.271
X103.67Y-53.236
X103.67Y-67.902
X103.857Y-88.845
X103.859Y-93.278
X103.866Y-83.32
X105.156Y-71.395
X106.147Y-96.622
X107.632Y-75.965
X108.0Y-84.0
X108.0Y-121.5
X108.559Y-94.449
X109.132Y-87.636
X109.132Y-91.252
X109.25Y-92.25
X111.0Y-83.0
X111.0Y-90.5
X111.322Y-94.3
X112.929Y-85.062
X114.541Y-90.733
X114.983Y-79.357
X115.987Y-78.969
X116.266Y-87.945
X116.5Y-117.0
X116.898Y-68.258
X117.52Y-67.698
X117.907Y-111.17
X118.452Y-87.21
X121.0Y-53.5
X121.055Y-96.622
X121.055Y-99.515
X123.719Y-73.448
X126.218Y-70.142
X127.59Y-87.21
X127.612Y-100.452
X129.57Y-65.589
X130.549Y-98.59
X131.015Y-91.418
X134.5Y-97.0
X137.0Y-95.5
X141.308Y-93.73
T3
X107.62Y-117.975
X107.62Y-119.325
X108.47Y-117.975
X108.47Y-119.325
X109.32Y-117.975
X109.32Y-119.325
X110.17Y-117.975
X110.17Y-119.325
X111.02Y-117.975
X111.02Y-119.325
X111.87Y-117.975
X111.87Y-119.325
X112.72Y-117.975
X112.72Y-119.325
X113.57Y-117.975
X113.57Y-119.325
T5
X80.095Y-61.46
X80.095Y-64.0
X80.095Y-109.46
X80.095Y-112.0
X94.445Y-79.0
X95.225Y-121.5
X97.765Y-121.5
X99.445Y-79.0
X120.577Y-79.0
X125.577Y-79.0
X141.095Y-61.46
X141.095Y-64.0
X141.095Y-109.46
X141.095Y-112.0
T6
X97.196Y-110.0
X101.895Y-110.0
X106.594Y-110.0
T4
X106.27Y-118.205G85X106.27Y-119.705
G05
X106.27Y-121.935G85X106.27Y-122.735
G05
X114.92Y-118.205G85X114.92Y-119.705
G05
X114.92Y-121.935G85X114.92Y-122.735
G05
M30
